<?xml version="1.0" encoding="utf-8" standalone="no"?>
<!DOCTYPE svg PUBLIC "-//W3C//DTD SVG 1.1//EN"
  "http://www.w3.org/Graphics/SVG/1.1/DTD/svg11.dtd">
<svg xmlns:xlink="http://www.w3.org/1999/xlink" width="432pt" height="432pt" viewBox="0 0 432 432" xmlns="http://www.w3.org/2000/svg" version="1.1">
 <metadata>
  <rdf:RDF xmlns:dc="http://purl.org/dc/elements/1.1/" xmlns:cc="http://creativecommons.org/ns#" xmlns:rdf="http://www.w3.org/1999/02/22-rdf-syntax-ns#">
   <cc:Work>
    <dc:type rdf:resource="http://purl.org/dc/dcmitype/StillImage"/>
    <dc:date>2023-07-17T11:45:07.757661</dc:date>
    <dc:format>image/svg+xml</dc:format>
    <dc:creator>
     <cc:Agent>
      <dc:title>Matplotlib v3.7.1, https://matplotlib.org/</dc:title>
     </cc:Agent>
    </dc:creator>
   </cc:Work>
  </rdf:RDF>
 </metadata>
 <defs>
  <style type="text/css">*{stroke-linejoin: round; stroke-linecap: butt}</style>
 </defs>
 <g id="figure_1">
  <g id="patch_1">
   <path d="M 0 432 
L 432 432 
L 432 0 
L 0 0 
z
" style="fill: #ffffff"/>
  </g>
  <g id="axes_1">
   <g id="patch_2">
    <path d="M 55.08 384.48 
L 387.72 384.48 
L 387.72 51.84 
L 55.08 51.84 
z
" style="fill: #ffffff"/>
   </g>
   <g id="PolyCollection_1">
    <defs>
     <path id="m86189f8b26" d="M 70.2 -62.64 
L 70.2 -62.64 
L 73.254545 -96.686469 
L 76.309091 -124.809507 
L 79.363636 -150.721379 
L 82.418182 -169.836595 
L 85.472727 -169.836595 
L 88.527273 -179.601473 
L 91.581818 -199.262096 
L 94.636364 -210.523827 
L 97.690909 -210.523827 
L 100.745455 -210.523827 
L 103.8 -217.020925 
L 106.854545 -216.784247 
L 109.909091 -231.137004 
L 112.963636 -231.137004 
L 116.018182 -231.137004 
L 119.072727 -235.37692 
L 122.127273 -247.262205 
L 125.181818 -258.553072 
L 128.236364 -258.553072 
L 131.290909 -259.408188 
L 134.345455 -261.590607 
L 137.4 -269.00924 
L 140.454545 -269.999013 
L 143.509091 -269.999013 
L 146.563636 -282.726826 
L 149.618182 -281.628875 
L 152.672727 -281.628875 
L 155.727273 -284.796049 
L 158.781818 -284.796049 
L 161.836364 -288.963786 
L 164.890909 -292.469827 
L 167.945455 -292.73525 
L 171 -294.217533 
L 174.054545 -294.900011 
L 177.109091 -303.616541 
L 180.163636 -303.616541 
L 183.218182 -303.616541 
L 186.272727 -303.616541 
L 189.327273 -305.667805 
L 192.381818 -305.667805 
L 195.436364 -313.904557 
L 198.490909 -319.321919 
L 201.545455 -327.717896 
L 204.6 -329.844336 
L 207.654545 -332.182296 
L 210.709091 -335.124576 
L 213.763636 -335.124576 
L 216.818182 -335.124576 
L 219.872727 -335.85101 
L 222.927273 -335.85101 
L 225.981818 -335.85101 
L 229.036364 -335.85101 
L 232.090909 -336.829626 
L 235.145455 -336.829626 
L 238.2 -336.829626 
L 241.254545 -342.373659 
L 244.309091 -342.373659 
L 247.363636 -342.373659 
L 250.418182 -346.545307 
L 253.472727 -346.545307 
L 256.527273 -348.037758 
L 259.581818 -348.037758 
L 262.636364 -349.865473 
L 265.690909 -349.865473 
L 268.745455 -354.660001 
L 271.8 -354.660001 
L 274.854545 -354.660001 
L 277.909091 -354.660001 
L 280.963636 -354.660001 
L 284.018182 -354.660001 
L 287.072727 -354.660001 
L 290.127273 -354.660001 
L 293.181818 -354.660001 
L 296.236364 -358.32 
L 299.290909 -358.32 
L 302.345455 -358.32 
L 305.4 -358.32 
L 308.454545 -358.32 
L 311.509091 -358.32 
L 314.563636 -358.32 
L 317.618182 -358.32 
L 320.672727 -358.32 
L 323.727273 -358.32 
L 326.781818 -365.04 
L 329.836364 -365.04 
L 332.890909 -365.04 
L 335.945455 -365.04 
L 339 -365.04 
L 342.054545 -365.04 
L 345.109091 -365.04 
L 348.163636 -365.04 
L 351.218182 -365.04 
L 354.272727 -365.04 
L 357.327273 -365.04 
L 360.381818 -365.04 
L 363.436364 -365.04 
L 366.490909 -365.04 
L 369.545455 -365.04 
L 372.6 -365.04 
L 372.6 -365.04 
L 372.6 -365.04 
L 369.545455 -365.04 
L 366.490909 -365.04 
L 363.436364 -365.04 
L 360.381818 -365.04 
L 357.327273 -365.04 
L 354.272727 -365.04 
L 351.218182 -365.04 
L 348.163636 -365.04 
L 345.109091 -365.04 
L 342.054545 -365.04 
L 339 -365.04 
L 335.945455 -365.04 
L 332.890909 -365.04 
L 329.836364 -365.04 
L 326.781818 -365.04 
L 323.727273 -365.04 
L 320.672727 -365.04 
L 317.618182 -365.04 
L 314.563636 -365.04 
L 311.509091 -365.04 
L 308.454545 -365.04 
L 305.4 -365.04 
L 302.345455 -365.04 
L 299.290909 -365.04 
L 296.236364 -365.04 
L 293.181818 -365.04 
L 290.127273 -365.04 
L 287.072727 -365.04 
L 284.018182 -365.04 
L 280.963636 -365.04 
L 277.909091 -365.04 
L 274.854545 -365.04 
L 271.8 -365.04 
L 268.745455 -365.04 
L 265.690909 -365.04 
L 262.636364 -365.04 
L 259.581818 -365.04 
L 256.527273 -365.04 
L 253.472727 -363.177046 
L 250.418182 -363.177046 
L 247.363636 -363.988694 
L 244.309091 -363.988694 
L 241.254545 -363.988694 
L 238.2 -365.04 
L 235.145455 -365.04 
L 232.090909 -365.04 
L 229.036364 -363.791343 
L 225.981818 -363.791343 
L 222.927273 -363.791343 
L 219.872727 -363.791343 
L 216.818182 -361.157777 
L 213.763636 -361.157777 
L 210.709091 -361.157777 
L 207.654545 -360.54241 
L 204.6 -359.520369 
L 201.545455 -358.28681 
L 198.490909 -359.962787 
L 195.436364 -362.020149 
L 192.381818 -359.781606 
L 189.327273 -359.781606 
L 186.272727 -351.555223 
L 183.218182 -351.555223 
L 180.163636 -351.555223 
L 177.109091 -351.555223 
L 174.054545 -350.191754 
L 171 -347.316584 
L 167.945455 -345.438868 
L 164.890909 -342.344291 
L 161.836364 -339.130332 
L 158.781818 -336.578069 
L 155.727273 -336.578069 
L 152.672727 -329.665243 
L 149.618182 -329.665243 
L 146.563636 -318.487292 
L 143.509091 -314.415105 
L 140.454545 -314.415105 
L 137.4 -308.48723 
L 134.345455 -305.628217 
L 131.290909 -301.090636 
L 128.236364 -298.585751 
L 125.181818 -298.585751 
L 122.127273 -296.436618 
L 119.072727 -294.48661 
L 116.018182 -288.646525 
L 112.963636 -288.646525 
L 109.909091 -288.646525 
L 106.854545 -289.361636 
L 103.8 -282.20731 
L 100.745455 -281.786761 
L 97.690909 -281.786761 
L 94.636364 -281.786761 
L 91.581818 -272.493198 
L 88.527273 -261.913821 
L 85.472727 -261.598699 
L 82.418182 -261.598699 
L 79.363636 -243.358621 
L 76.309091 -228.555199 
L 73.254545 -208.847649 
L 70.2 -62.64 
z
" style="stroke: #808080; stroke-opacity: 0.2"/>
    </defs>
    <g clip-path="url(#pd25329e4c9)">
     <use xlink:href="#m86189f8b26" x="0" y="432" style="fill: #808080; fill-opacity: 0.2; stroke: #808080; stroke-opacity: 0.2"/>
    </g>
   </g>
   <g id="matplotlib.axis_1">
    <g id="xtick_1">
     <g id="line2d_1">
      <path d="M 70.2 384.48 
L 70.2 51.84 
" clip-path="url(#pd25329e4c9)" style="fill: none; stroke: #b0b0b0; stroke-width: 0.5; stroke-linecap: square"/>
     </g>
     <g id="line2d_2">
      <defs>
       <path id="m0a8a8a6dd0" d="M 0 0 
L 0 3.5 
" style="stroke: #000000; stroke-width: 0.8"/>
      </defs>
      <g>
       <use xlink:href="#m0a8a8a6dd0" x="70.2" y="384.48" style="stroke: #000000; stroke-width: 0.8"/>
      </g>
     </g>
     <g id="text_1">
      <!-- 0.0 -->
      <g transform="translate(62.248438 399.078438) scale(0.1 -0.1)">
       <defs>
        <path id="DejaVuSans-30" d="M 2034 4250 
Q 1547 4250 1301 3770 
Q 1056 3291 1056 2328 
Q 1056 1369 1301 889 
Q 1547 409 2034 409 
Q 2525 409 2770 889 
Q 3016 1369 3016 2328 
Q 3016 3291 2770 3770 
Q 2525 4250 2034 4250 
z
M 2034 4750 
Q 2819 4750 3233 4129 
Q 3647 3509 3647 2328 
Q 3647 1150 3233 529 
Q 2819 -91 2034 -91 
Q 1250 -91 836 529 
Q 422 1150 422 2328 
Q 422 3509 836 4129 
Q 1250 4750 2034 4750 
z
" transform="scale(0.015625)"/>
        <path id="DejaVuSans-2e" d="M 684 794 
L 1344 794 
L 1344 0 
L 684 0 
L 684 794 
z
" transform="scale(0.015625)"/>
       </defs>
       <use xlink:href="#DejaVuSans-30"/>
       <use xlink:href="#DejaVuSans-2e" x="63.623047"/>
       <use xlink:href="#DejaVuSans-30" x="95.410156"/>
      </g>
     </g>
    </g>
    <g id="xtick_2">
     <g id="line2d_3">
      <path d="M 130.68 384.48 
L 130.68 51.84 
" clip-path="url(#pd25329e4c9)" style="fill: none; stroke: #b0b0b0; stroke-width: 0.5; stroke-linecap: square"/>
     </g>
     <g id="line2d_4">
      <g>
       <use xlink:href="#m0a8a8a6dd0" x="130.68" y="384.48" style="stroke: #000000; stroke-width: 0.8"/>
      </g>
     </g>
     <g id="text_2">
      <!-- 0.2 -->
      <g transform="translate(122.728438 399.078438) scale(0.1 -0.1)">
       <defs>
        <path id="DejaVuSans-32" d="M 1228 531 
L 3431 531 
L 3431 0 
L 469 0 
L 469 531 
Q 828 903 1448 1529 
Q 2069 2156 2228 2338 
Q 2531 2678 2651 2914 
Q 2772 3150 2772 3378 
Q 2772 3750 2511 3984 
Q 2250 4219 1831 4219 
Q 1534 4219 1204 4116 
Q 875 4013 500 3803 
L 500 4441 
Q 881 4594 1212 4672 
Q 1544 4750 1819 4750 
Q 2544 4750 2975 4387 
Q 3406 4025 3406 3419 
Q 3406 3131 3298 2873 
Q 3191 2616 2906 2266 
Q 2828 2175 2409 1742 
Q 1991 1309 1228 531 
z
" transform="scale(0.015625)"/>
       </defs>
       <use xlink:href="#DejaVuSans-30"/>
       <use xlink:href="#DejaVuSans-2e" x="63.623047"/>
       <use xlink:href="#DejaVuSans-32" x="95.410156"/>
      </g>
     </g>
    </g>
    <g id="xtick_3">
     <g id="line2d_5">
      <path d="M 191.16 384.48 
L 191.16 51.84 
" clip-path="url(#pd25329e4c9)" style="fill: none; stroke: #b0b0b0; stroke-width: 0.5; stroke-linecap: square"/>
     </g>
     <g id="line2d_6">
      <g>
       <use xlink:href="#m0a8a8a6dd0" x="191.16" y="384.48" style="stroke: #000000; stroke-width: 0.8"/>
      </g>
     </g>
     <g id="text_3">
      <!-- 0.4 -->
      <g transform="translate(183.208438 399.078438) scale(0.1 -0.1)">
       <defs>
        <path id="DejaVuSans-34" d="M 2419 4116 
L 825 1625 
L 2419 1625 
L 2419 4116 
z
M 2253 4666 
L 3047 4666 
L 3047 1625 
L 3713 1625 
L 3713 1100 
L 3047 1100 
L 3047 0 
L 2419 0 
L 2419 1100 
L 313 1100 
L 313 1709 
L 2253 4666 
z
" transform="scale(0.015625)"/>
       </defs>
       <use xlink:href="#DejaVuSans-30"/>
       <use xlink:href="#DejaVuSans-2e" x="63.623047"/>
       <use xlink:href="#DejaVuSans-34" x="95.410156"/>
      </g>
     </g>
    </g>
    <g id="xtick_4">
     <g id="line2d_7">
      <path d="M 251.64 384.48 
L 251.64 51.84 
" clip-path="url(#pd25329e4c9)" style="fill: none; stroke: #b0b0b0; stroke-width: 0.5; stroke-linecap: square"/>
     </g>
     <g id="line2d_8">
      <g>
       <use xlink:href="#m0a8a8a6dd0" x="251.64" y="384.48" style="stroke: #000000; stroke-width: 0.8"/>
      </g>
     </g>
     <g id="text_4">
      <!-- 0.6 -->
      <g transform="translate(243.688438 399.078438) scale(0.1 -0.1)">
       <defs>
        <path id="DejaVuSans-36" d="M 2113 2584 
Q 1688 2584 1439 2293 
Q 1191 2003 1191 1497 
Q 1191 994 1439 701 
Q 1688 409 2113 409 
Q 2538 409 2786 701 
Q 3034 994 3034 1497 
Q 3034 2003 2786 2293 
Q 2538 2584 2113 2584 
z
M 3366 4563 
L 3366 3988 
Q 3128 4100 2886 4159 
Q 2644 4219 2406 4219 
Q 1781 4219 1451 3797 
Q 1122 3375 1075 2522 
Q 1259 2794 1537 2939 
Q 1816 3084 2150 3084 
Q 2853 3084 3261 2657 
Q 3669 2231 3669 1497 
Q 3669 778 3244 343 
Q 2819 -91 2113 -91 
Q 1303 -91 875 529 
Q 447 1150 447 2328 
Q 447 3434 972 4092 
Q 1497 4750 2381 4750 
Q 2619 4750 2861 4703 
Q 3103 4656 3366 4563 
z
" transform="scale(0.015625)"/>
       </defs>
       <use xlink:href="#DejaVuSans-30"/>
       <use xlink:href="#DejaVuSans-2e" x="63.623047"/>
       <use xlink:href="#DejaVuSans-36" x="95.410156"/>
      </g>
     </g>
    </g>
    <g id="xtick_5">
     <g id="line2d_9">
      <path d="M 312.12 384.48 
L 312.12 51.84 
" clip-path="url(#pd25329e4c9)" style="fill: none; stroke: #b0b0b0; stroke-width: 0.5; stroke-linecap: square"/>
     </g>
     <g id="line2d_10">
      <g>
       <use xlink:href="#m0a8a8a6dd0" x="312.12" y="384.48" style="stroke: #000000; stroke-width: 0.8"/>
      </g>
     </g>
     <g id="text_5">
      <!-- 0.8 -->
      <g transform="translate(304.168437 399.078438) scale(0.1 -0.1)">
       <defs>
        <path id="DejaVuSans-38" d="M 2034 2216 
Q 1584 2216 1326 1975 
Q 1069 1734 1069 1313 
Q 1069 891 1326 650 
Q 1584 409 2034 409 
Q 2484 409 2743 651 
Q 3003 894 3003 1313 
Q 3003 1734 2745 1975 
Q 2488 2216 2034 2216 
z
M 1403 2484 
Q 997 2584 770 2862 
Q 544 3141 544 3541 
Q 544 4100 942 4425 
Q 1341 4750 2034 4750 
Q 2731 4750 3128 4425 
Q 3525 4100 3525 3541 
Q 3525 3141 3298 2862 
Q 3072 2584 2669 2484 
Q 3125 2378 3379 2068 
Q 3634 1759 3634 1313 
Q 3634 634 3220 271 
Q 2806 -91 2034 -91 
Q 1263 -91 848 271 
Q 434 634 434 1313 
Q 434 1759 690 2068 
Q 947 2378 1403 2484 
z
M 1172 3481 
Q 1172 3119 1398 2916 
Q 1625 2713 2034 2713 
Q 2441 2713 2670 2916 
Q 2900 3119 2900 3481 
Q 2900 3844 2670 4047 
Q 2441 4250 2034 4250 
Q 1625 4250 1398 4047 
Q 1172 3844 1172 3481 
z
" transform="scale(0.015625)"/>
       </defs>
       <use xlink:href="#DejaVuSans-30"/>
       <use xlink:href="#DejaVuSans-2e" x="63.623047"/>
       <use xlink:href="#DejaVuSans-38" x="95.410156"/>
      </g>
     </g>
    </g>
    <g id="xtick_6">
     <g id="line2d_11">
      <path d="M 372.6 384.48 
L 372.6 51.84 
" clip-path="url(#pd25329e4c9)" style="fill: none; stroke: #b0b0b0; stroke-width: 0.5; stroke-linecap: square"/>
     </g>
     <g id="line2d_12">
      <g>
       <use xlink:href="#m0a8a8a6dd0" x="372.6" y="384.48" style="stroke: #000000; stroke-width: 0.8"/>
      </g>
     </g>
     <g id="text_6">
      <!-- 1.0 -->
      <g transform="translate(364.648438 399.078438) scale(0.1 -0.1)">
       <defs>
        <path id="DejaVuSans-31" d="M 794 531 
L 1825 531 
L 1825 4091 
L 703 3866 
L 703 4441 
L 1819 4666 
L 2450 4666 
L 2450 531 
L 3481 531 
L 3481 0 
L 794 0 
L 794 531 
z
" transform="scale(0.015625)"/>
       </defs>
       <use xlink:href="#DejaVuSans-31"/>
       <use xlink:href="#DejaVuSans-2e" x="63.623047"/>
       <use xlink:href="#DejaVuSans-30" x="95.410156"/>
      </g>
     </g>
    </g>
    <g id="text_7">
     <!-- False Positive Rate -->
     <g transform="translate(174.933594 412.756563) scale(0.1 -0.1)">
      <defs>
       <path id="DejaVuSans-46" d="M 628 4666 
L 3309 4666 
L 3309 4134 
L 1259 4134 
L 1259 2759 
L 3109 2759 
L 3109 2228 
L 1259 2228 
L 1259 0 
L 628 0 
L 628 4666 
z
" transform="scale(0.015625)"/>
       <path id="DejaVuSans-61" d="M 2194 1759 
Q 1497 1759 1228 1600 
Q 959 1441 959 1056 
Q 959 750 1161 570 
Q 1363 391 1709 391 
Q 2188 391 2477 730 
Q 2766 1069 2766 1631 
L 2766 1759 
L 2194 1759 
z
M 3341 1997 
L 3341 0 
L 2766 0 
L 2766 531 
Q 2569 213 2275 61 
Q 1981 -91 1556 -91 
Q 1019 -91 701 211 
Q 384 513 384 1019 
Q 384 1609 779 1909 
Q 1175 2209 1959 2209 
L 2766 2209 
L 2766 2266 
Q 2766 2663 2505 2880 
Q 2244 3097 1772 3097 
Q 1472 3097 1187 3025 
Q 903 2953 641 2809 
L 641 3341 
Q 956 3463 1253 3523 
Q 1550 3584 1831 3584 
Q 2591 3584 2966 3190 
Q 3341 2797 3341 1997 
z
" transform="scale(0.015625)"/>
       <path id="DejaVuSans-6c" d="M 603 4863 
L 1178 4863 
L 1178 0 
L 603 0 
L 603 4863 
z
" transform="scale(0.015625)"/>
       <path id="DejaVuSans-73" d="M 2834 3397 
L 2834 2853 
Q 2591 2978 2328 3040 
Q 2066 3103 1784 3103 
Q 1356 3103 1142 2972 
Q 928 2841 928 2578 
Q 928 2378 1081 2264 
Q 1234 2150 1697 2047 
L 1894 2003 
Q 2506 1872 2764 1633 
Q 3022 1394 3022 966 
Q 3022 478 2636 193 
Q 2250 -91 1575 -91 
Q 1294 -91 989 -36 
Q 684 19 347 128 
L 347 722 
Q 666 556 975 473 
Q 1284 391 1588 391 
Q 1994 391 2212 530 
Q 2431 669 2431 922 
Q 2431 1156 2273 1281 
Q 2116 1406 1581 1522 
L 1381 1569 
Q 847 1681 609 1914 
Q 372 2147 372 2553 
Q 372 3047 722 3315 
Q 1072 3584 1716 3584 
Q 2034 3584 2315 3537 
Q 2597 3491 2834 3397 
z
" transform="scale(0.015625)"/>
       <path id="DejaVuSans-65" d="M 3597 1894 
L 3597 1613 
L 953 1613 
Q 991 1019 1311 708 
Q 1631 397 2203 397 
Q 2534 397 2845 478 
Q 3156 559 3463 722 
L 3463 178 
Q 3153 47 2828 -22 
Q 2503 -91 2169 -91 
Q 1331 -91 842 396 
Q 353 884 353 1716 
Q 353 2575 817 3079 
Q 1281 3584 2069 3584 
Q 2775 3584 3186 3129 
Q 3597 2675 3597 1894 
z
M 3022 2063 
Q 3016 2534 2758 2815 
Q 2500 3097 2075 3097 
Q 1594 3097 1305 2825 
Q 1016 2553 972 2059 
L 3022 2063 
z
" transform="scale(0.015625)"/>
       <path id="DejaVuSans-20" transform="scale(0.015625)"/>
       <path id="DejaVuSans-50" d="M 1259 4147 
L 1259 2394 
L 2053 2394 
Q 2494 2394 2734 2622 
Q 2975 2850 2975 3272 
Q 2975 3691 2734 3919 
Q 2494 4147 2053 4147 
L 1259 4147 
z
M 628 4666 
L 2053 4666 
Q 2838 4666 3239 4311 
Q 3641 3956 3641 3272 
Q 3641 2581 3239 2228 
Q 2838 1875 2053 1875 
L 1259 1875 
L 1259 0 
L 628 0 
L 628 4666 
z
" transform="scale(0.015625)"/>
       <path id="DejaVuSans-6f" d="M 1959 3097 
Q 1497 3097 1228 2736 
Q 959 2375 959 1747 
Q 959 1119 1226 758 
Q 1494 397 1959 397 
Q 2419 397 2687 759 
Q 2956 1122 2956 1747 
Q 2956 2369 2687 2733 
Q 2419 3097 1959 3097 
z
M 1959 3584 
Q 2709 3584 3137 3096 
Q 3566 2609 3566 1747 
Q 3566 888 3137 398 
Q 2709 -91 1959 -91 
Q 1206 -91 779 398 
Q 353 888 353 1747 
Q 353 2609 779 3096 
Q 1206 3584 1959 3584 
z
" transform="scale(0.015625)"/>
       <path id="DejaVuSans-69" d="M 603 3500 
L 1178 3500 
L 1178 0 
L 603 0 
L 603 3500 
z
M 603 4863 
L 1178 4863 
L 1178 4134 
L 603 4134 
L 603 4863 
z
" transform="scale(0.015625)"/>
       <path id="DejaVuSans-74" d="M 1172 4494 
L 1172 3500 
L 2356 3500 
L 2356 3053 
L 1172 3053 
L 1172 1153 
Q 1172 725 1289 603 
Q 1406 481 1766 481 
L 2356 481 
L 2356 0 
L 1766 0 
Q 1100 0 847 248 
Q 594 497 594 1153 
L 594 3053 
L 172 3053 
L 172 3500 
L 594 3500 
L 594 4494 
L 1172 4494 
z
" transform="scale(0.015625)"/>
       <path id="DejaVuSans-76" d="M 191 3500 
L 800 3500 
L 1894 563 
L 2988 3500 
L 3597 3500 
L 2284 0 
L 1503 0 
L 191 3500 
z
" transform="scale(0.015625)"/>
       <path id="DejaVuSans-52" d="M 2841 2188 
Q 3044 2119 3236 1894 
Q 3428 1669 3622 1275 
L 4263 0 
L 3584 0 
L 2988 1197 
Q 2756 1666 2539 1819 
Q 2322 1972 1947 1972 
L 1259 1972 
L 1259 0 
L 628 0 
L 628 4666 
L 2053 4666 
Q 2853 4666 3247 4331 
Q 3641 3997 3641 3322 
Q 3641 2881 3436 2590 
Q 3231 2300 2841 2188 
z
M 1259 4147 
L 1259 2491 
L 2053 2491 
Q 2509 2491 2742 2702 
Q 2975 2913 2975 3322 
Q 2975 3731 2742 3939 
Q 2509 4147 2053 4147 
L 1259 4147 
z
" transform="scale(0.015625)"/>
      </defs>
      <use xlink:href="#DejaVuSans-46"/>
      <use xlink:href="#DejaVuSans-61" x="48.394531"/>
      <use xlink:href="#DejaVuSans-6c" x="109.673828"/>
      <use xlink:href="#DejaVuSans-73" x="137.457031"/>
      <use xlink:href="#DejaVuSans-65" x="189.556641"/>
      <use xlink:href="#DejaVuSans-20" x="251.080078"/>
      <use xlink:href="#DejaVuSans-50" x="282.867188"/>
      <use xlink:href="#DejaVuSans-6f" x="339.544922"/>
      <use xlink:href="#DejaVuSans-73" x="400.726562"/>
      <use xlink:href="#DejaVuSans-69" x="452.826172"/>
      <use xlink:href="#DejaVuSans-74" x="480.609375"/>
      <use xlink:href="#DejaVuSans-69" x="519.818359"/>
      <use xlink:href="#DejaVuSans-76" x="547.601562"/>
      <use xlink:href="#DejaVuSans-65" x="606.78125"/>
      <use xlink:href="#DejaVuSans-20" x="668.304688"/>
      <use xlink:href="#DejaVuSans-52" x="700.091797"/>
      <use xlink:href="#DejaVuSans-61" x="767.324219"/>
      <use xlink:href="#DejaVuSans-74" x="828.603516"/>
      <use xlink:href="#DejaVuSans-65" x="867.8125"/>
     </g>
    </g>
   </g>
   <g id="matplotlib.axis_2">
    <g id="ytick_1">
     <g id="line2d_13">
      <path d="M 55.08 369.36 
L 387.72 369.36 
" clip-path="url(#pd25329e4c9)" style="fill: none; stroke: #b0b0b0; stroke-width: 0.5; stroke-linecap: square"/>
     </g>
     <g id="line2d_14">
      <defs>
       <path id="md742c1fb18" d="M 0 0 
L -3.5 0 
" style="stroke: #000000; stroke-width: 0.8"/>
      </defs>
      <g>
       <use xlink:href="#md742c1fb18" x="55.08" y="369.36" style="stroke: #000000; stroke-width: 0.8"/>
      </g>
     </g>
     <g id="text_8">
      <!-- 0.0 -->
      <g transform="translate(32.176875 373.159219) scale(0.1 -0.1)">
       <use xlink:href="#DejaVuSans-30"/>
       <use xlink:href="#DejaVuSans-2e" x="63.623047"/>
       <use xlink:href="#DejaVuSans-30" x="95.410156"/>
      </g>
     </g>
    </g>
    <g id="ytick_2">
     <g id="line2d_15">
      <path d="M 55.08 308.88 
L 387.72 308.88 
" clip-path="url(#pd25329e4c9)" style="fill: none; stroke: #b0b0b0; stroke-width: 0.5; stroke-linecap: square"/>
     </g>
     <g id="line2d_16">
      <g>
       <use xlink:href="#md742c1fb18" x="55.08" y="308.88" style="stroke: #000000; stroke-width: 0.8"/>
      </g>
     </g>
     <g id="text_9">
      <!-- 0.2 -->
      <g transform="translate(32.176875 312.679219) scale(0.1 -0.1)">
       <use xlink:href="#DejaVuSans-30"/>
       <use xlink:href="#DejaVuSans-2e" x="63.623047"/>
       <use xlink:href="#DejaVuSans-32" x="95.410156"/>
      </g>
     </g>
    </g>
    <g id="ytick_3">
     <g id="line2d_17">
      <path d="M 55.08 248.4 
L 387.72 248.4 
" clip-path="url(#pd25329e4c9)" style="fill: none; stroke: #b0b0b0; stroke-width: 0.5; stroke-linecap: square"/>
     </g>
     <g id="line2d_18">
      <g>
       <use xlink:href="#md742c1fb18" x="55.08" y="248.4" style="stroke: #000000; stroke-width: 0.8"/>
      </g>
     </g>
     <g id="text_10">
      <!-- 0.4 -->
      <g transform="translate(32.176875 252.199219) scale(0.1 -0.1)">
       <use xlink:href="#DejaVuSans-30"/>
       <use xlink:href="#DejaVuSans-2e" x="63.623047"/>
       <use xlink:href="#DejaVuSans-34" x="95.410156"/>
      </g>
     </g>
    </g>
    <g id="ytick_4">
     <g id="line2d_19">
      <path d="M 55.08 187.92 
L 387.72 187.92 
" clip-path="url(#pd25329e4c9)" style="fill: none; stroke: #b0b0b0; stroke-width: 0.5; stroke-linecap: square"/>
     </g>
     <g id="line2d_20">
      <g>
       <use xlink:href="#md742c1fb18" x="55.08" y="187.92" style="stroke: #000000; stroke-width: 0.8"/>
      </g>
     </g>
     <g id="text_11">
      <!-- 0.6 -->
      <g transform="translate(32.176875 191.719219) scale(0.1 -0.1)">
       <use xlink:href="#DejaVuSans-30"/>
       <use xlink:href="#DejaVuSans-2e" x="63.623047"/>
       <use xlink:href="#DejaVuSans-36" x="95.410156"/>
      </g>
     </g>
    </g>
    <g id="ytick_5">
     <g id="line2d_21">
      <path d="M 55.08 127.44 
L 387.72 127.44 
" clip-path="url(#pd25329e4c9)" style="fill: none; stroke: #b0b0b0; stroke-width: 0.5; stroke-linecap: square"/>
     </g>
     <g id="line2d_22">
      <g>
       <use xlink:href="#md742c1fb18" x="55.08" y="127.44" style="stroke: #000000; stroke-width: 0.8"/>
      </g>
     </g>
     <g id="text_12">
      <!-- 0.8 -->
      <g transform="translate(32.176875 131.239219) scale(0.1 -0.1)">
       <use xlink:href="#DejaVuSans-30"/>
       <use xlink:href="#DejaVuSans-2e" x="63.623047"/>
       <use xlink:href="#DejaVuSans-38" x="95.410156"/>
      </g>
     </g>
    </g>
    <g id="ytick_6">
     <g id="line2d_23">
      <path d="M 55.08 66.96 
L 387.72 66.96 
" clip-path="url(#pd25329e4c9)" style="fill: none; stroke: #b0b0b0; stroke-width: 0.5; stroke-linecap: square"/>
     </g>
     <g id="line2d_24">
      <g>
       <use xlink:href="#md742c1fb18" x="55.08" y="66.96" style="stroke: #000000; stroke-width: 0.8"/>
      </g>
     </g>
     <g id="text_13">
      <!-- 1.0 -->
      <g transform="translate(32.176875 70.759219) scale(0.1 -0.1)">
       <use xlink:href="#DejaVuSans-31"/>
       <use xlink:href="#DejaVuSans-2e" x="63.623047"/>
       <use xlink:href="#DejaVuSans-30" x="95.410156"/>
      </g>
     </g>
    </g>
    <g id="text_14">
     <!-- True Positive Rate -->
     <g transform="translate(26.097187 262.689687) rotate(-90) scale(0.1 -0.1)">
      <defs>
       <path id="DejaVuSans-54" d="M -19 4666 
L 3928 4666 
L 3928 4134 
L 2272 4134 
L 2272 0 
L 1638 0 
L 1638 4134 
L -19 4134 
L -19 4666 
z
" transform="scale(0.015625)"/>
       <path id="DejaVuSans-72" d="M 2631 2963 
Q 2534 3019 2420 3045 
Q 2306 3072 2169 3072 
Q 1681 3072 1420 2755 
Q 1159 2438 1159 1844 
L 1159 0 
L 581 0 
L 581 3500 
L 1159 3500 
L 1159 2956 
Q 1341 3275 1631 3429 
Q 1922 3584 2338 3584 
Q 2397 3584 2469 3576 
Q 2541 3569 2628 3553 
L 2631 2963 
z
" transform="scale(0.015625)"/>
       <path id="DejaVuSans-75" d="M 544 1381 
L 544 3500 
L 1119 3500 
L 1119 1403 
Q 1119 906 1312 657 
Q 1506 409 1894 409 
Q 2359 409 2629 706 
Q 2900 1003 2900 1516 
L 2900 3500 
L 3475 3500 
L 3475 0 
L 2900 0 
L 2900 538 
Q 2691 219 2414 64 
Q 2138 -91 1772 -91 
Q 1169 -91 856 284 
Q 544 659 544 1381 
z
M 1991 3584 
L 1991 3584 
z
" transform="scale(0.015625)"/>
      </defs>
      <use xlink:href="#DejaVuSans-54"/>
      <use xlink:href="#DejaVuSans-72" x="46.333984"/>
      <use xlink:href="#DejaVuSans-75" x="87.447266"/>
      <use xlink:href="#DejaVuSans-65" x="150.826172"/>
      <use xlink:href="#DejaVuSans-20" x="212.349609"/>
      <use xlink:href="#DejaVuSans-50" x="244.136719"/>
      <use xlink:href="#DejaVuSans-6f" x="300.814453"/>
      <use xlink:href="#DejaVuSans-73" x="361.996094"/>
      <use xlink:href="#DejaVuSans-69" x="414.095703"/>
      <use xlink:href="#DejaVuSans-74" x="441.878906"/>
      <use xlink:href="#DejaVuSans-69" x="481.087891"/>
      <use xlink:href="#DejaVuSans-76" x="508.871094"/>
      <use xlink:href="#DejaVuSans-65" x="568.050781"/>
      <use xlink:href="#DejaVuSans-20" x="629.574219"/>
      <use xlink:href="#DejaVuSans-52" x="661.361328"/>
      <use xlink:href="#DejaVuSans-61" x="728.59375"/>
      <use xlink:href="#DejaVuSans-74" x="789.873047"/>
      <use xlink:href="#DejaVuSans-65" x="829.082031"/>
     </g>
    </g>
   </g>
   <g id="line2d_25">
    <path d="M 70.2 369.36 
L 74.076923 369.36 
L 74.076923 352.56 
L 77.953846 352.56 
L 77.953846 302.16 
L 81.830769 302.16 
L 81.830769 234.96 
L 85.707692 234.96 
L 85.707692 218.16 
L 89.584615 218.16 
L 89.584615 201.36 
L 93.461538 201.36 
L 93.461538 134.16 
L 143.861538 134.16 
L 143.861538 117.36 
L 171 117.36 
L 171 100.56 
L 186.507692 100.56 
L 186.507692 83.76 
L 326.076923 83.76 
L 326.076923 66.96 
L 329.953846 66.96 
L 353.215385 66.96 
L 372.6 66.96 
" clip-path="url(#pd25329e4c9)" style="fill: none; stroke: #1f77b4; stroke-opacity: 0.3; stroke-linecap: square"/>
   </g>
   <g id="line2d_26">
    <path d="M 70.2 369.36 
L 70.2 351.571765 
L 70.2 191.477647 
L 77.855696 191.477647 
L 77.855696 173.689412 
L 81.683544 173.689412 
L 81.683544 138.112941 
L 104.650633 138.112941 
L 104.650633 120.324706 
L 139.101266 120.324706 
L 139.101266 102.536471 
L 173.551899 102.536471 
L 173.551899 84.748235 
L 188.863291 84.748235 
L 188.863291 66.96 
L 341.977215 66.96 
L 372.6 66.96 
" clip-path="url(#pd25329e4c9)" style="fill: none; stroke: #ff7f0e; stroke-opacity: 0.3; stroke-linecap: square"/>
   </g>
   <g id="line2d_27">
    <path d="M 70.2 369.36 
L 70.2 351.571765 
L 74.027848 351.571765 
L 74.027848 280.418824 
L 77.855696 280.418824 
L 77.855696 262.630588 
L 93.167089 262.630588 
L 93.167089 227.054118 
L 100.822785 227.054118 
L 100.822785 209.265882 
L 108.478481 209.265882 
L 108.478481 191.477647 
L 119.962025 191.477647 
L 119.962025 155.901176 
L 135.273418 155.901176 
L 135.273418 138.112941 
L 192.691139 138.112941 
L 192.691139 102.536471 
L 208.002532 102.536471 
L 208.002532 84.748235 
L 296.043038 84.748235 
L 296.043038 66.96 
L 349.632911 66.96 
L 364.944304 66.96 
L 372.6 66.96 
" clip-path="url(#pd25329e4c9)" style="fill: none; stroke: #2ca02c; stroke-opacity: 0.3; stroke-linecap: square"/>
   </g>
   <g id="line2d_28">
    <path d="M 70.2 369.36 
L 70.2 352.56 
L 70.2 335.76 
L 77.953846 335.76 
L 77.953846 318.96 
L 81.830769 318.96 
L 81.830769 302.16 
L 85.707692 302.16 
L 85.707692 285.36 
L 89.584615 285.36 
L 89.584615 251.76 
L 108.969231 251.76 
L 108.969231 218.16 
L 120.6 218.16 
L 120.6 201.36 
L 124.476923 201.36 
L 124.476923 184.56 
L 143.861538 184.56 
L 143.861538 117.36 
L 147.738462 117.36 
L 147.738462 83.76 
L 155.492308 83.76 
L 155.492308 66.96 
L 337.707692 66.96 
L 372.6 66.96 
" clip-path="url(#pd25329e4c9)" style="fill: none; stroke: #d62728; stroke-opacity: 0.3; stroke-linecap: square"/>
   </g>
   <g id="line2d_29">
    <path d="M 70.2 369.36 
L 70.2 352.56 
L 70.2 302.16 
L 74.076923 302.16 
L 74.076923 234.96 
L 81.830769 234.96 
L 81.830769 167.76 
L 105.092308 167.76 
L 105.092308 150.96 
L 128.353846 150.96 
L 128.353846 134.16 
L 132.230769 134.16 
L 132.230769 117.36 
L 147.738462 117.36 
L 147.738462 100.56 
L 167.123077 100.56 
L 167.123077 83.76 
L 267.923077 83.76 
L 267.923077 66.96 
L 345.461538 66.96 
L 353.215385 66.96 
L 357.092308 66.96 
L 372.6 66.96 
" clip-path="url(#pd25329e4c9)" style="fill: none; stroke: #9467bd; stroke-opacity: 0.3; stroke-linecap: square"/>
   </g>
   <g id="line2d_30">
    <path d="M 70.2 369.36 
L 70.2 352.56 
L 70.2 251.76 
L 74.076923 251.76 
L 74.076923 218.16 
L 77.953846 218.16 
L 77.953846 201.36 
L 89.584615 201.36 
L 89.584615 167.76 
L 116.723077 167.76 
L 116.723077 150.96 
L 139.984615 150.96 
L 139.984615 134.16 
L 155.492308 134.16 
L 155.492308 117.36 
L 240.784615 117.36 
L 240.784615 100.56 
L 248.538462 100.56 
L 248.538462 83.76 
L 256.292308 83.76 
L 256.292308 66.96 
L 349.338462 66.96 
L 357.092308 66.96 
L 368.723077 66.96 
L 372.6 66.96 
" clip-path="url(#pd25329e4c9)" style="fill: none; stroke: #8c564b; stroke-opacity: 0.3; stroke-linecap: square"/>
   </g>
   <g id="line2d_31">
    <path d="M 70.2 369.36 
L 70.2 352.56 
L 70.2 234.96 
L 74.076923 234.96 
L 74.076923 201.36 
L 89.584615 201.36 
L 89.584615 184.56 
L 116.723077 184.56 
L 116.723077 167.76 
L 132.230769 167.76 
L 132.230769 150.96 
L 155.492308 150.96 
L 155.492308 134.16 
L 163.246154 134.16 
L 163.246154 117.36 
L 174.876923 117.36 
L 174.876923 100.56 
L 186.507692 100.56 
L 186.507692 83.76 
L 217.523077 83.76 
L 217.523077 66.96 
L 306.692308 66.96 
L 314.446154 66.96 
L 333.830769 66.96 
L 353.215385 66.96 
L 364.846154 66.96 
L 372.6 66.96 
" clip-path="url(#pd25329e4c9)" style="fill: none; stroke: #e377c2; stroke-opacity: 0.3; stroke-linecap: square"/>
   </g>
   <g id="line2d_32">
    <path d="M 70.2 369.36 
L 70.2 352.56 
L 70.2 268.56 
L 77.953846 268.56 
L 77.953846 184.56 
L 108.969231 184.56 
L 108.969231 167.76 
L 116.723077 167.76 
L 116.723077 150.96 
L 124.476923 150.96 
L 124.476923 134.16 
L 159.369231 134.16 
L 159.369231 117.36 
L 163.246154 117.36 
L 163.246154 100.56 
L 194.261538 100.56 
L 194.261538 83.76 
L 260.169231 83.76 
L 260.169231 66.96 
L 314.446154 66.96 
L 322.2 66.96 
L 333.830769 66.96 
L 345.461538 66.96 
L 349.338462 66.96 
L 360.969231 66.96 
L 368.723077 66.96 
L 372.6 66.96 
" clip-path="url(#pd25329e4c9)" style="fill: none; stroke: #7f7f7f; stroke-opacity: 0.3; stroke-linecap: square"/>
   </g>
   <g id="line2d_33">
    <path d="M 70.2 369.36 
L 70.2 352.56 
L 70.2 268.56 
L 74.127273 268.56 
L 74.127273 251.76 
L 85.909091 251.76 
L 85.909091 234.96 
L 89.836364 234.96 
L 89.836364 218.16 
L 101.618182 218.16 
L 101.618182 201.36 
L 125.181818 201.36 
L 125.181818 184.56 
L 136.963636 184.56 
L 136.963636 167.76 
L 176.236364 167.76 
L 176.236364 150.96 
L 195.872727 150.96 
L 195.872727 134.16 
L 199.8 134.16 
L 199.8 100.56 
L 203.727273 100.56 
L 203.727273 83.76 
L 231.218182 83.76 
L 231.218182 66.96 
L 360.818182 66.96 
L 372.6 66.96 
" clip-path="url(#pd25329e4c9)" style="fill: none; stroke: #bcbd22; stroke-opacity: 0.3; stroke-linecap: square"/>
   </g>
   <g id="line2d_34">
    <path d="M 70.2 369.36 
L 70.2 352.56 
L 70.2 218.16 
L 89.836364 218.16 
L 89.836364 184.56 
L 121.254545 184.56 
L 121.254545 167.76 
L 125.181818 167.76 
L 125.181818 150.96 
L 136.963636 150.96 
L 136.963636 134.16 
L 160.527273 134.16 
L 160.527273 117.36 
L 176.236364 117.36 
L 176.236364 100.56 
L 207.654545 100.56 
L 207.654545 83.76 
L 266.563636 83.76 
L 266.563636 66.96 
L 294.054545 66.96 
L 301.909091 66.96 
L 333.327273 66.96 
L 345.109091 66.96 
L 364.745455 66.96 
L 372.6 66.96 
" clip-path="url(#pd25329e4c9)" style="fill: none; stroke: #17becf; stroke-opacity: 0.3; stroke-linecap: square"/>
   </g>
   <g id="line2d_35">
    <path d="M 70.2 369.36 
L 372.6 66.96 
" clip-path="url(#pd25329e4c9)" style="fill: none; stroke-dasharray: 5.55,2.4; stroke-dashoffset: 0; stroke: #000000; stroke-width: 1.5"/>
   </g>
   <g id="line2d_36">
    <path d="M 70.2 369.36 
L 73.254545 279.232941 
L 76.309091 255.317647 
L 79.363636 234.96 
L 82.418182 216.282353 
L 85.472727 216.282353 
L 88.527273 211.242353 
L 91.581818 196.122353 
L 94.636364 185.844706 
L 97.690909 185.844706 
L 100.745455 185.844706 
L 103.8 182.385882 
L 106.854545 178.927059 
L 109.909091 172.108235 
L 112.963636 172.108235 
L 116.018182 172.108235 
L 119.072727 167.068235 
L 122.127273 160.150588 
L 125.181818 153.430588 
L 128.236364 153.430588 
L 131.290909 151.750588 
L 134.345455 148.390588 
L 137.4 143.251765 
L 140.454545 139.792941 
L 143.509091 139.792941 
L 146.563636 131.392941 
L 149.618182 126.352941 
L 152.672727 126.352941 
L 155.727273 121.312941 
L 158.781818 121.312941 
L 161.836364 117.952941 
L 164.890909 114.592941 
L 167.945455 112.912941 
L 171 111.232941 
L 174.054545 109.454118 
L 177.109091 104.414118 
L 180.163636 104.414118 
L 183.218182 104.414118 
L 186.272727 104.414118 
L 189.327273 99.275294 
L 192.381818 99.275294 
L 195.436364 94.037647 
L 198.490909 92.357647 
L 201.545455 88.997647 
L 204.6 87.317647 
L 207.654545 85.637647 
L 210.709091 83.858824 
L 213.763636 83.858824 
L 216.818182 83.858824 
L 219.872727 82.178824 
L 222.927273 82.178824 
L 225.981818 82.178824 
L 229.036364 82.178824 
L 232.090909 80.498824 
L 235.145455 80.498824 
L 238.2 80.498824 
L 241.254545 78.818824 
L 244.309091 78.818824 
L 247.363636 78.818824 
L 250.418182 77.138824 
L 253.472727 77.138824 
L 256.527273 75.458824 
L 259.581818 75.458824 
L 262.636364 73.778824 
L 265.690909 73.778824 
L 268.745455 70.418824 
L 271.8 70.418824 
L 274.854545 70.418824 
L 277.909091 70.418824 
L 280.963636 70.418824 
L 284.018182 70.418824 
L 287.072727 70.418824 
L 290.127273 70.418824 
L 293.181818 70.418824 
L 296.236364 68.64 
L 299.290909 68.64 
L 302.345455 68.64 
L 305.4 68.64 
L 308.454545 68.64 
L 311.509091 68.64 
L 314.563636 68.64 
L 317.618182 68.64 
L 320.672727 68.64 
L 323.727273 68.64 
L 326.781818 66.96 
L 329.836364 66.96 
L 332.890909 66.96 
L 335.945455 66.96 
L 339 66.96 
L 342.054545 66.96 
L 345.109091 66.96 
L 348.163636 66.96 
L 351.218182 66.96 
L 354.272727 66.96 
L 357.327273 66.96 
L 360.381818 66.96 
L 363.436364 66.96 
L 366.490909 66.96 
L 369.545455 66.96 
L 372.6 66.96 
" clip-path="url(#pd25329e4c9)" style="fill: none; stroke: #0000ff; stroke-opacity: 0.8; stroke-width: 2; stroke-linecap: square"/>
   </g>
   <g id="patch_3">
    <path d="M 55.08 384.48 
L 55.08 51.84 
" style="fill: none; stroke: #000000; stroke-width: 0.8; stroke-linejoin: miter; stroke-linecap: square"/>
   </g>
   <g id="patch_4">
    <path d="M 387.72 384.48 
L 387.72 51.84 
" style="fill: none; stroke: #000000; stroke-width: 0.8; stroke-linejoin: miter; stroke-linecap: square"/>
   </g>
   <g id="patch_5">
    <path d="M 55.08 384.48 
L 387.72 384.48 
" style="fill: none; stroke: #000000; stroke-width: 0.8; stroke-linejoin: miter; stroke-linecap: square"/>
   </g>
   <g id="patch_6">
    <path d="M 55.08 51.84 
L 387.72 51.84 
" style="fill: none; stroke: #000000; stroke-width: 0.8; stroke-linejoin: miter; stroke-linecap: square"/>
   </g>
   <g id="text_15">
    <!-- Mean ROC curve with variability of 10 folds in A vs rest -->
    <g transform="translate(56.147812 45.84) scale(0.12 -0.12)">
     <defs>
      <path id="DejaVuSans-4d" d="M 628 4666 
L 1569 4666 
L 2759 1491 
L 3956 4666 
L 4897 4666 
L 4897 0 
L 4281 0 
L 4281 4097 
L 3078 897 
L 2444 897 
L 1241 4097 
L 1241 0 
L 628 0 
L 628 4666 
z
" transform="scale(0.015625)"/>
      <path id="DejaVuSans-6e" d="M 3513 2113 
L 3513 0 
L 2938 0 
L 2938 2094 
Q 2938 2591 2744 2837 
Q 2550 3084 2163 3084 
Q 1697 3084 1428 2787 
Q 1159 2491 1159 1978 
L 1159 0 
L 581 0 
L 581 3500 
L 1159 3500 
L 1159 2956 
Q 1366 3272 1645 3428 
Q 1925 3584 2291 3584 
Q 2894 3584 3203 3211 
Q 3513 2838 3513 2113 
z
" transform="scale(0.015625)"/>
      <path id="DejaVuSans-4f" d="M 2522 4238 
Q 1834 4238 1429 3725 
Q 1025 3213 1025 2328 
Q 1025 1447 1429 934 
Q 1834 422 2522 422 
Q 3209 422 3611 934 
Q 4013 1447 4013 2328 
Q 4013 3213 3611 3725 
Q 3209 4238 2522 4238 
z
M 2522 4750 
Q 3503 4750 4090 4092 
Q 4678 3434 4678 2328 
Q 4678 1225 4090 567 
Q 3503 -91 2522 -91 
Q 1538 -91 948 565 
Q 359 1222 359 2328 
Q 359 3434 948 4092 
Q 1538 4750 2522 4750 
z
" transform="scale(0.015625)"/>
      <path id="DejaVuSans-43" d="M 4122 4306 
L 4122 3641 
Q 3803 3938 3442 4084 
Q 3081 4231 2675 4231 
Q 1875 4231 1450 3742 
Q 1025 3253 1025 2328 
Q 1025 1406 1450 917 
Q 1875 428 2675 428 
Q 3081 428 3442 575 
Q 3803 722 4122 1019 
L 4122 359 
Q 3791 134 3420 21 
Q 3050 -91 2638 -91 
Q 1578 -91 968 557 
Q 359 1206 359 2328 
Q 359 3453 968 4101 
Q 1578 4750 2638 4750 
Q 3056 4750 3426 4639 
Q 3797 4528 4122 4306 
z
" transform="scale(0.015625)"/>
      <path id="DejaVuSans-63" d="M 3122 3366 
L 3122 2828 
Q 2878 2963 2633 3030 
Q 2388 3097 2138 3097 
Q 1578 3097 1268 2742 
Q 959 2388 959 1747 
Q 959 1106 1268 751 
Q 1578 397 2138 397 
Q 2388 397 2633 464 
Q 2878 531 3122 666 
L 3122 134 
Q 2881 22 2623 -34 
Q 2366 -91 2075 -91 
Q 1284 -91 818 406 
Q 353 903 353 1747 
Q 353 2603 823 3093 
Q 1294 3584 2113 3584 
Q 2378 3584 2631 3529 
Q 2884 3475 3122 3366 
z
" transform="scale(0.015625)"/>
      <path id="DejaVuSans-77" d="M 269 3500 
L 844 3500 
L 1563 769 
L 2278 3500 
L 2956 3500 
L 3675 769 
L 4391 3500 
L 4966 3500 
L 4050 0 
L 3372 0 
L 2619 2869 
L 1863 0 
L 1184 0 
L 269 3500 
z
" transform="scale(0.015625)"/>
      <path id="DejaVuSans-68" d="M 3513 2113 
L 3513 0 
L 2938 0 
L 2938 2094 
Q 2938 2591 2744 2837 
Q 2550 3084 2163 3084 
Q 1697 3084 1428 2787 
Q 1159 2491 1159 1978 
L 1159 0 
L 581 0 
L 581 4863 
L 1159 4863 
L 1159 2956 
Q 1366 3272 1645 3428 
Q 1925 3584 2291 3584 
Q 2894 3584 3203 3211 
Q 3513 2838 3513 2113 
z
" transform="scale(0.015625)"/>
      <path id="DejaVuSans-62" d="M 3116 1747 
Q 3116 2381 2855 2742 
Q 2594 3103 2138 3103 
Q 1681 3103 1420 2742 
Q 1159 2381 1159 1747 
Q 1159 1113 1420 752 
Q 1681 391 2138 391 
Q 2594 391 2855 752 
Q 3116 1113 3116 1747 
z
M 1159 2969 
Q 1341 3281 1617 3432 
Q 1894 3584 2278 3584 
Q 2916 3584 3314 3078 
Q 3713 2572 3713 1747 
Q 3713 922 3314 415 
Q 2916 -91 2278 -91 
Q 1894 -91 1617 61 
Q 1341 213 1159 525 
L 1159 0 
L 581 0 
L 581 4863 
L 1159 4863 
L 1159 2969 
z
" transform="scale(0.015625)"/>
      <path id="DejaVuSans-79" d="M 2059 -325 
Q 1816 -950 1584 -1140 
Q 1353 -1331 966 -1331 
L 506 -1331 
L 506 -850 
L 844 -850 
Q 1081 -850 1212 -737 
Q 1344 -625 1503 -206 
L 1606 56 
L 191 3500 
L 800 3500 
L 1894 763 
L 2988 3500 
L 3597 3500 
L 2059 -325 
z
" transform="scale(0.015625)"/>
      <path id="DejaVuSans-66" d="M 2375 4863 
L 2375 4384 
L 1825 4384 
Q 1516 4384 1395 4259 
Q 1275 4134 1275 3809 
L 1275 3500 
L 2222 3500 
L 2222 3053 
L 1275 3053 
L 1275 0 
L 697 0 
L 697 3053 
L 147 3053 
L 147 3500 
L 697 3500 
L 697 3744 
Q 697 4328 969 4595 
Q 1241 4863 1831 4863 
L 2375 4863 
z
" transform="scale(0.015625)"/>
      <path id="DejaVuSans-64" d="M 2906 2969 
L 2906 4863 
L 3481 4863 
L 3481 0 
L 2906 0 
L 2906 525 
Q 2725 213 2448 61 
Q 2172 -91 1784 -91 
Q 1150 -91 751 415 
Q 353 922 353 1747 
Q 353 2572 751 3078 
Q 1150 3584 1784 3584 
Q 2172 3584 2448 3432 
Q 2725 3281 2906 2969 
z
M 947 1747 
Q 947 1113 1208 752 
Q 1469 391 1925 391 
Q 2381 391 2643 752 
Q 2906 1113 2906 1747 
Q 2906 2381 2643 2742 
Q 2381 3103 1925 3103 
Q 1469 3103 1208 2742 
Q 947 2381 947 1747 
z
" transform="scale(0.015625)"/>
      <path id="DejaVuSans-41" d="M 2188 4044 
L 1331 1722 
L 3047 1722 
L 2188 4044 
z
M 1831 4666 
L 2547 4666 
L 4325 0 
L 3669 0 
L 3244 1197 
L 1141 1197 
L 716 0 
L 50 0 
L 1831 4666 
z
" transform="scale(0.015625)"/>
     </defs>
     <use xlink:href="#DejaVuSans-4d"/>
     <use xlink:href="#DejaVuSans-65" x="86.279297"/>
     <use xlink:href="#DejaVuSans-61" x="147.802734"/>
     <use xlink:href="#DejaVuSans-6e" x="209.082031"/>
     <use xlink:href="#DejaVuSans-20" x="272.460938"/>
     <use xlink:href="#DejaVuSans-52" x="304.248047"/>
     <use xlink:href="#DejaVuSans-4f" x="373.730469"/>
     <use xlink:href="#DejaVuSans-43" x="452.441406"/>
     <use xlink:href="#DejaVuSans-20" x="522.265625"/>
     <use xlink:href="#DejaVuSans-63" x="554.052734"/>
     <use xlink:href="#DejaVuSans-75" x="609.033203"/>
     <use xlink:href="#DejaVuSans-72" x="672.412109"/>
     <use xlink:href="#DejaVuSans-76" x="713.525391"/>
     <use xlink:href="#DejaVuSans-65" x="772.705078"/>
     <use xlink:href="#DejaVuSans-20" x="834.228516"/>
     <use xlink:href="#DejaVuSans-77" x="866.015625"/>
     <use xlink:href="#DejaVuSans-69" x="947.802734"/>
     <use xlink:href="#DejaVuSans-74" x="975.585938"/>
     <use xlink:href="#DejaVuSans-68" x="1014.794922"/>
     <use xlink:href="#DejaVuSans-20" x="1078.173828"/>
     <use xlink:href="#DejaVuSans-76" x="1109.960938"/>
     <use xlink:href="#DejaVuSans-61" x="1169.140625"/>
     <use xlink:href="#DejaVuSans-72" x="1230.419922"/>
     <use xlink:href="#DejaVuSans-69" x="1271.533203"/>
     <use xlink:href="#DejaVuSans-61" x="1299.316406"/>
     <use xlink:href="#DejaVuSans-62" x="1360.595703"/>
     <use xlink:href="#DejaVuSans-69" x="1424.072266"/>
     <use xlink:href="#DejaVuSans-6c" x="1451.855469"/>
     <use xlink:href="#DejaVuSans-69" x="1479.638672"/>
     <use xlink:href="#DejaVuSans-74" x="1507.421875"/>
     <use xlink:href="#DejaVuSans-79" x="1546.630859"/>
     <use xlink:href="#DejaVuSans-20" x="1605.810547"/>
     <use xlink:href="#DejaVuSans-6f" x="1637.597656"/>
     <use xlink:href="#DejaVuSans-66" x="1698.779297"/>
     <use xlink:href="#DejaVuSans-20" x="1733.984375"/>
     <use xlink:href="#DejaVuSans-31" x="1765.771484"/>
     <use xlink:href="#DejaVuSans-30" x="1829.394531"/>
     <use xlink:href="#DejaVuSans-20" x="1893.017578"/>
     <use xlink:href="#DejaVuSans-66" x="1924.804688"/>
     <use xlink:href="#DejaVuSans-6f" x="1960.009766"/>
     <use xlink:href="#DejaVuSans-6c" x="2021.191406"/>
     <use xlink:href="#DejaVuSans-64" x="2048.974609"/>
     <use xlink:href="#DejaVuSans-73" x="2112.451172"/>
     <use xlink:href="#DejaVuSans-20" x="2164.550781"/>
     <use xlink:href="#DejaVuSans-69" x="2196.337891"/>
     <use xlink:href="#DejaVuSans-6e" x="2224.121094"/>
     <use xlink:href="#DejaVuSans-20" x="2287.5"/>
     <use xlink:href="#DejaVuSans-41" x="2319.287109"/>
     <use xlink:href="#DejaVuSans-20" x="2387.695312"/>
     <use xlink:href="#DejaVuSans-76" x="2419.482422"/>
     <use xlink:href="#DejaVuSans-73" x="2478.662109"/>
     <use xlink:href="#DejaVuSans-20" x="2530.761719"/>
     <use xlink:href="#DejaVuSans-72" x="2562.548828"/>
     <use xlink:href="#DejaVuSans-65" x="2601.412109"/>
     <use xlink:href="#DejaVuSans-73" x="2662.935547"/>
     <use xlink:href="#DejaVuSans-74" x="2715.035156"/>
    </g>
   </g>
   <g id="legend_1">
    <g id="patch_7">
     <path d="M 190.62 379.48 
L 380.72 379.48 
Q 382.72 379.48 382.72 377.48 
L 382.72 187.664375 
Q 382.72 185.664375 380.72 185.664375 
L 190.62 185.664375 
Q 188.62 185.664375 188.62 187.664375 
L 188.62 377.48 
Q 188.62 379.48 190.62 379.48 
z
" style="fill: #ffffff; opacity: 0.8; stroke: #cccccc; stroke-linejoin: miter"/>
    </g>
    <g id="line2d_37">
     <path d="M 192.62 193.762813 
L 202.62 193.762813 
L 212.62 193.762813 
" style="fill: none; stroke: #1f77b4; stroke-opacity: 0.3; stroke-linecap: square"/>
    </g>
    <g id="text_16">
     <!-- ROC fold 0 (AUC = 0.86) -->
     <g transform="translate(220.62 197.262813) scale(0.1 -0.1)">
      <defs>
       <path id="DejaVuSans-28" d="M 1984 4856 
Q 1566 4138 1362 3434 
Q 1159 2731 1159 2009 
Q 1159 1288 1364 580 
Q 1569 -128 1984 -844 
L 1484 -844 
Q 1016 -109 783 600 
Q 550 1309 550 2009 
Q 550 2706 781 3412 
Q 1013 4119 1484 4856 
L 1984 4856 
z
" transform="scale(0.015625)"/>
       <path id="DejaVuSans-55" d="M 556 4666 
L 1191 4666 
L 1191 1831 
Q 1191 1081 1462 751 
Q 1734 422 2344 422 
Q 2950 422 3222 751 
Q 3494 1081 3494 1831 
L 3494 4666 
L 4128 4666 
L 4128 1753 
Q 4128 841 3676 375 
Q 3225 -91 2344 -91 
Q 1459 -91 1007 375 
Q 556 841 556 1753 
L 556 4666 
z
" transform="scale(0.015625)"/>
       <path id="DejaVuSans-3d" d="M 678 2906 
L 4684 2906 
L 4684 2381 
L 678 2381 
L 678 2906 
z
M 678 1631 
L 4684 1631 
L 4684 1100 
L 678 1100 
L 678 1631 
z
" transform="scale(0.015625)"/>
       <path id="DejaVuSans-29" d="M 513 4856 
L 1013 4856 
Q 1481 4119 1714 3412 
Q 1947 2706 1947 2009 
Q 1947 1309 1714 600 
Q 1481 -109 1013 -844 
L 513 -844 
Q 928 -128 1133 580 
Q 1338 1288 1338 2009 
Q 1338 2731 1133 3434 
Q 928 4138 513 4856 
z
" transform="scale(0.015625)"/>
      </defs>
      <use xlink:href="#DejaVuSans-52"/>
      <use xlink:href="#DejaVuSans-4f" x="69.482422"/>
      <use xlink:href="#DejaVuSans-43" x="148.193359"/>
      <use xlink:href="#DejaVuSans-20" x="218.017578"/>
      <use xlink:href="#DejaVuSans-66" x="249.804688"/>
      <use xlink:href="#DejaVuSans-6f" x="285.009766"/>
      <use xlink:href="#DejaVuSans-6c" x="346.191406"/>
      <use xlink:href="#DejaVuSans-64" x="373.974609"/>
      <use xlink:href="#DejaVuSans-20" x="437.451172"/>
      <use xlink:href="#DejaVuSans-30" x="469.238281"/>
      <use xlink:href="#DejaVuSans-20" x="532.861328"/>
      <use xlink:href="#DejaVuSans-28" x="564.648438"/>
      <use xlink:href="#DejaVuSans-41" x="603.662109"/>
      <use xlink:href="#DejaVuSans-55" x="672.070312"/>
      <use xlink:href="#DejaVuSans-43" x="745.263672"/>
      <use xlink:href="#DejaVuSans-20" x="815.087891"/>
      <use xlink:href="#DejaVuSans-3d" x="846.875"/>
      <use xlink:href="#DejaVuSans-20" x="930.664062"/>
      <use xlink:href="#DejaVuSans-30" x="962.451172"/>
      <use xlink:href="#DejaVuSans-2e" x="1026.074219"/>
      <use xlink:href="#DejaVuSans-38" x="1057.861328"/>
      <use xlink:href="#DejaVuSans-36" x="1121.484375"/>
      <use xlink:href="#DejaVuSans-29" x="1185.107422"/>
     </g>
    </g>
    <g id="line2d_38">
     <path d="M 192.62 208.440938 
L 202.62 208.440938 
L 212.62 208.440938 
" style="fill: none; stroke: #ff7f0e; stroke-opacity: 0.3; stroke-linecap: square"/>
    </g>
    <g id="text_17">
     <!-- ROC fold 1 (AUC = 0.93) -->
     <g transform="translate(220.62 211.940938) scale(0.1 -0.1)">
      <defs>
       <path id="DejaVuSans-39" d="M 703 97 
L 703 672 
Q 941 559 1184 500 
Q 1428 441 1663 441 
Q 2288 441 2617 861 
Q 2947 1281 2994 2138 
Q 2813 1869 2534 1725 
Q 2256 1581 1919 1581 
Q 1219 1581 811 2004 
Q 403 2428 403 3163 
Q 403 3881 828 4315 
Q 1253 4750 1959 4750 
Q 2769 4750 3195 4129 
Q 3622 3509 3622 2328 
Q 3622 1225 3098 567 
Q 2575 -91 1691 -91 
Q 1453 -91 1209 -44 
Q 966 3 703 97 
z
M 1959 2075 
Q 2384 2075 2632 2365 
Q 2881 2656 2881 3163 
Q 2881 3666 2632 3958 
Q 2384 4250 1959 4250 
Q 1534 4250 1286 3958 
Q 1038 3666 1038 3163 
Q 1038 2656 1286 2365 
Q 1534 2075 1959 2075 
z
" transform="scale(0.015625)"/>
       <path id="DejaVuSans-33" d="M 2597 2516 
Q 3050 2419 3304 2112 
Q 3559 1806 3559 1356 
Q 3559 666 3084 287 
Q 2609 -91 1734 -91 
Q 1441 -91 1130 -33 
Q 819 25 488 141 
L 488 750 
Q 750 597 1062 519 
Q 1375 441 1716 441 
Q 2309 441 2620 675 
Q 2931 909 2931 1356 
Q 2931 1769 2642 2001 
Q 2353 2234 1838 2234 
L 1294 2234 
L 1294 2753 
L 1863 2753 
Q 2328 2753 2575 2939 
Q 2822 3125 2822 3475 
Q 2822 3834 2567 4026 
Q 2313 4219 1838 4219 
Q 1578 4219 1281 4162 
Q 984 4106 628 3988 
L 628 4550 
Q 988 4650 1302 4700 
Q 1616 4750 1894 4750 
Q 2613 4750 3031 4423 
Q 3450 4097 3450 3541 
Q 3450 3153 3228 2886 
Q 3006 2619 2597 2516 
z
" transform="scale(0.015625)"/>
      </defs>
      <use xlink:href="#DejaVuSans-52"/>
      <use xlink:href="#DejaVuSans-4f" x="69.482422"/>
      <use xlink:href="#DejaVuSans-43" x="148.193359"/>
      <use xlink:href="#DejaVuSans-20" x="218.017578"/>
      <use xlink:href="#DejaVuSans-66" x="249.804688"/>
      <use xlink:href="#DejaVuSans-6f" x="285.009766"/>
      <use xlink:href="#DejaVuSans-6c" x="346.191406"/>
      <use xlink:href="#DejaVuSans-64" x="373.974609"/>
      <use xlink:href="#DejaVuSans-20" x="437.451172"/>
      <use xlink:href="#DejaVuSans-31" x="469.238281"/>
      <use xlink:href="#DejaVuSans-20" x="532.861328"/>
      <use xlink:href="#DejaVuSans-28" x="564.648438"/>
      <use xlink:href="#DejaVuSans-41" x="603.662109"/>
      <use xlink:href="#DejaVuSans-55" x="672.070312"/>
      <use xlink:href="#DejaVuSans-43" x="745.263672"/>
      <use xlink:href="#DejaVuSans-20" x="815.087891"/>
      <use xlink:href="#DejaVuSans-3d" x="846.875"/>
      <use xlink:href="#DejaVuSans-20" x="930.664062"/>
      <use xlink:href="#DejaVuSans-30" x="962.451172"/>
      <use xlink:href="#DejaVuSans-2e" x="1026.074219"/>
      <use xlink:href="#DejaVuSans-39" x="1057.861328"/>
      <use xlink:href="#DejaVuSans-33" x="1121.484375"/>
      <use xlink:href="#DejaVuSans-29" x="1185.107422"/>
     </g>
    </g>
    <g id="line2d_39">
     <path d="M 192.62 223.119063 
L 202.62 223.119063 
L 212.62 223.119063 
" style="fill: none; stroke: #2ca02c; stroke-opacity: 0.3; stroke-linecap: square"/>
    </g>
    <g id="text_18">
     <!-- ROC fold 2 (AUC = 0.82) -->
     <g transform="translate(220.62 226.619063) scale(0.1 -0.1)">
      <use xlink:href="#DejaVuSans-52"/>
      <use xlink:href="#DejaVuSans-4f" x="69.482422"/>
      <use xlink:href="#DejaVuSans-43" x="148.193359"/>
      <use xlink:href="#DejaVuSans-20" x="218.017578"/>
      <use xlink:href="#DejaVuSans-66" x="249.804688"/>
      <use xlink:href="#DejaVuSans-6f" x="285.009766"/>
      <use xlink:href="#DejaVuSans-6c" x="346.191406"/>
      <use xlink:href="#DejaVuSans-64" x="373.974609"/>
      <use xlink:href="#DejaVuSans-20" x="437.451172"/>
      <use xlink:href="#DejaVuSans-32" x="469.238281"/>
      <use xlink:href="#DejaVuSans-20" x="532.861328"/>
      <use xlink:href="#DejaVuSans-28" x="564.648438"/>
      <use xlink:href="#DejaVuSans-41" x="603.662109"/>
      <use xlink:href="#DejaVuSans-55" x="672.070312"/>
      <use xlink:href="#DejaVuSans-43" x="745.263672"/>
      <use xlink:href="#DejaVuSans-20" x="815.087891"/>
      <use xlink:href="#DejaVuSans-3d" x="846.875"/>
      <use xlink:href="#DejaVuSans-20" x="930.664062"/>
      <use xlink:href="#DejaVuSans-30" x="962.451172"/>
      <use xlink:href="#DejaVuSans-2e" x="1026.074219"/>
      <use xlink:href="#DejaVuSans-38" x="1057.861328"/>
      <use xlink:href="#DejaVuSans-32" x="1121.484375"/>
      <use xlink:href="#DejaVuSans-29" x="1185.107422"/>
     </g>
    </g>
    <g id="line2d_40">
     <path d="M 192.62 237.797188 
L 202.62 237.797188 
L 212.62 237.797188 
" style="fill: none; stroke: #d62728; stroke-opacity: 0.3; stroke-linecap: square"/>
    </g>
    <g id="text_19">
     <!-- ROC fold 3 (AUC = 0.85) -->
     <g transform="translate(220.62 241.297188) scale(0.1 -0.1)">
      <defs>
       <path id="DejaVuSans-35" d="M 691 4666 
L 3169 4666 
L 3169 4134 
L 1269 4134 
L 1269 2991 
Q 1406 3038 1543 3061 
Q 1681 3084 1819 3084 
Q 2600 3084 3056 2656 
Q 3513 2228 3513 1497 
Q 3513 744 3044 326 
Q 2575 -91 1722 -91 
Q 1428 -91 1123 -41 
Q 819 9 494 109 
L 494 744 
Q 775 591 1075 516 
Q 1375 441 1709 441 
Q 2250 441 2565 725 
Q 2881 1009 2881 1497 
Q 2881 1984 2565 2268 
Q 2250 2553 1709 2553 
Q 1456 2553 1204 2497 
Q 953 2441 691 2322 
L 691 4666 
z
" transform="scale(0.015625)"/>
      </defs>
      <use xlink:href="#DejaVuSans-52"/>
      <use xlink:href="#DejaVuSans-4f" x="69.482422"/>
      <use xlink:href="#DejaVuSans-43" x="148.193359"/>
      <use xlink:href="#DejaVuSans-20" x="218.017578"/>
      <use xlink:href="#DejaVuSans-66" x="249.804688"/>
      <use xlink:href="#DejaVuSans-6f" x="285.009766"/>
      <use xlink:href="#DejaVuSans-6c" x="346.191406"/>
      <use xlink:href="#DejaVuSans-64" x="373.974609"/>
      <use xlink:href="#DejaVuSans-20" x="437.451172"/>
      <use xlink:href="#DejaVuSans-33" x="469.238281"/>
      <use xlink:href="#DejaVuSans-20" x="532.861328"/>
      <use xlink:href="#DejaVuSans-28" x="564.648438"/>
      <use xlink:href="#DejaVuSans-41" x="603.662109"/>
      <use xlink:href="#DejaVuSans-55" x="672.070312"/>
      <use xlink:href="#DejaVuSans-43" x="745.263672"/>
      <use xlink:href="#DejaVuSans-20" x="815.087891"/>
      <use xlink:href="#DejaVuSans-3d" x="846.875"/>
      <use xlink:href="#DejaVuSans-20" x="930.664062"/>
      <use xlink:href="#DejaVuSans-30" x="962.451172"/>
      <use xlink:href="#DejaVuSans-2e" x="1026.074219"/>
      <use xlink:href="#DejaVuSans-38" x="1057.861328"/>
      <use xlink:href="#DejaVuSans-35" x="1121.484375"/>
      <use xlink:href="#DejaVuSans-29" x="1185.107422"/>
     </g>
    </g>
    <g id="line2d_41">
     <path d="M 192.62 252.475313 
L 202.62 252.475313 
L 212.62 252.475313 
" style="fill: none; stroke: #9467bd; stroke-opacity: 0.3; stroke-linecap: square"/>
    </g>
    <g id="text_20">
     <!-- ROC fold 4 (AUC = 0.89) -->
     <g transform="translate(220.62 255.975313) scale(0.1 -0.1)">
      <use xlink:href="#DejaVuSans-52"/>
      <use xlink:href="#DejaVuSans-4f" x="69.482422"/>
      <use xlink:href="#DejaVuSans-43" x="148.193359"/>
      <use xlink:href="#DejaVuSans-20" x="218.017578"/>
      <use xlink:href="#DejaVuSans-66" x="249.804688"/>
      <use xlink:href="#DejaVuSans-6f" x="285.009766"/>
      <use xlink:href="#DejaVuSans-6c" x="346.191406"/>
      <use xlink:href="#DejaVuSans-64" x="373.974609"/>
      <use xlink:href="#DejaVuSans-20" x="437.451172"/>
      <use xlink:href="#DejaVuSans-34" x="469.238281"/>
      <use xlink:href="#DejaVuSans-20" x="532.861328"/>
      <use xlink:href="#DejaVuSans-28" x="564.648438"/>
      <use xlink:href="#DejaVuSans-41" x="603.662109"/>
      <use xlink:href="#DejaVuSans-55" x="672.070312"/>
      <use xlink:href="#DejaVuSans-43" x="745.263672"/>
      <use xlink:href="#DejaVuSans-20" x="815.087891"/>
      <use xlink:href="#DejaVuSans-3d" x="846.875"/>
      <use xlink:href="#DejaVuSans-20" x="930.664062"/>
      <use xlink:href="#DejaVuSans-30" x="962.451172"/>
      <use xlink:href="#DejaVuSans-2e" x="1026.074219"/>
      <use xlink:href="#DejaVuSans-38" x="1057.861328"/>
      <use xlink:href="#DejaVuSans-39" x="1121.484375"/>
      <use xlink:href="#DejaVuSans-29" x="1185.107422"/>
     </g>
    </g>
    <g id="line2d_42">
     <path d="M 192.62 267.153438 
L 202.62 267.153438 
L 212.62 267.153438 
" style="fill: none; stroke: #8c564b; stroke-opacity: 0.3; stroke-linecap: square"/>
    </g>
    <g id="text_21">
     <!-- ROC fold 5 (AUC = 0.85) -->
     <g transform="translate(220.62 270.653438) scale(0.1 -0.1)">
      <use xlink:href="#DejaVuSans-52"/>
      <use xlink:href="#DejaVuSans-4f" x="69.482422"/>
      <use xlink:href="#DejaVuSans-43" x="148.193359"/>
      <use xlink:href="#DejaVuSans-20" x="218.017578"/>
      <use xlink:href="#DejaVuSans-66" x="249.804688"/>
      <use xlink:href="#DejaVuSans-6f" x="285.009766"/>
      <use xlink:href="#DejaVuSans-6c" x="346.191406"/>
      <use xlink:href="#DejaVuSans-64" x="373.974609"/>
      <use xlink:href="#DejaVuSans-20" x="437.451172"/>
      <use xlink:href="#DejaVuSans-35" x="469.238281"/>
      <use xlink:href="#DejaVuSans-20" x="532.861328"/>
      <use xlink:href="#DejaVuSans-28" x="564.648438"/>
      <use xlink:href="#DejaVuSans-41" x="603.662109"/>
      <use xlink:href="#DejaVuSans-55" x="672.070312"/>
      <use xlink:href="#DejaVuSans-43" x="745.263672"/>
      <use xlink:href="#DejaVuSans-20" x="815.087891"/>
      <use xlink:href="#DejaVuSans-3d" x="846.875"/>
      <use xlink:href="#DejaVuSans-20" x="930.664062"/>
      <use xlink:href="#DejaVuSans-30" x="962.451172"/>
      <use xlink:href="#DejaVuSans-2e" x="1026.074219"/>
      <use xlink:href="#DejaVuSans-38" x="1057.861328"/>
      <use xlink:href="#DejaVuSans-35" x="1121.484375"/>
      <use xlink:href="#DejaVuSans-29" x="1185.107422"/>
     </g>
    </g>
    <g id="line2d_43">
     <path d="M 192.62 281.831563 
L 202.62 281.831563 
L 212.62 281.831563 
" style="fill: none; stroke: #e377c2; stroke-opacity: 0.3; stroke-linecap: square"/>
    </g>
    <g id="text_22">
     <!-- ROC fold 6 (AUC = 0.87) -->
     <g transform="translate(220.62 285.331563) scale(0.1 -0.1)">
      <defs>
       <path id="DejaVuSans-37" d="M 525 4666 
L 3525 4666 
L 3525 4397 
L 1831 0 
L 1172 0 
L 2766 4134 
L 525 4134 
L 525 4666 
z
" transform="scale(0.015625)"/>
      </defs>
      <use xlink:href="#DejaVuSans-52"/>
      <use xlink:href="#DejaVuSans-4f" x="69.482422"/>
      <use xlink:href="#DejaVuSans-43" x="148.193359"/>
      <use xlink:href="#DejaVuSans-20" x="218.017578"/>
      <use xlink:href="#DejaVuSans-66" x="249.804688"/>
      <use xlink:href="#DejaVuSans-6f" x="285.009766"/>
      <use xlink:href="#DejaVuSans-6c" x="346.191406"/>
      <use xlink:href="#DejaVuSans-64" x="373.974609"/>
      <use xlink:href="#DejaVuSans-20" x="437.451172"/>
      <use xlink:href="#DejaVuSans-36" x="469.238281"/>
      <use xlink:href="#DejaVuSans-20" x="532.861328"/>
      <use xlink:href="#DejaVuSans-28" x="564.648438"/>
      <use xlink:href="#DejaVuSans-41" x="603.662109"/>
      <use xlink:href="#DejaVuSans-55" x="672.070312"/>
      <use xlink:href="#DejaVuSans-43" x="745.263672"/>
      <use xlink:href="#DejaVuSans-20" x="815.087891"/>
      <use xlink:href="#DejaVuSans-3d" x="846.875"/>
      <use xlink:href="#DejaVuSans-20" x="930.664062"/>
      <use xlink:href="#DejaVuSans-30" x="962.451172"/>
      <use xlink:href="#DejaVuSans-2e" x="1026.074219"/>
      <use xlink:href="#DejaVuSans-38" x="1057.861328"/>
      <use xlink:href="#DejaVuSans-37" x="1121.484375"/>
      <use xlink:href="#DejaVuSans-29" x="1185.107422"/>
     </g>
    </g>
    <g id="line2d_44">
     <path d="M 192.62 296.509688 
L 202.62 296.509688 
L 212.62 296.509688 
" style="fill: none; stroke: #7f7f7f; stroke-opacity: 0.3; stroke-linecap: square"/>
    </g>
    <g id="text_23">
     <!-- ROC fold 7 (AUC = 0.88) -->
     <g transform="translate(220.62 300.009688) scale(0.1 -0.1)">
      <use xlink:href="#DejaVuSans-52"/>
      <use xlink:href="#DejaVuSans-4f" x="69.482422"/>
      <use xlink:href="#DejaVuSans-43" x="148.193359"/>
      <use xlink:href="#DejaVuSans-20" x="218.017578"/>
      <use xlink:href="#DejaVuSans-66" x="249.804688"/>
      <use xlink:href="#DejaVuSans-6f" x="285.009766"/>
      <use xlink:href="#DejaVuSans-6c" x="346.191406"/>
      <use xlink:href="#DejaVuSans-64" x="373.974609"/>
      <use xlink:href="#DejaVuSans-20" x="437.451172"/>
      <use xlink:href="#DejaVuSans-37" x="469.238281"/>
      <use xlink:href="#DejaVuSans-20" x="532.861328"/>
      <use xlink:href="#DejaVuSans-28" x="564.648438"/>
      <use xlink:href="#DejaVuSans-41" x="603.662109"/>
      <use xlink:href="#DejaVuSans-55" x="672.070312"/>
      <use xlink:href="#DejaVuSans-43" x="745.263672"/>
      <use xlink:href="#DejaVuSans-20" x="815.087891"/>
      <use xlink:href="#DejaVuSans-3d" x="846.875"/>
      <use xlink:href="#DejaVuSans-20" x="930.664062"/>
      <use xlink:href="#DejaVuSans-30" x="962.451172"/>
      <use xlink:href="#DejaVuSans-2e" x="1026.074219"/>
      <use xlink:href="#DejaVuSans-38" x="1057.861328"/>
      <use xlink:href="#DejaVuSans-38" x="1121.484375"/>
      <use xlink:href="#DejaVuSans-29" x="1185.107422"/>
     </g>
    </g>
    <g id="line2d_45">
     <path d="M 192.62 311.187813 
L 202.62 311.187813 
L 212.62 311.187813 
" style="fill: none; stroke: #bcbd22; stroke-opacity: 0.3; stroke-linecap: square"/>
    </g>
    <g id="text_24">
     <!-- ROC fold 8 (AUC = 0.82) -->
     <g transform="translate(220.62 314.687813) scale(0.1 -0.1)">
      <use xlink:href="#DejaVuSans-52"/>
      <use xlink:href="#DejaVuSans-4f" x="69.482422"/>
      <use xlink:href="#DejaVuSans-43" x="148.193359"/>
      <use xlink:href="#DejaVuSans-20" x="218.017578"/>
      <use xlink:href="#DejaVuSans-66" x="249.804688"/>
      <use xlink:href="#DejaVuSans-6f" x="285.009766"/>
      <use xlink:href="#DejaVuSans-6c" x="346.191406"/>
      <use xlink:href="#DejaVuSans-64" x="373.974609"/>
      <use xlink:href="#DejaVuSans-20" x="437.451172"/>
      <use xlink:href="#DejaVuSans-38" x="469.238281"/>
      <use xlink:href="#DejaVuSans-20" x="532.861328"/>
      <use xlink:href="#DejaVuSans-28" x="564.648438"/>
      <use xlink:href="#DejaVuSans-41" x="603.662109"/>
      <use xlink:href="#DejaVuSans-55" x="672.070312"/>
      <use xlink:href="#DejaVuSans-43" x="745.263672"/>
      <use xlink:href="#DejaVuSans-20" x="815.087891"/>
      <use xlink:href="#DejaVuSans-3d" x="846.875"/>
      <use xlink:href="#DejaVuSans-20" x="930.664062"/>
      <use xlink:href="#DejaVuSans-30" x="962.451172"/>
      <use xlink:href="#DejaVuSans-2e" x="1026.074219"/>
      <use xlink:href="#DejaVuSans-38" x="1057.861328"/>
      <use xlink:href="#DejaVuSans-32" x="1121.484375"/>
      <use xlink:href="#DejaVuSans-29" x="1185.107422"/>
     </g>
    </g>
    <g id="line2d_46">
     <path d="M 192.62 325.865938 
L 202.62 325.865938 
L 212.62 325.865938 
" style="fill: none; stroke: #17becf; stroke-opacity: 0.3; stroke-linecap: square"/>
    </g>
    <g id="text_25">
     <!-- ROC fold 9 (AUC = 0.86) -->
     <g transform="translate(220.62 329.365938) scale(0.1 -0.1)">
      <use xlink:href="#DejaVuSans-52"/>
      <use xlink:href="#DejaVuSans-4f" x="69.482422"/>
      <use xlink:href="#DejaVuSans-43" x="148.193359"/>
      <use xlink:href="#DejaVuSans-20" x="218.017578"/>
      <use xlink:href="#DejaVuSans-66" x="249.804688"/>
      <use xlink:href="#DejaVuSans-6f" x="285.009766"/>
      <use xlink:href="#DejaVuSans-6c" x="346.191406"/>
      <use xlink:href="#DejaVuSans-64" x="373.974609"/>
      <use xlink:href="#DejaVuSans-20" x="437.451172"/>
      <use xlink:href="#DejaVuSans-39" x="469.238281"/>
      <use xlink:href="#DejaVuSans-20" x="532.861328"/>
      <use xlink:href="#DejaVuSans-28" x="564.648438"/>
      <use xlink:href="#DejaVuSans-41" x="603.662109"/>
      <use xlink:href="#DejaVuSans-55" x="672.070312"/>
      <use xlink:href="#DejaVuSans-43" x="745.263672"/>
      <use xlink:href="#DejaVuSans-20" x="815.087891"/>
      <use xlink:href="#DejaVuSans-3d" x="846.875"/>
      <use xlink:href="#DejaVuSans-20" x="930.664062"/>
      <use xlink:href="#DejaVuSans-30" x="962.451172"/>
      <use xlink:href="#DejaVuSans-2e" x="1026.074219"/>
      <use xlink:href="#DejaVuSans-38" x="1057.861328"/>
      <use xlink:href="#DejaVuSans-36" x="1121.484375"/>
      <use xlink:href="#DejaVuSans-29" x="1185.107422"/>
     </g>
    </g>
    <g id="line2d_47">
     <path d="M 192.62 340.544062 
L 202.62 340.544062 
L 212.62 340.544062 
" style="fill: none; stroke-dasharray: 5.55,2.4; stroke-dashoffset: 0; stroke: #000000; stroke-width: 1.5"/>
    </g>
    <g id="text_26">
     <!-- random (AUC = 0.5) -->
     <g transform="translate(220.62 344.044062) scale(0.1 -0.1)">
      <defs>
       <path id="DejaVuSans-6d" d="M 3328 2828 
Q 3544 3216 3844 3400 
Q 4144 3584 4550 3584 
Q 5097 3584 5394 3201 
Q 5691 2819 5691 2113 
L 5691 0 
L 5113 0 
L 5113 2094 
Q 5113 2597 4934 2840 
Q 4756 3084 4391 3084 
Q 3944 3084 3684 2787 
Q 3425 2491 3425 1978 
L 3425 0 
L 2847 0 
L 2847 2094 
Q 2847 2600 2669 2842 
Q 2491 3084 2119 3084 
Q 1678 3084 1418 2786 
Q 1159 2488 1159 1978 
L 1159 0 
L 581 0 
L 581 3500 
L 1159 3500 
L 1159 2956 
Q 1356 3278 1631 3431 
Q 1906 3584 2284 3584 
Q 2666 3584 2933 3390 
Q 3200 3197 3328 2828 
z
" transform="scale(0.015625)"/>
      </defs>
      <use xlink:href="#DejaVuSans-72"/>
      <use xlink:href="#DejaVuSans-61" x="41.113281"/>
      <use xlink:href="#DejaVuSans-6e" x="102.392578"/>
      <use xlink:href="#DejaVuSans-64" x="165.771484"/>
      <use xlink:href="#DejaVuSans-6f" x="229.248047"/>
      <use xlink:href="#DejaVuSans-6d" x="290.429688"/>
      <use xlink:href="#DejaVuSans-20" x="387.841797"/>
      <use xlink:href="#DejaVuSans-28" x="419.628906"/>
      <use xlink:href="#DejaVuSans-41" x="458.642578"/>
      <use xlink:href="#DejaVuSans-55" x="527.050781"/>
      <use xlink:href="#DejaVuSans-43" x="600.244141"/>
      <use xlink:href="#DejaVuSans-20" x="670.068359"/>
      <use xlink:href="#DejaVuSans-3d" x="701.855469"/>
      <use xlink:href="#DejaVuSans-20" x="785.644531"/>
      <use xlink:href="#DejaVuSans-30" x="817.431641"/>
      <use xlink:href="#DejaVuSans-2e" x="881.054688"/>
      <use xlink:href="#DejaVuSans-35" x="912.841797"/>
      <use xlink:href="#DejaVuSans-29" x="976.464844"/>
     </g>
    </g>
    <g id="line2d_48">
     <path d="M 192.62 355.222188 
L 202.62 355.222188 
L 212.62 355.222188 
" style="fill: none; stroke: #0000ff; stroke-opacity: 0.8; stroke-width: 2; stroke-linecap: square"/>
    </g>
    <g id="text_27">
     <!-- Mean ROC (AUC = 0.86 $\pm$ 0.03) -->
     <g transform="translate(220.62 358.722188) scale(0.1 -0.1)">
      <defs>
       <path id="DejaVuSans-b1" d="M 2944 4013 
L 2944 2803 
L 4684 2803 
L 4684 2272 
L 2944 2272 
L 2944 1063 
L 2419 1063 
L 2419 2272 
L 678 2272 
L 678 2803 
L 2419 2803 
L 2419 4013 
L 2944 4013 
z
M 678 531 
L 4684 531 
L 4684 0 
L 678 0 
L 678 531 
z
" transform="scale(0.015625)"/>
      </defs>
      <use xlink:href="#DejaVuSans-4d" transform="translate(0 0.125)"/>
      <use xlink:href="#DejaVuSans-65" transform="translate(86.279297 0.125)"/>
      <use xlink:href="#DejaVuSans-61" transform="translate(147.802734 0.125)"/>
      <use xlink:href="#DejaVuSans-6e" transform="translate(209.082031 0.125)"/>
      <use xlink:href="#DejaVuSans-20" transform="translate(272.460938 0.125)"/>
      <use xlink:href="#DejaVuSans-52" transform="translate(304.248047 0.125)"/>
      <use xlink:href="#DejaVuSans-4f" transform="translate(373.730469 0.125)"/>
      <use xlink:href="#DejaVuSans-43" transform="translate(452.441406 0.125)"/>
      <use xlink:href="#DejaVuSans-20" transform="translate(522.265625 0.125)"/>
      <use xlink:href="#DejaVuSans-28" transform="translate(554.052734 0.125)"/>
      <use xlink:href="#DejaVuSans-41" transform="translate(593.066406 0.125)"/>
      <use xlink:href="#DejaVuSans-55" transform="translate(661.474609 0.125)"/>
      <use xlink:href="#DejaVuSans-43" transform="translate(734.667969 0.125)"/>
      <use xlink:href="#DejaVuSans-20" transform="translate(804.492188 0.125)"/>
      <use xlink:href="#DejaVuSans-3d" transform="translate(836.279297 0.125)"/>
      <use xlink:href="#DejaVuSans-20" transform="translate(920.068359 0.125)"/>
      <use xlink:href="#DejaVuSans-30" transform="translate(951.855469 0.125)"/>
      <use xlink:href="#DejaVuSans-2e" transform="translate(1015.478516 0.125)"/>
      <use xlink:href="#DejaVuSans-38" transform="translate(1044.640625 0.125)"/>
      <use xlink:href="#DejaVuSans-36" transform="translate(1108.263672 0.125)"/>
      <use xlink:href="#DejaVuSans-20" transform="translate(1171.886719 0.125)"/>
      <use xlink:href="#DejaVuSans-b1" transform="translate(1203.673828 0.125)"/>
      <use xlink:href="#DejaVuSans-20" transform="translate(1287.462891 0.125)"/>
      <use xlink:href="#DejaVuSans-30" transform="translate(1319.25 0.125)"/>
      <use xlink:href="#DejaVuSans-2e" transform="translate(1382.873047 0.125)"/>
      <use xlink:href="#DejaVuSans-30" transform="translate(1414.660156 0.125)"/>
      <use xlink:href="#DejaVuSans-33" transform="translate(1478.283203 0.125)"/>
      <use xlink:href="#DejaVuSans-29" transform="translate(1541.90625 0.125)"/>
     </g>
    </g>
    <g id="patch_8">
     <path d="M 192.62 373.400313 
L 212.62 373.400313 
L 212.62 366.400313 
L 192.62 366.400313 
z
" style="fill: #808080; fill-opacity: 0.2; stroke: #808080; stroke-opacity: 0.2; stroke-linejoin: miter"/>
    </g>
    <g id="text_28">
     <!-- $\pm$ 1 std. dev. -->
     <g transform="translate(220.62 373.400313) scale(0.1 -0.1)">
      <use xlink:href="#DejaVuSans-b1" transform="translate(0 0.015625)"/>
      <use xlink:href="#DejaVuSans-20" transform="translate(83.789062 0.015625)"/>
      <use xlink:href="#DejaVuSans-31" transform="translate(115.576172 0.015625)"/>
      <use xlink:href="#DejaVuSans-20" transform="translate(179.199219 0.015625)"/>
      <use xlink:href="#DejaVuSans-73" transform="translate(210.986328 0.015625)"/>
      <use xlink:href="#DejaVuSans-74" transform="translate(263.085938 0.015625)"/>
      <use xlink:href="#DejaVuSans-64" transform="translate(302.294922 0.015625)"/>
      <use xlink:href="#DejaVuSans-2e" transform="translate(365.771484 0.015625)"/>
      <use xlink:href="#DejaVuSans-20" transform="translate(397.558594 0.015625)"/>
      <use xlink:href="#DejaVuSans-64" transform="translate(429.345703 0.015625)"/>
      <use xlink:href="#DejaVuSans-65" transform="translate(492.822266 0.015625)"/>
      <use xlink:href="#DejaVuSans-76" transform="translate(554.345703 0.015625)"/>
      <use xlink:href="#DejaVuSans-2e" transform="translate(613.525391 0.015625)"/>
     </g>
    </g>
   </g>
  </g>
 </g>
 <defs>
  <clipPath id="pd25329e4c9">
   <rect x="55.08" y="51.84" width="332.64" height="332.64"/>
  </clipPath>
 </defs>
</svg>
