<?xml version="1.0" encoding="utf-8" standalone="no"?>
<!DOCTYPE svg PUBLIC "-//W3C//DTD SVG 1.1//EN"
  "http://www.w3.org/Graphics/SVG/1.1/DTD/svg11.dtd">
<svg xmlns:xlink="http://www.w3.org/1999/xlink" width="432pt" height="432pt" viewBox="0 0 432 432" xmlns="http://www.w3.org/2000/svg" version="1.1">
 <metadata>
  <rdf:RDF xmlns:dc="http://purl.org/dc/elements/1.1/" xmlns:cc="http://creativecommons.org/ns#" xmlns:rdf="http://www.w3.org/1999/02/22-rdf-syntax-ns#">
   <cc:Work>
    <dc:type rdf:resource="http://purl.org/dc/dcmitype/StillImage"/>
    <dc:date>2023-07-18T15:05:23.151393</dc:date>
    <dc:format>image/svg+xml</dc:format>
    <dc:creator>
     <cc:Agent>
      <dc:title>Matplotlib v3.7.1, https://matplotlib.org/</dc:title>
     </cc:Agent>
    </dc:creator>
   </cc:Work>
  </rdf:RDF>
 </metadata>
 <defs>
  <style type="text/css">*{stroke-linejoin: round; stroke-linecap: butt}</style>
 </defs>
 <g id="figure_1">
  <g id="patch_1">
   <path d="M 0 432 
L 432 432 
L 432 0 
L 0 0 
z
" style="fill: #ffffff"/>
  </g>
  <g id="axes_1">
   <g id="patch_2">
    <path d="M 55.08 384.48 
L 387.72 384.48 
L 387.72 51.84 
L 55.08 51.84 
z
" style="fill: #ffffff"/>
   </g>
   <g id="PolyCollection_1">
    <defs>
     <path id="m191230ffb2" d="M 70.2 -62.64 
L 70.2 -62.64 
L 73.254545 -62.64 
L 76.309091 -62.64 
L 79.363636 -62.64 
L 82.418182 -64.490741 
L 85.472727 -64.490741 
L 88.527273 -69.64674 
L 91.581818 -75.852796 
L 94.636364 -75.852796 
L 97.690909 -79.067883 
L 100.745455 -85.251737 
L 103.8 -85.251737 
L 106.854545 -89.820828 
L 109.909091 -98.388066 
L 112.963636 -98.388066 
L 116.018182 -100.799437 
L 119.072727 -104.6778 
L 122.127273 -104.6778 
L 125.181818 -105.665805 
L 128.236364 -107.32308 
L 131.290909 -107.32308 
L 134.345455 -107.856328 
L 137.4 -109.652426 
L 140.454545 -109.652426 
L 143.509091 -113.579717 
L 146.563636 -126.330604 
L 149.618182 -126.330604 
L 152.672727 -126.126028 
L 155.727273 -127.741691 
L 158.781818 -127.741691 
L 161.836364 -128.519832 
L 164.890909 -137.808411 
L 167.945455 -137.808411 
L 171 -141.654463 
L 174.054545 -141.654463 
L 177.109091 -145.918121 
L 180.163636 -150.564922 
L 183.218182 -150.564922 
L 186.272727 -154.362821 
L 189.327273 -161.996448 
L 192.381818 -161.996448 
L 195.436364 -169.125128 
L 198.490909 -173.900681 
L 201.545455 -173.900681 
L 204.6 -175.635106 
L 207.654545 -180.247785 
L 210.709091 -180.247785 
L 213.763636 -186.360019 
L 216.818182 -189.772138 
L 219.872727 -189.772138 
L 222.927273 -191.969376 
L 225.981818 -192.582381 
L 229.036364 -192.582381 
L 232.090909 -202.594191 
L 235.145455 -203.841458 
L 238.2 -203.841458 
L 241.254545 -204.114715 
L 244.309091 -216.323669 
L 247.363636 -216.323669 
L 250.418182 -222.059729 
L 253.472727 -221.682494 
L 256.527273 -221.682494 
L 259.581818 -223.537034 
L 262.636364 -225.609534 
L 265.690909 -225.609534 
L 268.745455 -226.610544 
L 271.8 -232.949236 
L 274.854545 -232.949236 
L 277.909091 -232.949236 
L 280.963636 -245.49173 
L 284.018182 -245.49173 
L 287.072727 -245.49173 
L 290.127273 -260.434997 
L 293.181818 -260.434997 
L 296.236364 -260.434997 
L 299.290909 -281.715711 
L 302.345455 -281.715711 
L 305.4 -281.715711 
L 308.454545 -296.797669 
L 311.509091 -296.797669 
L 314.563636 -296.797669 
L 317.618182 -313.56679 
L 320.672727 -313.56679 
L 323.727273 -313.56679 
L 326.781818 -320.864444 
L 329.836364 -320.864444 
L 332.890909 -320.864444 
L 335.945455 -329.079819 
L 339 -329.079819 
L 342.054545 -329.079819 
L 345.109091 -336.489872 
L 348.163636 -336.489872 
L 351.218182 -336.489872 
L 354.272727 -340.995708 
L 357.327273 -340.995708 
L 360.381818 -340.995708 
L 363.436364 -348.678101 
L 366.490909 -348.678101 
L 369.545455 -348.678101 
L 372.6 -365.04 
L 372.6 -365.04 
L 372.6 -365.04 
L 369.545455 -365.04 
L 366.490909 -365.04 
L 363.436364 -365.04 
L 360.381818 -361.334292 
L 357.327273 -361.334292 
L 354.272727 -361.334292 
L 351.218182 -354.395128 
L 348.163636 -354.395128 
L 345.109091 -354.395128 
L 342.054545 -348.410181 
L 339 -348.410181 
L 335.945455 -348.410181 
L 332.890909 -345.165556 
L 329.836364 -345.165556 
L 326.781818 -345.165556 
L 323.727273 -336.15821 
L 320.672727 -336.15821 
L 317.618182 -336.15821 
L 314.563636 -333.757331 
L 311.509091 -333.757331 
L 308.454545 -333.757331 
L 305.4 -326.954289 
L 302.345455 -326.954289 
L 299.290909 -326.954289 
L 296.236364 -308.155003 
L 293.181818 -308.155003 
L 290.127273 -308.155003 
L 287.072727 -304.91827 
L 284.018182 -304.91827 
L 280.963636 -304.91827 
L 277.909091 -299.235764 
L 274.854545 -299.235764 
L 271.8 -299.235764 
L 268.745455 -296.934456 
L 265.690909 -293.210466 
L 262.636364 -293.210466 
L 259.581818 -290.482966 
L 256.527273 -285.692506 
L 253.472727 -285.692506 
L 250.418182 -284.355271 
L 247.363636 -279.591331 
L 244.309091 -279.591331 
L 241.254545 -271.640285 
L 238.2 -268.118542 
L 235.145455 -268.118542 
L 232.090909 -267.445809 
L 229.036364 -252.812619 
L 225.981818 -252.812619 
L 222.927273 -251.505624 
L 219.872727 -248.017862 
L 216.818182 -248.017862 
L 213.763636 -246.629981 
L 210.709091 -242.317215 
L 207.654545 -242.317215 
L 204.6 -239.249894 
L 201.545455 -238.134319 
L 198.490909 -238.134319 
L 195.436364 -232.349872 
L 192.381818 -224.328552 
L 189.327273 -224.328552 
L 186.272727 -220.442179 
L 183.218182 -210.875078 
L 180.163636 -210.875078 
L 177.109091 -205.921879 
L 174.054545 -198.755537 
L 171 -198.755537 
L 167.945455 -194.921589 
L 164.890909 -194.921589 
L 161.836364 -189.945168 
L 158.781818 -184.963309 
L 155.727273 -184.963309 
L 152.672727 -181.808972 
L 149.618182 -177.764396 
L 146.563636 -177.764396 
L 143.509091 -177.285283 
L 140.454545 -165.852574 
L 137.4 -165.852574 
L 134.345455 -159.053672 
L 131.290909 -154.78692 
L 128.236364 -154.78692 
L 125.181818 -152.634195 
L 122.127273 -146.9022 
L 119.072727 -146.9022 
L 116.018182 -138.375563 
L 112.963636 -132.146934 
L 109.909091 -132.146934 
L 106.854545 -129.224172 
L 103.8 -117.473263 
L 100.745455 -117.473263 
L 97.690909 -113.247117 
L 94.636364 -109.742204 
L 91.581818 -109.742204 
L 88.527273 -107.41326 
L 85.472727 -99.129259 
L 82.418182 -99.129259 
L 79.363636 -87.369531 
L 76.309091 -82.577107 
L 73.254545 -82.577107 
L 70.2 -62.64 
z
" style="stroke: #808080; stroke-opacity: 0.2"/>
    </defs>
    <g clip-path="url(#pf4a89fdf18)">
     <use xlink:href="#m191230ffb2" x="0" y="432" style="fill: #808080; fill-opacity: 0.2; stroke: #808080; stroke-opacity: 0.2"/>
    </g>
   </g>
   <g id="matplotlib.axis_1">
    <g id="xtick_1">
     <g id="line2d_1">
      <path d="M 70.2 384.48 
L 70.2 51.84 
" clip-path="url(#pf4a89fdf18)" style="fill: none; stroke: #b0b0b0; stroke-width: 0.5; stroke-linecap: square"/>
     </g>
     <g id="line2d_2">
      <defs>
       <path id="me1c830970a" d="M 0 0 
L 0 3.5 
" style="stroke: #000000; stroke-width: 0.8"/>
      </defs>
      <g>
       <use xlink:href="#me1c830970a" x="70.2" y="384.48" style="stroke: #000000; stroke-width: 0.8"/>
      </g>
     </g>
     <g id="text_1">
      <!-- 0.0 -->
      <g transform="translate(62.248438 399.078438) scale(0.1 -0.1)">
       <defs>
        <path id="DejaVuSans-30" d="M 2034 4250 
Q 1547 4250 1301 3770 
Q 1056 3291 1056 2328 
Q 1056 1369 1301 889 
Q 1547 409 2034 409 
Q 2525 409 2770 889 
Q 3016 1369 3016 2328 
Q 3016 3291 2770 3770 
Q 2525 4250 2034 4250 
z
M 2034 4750 
Q 2819 4750 3233 4129 
Q 3647 3509 3647 2328 
Q 3647 1150 3233 529 
Q 2819 -91 2034 -91 
Q 1250 -91 836 529 
Q 422 1150 422 2328 
Q 422 3509 836 4129 
Q 1250 4750 2034 4750 
z
" transform="scale(0.015625)"/>
        <path id="DejaVuSans-2e" d="M 684 794 
L 1344 794 
L 1344 0 
L 684 0 
L 684 794 
z
" transform="scale(0.015625)"/>
       </defs>
       <use xlink:href="#DejaVuSans-30"/>
       <use xlink:href="#DejaVuSans-2e" x="63.623047"/>
       <use xlink:href="#DejaVuSans-30" x="95.410156"/>
      </g>
     </g>
    </g>
    <g id="xtick_2">
     <g id="line2d_3">
      <path d="M 130.68 384.48 
L 130.68 51.84 
" clip-path="url(#pf4a89fdf18)" style="fill: none; stroke: #b0b0b0; stroke-width: 0.5; stroke-linecap: square"/>
     </g>
     <g id="line2d_4">
      <g>
       <use xlink:href="#me1c830970a" x="130.68" y="384.48" style="stroke: #000000; stroke-width: 0.8"/>
      </g>
     </g>
     <g id="text_2">
      <!-- 0.2 -->
      <g transform="translate(122.728438 399.078438) scale(0.1 -0.1)">
       <defs>
        <path id="DejaVuSans-32" d="M 1228 531 
L 3431 531 
L 3431 0 
L 469 0 
L 469 531 
Q 828 903 1448 1529 
Q 2069 2156 2228 2338 
Q 2531 2678 2651 2914 
Q 2772 3150 2772 3378 
Q 2772 3750 2511 3984 
Q 2250 4219 1831 4219 
Q 1534 4219 1204 4116 
Q 875 4013 500 3803 
L 500 4441 
Q 881 4594 1212 4672 
Q 1544 4750 1819 4750 
Q 2544 4750 2975 4387 
Q 3406 4025 3406 3419 
Q 3406 3131 3298 2873 
Q 3191 2616 2906 2266 
Q 2828 2175 2409 1742 
Q 1991 1309 1228 531 
z
" transform="scale(0.015625)"/>
       </defs>
       <use xlink:href="#DejaVuSans-30"/>
       <use xlink:href="#DejaVuSans-2e" x="63.623047"/>
       <use xlink:href="#DejaVuSans-32" x="95.410156"/>
      </g>
     </g>
    </g>
    <g id="xtick_3">
     <g id="line2d_5">
      <path d="M 191.16 384.48 
L 191.16 51.84 
" clip-path="url(#pf4a89fdf18)" style="fill: none; stroke: #b0b0b0; stroke-width: 0.5; stroke-linecap: square"/>
     </g>
     <g id="line2d_6">
      <g>
       <use xlink:href="#me1c830970a" x="191.16" y="384.48" style="stroke: #000000; stroke-width: 0.8"/>
      </g>
     </g>
     <g id="text_3">
      <!-- 0.4 -->
      <g transform="translate(183.208438 399.078438) scale(0.1 -0.1)">
       <defs>
        <path id="DejaVuSans-34" d="M 2419 4116 
L 825 1625 
L 2419 1625 
L 2419 4116 
z
M 2253 4666 
L 3047 4666 
L 3047 1625 
L 3713 1625 
L 3713 1100 
L 3047 1100 
L 3047 0 
L 2419 0 
L 2419 1100 
L 313 1100 
L 313 1709 
L 2253 4666 
z
" transform="scale(0.015625)"/>
       </defs>
       <use xlink:href="#DejaVuSans-30"/>
       <use xlink:href="#DejaVuSans-2e" x="63.623047"/>
       <use xlink:href="#DejaVuSans-34" x="95.410156"/>
      </g>
     </g>
    </g>
    <g id="xtick_4">
     <g id="line2d_7">
      <path d="M 251.64 384.48 
L 251.64 51.84 
" clip-path="url(#pf4a89fdf18)" style="fill: none; stroke: #b0b0b0; stroke-width: 0.5; stroke-linecap: square"/>
     </g>
     <g id="line2d_8">
      <g>
       <use xlink:href="#me1c830970a" x="251.64" y="384.48" style="stroke: #000000; stroke-width: 0.8"/>
      </g>
     </g>
     <g id="text_4">
      <!-- 0.6 -->
      <g transform="translate(243.688438 399.078438) scale(0.1 -0.1)">
       <defs>
        <path id="DejaVuSans-36" d="M 2113 2584 
Q 1688 2584 1439 2293 
Q 1191 2003 1191 1497 
Q 1191 994 1439 701 
Q 1688 409 2113 409 
Q 2538 409 2786 701 
Q 3034 994 3034 1497 
Q 3034 2003 2786 2293 
Q 2538 2584 2113 2584 
z
M 3366 4563 
L 3366 3988 
Q 3128 4100 2886 4159 
Q 2644 4219 2406 4219 
Q 1781 4219 1451 3797 
Q 1122 3375 1075 2522 
Q 1259 2794 1537 2939 
Q 1816 3084 2150 3084 
Q 2853 3084 3261 2657 
Q 3669 2231 3669 1497 
Q 3669 778 3244 343 
Q 2819 -91 2113 -91 
Q 1303 -91 875 529 
Q 447 1150 447 2328 
Q 447 3434 972 4092 
Q 1497 4750 2381 4750 
Q 2619 4750 2861 4703 
Q 3103 4656 3366 4563 
z
" transform="scale(0.015625)"/>
       </defs>
       <use xlink:href="#DejaVuSans-30"/>
       <use xlink:href="#DejaVuSans-2e" x="63.623047"/>
       <use xlink:href="#DejaVuSans-36" x="95.410156"/>
      </g>
     </g>
    </g>
    <g id="xtick_5">
     <g id="line2d_9">
      <path d="M 312.12 384.48 
L 312.12 51.84 
" clip-path="url(#pf4a89fdf18)" style="fill: none; stroke: #b0b0b0; stroke-width: 0.5; stroke-linecap: square"/>
     </g>
     <g id="line2d_10">
      <g>
       <use xlink:href="#me1c830970a" x="312.12" y="384.48" style="stroke: #000000; stroke-width: 0.8"/>
      </g>
     </g>
     <g id="text_5">
      <!-- 0.8 -->
      <g transform="translate(304.168437 399.078438) scale(0.1 -0.1)">
       <defs>
        <path id="DejaVuSans-38" d="M 2034 2216 
Q 1584 2216 1326 1975 
Q 1069 1734 1069 1313 
Q 1069 891 1326 650 
Q 1584 409 2034 409 
Q 2484 409 2743 651 
Q 3003 894 3003 1313 
Q 3003 1734 2745 1975 
Q 2488 2216 2034 2216 
z
M 1403 2484 
Q 997 2584 770 2862 
Q 544 3141 544 3541 
Q 544 4100 942 4425 
Q 1341 4750 2034 4750 
Q 2731 4750 3128 4425 
Q 3525 4100 3525 3541 
Q 3525 3141 3298 2862 
Q 3072 2584 2669 2484 
Q 3125 2378 3379 2068 
Q 3634 1759 3634 1313 
Q 3634 634 3220 271 
Q 2806 -91 2034 -91 
Q 1263 -91 848 271 
Q 434 634 434 1313 
Q 434 1759 690 2068 
Q 947 2378 1403 2484 
z
M 1172 3481 
Q 1172 3119 1398 2916 
Q 1625 2713 2034 2713 
Q 2441 2713 2670 2916 
Q 2900 3119 2900 3481 
Q 2900 3844 2670 4047 
Q 2441 4250 2034 4250 
Q 1625 4250 1398 4047 
Q 1172 3844 1172 3481 
z
" transform="scale(0.015625)"/>
       </defs>
       <use xlink:href="#DejaVuSans-30"/>
       <use xlink:href="#DejaVuSans-2e" x="63.623047"/>
       <use xlink:href="#DejaVuSans-38" x="95.410156"/>
      </g>
     </g>
    </g>
    <g id="xtick_6">
     <g id="line2d_11">
      <path d="M 372.6 384.48 
L 372.6 51.84 
" clip-path="url(#pf4a89fdf18)" style="fill: none; stroke: #b0b0b0; stroke-width: 0.5; stroke-linecap: square"/>
     </g>
     <g id="line2d_12">
      <g>
       <use xlink:href="#me1c830970a" x="372.6" y="384.48" style="stroke: #000000; stroke-width: 0.8"/>
      </g>
     </g>
     <g id="text_6">
      <!-- 1.0 -->
      <g transform="translate(364.648438 399.078438) scale(0.1 -0.1)">
       <defs>
        <path id="DejaVuSans-31" d="M 794 531 
L 1825 531 
L 1825 4091 
L 703 3866 
L 703 4441 
L 1819 4666 
L 2450 4666 
L 2450 531 
L 3481 531 
L 3481 0 
L 794 0 
L 794 531 
z
" transform="scale(0.015625)"/>
       </defs>
       <use xlink:href="#DejaVuSans-31"/>
       <use xlink:href="#DejaVuSans-2e" x="63.623047"/>
       <use xlink:href="#DejaVuSans-30" x="95.410156"/>
      </g>
     </g>
    </g>
    <g id="text_7">
     <!-- False Positive Rate -->
     <g transform="translate(174.933594 412.756563) scale(0.1 -0.1)">
      <defs>
       <path id="DejaVuSans-46" d="M 628 4666 
L 3309 4666 
L 3309 4134 
L 1259 4134 
L 1259 2759 
L 3109 2759 
L 3109 2228 
L 1259 2228 
L 1259 0 
L 628 0 
L 628 4666 
z
" transform="scale(0.015625)"/>
       <path id="DejaVuSans-61" d="M 2194 1759 
Q 1497 1759 1228 1600 
Q 959 1441 959 1056 
Q 959 750 1161 570 
Q 1363 391 1709 391 
Q 2188 391 2477 730 
Q 2766 1069 2766 1631 
L 2766 1759 
L 2194 1759 
z
M 3341 1997 
L 3341 0 
L 2766 0 
L 2766 531 
Q 2569 213 2275 61 
Q 1981 -91 1556 -91 
Q 1019 -91 701 211 
Q 384 513 384 1019 
Q 384 1609 779 1909 
Q 1175 2209 1959 2209 
L 2766 2209 
L 2766 2266 
Q 2766 2663 2505 2880 
Q 2244 3097 1772 3097 
Q 1472 3097 1187 3025 
Q 903 2953 641 2809 
L 641 3341 
Q 956 3463 1253 3523 
Q 1550 3584 1831 3584 
Q 2591 3584 2966 3190 
Q 3341 2797 3341 1997 
z
" transform="scale(0.015625)"/>
       <path id="DejaVuSans-6c" d="M 603 4863 
L 1178 4863 
L 1178 0 
L 603 0 
L 603 4863 
z
" transform="scale(0.015625)"/>
       <path id="DejaVuSans-73" d="M 2834 3397 
L 2834 2853 
Q 2591 2978 2328 3040 
Q 2066 3103 1784 3103 
Q 1356 3103 1142 2972 
Q 928 2841 928 2578 
Q 928 2378 1081 2264 
Q 1234 2150 1697 2047 
L 1894 2003 
Q 2506 1872 2764 1633 
Q 3022 1394 3022 966 
Q 3022 478 2636 193 
Q 2250 -91 1575 -91 
Q 1294 -91 989 -36 
Q 684 19 347 128 
L 347 722 
Q 666 556 975 473 
Q 1284 391 1588 391 
Q 1994 391 2212 530 
Q 2431 669 2431 922 
Q 2431 1156 2273 1281 
Q 2116 1406 1581 1522 
L 1381 1569 
Q 847 1681 609 1914 
Q 372 2147 372 2553 
Q 372 3047 722 3315 
Q 1072 3584 1716 3584 
Q 2034 3584 2315 3537 
Q 2597 3491 2834 3397 
z
" transform="scale(0.015625)"/>
       <path id="DejaVuSans-65" d="M 3597 1894 
L 3597 1613 
L 953 1613 
Q 991 1019 1311 708 
Q 1631 397 2203 397 
Q 2534 397 2845 478 
Q 3156 559 3463 722 
L 3463 178 
Q 3153 47 2828 -22 
Q 2503 -91 2169 -91 
Q 1331 -91 842 396 
Q 353 884 353 1716 
Q 353 2575 817 3079 
Q 1281 3584 2069 3584 
Q 2775 3584 3186 3129 
Q 3597 2675 3597 1894 
z
M 3022 2063 
Q 3016 2534 2758 2815 
Q 2500 3097 2075 3097 
Q 1594 3097 1305 2825 
Q 1016 2553 972 2059 
L 3022 2063 
z
" transform="scale(0.015625)"/>
       <path id="DejaVuSans-20" transform="scale(0.015625)"/>
       <path id="DejaVuSans-50" d="M 1259 4147 
L 1259 2394 
L 2053 2394 
Q 2494 2394 2734 2622 
Q 2975 2850 2975 3272 
Q 2975 3691 2734 3919 
Q 2494 4147 2053 4147 
L 1259 4147 
z
M 628 4666 
L 2053 4666 
Q 2838 4666 3239 4311 
Q 3641 3956 3641 3272 
Q 3641 2581 3239 2228 
Q 2838 1875 2053 1875 
L 1259 1875 
L 1259 0 
L 628 0 
L 628 4666 
z
" transform="scale(0.015625)"/>
       <path id="DejaVuSans-6f" d="M 1959 3097 
Q 1497 3097 1228 2736 
Q 959 2375 959 1747 
Q 959 1119 1226 758 
Q 1494 397 1959 397 
Q 2419 397 2687 759 
Q 2956 1122 2956 1747 
Q 2956 2369 2687 2733 
Q 2419 3097 1959 3097 
z
M 1959 3584 
Q 2709 3584 3137 3096 
Q 3566 2609 3566 1747 
Q 3566 888 3137 398 
Q 2709 -91 1959 -91 
Q 1206 -91 779 398 
Q 353 888 353 1747 
Q 353 2609 779 3096 
Q 1206 3584 1959 3584 
z
" transform="scale(0.015625)"/>
       <path id="DejaVuSans-69" d="M 603 3500 
L 1178 3500 
L 1178 0 
L 603 0 
L 603 3500 
z
M 603 4863 
L 1178 4863 
L 1178 4134 
L 603 4134 
L 603 4863 
z
" transform="scale(0.015625)"/>
       <path id="DejaVuSans-74" d="M 1172 4494 
L 1172 3500 
L 2356 3500 
L 2356 3053 
L 1172 3053 
L 1172 1153 
Q 1172 725 1289 603 
Q 1406 481 1766 481 
L 2356 481 
L 2356 0 
L 1766 0 
Q 1100 0 847 248 
Q 594 497 594 1153 
L 594 3053 
L 172 3053 
L 172 3500 
L 594 3500 
L 594 4494 
L 1172 4494 
z
" transform="scale(0.015625)"/>
       <path id="DejaVuSans-76" d="M 191 3500 
L 800 3500 
L 1894 563 
L 2988 3500 
L 3597 3500 
L 2284 0 
L 1503 0 
L 191 3500 
z
" transform="scale(0.015625)"/>
       <path id="DejaVuSans-52" d="M 2841 2188 
Q 3044 2119 3236 1894 
Q 3428 1669 3622 1275 
L 4263 0 
L 3584 0 
L 2988 1197 
Q 2756 1666 2539 1819 
Q 2322 1972 1947 1972 
L 1259 1972 
L 1259 0 
L 628 0 
L 628 4666 
L 2053 4666 
Q 2853 4666 3247 4331 
Q 3641 3997 3641 3322 
Q 3641 2881 3436 2590 
Q 3231 2300 2841 2188 
z
M 1259 4147 
L 1259 2491 
L 2053 2491 
Q 2509 2491 2742 2702 
Q 2975 2913 2975 3322 
Q 2975 3731 2742 3939 
Q 2509 4147 2053 4147 
L 1259 4147 
z
" transform="scale(0.015625)"/>
      </defs>
      <use xlink:href="#DejaVuSans-46"/>
      <use xlink:href="#DejaVuSans-61" x="48.394531"/>
      <use xlink:href="#DejaVuSans-6c" x="109.673828"/>
      <use xlink:href="#DejaVuSans-73" x="137.457031"/>
      <use xlink:href="#DejaVuSans-65" x="189.556641"/>
      <use xlink:href="#DejaVuSans-20" x="251.080078"/>
      <use xlink:href="#DejaVuSans-50" x="282.867188"/>
      <use xlink:href="#DejaVuSans-6f" x="339.544922"/>
      <use xlink:href="#DejaVuSans-73" x="400.726562"/>
      <use xlink:href="#DejaVuSans-69" x="452.826172"/>
      <use xlink:href="#DejaVuSans-74" x="480.609375"/>
      <use xlink:href="#DejaVuSans-69" x="519.818359"/>
      <use xlink:href="#DejaVuSans-76" x="547.601562"/>
      <use xlink:href="#DejaVuSans-65" x="606.78125"/>
      <use xlink:href="#DejaVuSans-20" x="668.304688"/>
      <use xlink:href="#DejaVuSans-52" x="700.091797"/>
      <use xlink:href="#DejaVuSans-61" x="767.324219"/>
      <use xlink:href="#DejaVuSans-74" x="828.603516"/>
      <use xlink:href="#DejaVuSans-65" x="867.8125"/>
     </g>
    </g>
   </g>
   <g id="matplotlib.axis_2">
    <g id="ytick_1">
     <g id="line2d_13">
      <path d="M 55.08 369.36 
L 387.72 369.36 
" clip-path="url(#pf4a89fdf18)" style="fill: none; stroke: #b0b0b0; stroke-width: 0.5; stroke-linecap: square"/>
     </g>
     <g id="line2d_14">
      <defs>
       <path id="m50dd914cd8" d="M 0 0 
L -3.5 0 
" style="stroke: #000000; stroke-width: 0.8"/>
      </defs>
      <g>
       <use xlink:href="#m50dd914cd8" x="55.08" y="369.36" style="stroke: #000000; stroke-width: 0.8"/>
      </g>
     </g>
     <g id="text_8">
      <!-- 0.0 -->
      <g transform="translate(32.176875 373.159219) scale(0.1 -0.1)">
       <use xlink:href="#DejaVuSans-30"/>
       <use xlink:href="#DejaVuSans-2e" x="63.623047"/>
       <use xlink:href="#DejaVuSans-30" x="95.410156"/>
      </g>
     </g>
    </g>
    <g id="ytick_2">
     <g id="line2d_15">
      <path d="M 55.08 308.88 
L 387.72 308.88 
" clip-path="url(#pf4a89fdf18)" style="fill: none; stroke: #b0b0b0; stroke-width: 0.5; stroke-linecap: square"/>
     </g>
     <g id="line2d_16">
      <g>
       <use xlink:href="#m50dd914cd8" x="55.08" y="308.88" style="stroke: #000000; stroke-width: 0.8"/>
      </g>
     </g>
     <g id="text_9">
      <!-- 0.2 -->
      <g transform="translate(32.176875 312.679219) scale(0.1 -0.1)">
       <use xlink:href="#DejaVuSans-30"/>
       <use xlink:href="#DejaVuSans-2e" x="63.623047"/>
       <use xlink:href="#DejaVuSans-32" x="95.410156"/>
      </g>
     </g>
    </g>
    <g id="ytick_3">
     <g id="line2d_17">
      <path d="M 55.08 248.4 
L 387.72 248.4 
" clip-path="url(#pf4a89fdf18)" style="fill: none; stroke: #b0b0b0; stroke-width: 0.5; stroke-linecap: square"/>
     </g>
     <g id="line2d_18">
      <g>
       <use xlink:href="#m50dd914cd8" x="55.08" y="248.4" style="stroke: #000000; stroke-width: 0.8"/>
      </g>
     </g>
     <g id="text_10">
      <!-- 0.4 -->
      <g transform="translate(32.176875 252.199219) scale(0.1 -0.1)">
       <use xlink:href="#DejaVuSans-30"/>
       <use xlink:href="#DejaVuSans-2e" x="63.623047"/>
       <use xlink:href="#DejaVuSans-34" x="95.410156"/>
      </g>
     </g>
    </g>
    <g id="ytick_4">
     <g id="line2d_19">
      <path d="M 55.08 187.92 
L 387.72 187.92 
" clip-path="url(#pf4a89fdf18)" style="fill: none; stroke: #b0b0b0; stroke-width: 0.5; stroke-linecap: square"/>
     </g>
     <g id="line2d_20">
      <g>
       <use xlink:href="#m50dd914cd8" x="55.08" y="187.92" style="stroke: #000000; stroke-width: 0.8"/>
      </g>
     </g>
     <g id="text_11">
      <!-- 0.6 -->
      <g transform="translate(32.176875 191.719219) scale(0.1 -0.1)">
       <use xlink:href="#DejaVuSans-30"/>
       <use xlink:href="#DejaVuSans-2e" x="63.623047"/>
       <use xlink:href="#DejaVuSans-36" x="95.410156"/>
      </g>
     </g>
    </g>
    <g id="ytick_5">
     <g id="line2d_21">
      <path d="M 55.08 127.44 
L 387.72 127.44 
" clip-path="url(#pf4a89fdf18)" style="fill: none; stroke: #b0b0b0; stroke-width: 0.5; stroke-linecap: square"/>
     </g>
     <g id="line2d_22">
      <g>
       <use xlink:href="#m50dd914cd8" x="55.08" y="127.44" style="stroke: #000000; stroke-width: 0.8"/>
      </g>
     </g>
     <g id="text_12">
      <!-- 0.8 -->
      <g transform="translate(32.176875 131.239219) scale(0.1 -0.1)">
       <use xlink:href="#DejaVuSans-30"/>
       <use xlink:href="#DejaVuSans-2e" x="63.623047"/>
       <use xlink:href="#DejaVuSans-38" x="95.410156"/>
      </g>
     </g>
    </g>
    <g id="ytick_6">
     <g id="line2d_23">
      <path d="M 55.08 66.96 
L 387.72 66.96 
" clip-path="url(#pf4a89fdf18)" style="fill: none; stroke: #b0b0b0; stroke-width: 0.5; stroke-linecap: square"/>
     </g>
     <g id="line2d_24">
      <g>
       <use xlink:href="#m50dd914cd8" x="55.08" y="66.96" style="stroke: #000000; stroke-width: 0.8"/>
      </g>
     </g>
     <g id="text_13">
      <!-- 1.0 -->
      <g transform="translate(32.176875 70.759219) scale(0.1 -0.1)">
       <use xlink:href="#DejaVuSans-31"/>
       <use xlink:href="#DejaVuSans-2e" x="63.623047"/>
       <use xlink:href="#DejaVuSans-30" x="95.410156"/>
      </g>
     </g>
    </g>
    <g id="text_14">
     <!-- True Positive Rate -->
     <g transform="translate(26.097187 262.689687) rotate(-90) scale(0.1 -0.1)">
      <defs>
       <path id="DejaVuSans-54" d="M -19 4666 
L 3928 4666 
L 3928 4134 
L 2272 4134 
L 2272 0 
L 1638 0 
L 1638 4134 
L -19 4134 
L -19 4666 
z
" transform="scale(0.015625)"/>
       <path id="DejaVuSans-72" d="M 2631 2963 
Q 2534 3019 2420 3045 
Q 2306 3072 2169 3072 
Q 1681 3072 1420 2755 
Q 1159 2438 1159 1844 
L 1159 0 
L 581 0 
L 581 3500 
L 1159 3500 
L 1159 2956 
Q 1341 3275 1631 3429 
Q 1922 3584 2338 3584 
Q 2397 3584 2469 3576 
Q 2541 3569 2628 3553 
L 2631 2963 
z
" transform="scale(0.015625)"/>
       <path id="DejaVuSans-75" d="M 544 1381 
L 544 3500 
L 1119 3500 
L 1119 1403 
Q 1119 906 1312 657 
Q 1506 409 1894 409 
Q 2359 409 2629 706 
Q 2900 1003 2900 1516 
L 2900 3500 
L 3475 3500 
L 3475 0 
L 2900 0 
L 2900 538 
Q 2691 219 2414 64 
Q 2138 -91 1772 -91 
Q 1169 -91 856 284 
Q 544 659 544 1381 
z
M 1991 3584 
L 1991 3584 
z
" transform="scale(0.015625)"/>
      </defs>
      <use xlink:href="#DejaVuSans-54"/>
      <use xlink:href="#DejaVuSans-72" x="46.333984"/>
      <use xlink:href="#DejaVuSans-75" x="87.447266"/>
      <use xlink:href="#DejaVuSans-65" x="150.826172"/>
      <use xlink:href="#DejaVuSans-20" x="212.349609"/>
      <use xlink:href="#DejaVuSans-50" x="244.136719"/>
      <use xlink:href="#DejaVuSans-6f" x="300.814453"/>
      <use xlink:href="#DejaVuSans-73" x="361.996094"/>
      <use xlink:href="#DejaVuSans-69" x="414.095703"/>
      <use xlink:href="#DejaVuSans-74" x="441.878906"/>
      <use xlink:href="#DejaVuSans-69" x="481.087891"/>
      <use xlink:href="#DejaVuSans-76" x="508.871094"/>
      <use xlink:href="#DejaVuSans-65" x="568.050781"/>
      <use xlink:href="#DejaVuSans-20" x="629.574219"/>
      <use xlink:href="#DejaVuSans-52" x="661.361328"/>
      <use xlink:href="#DejaVuSans-61" x="728.59375"/>
      <use xlink:href="#DejaVuSans-74" x="789.873047"/>
      <use xlink:href="#DejaVuSans-65" x="829.082031"/>
     </g>
    </g>
   </g>
   <g id="line2d_25">
    <path d="M 70.2 369.36 
L 70.2 364.635 
L 89.1 364.635 
L 89.1 341.01 
L 98.55 341.01 
L 98.55 336.285 
L 108 336.285 
L 108 331.56 
L 117.45 331.56 
L 117.45 322.11 
L 126.9 322.11 
L 126.9 312.66 
L 136.35 312.66 
L 136.35 303.21 
L 145.8 303.21 
L 145.8 289.035 
L 164.7 289.035 
L 164.7 284.31 
L 174.15 284.31 
L 174.15 279.585 
L 183.6 279.585 
L 183.6 260.685 
L 193.05 260.685 
L 193.05 246.51 
L 202.5 246.51 
L 202.5 237.06 
L 211.95 237.06 
L 211.95 203.985 
L 221.4 203.985 
L 221.4 194.535 
L 230.85 194.535 
L 230.85 189.81 
L 249.75 189.81 
L 249.75 175.635 
L 259.2 175.635 
L 259.2 170.91 
L 268.65 170.91 
L 268.65 156.735 
L 287.55 156.735 
L 287.55 152.01 
L 297 152.01 
L 297 104.76 
L 334.8 104.76 
L 334.8 95.31 
L 353.7 95.31 
L 353.7 81.135 
L 363.15 81.135 
L 363.15 71.685 
L 372.6 71.685 
L 372.6 66.96 
" clip-path="url(#pf4a89fdf18)" style="fill: none; stroke: #1f77b4; stroke-opacity: 0.3; stroke-linecap: square"/>
   </g>
   <g id="line2d_26">
    <path d="M 70.2 369.36 
L 79.65 369.36 
L 89.1 369.36 
L 89.1 364.635 
L 98.55 364.635 
L 98.55 355.185 
L 108 355.185 
L 108 350.46 
L 145.8 350.46 
L 145.8 322.11 
L 164.7 322.11 
L 164.7 289.035 
L 174.15 289.035 
L 174.15 270.135 
L 183.6 270.135 
L 183.6 265.41 
L 211.95 265.41 
L 211.95 255.96 
L 221.4 255.96 
L 221.4 251.235 
L 230.85 251.235 
L 230.85 161.46 
L 240.3 161.46 
L 240.3 147.285 
L 259.2 147.285 
L 259.2 137.835 
L 268.65 137.835 
L 268.65 128.385 
L 278.1 128.385 
L 278.1 123.66 
L 287.55 123.66 
L 287.55 114.21 
L 297 114.21 
L 297 95.31 
L 306.45 95.31 
L 306.45 85.86 
L 325.35 85.86 
L 325.35 81.135 
L 334.8 81.135 
L 334.8 76.41 
L 353.7 76.41 
L 353.7 66.96 
L 372.6 66.96 
" clip-path="url(#pf4a89fdf18)" style="fill: none; stroke: #ff7f0e; stroke-opacity: 0.3; stroke-linecap: square"/>
   </g>
   <g id="line2d_27">
    <path d="M 70.2 369.36 
L 70.2 364.635 
L 70.2 359.91 
L 79.65 359.91 
L 79.65 355.185 
L 89.1 355.185 
L 89.1 350.46 
L 98.55 350.46 
L 98.55 317.385 
L 117.45 317.385 
L 117.45 303.21 
L 136.35 303.21 
L 136.35 298.485 
L 145.8 298.485 
L 145.8 274.86 
L 155.25 274.86 
L 155.25 265.41 
L 164.7 265.41 
L 164.7 260.685 
L 174.15 260.685 
L 174.15 255.96 
L 193.05 255.96 
L 193.05 203.985 
L 221.4 203.985 
L 221.4 194.535 
L 230.85 194.535 
L 230.85 189.81 
L 249.75 189.81 
L 249.75 185.085 
L 259.2 185.085 
L 259.2 175.635 
L 287.55 175.635 
L 287.55 170.91 
L 297 170.91 
L 297 161.46 
L 306.45 161.46 
L 306.45 109.485 
L 315.9 109.485 
L 315.9 100.035 
L 334.8 100.035 
L 334.8 95.31 
L 344.25 95.31 
L 344.25 81.135 
L 363.15 81.135 
L 363.15 66.96 
L 372.6 66.96 
" clip-path="url(#pf4a89fdf18)" style="fill: none; stroke: #2ca02c; stroke-opacity: 0.3; stroke-linecap: square"/>
   </g>
   <g id="line2d_28">
    <path d="M 70.2 369.36 
L 70.2 364.56 
L 70.2 330.96 
L 88.527273 330.96 
L 88.527273 326.16 
L 106.854545 326.16 
L 106.854545 311.76 
L 116.018182 311.76 
L 116.018182 287.76 
L 125.181818 287.76 
L 125.181818 278.16 
L 143.509091 278.16 
L 143.509091 258.96 
L 152.672727 258.96 
L 152.672727 239.76 
L 161.836364 239.76 
L 161.836364 234.96 
L 171 234.96 
L 171 220.56 
L 180.163636 220.56 
L 180.163636 215.76 
L 189.327273 215.76 
L 189.327273 201.36 
L 198.490909 201.36 
L 198.490909 172.56 
L 207.654545 172.56 
L 207.654545 167.76 
L 216.818182 167.76 
L 216.818182 162.96 
L 225.981818 162.96 
L 225.981818 158.16 
L 244.309091 158.16 
L 244.309091 124.56 
L 253.472727 124.56 
L 253.472727 119.76 
L 262.636364 119.76 
L 262.636364 114.96 
L 271.8 114.96 
L 271.8 105.36 
L 299.290909 105.36 
L 299.290909 95.76 
L 308.454545 95.76 
L 308.454545 90.96 
L 326.781818 90.96 
L 326.781818 86.16 
L 345.109091 86.16 
L 345.109091 76.56 
L 354.272727 76.56 
L 354.272727 66.96 
L 372.6 66.96 
" clip-path="url(#pf4a89fdf18)" style="fill: none; stroke: #d62728; stroke-opacity: 0.3; stroke-linecap: square"/>
   </g>
   <g id="line2d_29">
    <path d="M 70.2 369.36 
L 70.2 364.56 
L 70.2 354.96 
L 79.363636 354.96 
L 79.363636 335.76 
L 97.690909 335.76 
L 97.690909 321.36 
L 106.854545 321.36 
L 106.854545 311.76 
L 125.181818 311.76 
L 125.181818 306.96 
L 134.345455 306.96 
L 134.345455 297.36 
L 143.509091 297.36 
L 143.509091 287.76 
L 180.163636 287.76 
L 180.163636 282.96 
L 189.327273 282.96 
L 189.327273 278.16 
L 198.490909 278.16 
L 198.490909 263.76 
L 207.654545 263.76 
L 207.654545 249.36 
L 216.818182 249.36 
L 216.818182 239.76 
L 225.981818 239.76 
L 225.981818 234.96 
L 244.309091 234.96 
L 244.309091 225.36 
L 280.963636 225.36 
L 280.963636 220.56 
L 290.127273 220.56 
L 290.127273 182.16 
L 299.290909 182.16 
L 299.290909 134.16 
L 317.618182 134.16 
L 317.618182 119.76 
L 326.781818 119.76 
L 326.781818 105.36 
L 335.945455 105.36 
L 335.945455 95.76 
L 345.109091 95.76 
L 345.109091 86.16 
L 354.272727 86.16 
L 354.272727 76.56 
L 363.436364 76.56 
L 363.436364 66.96 
L 372.6 66.96 
" clip-path="url(#pf4a89fdf18)" style="fill: none; stroke: #9467bd; stroke-opacity: 0.3; stroke-linecap: square"/>
   </g>
   <g id="line2d_30">
    <path d="M 70.2 369.36 
L 79.363636 369.36 
L 79.363636 359.76 
L 88.527273 359.76 
L 88.527273 335.76 
L 97.690909 335.76 
L 97.690909 326.16 
L 106.854545 326.16 
L 106.854545 292.56 
L 116.018182 292.56 
L 116.018182 287.76 
L 125.181818 287.76 
L 125.181818 273.36 
L 134.345455 273.36 
L 134.345455 258.96 
L 143.509091 258.96 
L 143.509091 244.56 
L 161.836364 244.56 
L 161.836364 239.76 
L 171 239.76 
L 171 230.16 
L 189.327273 230.16 
L 189.327273 215.76 
L 207.654545 215.76 
L 207.654545 201.36 
L 235.145455 201.36 
L 235.145455 196.56 
L 244.309091 196.56 
L 244.309091 177.36 
L 262.636364 177.36 
L 262.636364 162.96 
L 280.963636 162.96 
L 280.963636 158.16 
L 290.127273 158.16 
L 290.127273 138.96 
L 299.290909 138.96 
L 299.290909 134.16 
L 308.454545 134.16 
L 308.454545 129.36 
L 317.618182 129.36 
L 317.618182 119.76 
L 326.781818 119.76 
L 326.781818 110.16 
L 345.109091 110.16 
L 345.109091 95.76 
L 363.436364 95.76 
L 363.436364 90.96 
L 372.6 90.96 
L 372.6 66.96 
" clip-path="url(#pf4a89fdf18)" style="fill: none; stroke: #8c564b; stroke-opacity: 0.3; stroke-linecap: square"/>
   </g>
   <g id="line2d_31">
    <path d="M 70.2 369.36 
L 79.363636 369.36 
L 79.363636 364.56 
L 88.527273 364.56 
L 88.527273 359.76 
L 97.690909 359.76 
L 97.690909 350.16 
L 106.854545 350.16 
L 106.854545 335.76 
L 116.018182 335.76 
L 116.018182 326.16 
L 171 326.16 
L 171 311.76 
L 180.163636 311.76 
L 180.163636 302.16 
L 189.327273 302.16 
L 189.327273 278.16 
L 198.490909 278.16 
L 198.490909 268.56 
L 207.654545 268.56 
L 207.654545 263.76 
L 216.818182 263.76 
L 216.818182 258.96 
L 244.309091 258.96 
L 244.309091 220.56 
L 262.636364 220.56 
L 262.636364 215.76 
L 271.8 215.76 
L 271.8 196.56 
L 280.963636 196.56 
L 280.963636 177.36 
L 299.290909 177.36 
L 299.290909 153.36 
L 308.454545 153.36 
L 308.454545 134.16 
L 317.618182 134.16 
L 317.618182 110.16 
L 326.781818 110.16 
L 326.781818 105.36 
L 335.945455 105.36 
L 335.945455 95.76 
L 363.436364 95.76 
L 363.436364 66.96 
L 372.6 66.96 
" clip-path="url(#pf4a89fdf18)" style="fill: none; stroke: #e377c2; stroke-opacity: 0.3; stroke-linecap: square"/>
   </g>
   <g id="line2d_32">
    <path d="M 70.2 369.36 
L 70.2 364.56 
L 70.2 354.96 
L 88.527273 354.96 
L 88.527273 321.36 
L 106.854545 321.36 
L 106.854545 311.76 
L 116.018182 311.76 
L 116.018182 306.96 
L 125.181818 306.96 
L 125.181818 302.16 
L 143.509091 302.16 
L 143.509091 268.56 
L 161.836364 268.56 
L 161.836364 249.36 
L 180.163636 249.36 
L 180.163636 220.56 
L 216.818182 220.56 
L 216.818182 215.76 
L 235.145455 215.76 
L 235.145455 210.96 
L 271.8 210.96 
L 271.8 196.56 
L 280.963636 196.56 
L 280.963636 143.76 
L 290.127273 143.76 
L 290.127273 138.96 
L 299.290909 138.96 
L 299.290909 134.16 
L 308.454545 134.16 
L 308.454545 124.56 
L 317.618182 124.56 
L 317.618182 110.16 
L 326.781818 110.16 
L 326.781818 95.76 
L 335.945455 95.76 
L 335.945455 90.96 
L 372.6 90.96 
L 372.6 66.96 
" clip-path="url(#pf4a89fdf18)" style="fill: none; stroke: #7f7f7f; stroke-opacity: 0.3; stroke-linecap: square"/>
   </g>
   <g id="line2d_33">
    <path d="M 70.2 369.36 
L 70.2 364.56 
L 79.65 364.56 
L 79.65 311.76 
L 89.1 311.76 
L 89.1 306.96 
L 98.55 306.96 
L 98.55 302.16 
L 108 302.16 
L 108 297.36 
L 117.45 297.36 
L 117.45 287.76 
L 126.9 287.76 
L 126.9 282.96 
L 136.35 282.96 
L 136.35 254.16 
L 164.7 254.16 
L 164.7 249.36 
L 174.15 249.36 
L 174.15 244.56 
L 183.6 244.56 
L 183.6 225.36 
L 193.05 225.36 
L 193.05 215.76 
L 202.5 215.76 
L 202.5 210.96 
L 211.95 210.96 
L 211.95 206.16 
L 240.3 206.16 
L 240.3 201.36 
L 249.75 201.36 
L 249.75 167.76 
L 259.2 167.76 
L 259.2 162.96 
L 278.1 162.96 
L 278.1 158.16 
L 287.55 158.16 
L 287.55 148.56 
L 306.45 148.56 
L 306.45 143.76 
L 315.9 143.76 
L 315.9 119.76 
L 334.8 119.76 
L 334.8 105.36 
L 344.25 105.36 
L 344.25 95.76 
L 353.7 95.76 
L 353.7 81.36 
L 372.6 81.36 
L 372.6 66.96 
" clip-path="url(#pf4a89fdf18)" style="fill: none; stroke: #bcbd22; stroke-opacity: 0.3; stroke-linecap: square"/>
   </g>
   <g id="line2d_34">
    <path d="M 70.2 369.36 
L 79.65 369.36 
L 79.65 354.96 
L 89.1 354.96 
L 89.1 350.16 
L 108 350.16 
L 108 306.96 
L 117.45 306.96 
L 117.45 278.16 
L 126.9 278.16 
L 126.9 273.36 
L 155.25 273.36 
L 155.25 258.96 
L 164.7 258.96 
L 164.7 234.96 
L 174.15 234.96 
L 174.15 210.96 
L 183.6 210.96 
L 183.6 186.96 
L 211.95 186.96 
L 211.95 182.16 
L 221.4 182.16 
L 221.4 177.36 
L 230.85 177.36 
L 230.85 153.36 
L 259.2 153.36 
L 259.2 148.56 
L 297 148.56 
L 297 114.96 
L 306.45 114.96 
L 306.45 110.16 
L 325.35 110.16 
L 325.35 81.36 
L 344.25 81.36 
L 344.25 71.76 
L 363.15 71.76 
L 363.15 66.96 
L 372.6 66.96 
" clip-path="url(#pf4a89fdf18)" style="fill: none; stroke: #17becf; stroke-opacity: 0.3; stroke-linecap: square"/>
   </g>
   <g id="line2d_35">
    <path d="M 70.2 369.36 
L 372.6 66.96 
" clip-path="url(#pf4a89fdf18)" style="fill: none; stroke-dasharray: 5.55,2.4; stroke-dashoffset: 0; stroke: #000000; stroke-width: 1.5"/>
   </g>
   <g id="line2d_36">
    <path d="M 70.2 369.36 
L 73.254545 360.7425 
L 76.309091 360.7425 
L 79.363636 357.3825 
L 82.418182 350.19 
L 85.472727 350.19 
L 88.527273 343.47 
L 91.581818 339.2025 
L 94.636364 339.2025 
L 97.690909 335.8425 
L 100.745455 330.6375 
L 103.8 330.6375 
L 106.854545 322.4775 
L 109.909091 316.7325 
L 112.963636 316.7325 
L 116.018182 312.4125 
L 119.072727 306.21 
L 122.127273 306.21 
L 125.181818 302.85 
L 128.236364 300.945 
L 131.290909 300.945 
L 134.345455 298.545 
L 137.4 294.2475 
L 140.454545 294.2475 
L 143.509091 286.5675 
L 146.563636 279.9525 
L 149.618182 279.9525 
L 152.672727 278.0325 
L 155.727273 275.6475 
L 158.781818 275.6475 
L 161.836364 272.7675 
L 164.890909 265.635 
L 167.945455 265.635 
L 171 261.795 
L 174.054545 261.795 
L 177.109091 256.08 
L 180.163636 251.28 
L 183.218182 251.28 
L 186.272727 244.5975 
L 189.327273 238.8375 
L 192.381818 238.8375 
L 195.436364 231.2625 
L 198.490909 225.9825 
L 201.545455 225.9825 
L 204.6 224.5575 
L 207.654545 220.7175 
L 210.709091 220.7175 
L 213.763636 215.505 
L 216.818182 213.105 
L 219.872727 213.105 
L 222.927273 210.2625 
L 225.981818 209.3025 
L 229.036364 209.3025 
L 232.090909 196.98 
L 235.145455 196.02 
L 238.2 196.02 
L 241.254545 194.1225 
L 244.309091 184.0425 
L 247.363636 184.0425 
L 250.418182 178.7925 
L 253.472727 178.3125 
L 256.527273 178.3125 
L 259.581818 174.99 
L 262.636364 172.59 
L 265.690909 172.59 
L 268.745455 170.2275 
L 271.8 165.9075 
L 274.854545 165.9075 
L 277.909091 165.9075 
L 280.963636 156.795 
L 284.018182 156.795 
L 287.072727 156.795 
L 290.127273 147.705 
L 293.181818 147.705 
L 296.236364 147.705 
L 299.290909 127.665 
L 302.345455 127.665 
L 305.4 127.665 
L 308.454545 116.7225 
L 311.509091 116.7225 
L 314.563636 116.7225 
L 317.618182 107.1375 
L 320.672727 107.1375 
L 323.727273 107.1375 
L 326.781818 98.985 
L 329.836364 98.985 
L 332.890909 98.985 
L 335.945455 93.255 
L 339 93.255 
L 342.054545 93.255 
L 345.109091 86.5575 
L 348.163636 86.5575 
L 351.218182 86.5575 
L 354.272727 80.835 
L 357.327273 80.835 
L 360.381818 80.835 
L 363.436364 73.6725 
L 366.490909 73.6725 
L 369.545455 73.6725 
L 372.6 66.96 
" clip-path="url(#pf4a89fdf18)" style="fill: none; stroke: #0000ff; stroke-opacity: 0.8; stroke-width: 2; stroke-linecap: square"/>
   </g>
   <g id="patch_3">
    <path d="M 55.08 384.48 
L 55.08 51.84 
" style="fill: none; stroke: #000000; stroke-width: 0.8; stroke-linejoin: miter; stroke-linecap: square"/>
   </g>
   <g id="patch_4">
    <path d="M 387.72 384.48 
L 387.72 51.84 
" style="fill: none; stroke: #000000; stroke-width: 0.8; stroke-linejoin: miter; stroke-linecap: square"/>
   </g>
   <g id="patch_5">
    <path d="M 55.08 384.48 
L 387.72 384.48 
" style="fill: none; stroke: #000000; stroke-width: 0.8; stroke-linejoin: miter; stroke-linecap: square"/>
   </g>
   <g id="patch_6">
    <path d="M 55.08 51.84 
L 387.72 51.84 
" style="fill: none; stroke: #000000; stroke-width: 0.8; stroke-linejoin: miter; stroke-linecap: square"/>
   </g>
   <g id="text_15">
    <!-- Mean ROC curve with variability of 10 folds in D vs rest -->
    <g transform="translate(55.632187 45.84) scale(0.12 -0.12)">
     <defs>
      <path id="DejaVuSans-4d" d="M 628 4666 
L 1569 4666 
L 2759 1491 
L 3956 4666 
L 4897 4666 
L 4897 0 
L 4281 0 
L 4281 4097 
L 3078 897 
L 2444 897 
L 1241 4097 
L 1241 0 
L 628 0 
L 628 4666 
z
" transform="scale(0.015625)"/>
      <path id="DejaVuSans-6e" d="M 3513 2113 
L 3513 0 
L 2938 0 
L 2938 2094 
Q 2938 2591 2744 2837 
Q 2550 3084 2163 3084 
Q 1697 3084 1428 2787 
Q 1159 2491 1159 1978 
L 1159 0 
L 581 0 
L 581 3500 
L 1159 3500 
L 1159 2956 
Q 1366 3272 1645 3428 
Q 1925 3584 2291 3584 
Q 2894 3584 3203 3211 
Q 3513 2838 3513 2113 
z
" transform="scale(0.015625)"/>
      <path id="DejaVuSans-4f" d="M 2522 4238 
Q 1834 4238 1429 3725 
Q 1025 3213 1025 2328 
Q 1025 1447 1429 934 
Q 1834 422 2522 422 
Q 3209 422 3611 934 
Q 4013 1447 4013 2328 
Q 4013 3213 3611 3725 
Q 3209 4238 2522 4238 
z
M 2522 4750 
Q 3503 4750 4090 4092 
Q 4678 3434 4678 2328 
Q 4678 1225 4090 567 
Q 3503 -91 2522 -91 
Q 1538 -91 948 565 
Q 359 1222 359 2328 
Q 359 3434 948 4092 
Q 1538 4750 2522 4750 
z
" transform="scale(0.015625)"/>
      <path id="DejaVuSans-43" d="M 4122 4306 
L 4122 3641 
Q 3803 3938 3442 4084 
Q 3081 4231 2675 4231 
Q 1875 4231 1450 3742 
Q 1025 3253 1025 2328 
Q 1025 1406 1450 917 
Q 1875 428 2675 428 
Q 3081 428 3442 575 
Q 3803 722 4122 1019 
L 4122 359 
Q 3791 134 3420 21 
Q 3050 -91 2638 -91 
Q 1578 -91 968 557 
Q 359 1206 359 2328 
Q 359 3453 968 4101 
Q 1578 4750 2638 4750 
Q 3056 4750 3426 4639 
Q 3797 4528 4122 4306 
z
" transform="scale(0.015625)"/>
      <path id="DejaVuSans-63" d="M 3122 3366 
L 3122 2828 
Q 2878 2963 2633 3030 
Q 2388 3097 2138 3097 
Q 1578 3097 1268 2742 
Q 959 2388 959 1747 
Q 959 1106 1268 751 
Q 1578 397 2138 397 
Q 2388 397 2633 464 
Q 2878 531 3122 666 
L 3122 134 
Q 2881 22 2623 -34 
Q 2366 -91 2075 -91 
Q 1284 -91 818 406 
Q 353 903 353 1747 
Q 353 2603 823 3093 
Q 1294 3584 2113 3584 
Q 2378 3584 2631 3529 
Q 2884 3475 3122 3366 
z
" transform="scale(0.015625)"/>
      <path id="DejaVuSans-77" d="M 269 3500 
L 844 3500 
L 1563 769 
L 2278 3500 
L 2956 3500 
L 3675 769 
L 4391 3500 
L 4966 3500 
L 4050 0 
L 3372 0 
L 2619 2869 
L 1863 0 
L 1184 0 
L 269 3500 
z
" transform="scale(0.015625)"/>
      <path id="DejaVuSans-68" d="M 3513 2113 
L 3513 0 
L 2938 0 
L 2938 2094 
Q 2938 2591 2744 2837 
Q 2550 3084 2163 3084 
Q 1697 3084 1428 2787 
Q 1159 2491 1159 1978 
L 1159 0 
L 581 0 
L 581 4863 
L 1159 4863 
L 1159 2956 
Q 1366 3272 1645 3428 
Q 1925 3584 2291 3584 
Q 2894 3584 3203 3211 
Q 3513 2838 3513 2113 
z
" transform="scale(0.015625)"/>
      <path id="DejaVuSans-62" d="M 3116 1747 
Q 3116 2381 2855 2742 
Q 2594 3103 2138 3103 
Q 1681 3103 1420 2742 
Q 1159 2381 1159 1747 
Q 1159 1113 1420 752 
Q 1681 391 2138 391 
Q 2594 391 2855 752 
Q 3116 1113 3116 1747 
z
M 1159 2969 
Q 1341 3281 1617 3432 
Q 1894 3584 2278 3584 
Q 2916 3584 3314 3078 
Q 3713 2572 3713 1747 
Q 3713 922 3314 415 
Q 2916 -91 2278 -91 
Q 1894 -91 1617 61 
Q 1341 213 1159 525 
L 1159 0 
L 581 0 
L 581 4863 
L 1159 4863 
L 1159 2969 
z
" transform="scale(0.015625)"/>
      <path id="DejaVuSans-79" d="M 2059 -325 
Q 1816 -950 1584 -1140 
Q 1353 -1331 966 -1331 
L 506 -1331 
L 506 -850 
L 844 -850 
Q 1081 -850 1212 -737 
Q 1344 -625 1503 -206 
L 1606 56 
L 191 3500 
L 800 3500 
L 1894 763 
L 2988 3500 
L 3597 3500 
L 2059 -325 
z
" transform="scale(0.015625)"/>
      <path id="DejaVuSans-66" d="M 2375 4863 
L 2375 4384 
L 1825 4384 
Q 1516 4384 1395 4259 
Q 1275 4134 1275 3809 
L 1275 3500 
L 2222 3500 
L 2222 3053 
L 1275 3053 
L 1275 0 
L 697 0 
L 697 3053 
L 147 3053 
L 147 3500 
L 697 3500 
L 697 3744 
Q 697 4328 969 4595 
Q 1241 4863 1831 4863 
L 2375 4863 
z
" transform="scale(0.015625)"/>
      <path id="DejaVuSans-64" d="M 2906 2969 
L 2906 4863 
L 3481 4863 
L 3481 0 
L 2906 0 
L 2906 525 
Q 2725 213 2448 61 
Q 2172 -91 1784 -91 
Q 1150 -91 751 415 
Q 353 922 353 1747 
Q 353 2572 751 3078 
Q 1150 3584 1784 3584 
Q 2172 3584 2448 3432 
Q 2725 3281 2906 2969 
z
M 947 1747 
Q 947 1113 1208 752 
Q 1469 391 1925 391 
Q 2381 391 2643 752 
Q 2906 1113 2906 1747 
Q 2906 2381 2643 2742 
Q 2381 3103 1925 3103 
Q 1469 3103 1208 2742 
Q 947 2381 947 1747 
z
" transform="scale(0.015625)"/>
      <path id="DejaVuSans-44" d="M 1259 4147 
L 1259 519 
L 2022 519 
Q 2988 519 3436 956 
Q 3884 1394 3884 2338 
Q 3884 3275 3436 3711 
Q 2988 4147 2022 4147 
L 1259 4147 
z
M 628 4666 
L 1925 4666 
Q 3281 4666 3915 4102 
Q 4550 3538 4550 2338 
Q 4550 1131 3912 565 
Q 3275 0 1925 0 
L 628 0 
L 628 4666 
z
" transform="scale(0.015625)"/>
     </defs>
     <use xlink:href="#DejaVuSans-4d"/>
     <use xlink:href="#DejaVuSans-65" x="86.279297"/>
     <use xlink:href="#DejaVuSans-61" x="147.802734"/>
     <use xlink:href="#DejaVuSans-6e" x="209.082031"/>
     <use xlink:href="#DejaVuSans-20" x="272.460938"/>
     <use xlink:href="#DejaVuSans-52" x="304.248047"/>
     <use xlink:href="#DejaVuSans-4f" x="373.730469"/>
     <use xlink:href="#DejaVuSans-43" x="452.441406"/>
     <use xlink:href="#DejaVuSans-20" x="522.265625"/>
     <use xlink:href="#DejaVuSans-63" x="554.052734"/>
     <use xlink:href="#DejaVuSans-75" x="609.033203"/>
     <use xlink:href="#DejaVuSans-72" x="672.412109"/>
     <use xlink:href="#DejaVuSans-76" x="713.525391"/>
     <use xlink:href="#DejaVuSans-65" x="772.705078"/>
     <use xlink:href="#DejaVuSans-20" x="834.228516"/>
     <use xlink:href="#DejaVuSans-77" x="866.015625"/>
     <use xlink:href="#DejaVuSans-69" x="947.802734"/>
     <use xlink:href="#DejaVuSans-74" x="975.585938"/>
     <use xlink:href="#DejaVuSans-68" x="1014.794922"/>
     <use xlink:href="#DejaVuSans-20" x="1078.173828"/>
     <use xlink:href="#DejaVuSans-76" x="1109.960938"/>
     <use xlink:href="#DejaVuSans-61" x="1169.140625"/>
     <use xlink:href="#DejaVuSans-72" x="1230.419922"/>
     <use xlink:href="#DejaVuSans-69" x="1271.533203"/>
     <use xlink:href="#DejaVuSans-61" x="1299.316406"/>
     <use xlink:href="#DejaVuSans-62" x="1360.595703"/>
     <use xlink:href="#DejaVuSans-69" x="1424.072266"/>
     <use xlink:href="#DejaVuSans-6c" x="1451.855469"/>
     <use xlink:href="#DejaVuSans-69" x="1479.638672"/>
     <use xlink:href="#DejaVuSans-74" x="1507.421875"/>
     <use xlink:href="#DejaVuSans-79" x="1546.630859"/>
     <use xlink:href="#DejaVuSans-20" x="1605.810547"/>
     <use xlink:href="#DejaVuSans-6f" x="1637.597656"/>
     <use xlink:href="#DejaVuSans-66" x="1698.779297"/>
     <use xlink:href="#DejaVuSans-20" x="1733.984375"/>
     <use xlink:href="#DejaVuSans-31" x="1765.771484"/>
     <use xlink:href="#DejaVuSans-30" x="1829.394531"/>
     <use xlink:href="#DejaVuSans-20" x="1893.017578"/>
     <use xlink:href="#DejaVuSans-66" x="1924.804688"/>
     <use xlink:href="#DejaVuSans-6f" x="1960.009766"/>
     <use xlink:href="#DejaVuSans-6c" x="2021.191406"/>
     <use xlink:href="#DejaVuSans-64" x="2048.974609"/>
     <use xlink:href="#DejaVuSans-73" x="2112.451172"/>
     <use xlink:href="#DejaVuSans-20" x="2164.550781"/>
     <use xlink:href="#DejaVuSans-69" x="2196.337891"/>
     <use xlink:href="#DejaVuSans-6e" x="2224.121094"/>
     <use xlink:href="#DejaVuSans-20" x="2287.5"/>
     <use xlink:href="#DejaVuSans-44" x="2319.287109"/>
     <use xlink:href="#DejaVuSans-20" x="2396.289062"/>
     <use xlink:href="#DejaVuSans-76" x="2428.076172"/>
     <use xlink:href="#DejaVuSans-73" x="2487.255859"/>
     <use xlink:href="#DejaVuSans-20" x="2539.355469"/>
     <use xlink:href="#DejaVuSans-72" x="2571.142578"/>
     <use xlink:href="#DejaVuSans-65" x="2610.005859"/>
     <use xlink:href="#DejaVuSans-73" x="2671.529297"/>
     <use xlink:href="#DejaVuSans-74" x="2723.628906"/>
    </g>
   </g>
   <g id="legend_1">
    <g id="patch_7">
     <path d="M 190.32 379.48 
L 380.72 379.48 
Q 382.72 379.48 382.72 377.48 
L 382.72 187.664375 
Q 382.72 185.664375 380.72 185.664375 
L 190.32 185.664375 
Q 188.32 185.664375 188.32 187.664375 
L 188.32 377.48 
Q 188.32 379.48 190.32 379.48 
z
" style="fill: #ffffff; opacity: 0.8; stroke: #cccccc; stroke-linejoin: miter"/>
    </g>
    <g id="line2d_37">
     <path d="M 192.32 193.762813 
L 202.32 193.762813 
L 212.32 193.762813 
" style="fill: none; stroke: #1f77b4; stroke-opacity: 0.3; stroke-linecap: square"/>
    </g>
    <g id="text_16">
     <!-- ROC fold 0 (AUC = 0.51) -->
     <g transform="translate(220.32 197.262813) scale(0.1 -0.1)">
      <defs>
       <path id="DejaVuSans-28" d="M 1984 4856 
Q 1566 4138 1362 3434 
Q 1159 2731 1159 2009 
Q 1159 1288 1364 580 
Q 1569 -128 1984 -844 
L 1484 -844 
Q 1016 -109 783 600 
Q 550 1309 550 2009 
Q 550 2706 781 3412 
Q 1013 4119 1484 4856 
L 1984 4856 
z
" transform="scale(0.015625)"/>
       <path id="DejaVuSans-41" d="M 2188 4044 
L 1331 1722 
L 3047 1722 
L 2188 4044 
z
M 1831 4666 
L 2547 4666 
L 4325 0 
L 3669 0 
L 3244 1197 
L 1141 1197 
L 716 0 
L 50 0 
L 1831 4666 
z
" transform="scale(0.015625)"/>
       <path id="DejaVuSans-55" d="M 556 4666 
L 1191 4666 
L 1191 1831 
Q 1191 1081 1462 751 
Q 1734 422 2344 422 
Q 2950 422 3222 751 
Q 3494 1081 3494 1831 
L 3494 4666 
L 4128 4666 
L 4128 1753 
Q 4128 841 3676 375 
Q 3225 -91 2344 -91 
Q 1459 -91 1007 375 
Q 556 841 556 1753 
L 556 4666 
z
" transform="scale(0.015625)"/>
       <path id="DejaVuSans-3d" d="M 678 2906 
L 4684 2906 
L 4684 2381 
L 678 2381 
L 678 2906 
z
M 678 1631 
L 4684 1631 
L 4684 1100 
L 678 1100 
L 678 1631 
z
" transform="scale(0.015625)"/>
       <path id="DejaVuSans-35" d="M 691 4666 
L 3169 4666 
L 3169 4134 
L 1269 4134 
L 1269 2991 
Q 1406 3038 1543 3061 
Q 1681 3084 1819 3084 
Q 2600 3084 3056 2656 
Q 3513 2228 3513 1497 
Q 3513 744 3044 326 
Q 2575 -91 1722 -91 
Q 1428 -91 1123 -41 
Q 819 9 494 109 
L 494 744 
Q 775 591 1075 516 
Q 1375 441 1709 441 
Q 2250 441 2565 725 
Q 2881 1009 2881 1497 
Q 2881 1984 2565 2268 
Q 2250 2553 1709 2553 
Q 1456 2553 1204 2497 
Q 953 2441 691 2322 
L 691 4666 
z
" transform="scale(0.015625)"/>
       <path id="DejaVuSans-29" d="M 513 4856 
L 1013 4856 
Q 1481 4119 1714 3412 
Q 1947 2706 1947 2009 
Q 1947 1309 1714 600 
Q 1481 -109 1013 -844 
L 513 -844 
Q 928 -128 1133 580 
Q 1338 1288 1338 2009 
Q 1338 2731 1133 3434 
Q 928 4138 513 4856 
z
" transform="scale(0.015625)"/>
      </defs>
      <use xlink:href="#DejaVuSans-52"/>
      <use xlink:href="#DejaVuSans-4f" x="69.482422"/>
      <use xlink:href="#DejaVuSans-43" x="148.193359"/>
      <use xlink:href="#DejaVuSans-20" x="218.017578"/>
      <use xlink:href="#DejaVuSans-66" x="249.804688"/>
      <use xlink:href="#DejaVuSans-6f" x="285.009766"/>
      <use xlink:href="#DejaVuSans-6c" x="346.191406"/>
      <use xlink:href="#DejaVuSans-64" x="373.974609"/>
      <use xlink:href="#DejaVuSans-20" x="437.451172"/>
      <use xlink:href="#DejaVuSans-30" x="469.238281"/>
      <use xlink:href="#DejaVuSans-20" x="532.861328"/>
      <use xlink:href="#DejaVuSans-28" x="564.648438"/>
      <use xlink:href="#DejaVuSans-41" x="603.662109"/>
      <use xlink:href="#DejaVuSans-55" x="672.070312"/>
      <use xlink:href="#DejaVuSans-43" x="745.263672"/>
      <use xlink:href="#DejaVuSans-20" x="815.087891"/>
      <use xlink:href="#DejaVuSans-3d" x="846.875"/>
      <use xlink:href="#DejaVuSans-20" x="930.664062"/>
      <use xlink:href="#DejaVuSans-30" x="962.451172"/>
      <use xlink:href="#DejaVuSans-2e" x="1026.074219"/>
      <use xlink:href="#DejaVuSans-35" x="1057.861328"/>
      <use xlink:href="#DejaVuSans-31" x="1121.484375"/>
      <use xlink:href="#DejaVuSans-29" x="1185.107422"/>
     </g>
    </g>
    <g id="line2d_38">
     <path d="M 192.32 208.440938 
L 202.32 208.440938 
L 212.32 208.440938 
" style="fill: none; stroke: #ff7f0e; stroke-opacity: 0.3; stroke-linecap: square"/>
    </g>
    <g id="text_17">
     <!-- ROC fold 1 (AUC = 0.50) -->
     <g transform="translate(220.32 211.940938) scale(0.1 -0.1)">
      <use xlink:href="#DejaVuSans-52"/>
      <use xlink:href="#DejaVuSans-4f" x="69.482422"/>
      <use xlink:href="#DejaVuSans-43" x="148.193359"/>
      <use xlink:href="#DejaVuSans-20" x="218.017578"/>
      <use xlink:href="#DejaVuSans-66" x="249.804688"/>
      <use xlink:href="#DejaVuSans-6f" x="285.009766"/>
      <use xlink:href="#DejaVuSans-6c" x="346.191406"/>
      <use xlink:href="#DejaVuSans-64" x="373.974609"/>
      <use xlink:href="#DejaVuSans-20" x="437.451172"/>
      <use xlink:href="#DejaVuSans-31" x="469.238281"/>
      <use xlink:href="#DejaVuSans-20" x="532.861328"/>
      <use xlink:href="#DejaVuSans-28" x="564.648438"/>
      <use xlink:href="#DejaVuSans-41" x="603.662109"/>
      <use xlink:href="#DejaVuSans-55" x="672.070312"/>
      <use xlink:href="#DejaVuSans-43" x="745.263672"/>
      <use xlink:href="#DejaVuSans-20" x="815.087891"/>
      <use xlink:href="#DejaVuSans-3d" x="846.875"/>
      <use xlink:href="#DejaVuSans-20" x="930.664062"/>
      <use xlink:href="#DejaVuSans-30" x="962.451172"/>
      <use xlink:href="#DejaVuSans-2e" x="1026.074219"/>
      <use xlink:href="#DejaVuSans-35" x="1057.861328"/>
      <use xlink:href="#DejaVuSans-30" x="1121.484375"/>
      <use xlink:href="#DejaVuSans-29" x="1185.107422"/>
     </g>
    </g>
    <g id="line2d_39">
     <path d="M 192.32 223.119063 
L 202.32 223.119063 
L 212.32 223.119063 
" style="fill: none; stroke: #2ca02c; stroke-opacity: 0.3; stroke-linecap: square"/>
    </g>
    <g id="text_18">
     <!-- ROC fold 2 (AUC = 0.52) -->
     <g transform="translate(220.32 226.619063) scale(0.1 -0.1)">
      <use xlink:href="#DejaVuSans-52"/>
      <use xlink:href="#DejaVuSans-4f" x="69.482422"/>
      <use xlink:href="#DejaVuSans-43" x="148.193359"/>
      <use xlink:href="#DejaVuSans-20" x="218.017578"/>
      <use xlink:href="#DejaVuSans-66" x="249.804688"/>
      <use xlink:href="#DejaVuSans-6f" x="285.009766"/>
      <use xlink:href="#DejaVuSans-6c" x="346.191406"/>
      <use xlink:href="#DejaVuSans-64" x="373.974609"/>
      <use xlink:href="#DejaVuSans-20" x="437.451172"/>
      <use xlink:href="#DejaVuSans-32" x="469.238281"/>
      <use xlink:href="#DejaVuSans-20" x="532.861328"/>
      <use xlink:href="#DejaVuSans-28" x="564.648438"/>
      <use xlink:href="#DejaVuSans-41" x="603.662109"/>
      <use xlink:href="#DejaVuSans-55" x="672.070312"/>
      <use xlink:href="#DejaVuSans-43" x="745.263672"/>
      <use xlink:href="#DejaVuSans-20" x="815.087891"/>
      <use xlink:href="#DejaVuSans-3d" x="846.875"/>
      <use xlink:href="#DejaVuSans-20" x="930.664062"/>
      <use xlink:href="#DejaVuSans-30" x="962.451172"/>
      <use xlink:href="#DejaVuSans-2e" x="1026.074219"/>
      <use xlink:href="#DejaVuSans-35" x="1057.861328"/>
      <use xlink:href="#DejaVuSans-32" x="1121.484375"/>
      <use xlink:href="#DejaVuSans-29" x="1185.107422"/>
     </g>
    </g>
    <g id="line2d_40">
     <path d="M 192.32 237.797188 
L 202.32 237.797188 
L 212.32 237.797188 
" style="fill: none; stroke: #d62728; stroke-opacity: 0.3; stroke-linecap: square"/>
    </g>
    <g id="text_19">
     <!-- ROC fold 3 (AUC = 0.62) -->
     <g transform="translate(220.32 241.297188) scale(0.1 -0.1)">
      <defs>
       <path id="DejaVuSans-33" d="M 2597 2516 
Q 3050 2419 3304 2112 
Q 3559 1806 3559 1356 
Q 3559 666 3084 287 
Q 2609 -91 1734 -91 
Q 1441 -91 1130 -33 
Q 819 25 488 141 
L 488 750 
Q 750 597 1062 519 
Q 1375 441 1716 441 
Q 2309 441 2620 675 
Q 2931 909 2931 1356 
Q 2931 1769 2642 2001 
Q 2353 2234 1838 2234 
L 1294 2234 
L 1294 2753 
L 1863 2753 
Q 2328 2753 2575 2939 
Q 2822 3125 2822 3475 
Q 2822 3834 2567 4026 
Q 2313 4219 1838 4219 
Q 1578 4219 1281 4162 
Q 984 4106 628 3988 
L 628 4550 
Q 988 4650 1302 4700 
Q 1616 4750 1894 4750 
Q 2613 4750 3031 4423 
Q 3450 4097 3450 3541 
Q 3450 3153 3228 2886 
Q 3006 2619 2597 2516 
z
" transform="scale(0.015625)"/>
      </defs>
      <use xlink:href="#DejaVuSans-52"/>
      <use xlink:href="#DejaVuSans-4f" x="69.482422"/>
      <use xlink:href="#DejaVuSans-43" x="148.193359"/>
      <use xlink:href="#DejaVuSans-20" x="218.017578"/>
      <use xlink:href="#DejaVuSans-66" x="249.804688"/>
      <use xlink:href="#DejaVuSans-6f" x="285.009766"/>
      <use xlink:href="#DejaVuSans-6c" x="346.191406"/>
      <use xlink:href="#DejaVuSans-64" x="373.974609"/>
      <use xlink:href="#DejaVuSans-20" x="437.451172"/>
      <use xlink:href="#DejaVuSans-33" x="469.238281"/>
      <use xlink:href="#DejaVuSans-20" x="532.861328"/>
      <use xlink:href="#DejaVuSans-28" x="564.648438"/>
      <use xlink:href="#DejaVuSans-41" x="603.662109"/>
      <use xlink:href="#DejaVuSans-55" x="672.070312"/>
      <use xlink:href="#DejaVuSans-43" x="745.263672"/>
      <use xlink:href="#DejaVuSans-20" x="815.087891"/>
      <use xlink:href="#DejaVuSans-3d" x="846.875"/>
      <use xlink:href="#DejaVuSans-20" x="930.664062"/>
      <use xlink:href="#DejaVuSans-30" x="962.451172"/>
      <use xlink:href="#DejaVuSans-2e" x="1026.074219"/>
      <use xlink:href="#DejaVuSans-36" x="1057.861328"/>
      <use xlink:href="#DejaVuSans-32" x="1121.484375"/>
      <use xlink:href="#DejaVuSans-29" x="1185.107422"/>
     </g>
    </g>
    <g id="line2d_41">
     <path d="M 192.32 252.475313 
L 202.32 252.475313 
L 212.32 252.475313 
" style="fill: none; stroke: #9467bd; stroke-opacity: 0.3; stroke-linecap: square"/>
    </g>
    <g id="text_20">
     <!-- ROC fold 4 (AUC = 0.46) -->
     <g transform="translate(220.32 255.975313) scale(0.1 -0.1)">
      <use xlink:href="#DejaVuSans-52"/>
      <use xlink:href="#DejaVuSans-4f" x="69.482422"/>
      <use xlink:href="#DejaVuSans-43" x="148.193359"/>
      <use xlink:href="#DejaVuSans-20" x="218.017578"/>
      <use xlink:href="#DejaVuSans-66" x="249.804688"/>
      <use xlink:href="#DejaVuSans-6f" x="285.009766"/>
      <use xlink:href="#DejaVuSans-6c" x="346.191406"/>
      <use xlink:href="#DejaVuSans-64" x="373.974609"/>
      <use xlink:href="#DejaVuSans-20" x="437.451172"/>
      <use xlink:href="#DejaVuSans-34" x="469.238281"/>
      <use xlink:href="#DejaVuSans-20" x="532.861328"/>
      <use xlink:href="#DejaVuSans-28" x="564.648438"/>
      <use xlink:href="#DejaVuSans-41" x="603.662109"/>
      <use xlink:href="#DejaVuSans-55" x="672.070312"/>
      <use xlink:href="#DejaVuSans-43" x="745.263672"/>
      <use xlink:href="#DejaVuSans-20" x="815.087891"/>
      <use xlink:href="#DejaVuSans-3d" x="846.875"/>
      <use xlink:href="#DejaVuSans-20" x="930.664062"/>
      <use xlink:href="#DejaVuSans-30" x="962.451172"/>
      <use xlink:href="#DejaVuSans-2e" x="1026.074219"/>
      <use xlink:href="#DejaVuSans-34" x="1057.861328"/>
      <use xlink:href="#DejaVuSans-36" x="1121.484375"/>
      <use xlink:href="#DejaVuSans-29" x="1185.107422"/>
     </g>
    </g>
    <g id="line2d_42">
     <path d="M 192.32 267.153438 
L 202.32 267.153438 
L 212.32 267.153438 
" style="fill: none; stroke: #8c564b; stroke-opacity: 0.3; stroke-linecap: square"/>
    </g>
    <g id="text_21">
     <!-- ROC fold 5 (AUC = 0.54) -->
     <g transform="translate(220.32 270.653438) scale(0.1 -0.1)">
      <use xlink:href="#DejaVuSans-52"/>
      <use xlink:href="#DejaVuSans-4f" x="69.482422"/>
      <use xlink:href="#DejaVuSans-43" x="148.193359"/>
      <use xlink:href="#DejaVuSans-20" x="218.017578"/>
      <use xlink:href="#DejaVuSans-66" x="249.804688"/>
      <use xlink:href="#DejaVuSans-6f" x="285.009766"/>
      <use xlink:href="#DejaVuSans-6c" x="346.191406"/>
      <use xlink:href="#DejaVuSans-64" x="373.974609"/>
      <use xlink:href="#DejaVuSans-20" x="437.451172"/>
      <use xlink:href="#DejaVuSans-35" x="469.238281"/>
      <use xlink:href="#DejaVuSans-20" x="532.861328"/>
      <use xlink:href="#DejaVuSans-28" x="564.648438"/>
      <use xlink:href="#DejaVuSans-41" x="603.662109"/>
      <use xlink:href="#DejaVuSans-55" x="672.070312"/>
      <use xlink:href="#DejaVuSans-43" x="745.263672"/>
      <use xlink:href="#DejaVuSans-20" x="815.087891"/>
      <use xlink:href="#DejaVuSans-3d" x="846.875"/>
      <use xlink:href="#DejaVuSans-20" x="930.664062"/>
      <use xlink:href="#DejaVuSans-30" x="962.451172"/>
      <use xlink:href="#DejaVuSans-2e" x="1026.074219"/>
      <use xlink:href="#DejaVuSans-35" x="1057.861328"/>
      <use xlink:href="#DejaVuSans-34" x="1121.484375"/>
      <use xlink:href="#DejaVuSans-29" x="1185.107422"/>
     </g>
    </g>
    <g id="line2d_43">
     <path d="M 192.32 281.831563 
L 202.32 281.831563 
L 212.32 281.831563 
" style="fill: none; stroke: #e377c2; stroke-opacity: 0.3; stroke-linecap: square"/>
    </g>
    <g id="text_22">
     <!-- ROC fold 6 (AUC = 0.42) -->
     <g transform="translate(220.32 285.331563) scale(0.1 -0.1)">
      <use xlink:href="#DejaVuSans-52"/>
      <use xlink:href="#DejaVuSans-4f" x="69.482422"/>
      <use xlink:href="#DejaVuSans-43" x="148.193359"/>
      <use xlink:href="#DejaVuSans-20" x="218.017578"/>
      <use xlink:href="#DejaVuSans-66" x="249.804688"/>
      <use xlink:href="#DejaVuSans-6f" x="285.009766"/>
      <use xlink:href="#DejaVuSans-6c" x="346.191406"/>
      <use xlink:href="#DejaVuSans-64" x="373.974609"/>
      <use xlink:href="#DejaVuSans-20" x="437.451172"/>
      <use xlink:href="#DejaVuSans-36" x="469.238281"/>
      <use xlink:href="#DejaVuSans-20" x="532.861328"/>
      <use xlink:href="#DejaVuSans-28" x="564.648438"/>
      <use xlink:href="#DejaVuSans-41" x="603.662109"/>
      <use xlink:href="#DejaVuSans-55" x="672.070312"/>
      <use xlink:href="#DejaVuSans-43" x="745.263672"/>
      <use xlink:href="#DejaVuSans-20" x="815.087891"/>
      <use xlink:href="#DejaVuSans-3d" x="846.875"/>
      <use xlink:href="#DejaVuSans-20" x="930.664062"/>
      <use xlink:href="#DejaVuSans-30" x="962.451172"/>
      <use xlink:href="#DejaVuSans-2e" x="1026.074219"/>
      <use xlink:href="#DejaVuSans-34" x="1057.861328"/>
      <use xlink:href="#DejaVuSans-32" x="1121.484375"/>
      <use xlink:href="#DejaVuSans-29" x="1185.107422"/>
     </g>
    </g>
    <g id="line2d_44">
     <path d="M 192.32 296.509688 
L 202.32 296.509688 
L 212.32 296.509688 
" style="fill: none; stroke: #7f7f7f; stroke-opacity: 0.3; stroke-linecap: square"/>
    </g>
    <g id="text_23">
     <!-- ROC fold 7 (AUC = 0.51) -->
     <g transform="translate(220.32 300.009688) scale(0.1 -0.1)">
      <defs>
       <path id="DejaVuSans-37" d="M 525 4666 
L 3525 4666 
L 3525 4397 
L 1831 0 
L 1172 0 
L 2766 4134 
L 525 4134 
L 525 4666 
z
" transform="scale(0.015625)"/>
      </defs>
      <use xlink:href="#DejaVuSans-52"/>
      <use xlink:href="#DejaVuSans-4f" x="69.482422"/>
      <use xlink:href="#DejaVuSans-43" x="148.193359"/>
      <use xlink:href="#DejaVuSans-20" x="218.017578"/>
      <use xlink:href="#DejaVuSans-66" x="249.804688"/>
      <use xlink:href="#DejaVuSans-6f" x="285.009766"/>
      <use xlink:href="#DejaVuSans-6c" x="346.191406"/>
      <use xlink:href="#DejaVuSans-64" x="373.974609"/>
      <use xlink:href="#DejaVuSans-20" x="437.451172"/>
      <use xlink:href="#DejaVuSans-37" x="469.238281"/>
      <use xlink:href="#DejaVuSans-20" x="532.861328"/>
      <use xlink:href="#DejaVuSans-28" x="564.648438"/>
      <use xlink:href="#DejaVuSans-41" x="603.662109"/>
      <use xlink:href="#DejaVuSans-55" x="672.070312"/>
      <use xlink:href="#DejaVuSans-43" x="745.263672"/>
      <use xlink:href="#DejaVuSans-20" x="815.087891"/>
      <use xlink:href="#DejaVuSans-3d" x="846.875"/>
      <use xlink:href="#DejaVuSans-20" x="930.664062"/>
      <use xlink:href="#DejaVuSans-30" x="962.451172"/>
      <use xlink:href="#DejaVuSans-2e" x="1026.074219"/>
      <use xlink:href="#DejaVuSans-35" x="1057.861328"/>
      <use xlink:href="#DejaVuSans-31" x="1121.484375"/>
      <use xlink:href="#DejaVuSans-29" x="1185.107422"/>
     </g>
    </g>
    <g id="line2d_45">
     <path d="M 192.32 311.187813 
L 202.32 311.187813 
L 212.32 311.187813 
" style="fill: none; stroke: #bcbd22; stroke-opacity: 0.3; stroke-linecap: square"/>
    </g>
    <g id="text_24">
     <!-- ROC fold 8 (AUC = 0.54) -->
     <g transform="translate(220.32 314.687813) scale(0.1 -0.1)">
      <use xlink:href="#DejaVuSans-52"/>
      <use xlink:href="#DejaVuSans-4f" x="69.482422"/>
      <use xlink:href="#DejaVuSans-43" x="148.193359"/>
      <use xlink:href="#DejaVuSans-20" x="218.017578"/>
      <use xlink:href="#DejaVuSans-66" x="249.804688"/>
      <use xlink:href="#DejaVuSans-6f" x="285.009766"/>
      <use xlink:href="#DejaVuSans-6c" x="346.191406"/>
      <use xlink:href="#DejaVuSans-64" x="373.974609"/>
      <use xlink:href="#DejaVuSans-20" x="437.451172"/>
      <use xlink:href="#DejaVuSans-38" x="469.238281"/>
      <use xlink:href="#DejaVuSans-20" x="532.861328"/>
      <use xlink:href="#DejaVuSans-28" x="564.648438"/>
      <use xlink:href="#DejaVuSans-41" x="603.662109"/>
      <use xlink:href="#DejaVuSans-55" x="672.070312"/>
      <use xlink:href="#DejaVuSans-43" x="745.263672"/>
      <use xlink:href="#DejaVuSans-20" x="815.087891"/>
      <use xlink:href="#DejaVuSans-3d" x="846.875"/>
      <use xlink:href="#DejaVuSans-20" x="930.664062"/>
      <use xlink:href="#DejaVuSans-30" x="962.451172"/>
      <use xlink:href="#DejaVuSans-2e" x="1026.074219"/>
      <use xlink:href="#DejaVuSans-35" x="1057.861328"/>
      <use xlink:href="#DejaVuSans-34" x="1121.484375"/>
      <use xlink:href="#DejaVuSans-29" x="1185.107422"/>
     </g>
    </g>
    <g id="line2d_46">
     <path d="M 192.32 325.865938 
L 202.32 325.865938 
L 212.32 325.865938 
" style="fill: none; stroke: #17becf; stroke-opacity: 0.3; stroke-linecap: square"/>
    </g>
    <g id="text_25">
     <!-- ROC fold 9 (AUC = 0.58) -->
     <g transform="translate(220.32 329.365938) scale(0.1 -0.1)">
      <defs>
       <path id="DejaVuSans-39" d="M 703 97 
L 703 672 
Q 941 559 1184 500 
Q 1428 441 1663 441 
Q 2288 441 2617 861 
Q 2947 1281 2994 2138 
Q 2813 1869 2534 1725 
Q 2256 1581 1919 1581 
Q 1219 1581 811 2004 
Q 403 2428 403 3163 
Q 403 3881 828 4315 
Q 1253 4750 1959 4750 
Q 2769 4750 3195 4129 
Q 3622 3509 3622 2328 
Q 3622 1225 3098 567 
Q 2575 -91 1691 -91 
Q 1453 -91 1209 -44 
Q 966 3 703 97 
z
M 1959 2075 
Q 2384 2075 2632 2365 
Q 2881 2656 2881 3163 
Q 2881 3666 2632 3958 
Q 2384 4250 1959 4250 
Q 1534 4250 1286 3958 
Q 1038 3666 1038 3163 
Q 1038 2656 1286 2365 
Q 1534 2075 1959 2075 
z
" transform="scale(0.015625)"/>
      </defs>
      <use xlink:href="#DejaVuSans-52"/>
      <use xlink:href="#DejaVuSans-4f" x="69.482422"/>
      <use xlink:href="#DejaVuSans-43" x="148.193359"/>
      <use xlink:href="#DejaVuSans-20" x="218.017578"/>
      <use xlink:href="#DejaVuSans-66" x="249.804688"/>
      <use xlink:href="#DejaVuSans-6f" x="285.009766"/>
      <use xlink:href="#DejaVuSans-6c" x="346.191406"/>
      <use xlink:href="#DejaVuSans-64" x="373.974609"/>
      <use xlink:href="#DejaVuSans-20" x="437.451172"/>
      <use xlink:href="#DejaVuSans-39" x="469.238281"/>
      <use xlink:href="#DejaVuSans-20" x="532.861328"/>
      <use xlink:href="#DejaVuSans-28" x="564.648438"/>
      <use xlink:href="#DejaVuSans-41" x="603.662109"/>
      <use xlink:href="#DejaVuSans-55" x="672.070312"/>
      <use xlink:href="#DejaVuSans-43" x="745.263672"/>
      <use xlink:href="#DejaVuSans-20" x="815.087891"/>
      <use xlink:href="#DejaVuSans-3d" x="846.875"/>
      <use xlink:href="#DejaVuSans-20" x="930.664062"/>
      <use xlink:href="#DejaVuSans-30" x="962.451172"/>
      <use xlink:href="#DejaVuSans-2e" x="1026.074219"/>
      <use xlink:href="#DejaVuSans-35" x="1057.861328"/>
      <use xlink:href="#DejaVuSans-38" x="1121.484375"/>
      <use xlink:href="#DejaVuSans-29" x="1185.107422"/>
     </g>
    </g>
    <g id="line2d_47">
     <path d="M 192.32 340.544062 
L 202.32 340.544062 
L 212.32 340.544062 
" style="fill: none; stroke-dasharray: 5.55,2.4; stroke-dashoffset: 0; stroke: #000000; stroke-width: 1.5"/>
    </g>
    <g id="text_26">
     <!-- random (AUC = 0.5) -->
     <g transform="translate(220.32 344.044062) scale(0.1 -0.1)">
      <defs>
       <path id="DejaVuSans-6d" d="M 3328 2828 
Q 3544 3216 3844 3400 
Q 4144 3584 4550 3584 
Q 5097 3584 5394 3201 
Q 5691 2819 5691 2113 
L 5691 0 
L 5113 0 
L 5113 2094 
Q 5113 2597 4934 2840 
Q 4756 3084 4391 3084 
Q 3944 3084 3684 2787 
Q 3425 2491 3425 1978 
L 3425 0 
L 2847 0 
L 2847 2094 
Q 2847 2600 2669 2842 
Q 2491 3084 2119 3084 
Q 1678 3084 1418 2786 
Q 1159 2488 1159 1978 
L 1159 0 
L 581 0 
L 581 3500 
L 1159 3500 
L 1159 2956 
Q 1356 3278 1631 3431 
Q 1906 3584 2284 3584 
Q 2666 3584 2933 3390 
Q 3200 3197 3328 2828 
z
" transform="scale(0.015625)"/>
      </defs>
      <use xlink:href="#DejaVuSans-72"/>
      <use xlink:href="#DejaVuSans-61" x="41.113281"/>
      <use xlink:href="#DejaVuSans-6e" x="102.392578"/>
      <use xlink:href="#DejaVuSans-64" x="165.771484"/>
      <use xlink:href="#DejaVuSans-6f" x="229.248047"/>
      <use xlink:href="#DejaVuSans-6d" x="290.429688"/>
      <use xlink:href="#DejaVuSans-20" x="387.841797"/>
      <use xlink:href="#DejaVuSans-28" x="419.628906"/>
      <use xlink:href="#DejaVuSans-41" x="458.642578"/>
      <use xlink:href="#DejaVuSans-55" x="527.050781"/>
      <use xlink:href="#DejaVuSans-43" x="600.244141"/>
      <use xlink:href="#DejaVuSans-20" x="670.068359"/>
      <use xlink:href="#DejaVuSans-3d" x="701.855469"/>
      <use xlink:href="#DejaVuSans-20" x="785.644531"/>
      <use xlink:href="#DejaVuSans-30" x="817.431641"/>
      <use xlink:href="#DejaVuSans-2e" x="881.054688"/>
      <use xlink:href="#DejaVuSans-35" x="912.841797"/>
      <use xlink:href="#DejaVuSans-29" x="976.464844"/>
     </g>
    </g>
    <g id="line2d_48">
     <path d="M 192.32 355.222188 
L 202.32 355.222188 
L 212.32 355.222188 
" style="fill: none; stroke: #0000ff; stroke-opacity: 0.8; stroke-width: 2; stroke-linecap: square"/>
    </g>
    <g id="text_27">
     <!-- Mean ROC (AUC = 0.52 $\pm$ 0.05) -->
     <g transform="translate(220.32 358.722188) scale(0.1 -0.1)">
      <defs>
       <path id="DejaVuSans-b1" d="M 2944 4013 
L 2944 2803 
L 4684 2803 
L 4684 2272 
L 2944 2272 
L 2944 1063 
L 2419 1063 
L 2419 2272 
L 678 2272 
L 678 2803 
L 2419 2803 
L 2419 4013 
L 2944 4013 
z
M 678 531 
L 4684 531 
L 4684 0 
L 678 0 
L 678 531 
z
" transform="scale(0.015625)"/>
      </defs>
      <use xlink:href="#DejaVuSans-4d" transform="translate(0 0.125)"/>
      <use xlink:href="#DejaVuSans-65" transform="translate(86.279297 0.125)"/>
      <use xlink:href="#DejaVuSans-61" transform="translate(147.802734 0.125)"/>
      <use xlink:href="#DejaVuSans-6e" transform="translate(209.082031 0.125)"/>
      <use xlink:href="#DejaVuSans-20" transform="translate(272.460938 0.125)"/>
      <use xlink:href="#DejaVuSans-52" transform="translate(304.248047 0.125)"/>
      <use xlink:href="#DejaVuSans-4f" transform="translate(373.730469 0.125)"/>
      <use xlink:href="#DejaVuSans-43" transform="translate(452.441406 0.125)"/>
      <use xlink:href="#DejaVuSans-20" transform="translate(522.265625 0.125)"/>
      <use xlink:href="#DejaVuSans-28" transform="translate(554.052734 0.125)"/>
      <use xlink:href="#DejaVuSans-41" transform="translate(593.066406 0.125)"/>
      <use xlink:href="#DejaVuSans-55" transform="translate(661.474609 0.125)"/>
      <use xlink:href="#DejaVuSans-43" transform="translate(734.667969 0.125)"/>
      <use xlink:href="#DejaVuSans-20" transform="translate(804.492188 0.125)"/>
      <use xlink:href="#DejaVuSans-3d" transform="translate(836.279297 0.125)"/>
      <use xlink:href="#DejaVuSans-20" transform="translate(920.068359 0.125)"/>
      <use xlink:href="#DejaVuSans-30" transform="translate(951.855469 0.125)"/>
      <use xlink:href="#DejaVuSans-2e" transform="translate(1015.478516 0.125)"/>
      <use xlink:href="#DejaVuSans-35" transform="translate(1047.265625 0.125)"/>
      <use xlink:href="#DejaVuSans-32" transform="translate(1110.888672 0.125)"/>
      <use xlink:href="#DejaVuSans-20" transform="translate(1174.511719 0.125)"/>
      <use xlink:href="#DejaVuSans-b1" transform="translate(1206.298828 0.125)"/>
      <use xlink:href="#DejaVuSans-20" transform="translate(1290.087891 0.125)"/>
      <use xlink:href="#DejaVuSans-30" transform="translate(1321.875 0.125)"/>
      <use xlink:href="#DejaVuSans-2e" transform="translate(1385.498047 0.125)"/>
      <use xlink:href="#DejaVuSans-30" transform="translate(1417.285156 0.125)"/>
      <use xlink:href="#DejaVuSans-35" transform="translate(1480.908203 0.125)"/>
      <use xlink:href="#DejaVuSans-29" transform="translate(1544.53125 0.125)"/>
     </g>
    </g>
    <g id="patch_8">
     <path d="M 192.32 373.400313 
L 212.32 373.400313 
L 212.32 366.400313 
L 192.32 366.400313 
z
" style="fill: #808080; fill-opacity: 0.2; stroke: #808080; stroke-opacity: 0.2; stroke-linejoin: miter"/>
    </g>
    <g id="text_28">
     <!-- $\pm$ 1 std. dev. -->
     <g transform="translate(220.32 373.400313) scale(0.1 -0.1)">
      <use xlink:href="#DejaVuSans-b1" transform="translate(0 0.015625)"/>
      <use xlink:href="#DejaVuSans-20" transform="translate(83.789062 0.015625)"/>
      <use xlink:href="#DejaVuSans-31" transform="translate(115.576172 0.015625)"/>
      <use xlink:href="#DejaVuSans-20" transform="translate(179.199219 0.015625)"/>
      <use xlink:href="#DejaVuSans-73" transform="translate(210.986328 0.015625)"/>
      <use xlink:href="#DejaVuSans-74" transform="translate(263.085938 0.015625)"/>
      <use xlink:href="#DejaVuSans-64" transform="translate(302.294922 0.015625)"/>
      <use xlink:href="#DejaVuSans-2e" transform="translate(365.771484 0.015625)"/>
      <use xlink:href="#DejaVuSans-20" transform="translate(397.558594 0.015625)"/>
      <use xlink:href="#DejaVuSans-64" transform="translate(429.345703 0.015625)"/>
      <use xlink:href="#DejaVuSans-65" transform="translate(492.822266 0.015625)"/>
      <use xlink:href="#DejaVuSans-76" transform="translate(554.345703 0.015625)"/>
      <use xlink:href="#DejaVuSans-2e" transform="translate(613.525391 0.015625)"/>
     </g>
    </g>
   </g>
  </g>
 </g>
 <defs>
  <clipPath id="pf4a89fdf18">
   <rect x="55.08" y="51.84" width="332.64" height="332.64"/>
  </clipPath>
 </defs>
</svg>
