<?xml version="1.0" encoding="utf-8" standalone="no"?>
<!DOCTYPE svg PUBLIC "-//W3C//DTD SVG 1.1//EN"
  "http://www.w3.org/Graphics/SVG/1.1/DTD/svg11.dtd">
<svg xmlns:xlink="http://www.w3.org/1999/xlink" width="432pt" height="432pt" viewBox="0 0 432 432" xmlns="http://www.w3.org/2000/svg" version="1.1">
 <metadata>
  <rdf:RDF xmlns:dc="http://purl.org/dc/elements/1.1/" xmlns:cc="http://creativecommons.org/ns#" xmlns:rdf="http://www.w3.org/1999/02/22-rdf-syntax-ns#">
   <cc:Work>
    <dc:type rdf:resource="http://purl.org/dc/dcmitype/StillImage"/>
    <dc:date>2023-07-09T15:40:17.544172</dc:date>
    <dc:format>image/svg+xml</dc:format>
    <dc:creator>
     <cc:Agent>
      <dc:title>Matplotlib v3.7.1, https://matplotlib.org/</dc:title>
     </cc:Agent>
    </dc:creator>
   </cc:Work>
  </rdf:RDF>
 </metadata>
 <defs>
  <style type="text/css">*{stroke-linejoin: round; stroke-linecap: butt}</style>
 </defs>
 <g id="figure_1">
  <g id="patch_1">
   <path d="M 0 432 
L 432 432 
L 432 0 
L 0 0 
z
" style="fill: #ffffff"/>
  </g>
  <g id="axes_1">
   <g id="patch_2">
    <path d="M 54 384.48 
L 388.8 384.48 
L 388.8 51.84 
L 54 51.84 
z
" style="fill: #ffffff"/>
   </g>
   <g id="matplotlib.axis_1">
    <g id="xtick_1">
     <g id="line2d_1">
      <path d="M 69.218182 384.48 
L 69.218182 51.84 
" clip-path="url(#p711a5d0dc5)" style="fill: none; stroke: #b0b0b0; stroke-width: 0.8; stroke-linecap: square"/>
     </g>
     <g id="line2d_2">
      <defs>
       <path id="m0340760f1f" d="M 0 0 
L 0 3.5 
" style="stroke: #000000; stroke-width: 0.8"/>
      </defs>
      <g>
       <use xlink:href="#m0340760f1f" x="69.218182" y="384.48" style="stroke: #000000; stroke-width: 0.8"/>
      </g>
     </g>
     <g id="text_1">
      <!-- 0.0 -->
      <g transform="translate(61.266619 399.078438) scale(0.1 -0.1)">
       <defs>
        <path id="DejaVuSans-30" d="M 2034 4250 
Q 1547 4250 1301 3770 
Q 1056 3291 1056 2328 
Q 1056 1369 1301 889 
Q 1547 409 2034 409 
Q 2525 409 2770 889 
Q 3016 1369 3016 2328 
Q 3016 3291 2770 3770 
Q 2525 4250 2034 4250 
z
M 2034 4750 
Q 2819 4750 3233 4129 
Q 3647 3509 3647 2328 
Q 3647 1150 3233 529 
Q 2819 -91 2034 -91 
Q 1250 -91 836 529 
Q 422 1150 422 2328 
Q 422 3509 836 4129 
Q 1250 4750 2034 4750 
z
" transform="scale(0.015625)"/>
        <path id="DejaVuSans-2e" d="M 684 794 
L 1344 794 
L 1344 0 
L 684 0 
L 684 794 
z
" transform="scale(0.015625)"/>
       </defs>
       <use xlink:href="#DejaVuSans-30"/>
       <use xlink:href="#DejaVuSans-2e" x="63.623047"/>
       <use xlink:href="#DejaVuSans-30" x="95.410156"/>
      </g>
     </g>
    </g>
    <g id="xtick_2">
     <g id="line2d_3">
      <path d="M 130.090909 384.48 
L 130.090909 51.84 
" clip-path="url(#p711a5d0dc5)" style="fill: none; stroke: #b0b0b0; stroke-width: 0.8; stroke-linecap: square"/>
     </g>
     <g id="line2d_4">
      <g>
       <use xlink:href="#m0340760f1f" x="130.090909" y="384.48" style="stroke: #000000; stroke-width: 0.8"/>
      </g>
     </g>
     <g id="text_2">
      <!-- 0.2 -->
      <g transform="translate(122.139347 399.078438) scale(0.1 -0.1)">
       <defs>
        <path id="DejaVuSans-32" d="M 1228 531 
L 3431 531 
L 3431 0 
L 469 0 
L 469 531 
Q 828 903 1448 1529 
Q 2069 2156 2228 2338 
Q 2531 2678 2651 2914 
Q 2772 3150 2772 3378 
Q 2772 3750 2511 3984 
Q 2250 4219 1831 4219 
Q 1534 4219 1204 4116 
Q 875 4013 500 3803 
L 500 4441 
Q 881 4594 1212 4672 
Q 1544 4750 1819 4750 
Q 2544 4750 2975 4387 
Q 3406 4025 3406 3419 
Q 3406 3131 3298 2873 
Q 3191 2616 2906 2266 
Q 2828 2175 2409 1742 
Q 1991 1309 1228 531 
z
" transform="scale(0.015625)"/>
       </defs>
       <use xlink:href="#DejaVuSans-30"/>
       <use xlink:href="#DejaVuSans-2e" x="63.623047"/>
       <use xlink:href="#DejaVuSans-32" x="95.410156"/>
      </g>
     </g>
    </g>
    <g id="xtick_3">
     <g id="line2d_5">
      <path d="M 190.963636 384.48 
L 190.963636 51.84 
" clip-path="url(#p711a5d0dc5)" style="fill: none; stroke: #b0b0b0; stroke-width: 0.8; stroke-linecap: square"/>
     </g>
     <g id="line2d_6">
      <g>
       <use xlink:href="#m0340760f1f" x="190.963636" y="384.48" style="stroke: #000000; stroke-width: 0.8"/>
      </g>
     </g>
     <g id="text_3">
      <!-- 0.4 -->
      <g transform="translate(183.012074 399.078438) scale(0.1 -0.1)">
       <defs>
        <path id="DejaVuSans-34" d="M 2419 4116 
L 825 1625 
L 2419 1625 
L 2419 4116 
z
M 2253 4666 
L 3047 4666 
L 3047 1625 
L 3713 1625 
L 3713 1100 
L 3047 1100 
L 3047 0 
L 2419 0 
L 2419 1100 
L 313 1100 
L 313 1709 
L 2253 4666 
z
" transform="scale(0.015625)"/>
       </defs>
       <use xlink:href="#DejaVuSans-30"/>
       <use xlink:href="#DejaVuSans-2e" x="63.623047"/>
       <use xlink:href="#DejaVuSans-34" x="95.410156"/>
      </g>
     </g>
    </g>
    <g id="xtick_4">
     <g id="line2d_7">
      <path d="M 251.836364 384.48 
L 251.836364 51.84 
" clip-path="url(#p711a5d0dc5)" style="fill: none; stroke: #b0b0b0; stroke-width: 0.8; stroke-linecap: square"/>
     </g>
     <g id="line2d_8">
      <g>
       <use xlink:href="#m0340760f1f" x="251.836364" y="384.48" style="stroke: #000000; stroke-width: 0.8"/>
      </g>
     </g>
     <g id="text_4">
      <!-- 0.6 -->
      <g transform="translate(243.884801 399.078438) scale(0.1 -0.1)">
       <defs>
        <path id="DejaVuSans-36" d="M 2113 2584 
Q 1688 2584 1439 2293 
Q 1191 2003 1191 1497 
Q 1191 994 1439 701 
Q 1688 409 2113 409 
Q 2538 409 2786 701 
Q 3034 994 3034 1497 
Q 3034 2003 2786 2293 
Q 2538 2584 2113 2584 
z
M 3366 4563 
L 3366 3988 
Q 3128 4100 2886 4159 
Q 2644 4219 2406 4219 
Q 1781 4219 1451 3797 
Q 1122 3375 1075 2522 
Q 1259 2794 1537 2939 
Q 1816 3084 2150 3084 
Q 2853 3084 3261 2657 
Q 3669 2231 3669 1497 
Q 3669 778 3244 343 
Q 2819 -91 2113 -91 
Q 1303 -91 875 529 
Q 447 1150 447 2328 
Q 447 3434 972 4092 
Q 1497 4750 2381 4750 
Q 2619 4750 2861 4703 
Q 3103 4656 3366 4563 
z
" transform="scale(0.015625)"/>
       </defs>
       <use xlink:href="#DejaVuSans-30"/>
       <use xlink:href="#DejaVuSans-2e" x="63.623047"/>
       <use xlink:href="#DejaVuSans-36" x="95.410156"/>
      </g>
     </g>
    </g>
    <g id="xtick_5">
     <g id="line2d_9">
      <path d="M 312.709091 384.48 
L 312.709091 51.84 
" clip-path="url(#p711a5d0dc5)" style="fill: none; stroke: #b0b0b0; stroke-width: 0.8; stroke-linecap: square"/>
     </g>
     <g id="line2d_10">
      <g>
       <use xlink:href="#m0340760f1f" x="312.709091" y="384.48" style="stroke: #000000; stroke-width: 0.8"/>
      </g>
     </g>
     <g id="text_5">
      <!-- 0.8 -->
      <g transform="translate(304.757528 399.078438) scale(0.1 -0.1)">
       <defs>
        <path id="DejaVuSans-38" d="M 2034 2216 
Q 1584 2216 1326 1975 
Q 1069 1734 1069 1313 
Q 1069 891 1326 650 
Q 1584 409 2034 409 
Q 2484 409 2743 651 
Q 3003 894 3003 1313 
Q 3003 1734 2745 1975 
Q 2488 2216 2034 2216 
z
M 1403 2484 
Q 997 2584 770 2862 
Q 544 3141 544 3541 
Q 544 4100 942 4425 
Q 1341 4750 2034 4750 
Q 2731 4750 3128 4425 
Q 3525 4100 3525 3541 
Q 3525 3141 3298 2862 
Q 3072 2584 2669 2484 
Q 3125 2378 3379 2068 
Q 3634 1759 3634 1313 
Q 3634 634 3220 271 
Q 2806 -91 2034 -91 
Q 1263 -91 848 271 
Q 434 634 434 1313 
Q 434 1759 690 2068 
Q 947 2378 1403 2484 
z
M 1172 3481 
Q 1172 3119 1398 2916 
Q 1625 2713 2034 2713 
Q 2441 2713 2670 2916 
Q 2900 3119 2900 3481 
Q 2900 3844 2670 4047 
Q 2441 4250 2034 4250 
Q 1625 4250 1398 4047 
Q 1172 3844 1172 3481 
z
" transform="scale(0.015625)"/>
       </defs>
       <use xlink:href="#DejaVuSans-30"/>
       <use xlink:href="#DejaVuSans-2e" x="63.623047"/>
       <use xlink:href="#DejaVuSans-38" x="95.410156"/>
      </g>
     </g>
    </g>
    <g id="xtick_6">
     <g id="line2d_11">
      <path d="M 373.581818 384.48 
L 373.581818 51.84 
" clip-path="url(#p711a5d0dc5)" style="fill: none; stroke: #b0b0b0; stroke-width: 0.8; stroke-linecap: square"/>
     </g>
     <g id="line2d_12">
      <g>
       <use xlink:href="#m0340760f1f" x="373.581818" y="384.48" style="stroke: #000000; stroke-width: 0.8"/>
      </g>
     </g>
     <g id="text_6">
      <!-- 1.0 -->
      <g transform="translate(365.630256 399.078438) scale(0.1 -0.1)">
       <defs>
        <path id="DejaVuSans-31" d="M 794 531 
L 1825 531 
L 1825 4091 
L 703 3866 
L 703 4441 
L 1819 4666 
L 2450 4666 
L 2450 531 
L 3481 531 
L 3481 0 
L 794 0 
L 794 531 
z
" transform="scale(0.015625)"/>
       </defs>
       <use xlink:href="#DejaVuSans-31"/>
       <use xlink:href="#DejaVuSans-2e" x="63.623047"/>
       <use xlink:href="#DejaVuSans-30" x="95.410156"/>
      </g>
     </g>
    </g>
    <g id="text_7">
     <!-- False Positive Rate (Positive label: 1) -->
     <g transform="translate(130.034375 412.756563) scale(0.1 -0.1)">
      <defs>
       <path id="DejaVuSans-46" d="M 628 4666 
L 3309 4666 
L 3309 4134 
L 1259 4134 
L 1259 2759 
L 3109 2759 
L 3109 2228 
L 1259 2228 
L 1259 0 
L 628 0 
L 628 4666 
z
" transform="scale(0.015625)"/>
       <path id="DejaVuSans-61" d="M 2194 1759 
Q 1497 1759 1228 1600 
Q 959 1441 959 1056 
Q 959 750 1161 570 
Q 1363 391 1709 391 
Q 2188 391 2477 730 
Q 2766 1069 2766 1631 
L 2766 1759 
L 2194 1759 
z
M 3341 1997 
L 3341 0 
L 2766 0 
L 2766 531 
Q 2569 213 2275 61 
Q 1981 -91 1556 -91 
Q 1019 -91 701 211 
Q 384 513 384 1019 
Q 384 1609 779 1909 
Q 1175 2209 1959 2209 
L 2766 2209 
L 2766 2266 
Q 2766 2663 2505 2880 
Q 2244 3097 1772 3097 
Q 1472 3097 1187 3025 
Q 903 2953 641 2809 
L 641 3341 
Q 956 3463 1253 3523 
Q 1550 3584 1831 3584 
Q 2591 3584 2966 3190 
Q 3341 2797 3341 1997 
z
" transform="scale(0.015625)"/>
       <path id="DejaVuSans-6c" d="M 603 4863 
L 1178 4863 
L 1178 0 
L 603 0 
L 603 4863 
z
" transform="scale(0.015625)"/>
       <path id="DejaVuSans-73" d="M 2834 3397 
L 2834 2853 
Q 2591 2978 2328 3040 
Q 2066 3103 1784 3103 
Q 1356 3103 1142 2972 
Q 928 2841 928 2578 
Q 928 2378 1081 2264 
Q 1234 2150 1697 2047 
L 1894 2003 
Q 2506 1872 2764 1633 
Q 3022 1394 3022 966 
Q 3022 478 2636 193 
Q 2250 -91 1575 -91 
Q 1294 -91 989 -36 
Q 684 19 347 128 
L 347 722 
Q 666 556 975 473 
Q 1284 391 1588 391 
Q 1994 391 2212 530 
Q 2431 669 2431 922 
Q 2431 1156 2273 1281 
Q 2116 1406 1581 1522 
L 1381 1569 
Q 847 1681 609 1914 
Q 372 2147 372 2553 
Q 372 3047 722 3315 
Q 1072 3584 1716 3584 
Q 2034 3584 2315 3537 
Q 2597 3491 2834 3397 
z
" transform="scale(0.015625)"/>
       <path id="DejaVuSans-65" d="M 3597 1894 
L 3597 1613 
L 953 1613 
Q 991 1019 1311 708 
Q 1631 397 2203 397 
Q 2534 397 2845 478 
Q 3156 559 3463 722 
L 3463 178 
Q 3153 47 2828 -22 
Q 2503 -91 2169 -91 
Q 1331 -91 842 396 
Q 353 884 353 1716 
Q 353 2575 817 3079 
Q 1281 3584 2069 3584 
Q 2775 3584 3186 3129 
Q 3597 2675 3597 1894 
z
M 3022 2063 
Q 3016 2534 2758 2815 
Q 2500 3097 2075 3097 
Q 1594 3097 1305 2825 
Q 1016 2553 972 2059 
L 3022 2063 
z
" transform="scale(0.015625)"/>
       <path id="DejaVuSans-20" transform="scale(0.015625)"/>
       <path id="DejaVuSans-50" d="M 1259 4147 
L 1259 2394 
L 2053 2394 
Q 2494 2394 2734 2622 
Q 2975 2850 2975 3272 
Q 2975 3691 2734 3919 
Q 2494 4147 2053 4147 
L 1259 4147 
z
M 628 4666 
L 2053 4666 
Q 2838 4666 3239 4311 
Q 3641 3956 3641 3272 
Q 3641 2581 3239 2228 
Q 2838 1875 2053 1875 
L 1259 1875 
L 1259 0 
L 628 0 
L 628 4666 
z
" transform="scale(0.015625)"/>
       <path id="DejaVuSans-6f" d="M 1959 3097 
Q 1497 3097 1228 2736 
Q 959 2375 959 1747 
Q 959 1119 1226 758 
Q 1494 397 1959 397 
Q 2419 397 2687 759 
Q 2956 1122 2956 1747 
Q 2956 2369 2687 2733 
Q 2419 3097 1959 3097 
z
M 1959 3584 
Q 2709 3584 3137 3096 
Q 3566 2609 3566 1747 
Q 3566 888 3137 398 
Q 2709 -91 1959 -91 
Q 1206 -91 779 398 
Q 353 888 353 1747 
Q 353 2609 779 3096 
Q 1206 3584 1959 3584 
z
" transform="scale(0.015625)"/>
       <path id="DejaVuSans-69" d="M 603 3500 
L 1178 3500 
L 1178 0 
L 603 0 
L 603 3500 
z
M 603 4863 
L 1178 4863 
L 1178 4134 
L 603 4134 
L 603 4863 
z
" transform="scale(0.015625)"/>
       <path id="DejaVuSans-74" d="M 1172 4494 
L 1172 3500 
L 2356 3500 
L 2356 3053 
L 1172 3053 
L 1172 1153 
Q 1172 725 1289 603 
Q 1406 481 1766 481 
L 2356 481 
L 2356 0 
L 1766 0 
Q 1100 0 847 248 
Q 594 497 594 1153 
L 594 3053 
L 172 3053 
L 172 3500 
L 594 3500 
L 594 4494 
L 1172 4494 
z
" transform="scale(0.015625)"/>
       <path id="DejaVuSans-76" d="M 191 3500 
L 800 3500 
L 1894 563 
L 2988 3500 
L 3597 3500 
L 2284 0 
L 1503 0 
L 191 3500 
z
" transform="scale(0.015625)"/>
       <path id="DejaVuSans-52" d="M 2841 2188 
Q 3044 2119 3236 1894 
Q 3428 1669 3622 1275 
L 4263 0 
L 3584 0 
L 2988 1197 
Q 2756 1666 2539 1819 
Q 2322 1972 1947 1972 
L 1259 1972 
L 1259 0 
L 628 0 
L 628 4666 
L 2053 4666 
Q 2853 4666 3247 4331 
Q 3641 3997 3641 3322 
Q 3641 2881 3436 2590 
Q 3231 2300 2841 2188 
z
M 1259 4147 
L 1259 2491 
L 2053 2491 
Q 2509 2491 2742 2702 
Q 2975 2913 2975 3322 
Q 2975 3731 2742 3939 
Q 2509 4147 2053 4147 
L 1259 4147 
z
" transform="scale(0.015625)"/>
       <path id="DejaVuSans-28" d="M 1984 4856 
Q 1566 4138 1362 3434 
Q 1159 2731 1159 2009 
Q 1159 1288 1364 580 
Q 1569 -128 1984 -844 
L 1484 -844 
Q 1016 -109 783 600 
Q 550 1309 550 2009 
Q 550 2706 781 3412 
Q 1013 4119 1484 4856 
L 1984 4856 
z
" transform="scale(0.015625)"/>
       <path id="DejaVuSans-62" d="M 3116 1747 
Q 3116 2381 2855 2742 
Q 2594 3103 2138 3103 
Q 1681 3103 1420 2742 
Q 1159 2381 1159 1747 
Q 1159 1113 1420 752 
Q 1681 391 2138 391 
Q 2594 391 2855 752 
Q 3116 1113 3116 1747 
z
M 1159 2969 
Q 1341 3281 1617 3432 
Q 1894 3584 2278 3584 
Q 2916 3584 3314 3078 
Q 3713 2572 3713 1747 
Q 3713 922 3314 415 
Q 2916 -91 2278 -91 
Q 1894 -91 1617 61 
Q 1341 213 1159 525 
L 1159 0 
L 581 0 
L 581 4863 
L 1159 4863 
L 1159 2969 
z
" transform="scale(0.015625)"/>
       <path id="DejaVuSans-3a" d="M 750 794 
L 1409 794 
L 1409 0 
L 750 0 
L 750 794 
z
M 750 3309 
L 1409 3309 
L 1409 2516 
L 750 2516 
L 750 3309 
z
" transform="scale(0.015625)"/>
       <path id="DejaVuSans-29" d="M 513 4856 
L 1013 4856 
Q 1481 4119 1714 3412 
Q 1947 2706 1947 2009 
Q 1947 1309 1714 600 
Q 1481 -109 1013 -844 
L 513 -844 
Q 928 -128 1133 580 
Q 1338 1288 1338 2009 
Q 1338 2731 1133 3434 
Q 928 4138 513 4856 
z
" transform="scale(0.015625)"/>
      </defs>
      <use xlink:href="#DejaVuSans-46"/>
      <use xlink:href="#DejaVuSans-61" x="48.394531"/>
      <use xlink:href="#DejaVuSans-6c" x="109.673828"/>
      <use xlink:href="#DejaVuSans-73" x="137.457031"/>
      <use xlink:href="#DejaVuSans-65" x="189.556641"/>
      <use xlink:href="#DejaVuSans-20" x="251.080078"/>
      <use xlink:href="#DejaVuSans-50" x="282.867188"/>
      <use xlink:href="#DejaVuSans-6f" x="339.544922"/>
      <use xlink:href="#DejaVuSans-73" x="400.726562"/>
      <use xlink:href="#DejaVuSans-69" x="452.826172"/>
      <use xlink:href="#DejaVuSans-74" x="480.609375"/>
      <use xlink:href="#DejaVuSans-69" x="519.818359"/>
      <use xlink:href="#DejaVuSans-76" x="547.601562"/>
      <use xlink:href="#DejaVuSans-65" x="606.78125"/>
      <use xlink:href="#DejaVuSans-20" x="668.304688"/>
      <use xlink:href="#DejaVuSans-52" x="700.091797"/>
      <use xlink:href="#DejaVuSans-61" x="767.324219"/>
      <use xlink:href="#DejaVuSans-74" x="828.603516"/>
      <use xlink:href="#DejaVuSans-65" x="867.8125"/>
      <use xlink:href="#DejaVuSans-20" x="929.335938"/>
      <use xlink:href="#DejaVuSans-28" x="961.123047"/>
      <use xlink:href="#DejaVuSans-50" x="1000.136719"/>
      <use xlink:href="#DejaVuSans-6f" x="1056.814453"/>
      <use xlink:href="#DejaVuSans-73" x="1117.996094"/>
      <use xlink:href="#DejaVuSans-69" x="1170.095703"/>
      <use xlink:href="#DejaVuSans-74" x="1197.878906"/>
      <use xlink:href="#DejaVuSans-69" x="1237.087891"/>
      <use xlink:href="#DejaVuSans-76" x="1264.871094"/>
      <use xlink:href="#DejaVuSans-65" x="1324.050781"/>
      <use xlink:href="#DejaVuSans-20" x="1385.574219"/>
      <use xlink:href="#DejaVuSans-6c" x="1417.361328"/>
      <use xlink:href="#DejaVuSans-61" x="1445.144531"/>
      <use xlink:href="#DejaVuSans-62" x="1506.423828"/>
      <use xlink:href="#DejaVuSans-65" x="1569.900391"/>
      <use xlink:href="#DejaVuSans-6c" x="1631.423828"/>
      <use xlink:href="#DejaVuSans-3a" x="1659.207031"/>
      <use xlink:href="#DejaVuSans-20" x="1692.898438"/>
      <use xlink:href="#DejaVuSans-31" x="1724.685547"/>
      <use xlink:href="#DejaVuSans-29" x="1788.308594"/>
     </g>
    </g>
   </g>
   <g id="matplotlib.axis_2">
    <g id="ytick_1">
     <g id="line2d_13">
      <path d="M 54 369.36 
L 388.8 369.36 
" clip-path="url(#p711a5d0dc5)" style="fill: none; stroke: #b0b0b0; stroke-width: 0.8; stroke-linecap: square"/>
     </g>
     <g id="line2d_14">
      <defs>
       <path id="m64cdcf5e8e" d="M 0 0 
L -3.5 0 
" style="stroke: #000000; stroke-width: 0.8"/>
      </defs>
      <g>
       <use xlink:href="#m64cdcf5e8e" x="54" y="369.36" style="stroke: #000000; stroke-width: 0.8"/>
      </g>
     </g>
     <g id="text_8">
      <!-- 0.0 -->
      <g transform="translate(31.096875 373.159219) scale(0.1 -0.1)">
       <use xlink:href="#DejaVuSans-30"/>
       <use xlink:href="#DejaVuSans-2e" x="63.623047"/>
       <use xlink:href="#DejaVuSans-30" x="95.410156"/>
      </g>
     </g>
    </g>
    <g id="ytick_2">
     <g id="line2d_15">
      <path d="M 54 308.88 
L 388.8 308.88 
" clip-path="url(#p711a5d0dc5)" style="fill: none; stroke: #b0b0b0; stroke-width: 0.8; stroke-linecap: square"/>
     </g>
     <g id="line2d_16">
      <g>
       <use xlink:href="#m64cdcf5e8e" x="54" y="308.88" style="stroke: #000000; stroke-width: 0.8"/>
      </g>
     </g>
     <g id="text_9">
      <!-- 0.2 -->
      <g transform="translate(31.096875 312.679219) scale(0.1 -0.1)">
       <use xlink:href="#DejaVuSans-30"/>
       <use xlink:href="#DejaVuSans-2e" x="63.623047"/>
       <use xlink:href="#DejaVuSans-32" x="95.410156"/>
      </g>
     </g>
    </g>
    <g id="ytick_3">
     <g id="line2d_17">
      <path d="M 54 248.4 
L 388.8 248.4 
" clip-path="url(#p711a5d0dc5)" style="fill: none; stroke: #b0b0b0; stroke-width: 0.8; stroke-linecap: square"/>
     </g>
     <g id="line2d_18">
      <g>
       <use xlink:href="#m64cdcf5e8e" x="54" y="248.4" style="stroke: #000000; stroke-width: 0.8"/>
      </g>
     </g>
     <g id="text_10">
      <!-- 0.4 -->
      <g transform="translate(31.096875 252.199219) scale(0.1 -0.1)">
       <use xlink:href="#DejaVuSans-30"/>
       <use xlink:href="#DejaVuSans-2e" x="63.623047"/>
       <use xlink:href="#DejaVuSans-34" x="95.410156"/>
      </g>
     </g>
    </g>
    <g id="ytick_4">
     <g id="line2d_19">
      <path d="M 54 187.92 
L 388.8 187.92 
" clip-path="url(#p711a5d0dc5)" style="fill: none; stroke: #b0b0b0; stroke-width: 0.8; stroke-linecap: square"/>
     </g>
     <g id="line2d_20">
      <g>
       <use xlink:href="#m64cdcf5e8e" x="54" y="187.92" style="stroke: #000000; stroke-width: 0.8"/>
      </g>
     </g>
     <g id="text_11">
      <!-- 0.6 -->
      <g transform="translate(31.096875 191.719219) scale(0.1 -0.1)">
       <use xlink:href="#DejaVuSans-30"/>
       <use xlink:href="#DejaVuSans-2e" x="63.623047"/>
       <use xlink:href="#DejaVuSans-36" x="95.410156"/>
      </g>
     </g>
    </g>
    <g id="ytick_5">
     <g id="line2d_21">
      <path d="M 54 127.44 
L 388.8 127.44 
" clip-path="url(#p711a5d0dc5)" style="fill: none; stroke: #b0b0b0; stroke-width: 0.8; stroke-linecap: square"/>
     </g>
     <g id="line2d_22">
      <g>
       <use xlink:href="#m64cdcf5e8e" x="54" y="127.44" style="stroke: #000000; stroke-width: 0.8"/>
      </g>
     </g>
     <g id="text_12">
      <!-- 0.8 -->
      <g transform="translate(31.096875 131.239219) scale(0.1 -0.1)">
       <use xlink:href="#DejaVuSans-30"/>
       <use xlink:href="#DejaVuSans-2e" x="63.623047"/>
       <use xlink:href="#DejaVuSans-38" x="95.410156"/>
      </g>
     </g>
    </g>
    <g id="ytick_6">
     <g id="line2d_23">
      <path d="M 54 66.96 
L 388.8 66.96 
" clip-path="url(#p711a5d0dc5)" style="fill: none; stroke: #b0b0b0; stroke-width: 0.8; stroke-linecap: square"/>
     </g>
     <g id="line2d_24">
      <g>
       <use xlink:href="#m64cdcf5e8e" x="54" y="66.96" style="stroke: #000000; stroke-width: 0.8"/>
      </g>
     </g>
     <g id="text_13">
      <!-- 1.0 -->
      <g transform="translate(31.096875 70.759219) scale(0.1 -0.1)">
       <use xlink:href="#DejaVuSans-31"/>
       <use xlink:href="#DejaVuSans-2e" x="63.623047"/>
       <use xlink:href="#DejaVuSans-30" x="95.410156"/>
      </g>
     </g>
    </g>
    <g id="text_14">
     <!-- True Positive Rate (Positive label: 1) -->
     <g transform="translate(25.017187 307.588906) rotate(-90) scale(0.1 -0.1)">
      <defs>
       <path id="DejaVuSans-54" d="M -19 4666 
L 3928 4666 
L 3928 4134 
L 2272 4134 
L 2272 0 
L 1638 0 
L 1638 4134 
L -19 4134 
L -19 4666 
z
" transform="scale(0.015625)"/>
       <path id="DejaVuSans-72" d="M 2631 2963 
Q 2534 3019 2420 3045 
Q 2306 3072 2169 3072 
Q 1681 3072 1420 2755 
Q 1159 2438 1159 1844 
L 1159 0 
L 581 0 
L 581 3500 
L 1159 3500 
L 1159 2956 
Q 1341 3275 1631 3429 
Q 1922 3584 2338 3584 
Q 2397 3584 2469 3576 
Q 2541 3569 2628 3553 
L 2631 2963 
z
" transform="scale(0.015625)"/>
       <path id="DejaVuSans-75" d="M 544 1381 
L 544 3500 
L 1119 3500 
L 1119 1403 
Q 1119 906 1312 657 
Q 1506 409 1894 409 
Q 2359 409 2629 706 
Q 2900 1003 2900 1516 
L 2900 3500 
L 3475 3500 
L 3475 0 
L 2900 0 
L 2900 538 
Q 2691 219 2414 64 
Q 2138 -91 1772 -91 
Q 1169 -91 856 284 
Q 544 659 544 1381 
z
M 1991 3584 
L 1991 3584 
z
" transform="scale(0.015625)"/>
      </defs>
      <use xlink:href="#DejaVuSans-54"/>
      <use xlink:href="#DejaVuSans-72" x="46.333984"/>
      <use xlink:href="#DejaVuSans-75" x="87.447266"/>
      <use xlink:href="#DejaVuSans-65" x="150.826172"/>
      <use xlink:href="#DejaVuSans-20" x="212.349609"/>
      <use xlink:href="#DejaVuSans-50" x="244.136719"/>
      <use xlink:href="#DejaVuSans-6f" x="300.814453"/>
      <use xlink:href="#DejaVuSans-73" x="361.996094"/>
      <use xlink:href="#DejaVuSans-69" x="414.095703"/>
      <use xlink:href="#DejaVuSans-74" x="441.878906"/>
      <use xlink:href="#DejaVuSans-69" x="481.087891"/>
      <use xlink:href="#DejaVuSans-76" x="508.871094"/>
      <use xlink:href="#DejaVuSans-65" x="568.050781"/>
      <use xlink:href="#DejaVuSans-20" x="629.574219"/>
      <use xlink:href="#DejaVuSans-52" x="661.361328"/>
      <use xlink:href="#DejaVuSans-61" x="728.59375"/>
      <use xlink:href="#DejaVuSans-74" x="789.873047"/>
      <use xlink:href="#DejaVuSans-65" x="829.082031"/>
      <use xlink:href="#DejaVuSans-20" x="890.605469"/>
      <use xlink:href="#DejaVuSans-28" x="922.392578"/>
      <use xlink:href="#DejaVuSans-50" x="961.40625"/>
      <use xlink:href="#DejaVuSans-6f" x="1018.083984"/>
      <use xlink:href="#DejaVuSans-73" x="1079.265625"/>
      <use xlink:href="#DejaVuSans-69" x="1131.365234"/>
      <use xlink:href="#DejaVuSans-74" x="1159.148438"/>
      <use xlink:href="#DejaVuSans-69" x="1198.357422"/>
      <use xlink:href="#DejaVuSans-76" x="1226.140625"/>
      <use xlink:href="#DejaVuSans-65" x="1285.320312"/>
      <use xlink:href="#DejaVuSans-20" x="1346.84375"/>
      <use xlink:href="#DejaVuSans-6c" x="1378.630859"/>
      <use xlink:href="#DejaVuSans-61" x="1406.414062"/>
      <use xlink:href="#DejaVuSans-62" x="1467.693359"/>
      <use xlink:href="#DejaVuSans-65" x="1531.169922"/>
      <use xlink:href="#DejaVuSans-6c" x="1592.693359"/>
      <use xlink:href="#DejaVuSans-3a" x="1620.476562"/>
      <use xlink:href="#DejaVuSans-20" x="1654.167969"/>
      <use xlink:href="#DejaVuSans-31" x="1685.955078"/>
      <use xlink:href="#DejaVuSans-29" x="1749.578125"/>
     </g>
    </g>
   </g>
   <g id="line2d_25">
    <path d="M 69.218182 369.36 
L 69.3292 338.997993 
L 69.330453 338.932861 
L 69.330453 338.887736 
L 69.441471 333.280373 
L 69.442307 333.186293 
L 69.442307 333.16969 
L 69.553325 326.85566 
L 69.554857 326.747957 
L 69.554857 326.745828 
L 69.665875 321.391759 
L 69.669358 321.28661 
L 69.669358 321.281502 
L 69.780236 317.142815 
L 69.783719 317.054268 
L 69.783719 317.032558 
L 69.894319 314.099888 
L 69.894458 314.099888 
L 69.901284 313.988779 
L 70.011744 311.138271 
L 70.036817 310.707459 
L 70.146721 307.872275 
L 70.147 307.872275 
L 70.154661 307.767552 
L 70.154661 307.762444 
L 70.2654 305.273357 
L 70.265679 305.273357 
L 70.269858 305.169911 
L 70.269858 305.162248 
L 70.380597 303.112913 
L 70.380876 303.112913 
L 70.38394 303.00223 
L 70.492729 300.449288 
L 70.494958 300.449288 
L 70.502898 300.338605 
L 70.613916 298.12282 
L 70.618373 298.037253 
L 70.618373 298.013414 
L 70.729391 295.735476 
L 70.736077 295.63799 
L 70.736077 295.626496 
L 70.846956 293.741056 
L 70.854199 293.63463 
L 70.965217 291.388194 
L 70.970511 291.278363 
L 70.970511 291.277086 
L 71.08125 288.81567 
L 71.090165 288.599838 
L 71.200347 286.5637 
L 71.201183 286.5637 
L 71.20564 286.453442 
L 71.20564 286.453017 
L 71.315544 284.138468 
L 71.316519 284.138468 
L 71.323623 284.028637 
L 71.431019 281.948225 
L 71.434641 281.948225 
L 71.440491 281.837116 
L 71.550813 280.106207 
L 71.551231 280.106207 
L 71.558335 279.995524 
L 71.668796 278.200759 
L 71.669074 278.200759 
L 71.680357 278.090502 
L 71.791375 276.492412 
L 71.803076 276.381729 
L 71.911726 274.640177 
L 71.914094 274.640177 
L 71.919944 274.5329 
L 71.919944 274.529069 
L 72.030962 272.927573 
L 72.037509 272.819445 
L 72.037509 272.817316 
L 72.148109 271.208584 
L 72.148248 271.208584 
L 72.154099 271.110246 
L 72.154099 271.097901 
L 72.264838 269.741185 
L 72.275703 269.642847 
L 72.275703 269.630076 
L 72.385885 267.748893 
L 72.386721 267.748893 
L 72.394522 267.639062 
L 72.394522 267.638636 
L 72.5054 266.381109 
L 72.511947 266.283623 
L 72.511947 266.270426 
L 72.622965 264.662119 
L 72.632298 264.557396 
L 72.632298 264.553565 
L 72.741784 263.285395 
L 72.749723 263.174286 
L 72.860323 261.603016 
L 72.860602 261.603016 
L 72.870631 261.496164 
L 72.870631 261.495313 
L 72.98151 259.982363 
L 72.981649 259.982363 
L 72.985549 259.881472 
L 72.985549 259.873383 
L 73.095592 258.490699 
L 73.108825 258.384274 
L 73.108825 258.380016 
L 73.219843 257.117381 
L 73.224579 257.015638 
L 73.224579 257.007975 
L 73.335458 255.724905 
L 73.343119 255.6155 
L 73.343119 255.614223 
L 73.454137 254.26304 
L 73.462913 254.151932 
L 73.573374 252.699858 
L 73.57992 252.594284 
L 73.57992 252.58875 
L 73.690103 251.153278 
L 73.690799 251.153278 
L 73.705425 251.04217 
L 73.815468 249.824233 
L 73.858371 249.337654 
L 73.969389 247.857058 
L 73.980532 247.751909 
L 73.980532 247.746801 
L 74.090715 246.40243 
L 74.104226 246.231297 
L 74.215244 244.620436 
L 74.227502 244.514011 
L 74.227502 244.509754 
L 74.338381 243.352266 
L 74.33852 243.352266 
L 74.344231 243.2518 
L 74.344231 243.241584 
L 74.455249 241.961494 
L 74.471268 241.855494 
L 74.471268 241.852514 
L 74.582007 240.781445 
L 74.592872 240.671613 
L 74.703751 239.452825 
L 74.716148 239.345122 
L 74.716148 239.341716 
L 74.827166 238.252342 
L 74.839842 238.142084 
L 74.839842 238.141233 
L 74.949467 237.148067 
L 74.950024 237.148067 
L 74.962004 237.05271 
L 74.962004 237.038662 
L 75.072882 236.011014 
L 75.073022 236.011014 
L 75.093359 235.902034 
L 75.093359 235.901608 
L 75.20368 234.863744 
L 75.224714 234.630033 
L 75.335453 233.694337 
L 75.335732 233.694337 
L 75.346179 233.585357 
L 75.346179 233.583654 
L 75.456082 232.643701 
L 75.456779 232.643701 
L 75.474191 232.535573 
L 75.474191 232.533019 
L 75.584652 231.606263 
L 75.650538 231.052423 
L 75.761277 230.089056 
L 75.761556 230.089056 
L 75.777993 229.99753 
L 75.777993 229.978373 
L 75.888314 229.226156 
L 75.888454 229.226156 
L 75.907815 229.123136 
L 75.907815 229.116324 
L 76.017719 228.215962 
L 76.030534 228.117199 
L 76.030534 228.104853 
L 76.141552 227.20364 
L 76.151999 227.093383 
L 76.151999 227.092957 
L 76.263017 226.482073 
L 76.286697 226.37139 
L 76.397715 225.666851 
L 76.405098 225.55702 
L 76.405098 225.556168 
L 76.512634 224.719236 
L 76.514723 224.719236 
L 76.525588 224.617492 
L 76.525588 224.611533 
L 76.636467 223.801419 
L 76.636606 223.801419 
L 76.660286 223.690737 
L 76.76824 222.845716 
L 76.769911 222.845716 
L 76.78203 222.743547 
L 76.78203 222.735458 
L 76.893048 221.987072 
L 76.90837 221.884478 
L 76.90837 221.875964 
L 77.019388 220.961553 
L 77.043347 220.85981 
L 77.043347 220.85385 
L 77.153668 220.068853 
L 77.154365 220.068853 
L 77.179159 219.969239 
L 77.179159 219.957745 
L 77.28962 219.186796 
L 77.290038 219.186796 
L 77.311768 219.081222 
L 77.311768 219.078668 
L 77.422786 218.137438 
L 77.439501 218.028458 
L 77.439501 218.027181 
L 77.55038 217.420553 
L 77.550519 217.420553 
L 77.565285 217.311148 
L 77.565285 217.309871 
L 77.676024 216.609589 
L 77.676163 216.609589 
L 77.691207 216.506569 
L 77.691207 216.49848 
L 77.801111 215.744986 
L 77.802225 215.744986 
L 77.814344 215.638985 
L 77.923829 214.908053 
L 77.935112 214.801201 
L 77.935112 214.796944 
L 78.045016 214.04345 
L 78.045852 214.04345 
L 78.057135 213.942984 
L 78.057135 213.942558 
L 78.166899 213.273352 
L 78.168013 213.273352 
L 78.177764 213.163095 
L 78.287667 212.805079 
L 78.298254 212.694396 
L 78.408854 211.986026 
L 78.409133 211.986026 
L 78.429748 211.875343 
L 78.540766 211.321929 
L 78.560546 211.221889 
L 78.560546 211.211246 
L 78.670868 210.665069 
L 78.697473 210.554386 
L 78.808212 209.800891 
L 78.826321 209.702554 
L 78.826321 209.689783 
L 78.937199 209.111678 
L 78.937339 209.111678 
L 78.962272 209.002698 
L 78.962272 209.00142 
L 79.07329 208.504625 
L 79.092234 208.396922 
L 79.092234 208.393942 
L 79.203252 207.70558 
L 79.382664 206.800535 
L 79.493264 206.035546 
L 79.493543 206.035546 
L 79.510815 205.92614 
L 79.510815 205.925715 
L 79.621555 205.307593 
L 79.621694 205.307593 
L 79.637713 205.202445 
L 79.637713 205.199891 
L 79.748592 204.664782 
L 79.748731 204.664782 
L 79.768232 204.566018 
L 79.768232 204.554099 
L 79.87925 203.847857 
L 79.89903 203.736748 
L 80.008376 203.100748 
L 80.009491 203.100748 
L 80.029271 202.992194 
L 80.029271 202.990491 
L 80.136667 202.337888 
L 80.138617 202.337888 
L 80.164665 202.239976 
L 80.164665 202.226779 
L 80.275683 201.525646 
L 80.300199 201.422626 
L 80.300199 201.415389 
L 80.410521 200.899862 
L 80.410799 200.899862 
L 80.437126 200.794288 
L 80.437126 200.791308 
L 80.547447 200.290681 
L 80.548004 200.290681 
L 80.572938 200.180849 
L 80.683817 199.591676 
L 80.689249 199.484399 
L 80.689249 199.481419 
L 80.800267 198.907145 
L 80.815172 198.799442 
L 80.815172 198.796037 
L 80.925772 198.277956 
L 80.925911 198.277956 
L 80.944577 198.166847 
L 81.055595 197.661112 
L 81.085961 197.559369 
L 81.1967 196.995312 
L 81.19684 196.995312 
L 81.230967 196.885055 
L 81.230967 196.884629 
L 81.34101 196.285665 
L 81.363994 196.178813 
L 81.363994 196.175833 
L 81.473619 195.705005 
L 81.499806 195.5956 
L 81.499806 195.593897 
L 81.609431 195.080924 
L 81.643419 194.980884 
L 81.643419 194.975776 
L 81.754298 194.500265 
L 81.77756 194.389582 
L 81.887185 193.650562 
L 81.888021 193.650562 
L 81.926884 193.542007 
L 81.926884 193.540304 
L 82.036927 193.111196 
L 82.037484 193.111196 
L 82.058657 193.008601 
L 82.058657 193.005195 
L 82.16856 192.695284 
L 82.264535 192.346207 
L 82.374577 191.91199 
L 82.375274 191.91199 
L 82.399233 191.80301 
L 82.399233 191.800881 
L 82.509136 191.382415 
L 82.537413 191.27684 
L 82.537413 191.271732 
L 82.64467 190.858374 
L 82.648431 190.858374 
L 82.684787 190.747691 
L 82.795805 190.370092 
L 82.839961 190.266221 
L 82.839961 190.258984 
L 82.950422 189.805184 
L 82.976192 189.700887 
L 83.057679 189.376075 
L 83.167861 188.963143 
L 83.168697 188.963143 
L 83.196835 188.854163 
L 83.196835 188.85246 
L 83.30646 188.515729 
L 83.307435 188.515729 
L 83.328468 188.407175 
L 83.328468 188.404621 
L 83.435586 187.996371 
L 83.439068 187.996371 
L 83.482111 187.796291 
L 83.593129 187.410604 
L 83.623355 187.299495 
L 83.742731 186.915511 
L 83.853053 186.434892 
L 83.85361 186.434892 
L 83.883558 186.32506 
L 83.987472 185.96747 
L 84.098072 185.539638 
L 84.09849 185.539638 
L 84.133314 185.434915 
L 84.133314 185.429381 
L 84.243775 185.001123 
L 84.275673 184.89044 
L 84.275673 184.890015 
L 84.381398 184.536681 
L 84.386552 184.536681 
L 84.415943 184.427275 
L 84.415943 184.426849 
L 84.526822 183.941548 
L 84.570142 183.830865 
L 84.679489 183.4737 
L 84.680046 183.4737 
L 84.717238 183.362591 
L 84.828256 182.998189 
L 84.876591 182.891338 
L 84.876591 182.887932 
L 84.987191 182.48096 
L 84.98747 182.48096 
L 85.02689 182.369851 
L 85.135819 181.985016 
L 85.137908 181.985016 
L 85.156991 181.874333 
L 85.268009 181.329007 
L 85.312027 181.221304 
L 85.312027 181.21875 
L 85.422209 180.881593 
L 85.422348 180.881593 
L 85.444914 180.771761 
L 85.554678 180.372452 
L 85.554957 180.372452 
L 85.575712 180.263472 
L 85.575712 180.263046 
L 85.686451 179.87821 
L 85.68659 179.87821 
L 85.715424 179.770082 
L 85.826164 179.307768 
L 85.826442 179.307768 
L 85.863773 179.202619 
L 85.863773 179.200917 
L 85.938993 178.965928 
L 85.941221 178.965928 
L 86.024102 178.821615 
L 86.13512 178.464024 
L 86.173704 178.35845 
L 86.173704 178.355044 
L 86.284444 177.995325 
L 86.284722 177.995325 
L 86.324979 177.884216 
L 86.435996 177.57771 
L 86.483635 177.472136 
L 86.483635 177.466601 
L 86.594096 177.085171 
L 86.64661 176.975766 
L 86.64661 176.974063 
L 86.756932 176.595187 
L 86.757071 176.595187 
L 86.791059 176.484078 
L 86.90138 176.164801 
L 86.93314 176.054544 
L 86.93314 176.054118 
L 87.043879 175.669708 
L 87.044158 175.669708 
L 87.073131 175.562857 
L 87.073131 175.559025 
L 87.181781 175.286149 
L 87.18401 175.286149 
L 87.201004 175.176744 
L 87.311325 174.877049 
L 87.370665 174.766792 
L 87.480986 174.45986 
L 87.481265 174.45986 
L 87.527511 174.348751 
L 89.677108 168.134335 
L 89.711793 168.025781 
L 89.711793 168.024078 
L 89.822254 167.715017 
L 89.822393 167.715017 
L 89.847327 167.604335 
L 89.955419 167.245041 
L 89.958205 167.245041 
L 90.006401 167.139467 
L 90.006401 167.13521 
L 90.11728 166.831683 
L 90.157258 166.720575 
L 90.267161 166.376181 
L 90.267858 166.376181 
L 90.303796 166.274863 
L 90.303796 166.265924 
L 90.411749 165.983682 
L 90.413421 165.983682 
L 90.450612 165.878108 
L 90.450612 165.875128 
L 90.561491 165.406854 
L 90.56163 165.406854 
L 90.611359 165.297449 
L 90.611359 165.296172 
L 90.722377 165.011802 
L 90.766115 164.90197 
L 90.849274 164.577159 
L 90.960292 164.251921 
L 90.99233 164.141664 
L 91.100841 163.87858 
L 91.103069 163.87858 
L 91.151544 163.776411 
L 91.151544 163.770451 
L 91.262423 163.506089 
L 91.3024 163.396258 
L 91.3024 163.394981 
L 91.408822 163.128065 
L 91.409936 163.128065 
L 91.462729 163.020788 
L 91.462729 163.019085 
L 91.573747 162.678948 
L 91.60662 162.571245 
L 91.71736 162.236642 
L 91.783942 162.125534 
L 91.891339 161.839461 
L 91.892314 161.839461 
L 91.934938 161.728353 
L 92.045677 161.492939 
L 92.096938 161.393324 
L 92.096938 161.382256 
L 92.313959 160.850978 
L 92.421634 160.647066 
L 92.424699 160.647066 
L 92.462448 160.536384 
L 92.571655 160.236263 
L 92.573465 160.236263 
L 92.598539 160.131966 
L 92.598539 160.130688 
L 92.708999 159.7897 
L 92.709557 159.7897 
L 92.754409 159.684126 
L 92.754409 159.679443 
L 92.861806 159.464889 
L 92.865288 159.464889 
L 92.915434 159.354206 
L 93.026313 159.084736 
L 93.059744 158.979161 
L 93.059744 158.97831 
L 93.167279 158.697346 
L 93.170762 158.697346 
L 93.223137 158.58794 
L 93.330115 158.347843 
L 93.332344 158.347843 
L 93.385415 158.24014 
L 93.385415 158.236735 
L 93.495736 157.965136 
L 93.496015 157.965136 
L 93.528889 157.861264 
L 93.528889 157.854027 
L 93.637678 157.619891 
L 93.63921 157.619891 
L 93.68072 157.511336 
L 93.68072 157.508782 
L 93.785191 157.261023 
L 93.877126 157.102236 
L 93.988144 156.928123 
L 94.108634 156.680364 
L 94.215891 156.443247 
L 94.218955 156.443247 
L 94.269241 156.33597 
L 94.269241 156.334267 
L 94.379005 156.081825 
L 94.379701 156.081825 
L 94.417172 155.972845 
L 94.527493 155.729768 
L 94.52805 155.729768 
L 94.568585 155.61866 
L 94.67821 155.377286 
L 94.678767 155.377286 
L 94.747022 155.272989 
L 94.855672 154.999687 
L 94.904425 154.894964 
L 94.904425 154.889856 
L 95.015443 154.638265 
L 95.084115 154.528008 
L 95.084115 154.527157 
L 95.192905 154.308345 
L 95.194158 154.308345 
L 95.254891 154.200217 
L 95.254891 154.198088 
L 95.364376 153.992473 
L 95.365212 153.992473 
L 95.420373 153.889027 
L 95.420373 153.887325 
L 95.531252 153.606361 
L 95.587387 153.501638 
L 95.587387 153.496955 
L 95.694227 153.280698 
L 95.696177 153.280698 
L 95.746462 153.171292 
L 95.746462 153.170866 
L 95.856644 152.92183 
L 95.857341 152.92183 
L 95.918909 152.817532 
L 95.918909 152.811147 
L 96.029788 152.623837 
L 96.073109 152.514432 
L 96.073109 152.512729 
L 96.183569 152.261138 
L 96.242909 152.150455 
L 96.351559 151.910359 
L 96.352255 151.910359 
L 96.393626 151.800527 
L 96.393626 151.800102 
L 96.503808 151.543828 
L 96.504644 151.543828 
L 96.5488 151.433997 
L 96.5488 151.43272 
L 96.657868 151.227105 
L 96.659818 151.227105 
L 96.718044 151.116848 
L 96.718044 151.116422 
L 96.828783 150.821836 
L 97.486951 149.614541 
L 97.593651 149.451071 
L 97.597969 149.451071 
L 97.636693 149.354437 
L 97.636693 149.351031 
L 97.745621 149.147545 
L 97.746318 149.147545 
L 97.7973 149.037288 
L 98.765677 147.355334 
L 98.876417 147.147591 
L 98.97253 147.037334 
L 98.97253 147.036908 
L 99.083548 146.876418 
L 99.110432 146.766587 
L 99.110432 146.766161 
L 99.22145 146.497116 
L 99.2826 146.387285 
L 99.2826 146.386859 
L 99.392086 146.261703 
L 99.392783 146.261703 
L 99.460062 146.154 
L 99.460062 146.151871 
L 100.002476 145.121244 
L 100.110569 144.916055 
L 100.113494 144.916055 
L 100.170326 144.806649 
L 100.170326 144.806223 
L 100.281344 144.566552 
L 100.371329 144.462681 
L 100.482207 144.15362 
L 100.539458 144.04762 
L 100.539458 144.043789 
L 100.646018 143.864993 
L 100.648247 143.864993 
L 100.709258 143.758567 
L 100.709258 143.755162 
L 100.819719 143.590415 
L 100.819997 143.590415 
L 100.89842 143.481009 
L 100.89842 143.480583 
L 101.004424 143.311153 
L 101.006095 143.311153 
L 101.073235 143.202173 
L 101.073235 143.201322 
L 101.183835 142.990599 
L 101.183975 142.990599 
L 101.229524 142.882045 
L 101.229524 142.881619 
L 101.339706 142.697289 
L 101.339846 142.697289 
L 101.432895 142.587458 
L 101.540848 142.387377 
L 101.543077 142.387377 
L 101.630415 142.27712 
L 101.741293 142.168992 
L 101.836153 142.060012 
L 101.836153 142.058309 
L 101.946892 141.910164 
L 102.009018 141.799055 
L 102.116275 141.614726 
L 102.119897 141.614726 
L 102.170878 141.503617 
L 102.279946 141.369521 
L 102.280086 141.369521 
L 102.378428 141.262669 
L 102.378428 141.262244 
L 102.489306 141.093239 
L 102.489446 141.093239 
L 102.601717 140.984259 
L 102.601717 140.982982 
L 102.709671 140.766299 
L 102.712735 140.766299 
L 102.803277 140.659022 
L 102.803277 140.656468 
L 102.990907 140.432974 
L 103.101368 140.325271 
L 103.212247 140.079214 
L 103.301117 139.971086 
L 103.301117 139.968532 
L 103.412135 139.832306 
L 103.472589 139.732266 
L 103.472589 139.721198 
L 103.583607 139.545382 
L 103.669551 139.434274 
L 103.777644 139.330402 
L 103.779873 139.330402 
L 103.838098 139.232491 
L 103.838098 139.220145 
L 103.947027 139.031133 
L 103.948838 139.031133 
L 104.026285 138.92045 
L 104.136746 138.734844 
L 104.137164 138.734844 
L 104.200683 138.626289 
L 104.200683 138.625012 
L 104.311004 138.485807 
L 104.311143 138.485807 
L 104.44417 138.375976 
L 104.553795 138.143542 
L 104.555188 138.143542 
L 104.618706 138.032859 
L 104.728889 137.851509 
L 104.729446 137.851509 
L 104.82347 137.740401 
L 104.932538 137.587573 
L 104.932955 137.587573 
L 105.016811 137.47689 
L 105.016811 137.476465 
L 105.124486 137.34024 
L 105.124764 137.34024 
L 105.200123 137.229557 
L 105.308076 137.124408 
L 105.310862 137.124408 
L 105.413662 137.014151 
L 105.521476 136.809813 
L 105.523844 136.809813 
L 105.630126 136.702962 
L 105.737801 136.55354 
L 105.740448 136.55354 
L 105.815667 136.443283 
L 105.815667 136.442857 
L 105.924735 136.283219 
L 105.92557 136.283219 
L 106.046896 136.172961 
L 106.046896 136.17211 
L 106.15485 136.053339 
L 106.155407 136.053339 
L 106.254724 135.942656 
L 106.254724 135.94223 
L 106.361285 135.803877 
L 106.365185 135.803877 
L 106.457537 135.701282 
L 106.457537 135.692768 
L 106.566187 135.608053 
L 106.568555 135.608053 
L 106.647396 135.499925 
L 106.647396 135.498647 
L 106.756743 135.34582 
L 106.757718 135.34582 
L 106.840598 135.237266 
L 106.840598 135.234711 
L 107.026974 135.019731 
L 107.146629 134.910751 
L 107.146629 134.909049 
L 107.255139 134.778358 
L 107.256811 134.778358 
L 107.33593 134.6681 
L 107.440123 134.523787 
L 107.445555 134.523787 
L 107.530665 134.416084 
L 107.640847 134.265811 
L 107.641125 134.265811 
L 107.774848 134.156405 
L 107.885866 133.986124 
L 108.112778 133.721336 
L 108.219756 133.555738 
L 108.223238 133.555738 
L 108.40655 133.319898 
L 108.516175 133.18495 
L 108.51729 133.18495 
L 108.637223 133.08491 
L 108.637223 133.080227 
L 108.746708 132.983593 
L 108.747823 132.983593 
L 108.88656 132.873336 
L 108.996603 132.743922 
L 108.996882 132.743922 
L 109.114307 132.640476 
L 109.114307 132.635793 
L 109.220589 132.547673 
L 109.225325 132.547673 
L 109.315728 132.436564 
L 109.426467 132.287142 
L 109.426746 132.287142 
L 109.487757 132.177737 
L 109.591949 132.052154 
L 109.598218 132.052154 
L 109.739741 131.945303 
L 109.739741 131.944877 
L 109.847416 131.835045 
L 109.850202 131.835045 
L 109.94938 131.726917 
L 109.94938 131.725214 
L 110.058308 131.593672 
L 110.058448 131.593672 
L 110.165844 131.482563 
L 110.27533 131.382949 
L 110.276583 131.382949 
L 110.382447 131.273969 
L 110.493047 131.115607 
L 110.493465 131.115607 
L 110.616463 131.006201 
L 110.616463 131.004498 
L 110.724138 130.834643 
L 110.727063 130.834643 
L 110.83418 130.724811 
L 110.939487 130.633711 
L 110.941995 130.633711 
L 111.098701 130.524305 
L 111.098701 130.523028 
L 111.209301 130.409365 
L 111.294828 130.302514 
L 111.294828 130.300385 
L 111.405707 130.194811 
L 111.543191 130.087108 
L 111.654209 129.958971 
L 111.780828 129.848288 
L 111.780828 129.847863 
L 111.890592 129.736754 
L 111.891428 129.736754 
L 111.997571 129.625646 
L 112.105664 129.512834 
L 112.108589 129.512834 
L 112.242172 129.402151 
L 112.353051 129.289766 
L 112.464348 129.182063 
L 112.574112 128.980705 
L 112.575226 128.980705 
L 112.720511 128.870874 
L 112.830693 128.776368 
L 112.830832 128.776368 
L 112.967481 128.672922 
L 112.967481 128.671645 
L 113.07627 128.509026 
L 113.076688 128.509026 
L 113.152186 128.403877 
L 113.152186 128.401749 
L 113.262786 128.328528 
L 113.263064 128.328528 
L 113.377147 128.222102 
L 113.377147 128.218696 
L 113.487886 128.068849 
L 113.669526 127.958166 
L 113.851028 127.759788 
L 113.946166 127.652085 
L 113.946166 127.649957 
L 114.056627 127.525226 
L 114.057045 127.525226 
L 114.164162 127.417949 
L 114.346221 127.21276 
L 114.502788 127.102928 
L 114.806451 126.841546 
L 114.952432 126.732141 
L 115.06345 126.612944 
L 115.212774 126.502261 
L 115.323513 126.369441 
L 115.629265 126.10508 
L 115.800459 126.001634 
L 115.800459 126.000782 
L 115.905348 125.914365 
L 115.910084 125.914365 
L 116.042971 125.80879 
L 116.153432 125.691722 
L 116.2703 125.574228 
L 116.379368 125.477167 
L 116.380761 125.477167 
L 116.484814 125.367336 
L 116.594718 125.26389 
L 116.753235 125.153207 
L 116.863557 124.998251 
L 116.864253 124.998251 
L 117.026114 124.887994 
L 117.129749 124.820307 
L 117.137132 124.820307 
L 117.322533 124.709199 
L 117.466146 124.626612 
L 117.608784 124.515504 
L 117.717155 124.369913 
L 117.719384 124.369913 
L 117.862718 124.261785 
L 117.862718 124.261359 
L 117.972901 124.085544 
L 117.97304 124.085544 
L 118.104534 123.979118 
L 118.104534 123.975712 
L 118.214299 123.867584 
L 118.215134 123.867584 
L 118.323506 123.757752 
L 118.429927 123.687937 
L 118.434245 123.687937 
L 118.580365 123.576828 
L 118.689155 123.50531 
L 118.691244 123.50531 
L 118.839036 123.395479 
L 118.839036 123.395053 
L 118.948939 123.29927 
L 118.949497 123.29927 
L 119.053968 123.189013 
L 119.163314 123.110683 
L 119.164986 123.110683 
L 119.263606 122.999575 
L 119.370585 122.910177 
L 119.371421 122.910177 
L 119.53941 122.804603 
L 119.53941 122.799068 
L 119.644578 122.737341 
L 119.650428 122.737341 
L 119.724672 122.62751 
L 119.82775 122.541518 
L 119.83569 122.541518 
L 119.940579 122.436795 
L 119.940579 122.435518 
L 120.051179 122.395502 
L 120.051597 122.395502 
L 120.179609 122.287799 
L 120.179609 122.287373 
L 120.288398 122.201381 
L 120.290627 122.201381 
L 120.406103 122.090273 
L 120.51322 121.959156 
L 120.516981 121.959156 
L 120.660176 121.848047 
L 120.763254 121.732256 
L 120.770498 121.732256 
L 120.931383 121.621148 
L 121.104109 121.450015 
L 121.222231 121.339758 
L 121.4061 121.217155 
L 121.546648 121.107324 
L 121.657109 121.022609 
L 121.657666 121.022609 
L 121.813677 120.914054 
L 121.922466 120.842962 
L 121.922605 120.842962 
L 122.031952 120.739516 
L 122.031952 120.73909 
L 122.142412 120.65693 
L 122.246466 120.546247 
L 122.246466 120.545821 
L 122.357205 120.48154 
L 122.555561 120.371283 
L 122.653764 120.303596 
L 122.666579 120.303596 
L 122.78679 120.195467 
L 122.78679 120.194616 
L 122.896694 120.123524 
L 122.89739 120.123524 
L 123.040307 120.013266 
L 123.147842 119.917057 
L 123.151046 119.917057 
L 123.297584 119.809355 
L 123.297584 119.807652 
L 123.408602 119.720808 
L 123.573667 119.6097 
L 123.681202 119.527965 
L 123.683292 119.527965 
L 123.851142 119.416856 
L 123.950459 119.343209 
L 123.961185 119.343209 
L 124.161769 119.235932 
L 124.161769 119.232527 
L 124.271812 119.130358 
L 124.272648 119.130358 
L 124.444259 119.024358 
L 124.444259 119.023932 
L 124.552909 118.951988 
L 124.554581 118.951988 
L 124.697776 118.841305 
L 124.807262 118.758719 
L 124.808655 118.758719 
L 124.983887 118.648888 
L 124.983887 118.648036 
L 125.088359 118.57141 
L 125.094627 118.57141 
L 125.176532 118.463281 
L 125.282396 118.393466 
L 125.287132 118.393466 
L 125.407344 118.28406 
L 125.510979 118.197216 
L 125.515297 118.197216 
L 125.627429 118.088236 
L 125.627429 118.087811 
L 125.735383 117.995433 
L 125.73789 117.995433 
L 125.861863 117.884324 
L 125.966334 117.828983 
L 125.972045 117.828983 
L 126.1112 117.724686 
L 126.1112 117.721706 
L 126.218597 117.642951 
L 126.21985 117.642951 
L 126.374885 117.532694 
L 126.374885 117.532268 
L 126.485903 117.461175 
L 126.651107 117.353898 
L 126.760314 117.244493 
L 126.762125 117.244493 
L 126.880804 117.135087 
L 126.880804 117.134235 
L 126.979843 117.019296 
L 126.990429 117.019296 
L 127.076374 116.911593 
L 127.076374 116.908187 
L 127.18586 116.8405 
L 127.186556 116.8405 
L 127.366804 116.730243 
L 127.366804 116.729817 
L 127.4703 116.631906 
L 127.476847 116.631906 
L 127.660716 116.521648 
L 127.771316 116.446299 
L 127.947106 116.338596 
L 127.947106 116.336893 
L 128.056453 116.245793 
L 128.058124 116.245793 
L 128.191708 116.136387 
L 128.302586 116.041881 
L 128.451353 115.930772 
L 128.561396 115.826475 
L 128.562093 115.826475 
L 128.715178 115.715366 
L 128.820903 115.634483 
L 128.824942 115.634483 
L 129.050739 115.527206 
L 129.050739 115.5238 
L 129.157299 115.424611 
L 129.161339 115.424611 
L 129.349387 115.319462 
L 129.349387 115.314354 
L 129.454555 115.218145 
L 129.458733 115.218145 
L 129.586745 115.107888 
L 129.586745 115.107037 
L 129.689963 115.04233 
L 129.69637 115.04233 
L 129.890826 114.935052 
L 129.890826 114.931221 
L 129.991397 114.877157 
L 130.001844 114.877157 
L 130.208975 114.767751 
L 130.208975 114.766474 
L 130.319297 114.705598 
L 130.319436 114.705598 
L 130.455388 114.594916 
L 130.565709 114.506795 
L 130.565988 114.506795 
L 130.706676 114.395686 
L 130.817276 114.338216 
L 130.817415 114.338216 
L 131.007692 114.227108 
L 131.108541 114.162401 
L 131.115785 114.162401 
L 131.372923 114.052144 
L 131.478508 113.955509 
L 131.482966 113.955509 
L 131.669342 113.844826 
L 131.779942 113.790762 
L 131.975512 113.681782 
L 132.327928 113.481276 
L 132.51723 113.370593 
L 132.51723 113.370167 
L 132.628108 113.319083 
L 132.786347 113.212657 
L 132.786347 113.210954 
L 132.895137 113.164127 
L 132.896947 113.164127 
L 133.087781 113.05387 
L 133.087781 113.053018 
L 133.193785 113.00534 
L 133.19671 113.00534 
L 133.448834 112.89636 
L 133.448834 112.894657 
L 133.557762 112.80909 
L 133.559016 112.80909 
L 133.768097 112.699259 
L 133.768097 112.698833 
L 133.875354 112.618801 
L 133.878558 112.618801 
L 134.078168 112.509395 
L 134.078168 112.508544 
L 134.184171 112.409781 
L 134.186957 112.409781 
L 134.411361 112.299524 
L 134.520846 112.226303 
L 134.522239 112.226303 
L 134.673792 112.116471 
L 134.673792 112.115194 
L 134.782581 112.065813 
L 134.939985 111.960664 
L 135.044874 111.905748 
L 135.050863 111.905748 
L 135.314548 111.795065 
L 135.45649 111.718439 
L 135.611664 111.614993 
L 135.611664 111.612864 
L 135.721986 111.539218 
L 135.722682 111.539218 
L 135.858216 111.438326 
L 135.858216 111.428535 
L 135.963523 111.370213 
L 135.969234 111.370213 
L 136.06284 111.262936 
L 136.173022 111.202486 
L 136.17358 111.202486 
L 136.348812 111.094358 
L 136.348812 111.093081 
L 136.451751 111.031779 
L 136.459691 111.031779 
L 136.677548 110.921522 
L 136.677548 110.921097 
L 136.786337 110.851707 
L 136.788288 110.851707 
L 136.878133 110.740598 
L 136.981768 110.643538 
L 136.988454 110.643538 
L 137.173577 110.532855 
L 137.281531 110.471128 
L 137.282506 110.471128 
L 137.429044 110.36002 
L 137.536858 110.321706 
L 137.539783 110.321706 
L 137.813358 110.214855 
L 137.813358 110.212301 
L 137.920197 110.165473 
L 137.924376 110.165473 
L 138.124543 110.056493 
L 138.124543 110.054365 
L 138.229432 110.004558 
L 138.233053 110.004558 
L 138.471387 109.893449 
L 138.581012 109.858116 
L 138.582126 109.858116 
L 138.747608 109.750413 
L 138.747608 109.749987 
L 138.858348 109.675915 
L 138.858487 109.675915 
L 139.13053 109.565232 
L 139.236673 109.512445 
L 139.240016 109.512445 
L 139.436282 109.401336 
L 139.546464 109.350677 
L 139.5473 109.350677 
L 139.727687 109.240846 
L 139.727687 109.239994 
L 139.825472 109.14336 
L 139.838705 109.14336 
L 140.071606 109.034806 
L 140.071606 109.032251 
L 140.178027 108.965842 
L 140.181788 108.965842 
L 140.41845 108.859416 
L 140.527518 108.807054 
L 140.529189 108.807054 
L 140.733953 108.697649 
L 140.835777 108.649544 
L 140.841627 108.649544 
L 140.994852 108.538436 
L 141.133311 108.455849 
L 142.882018 107.517173 
L 143.069787 107.407342 
L 143.069787 107.406916 
L 143.17997 107.293679 
L 143.180527 107.293679 
L 143.409667 107.183422 
L 143.518317 107.128932 
L 143.520685 107.128932 
L 143.782698 107.028892 
L 143.782698 107.028466 
L 143.885219 106.957374 
L 143.89093 106.957374 
L 144.097783 106.854354 
L 144.208801 106.809229 
L 144.421086 106.69812 
L 144.53099 106.647462 
L 144.531965 106.647462 
L 144.716113 106.536779 
L 144.81933 106.479309 
L 144.822952 106.479309 
L 145.049306 106.369052 
L 145.158792 106.308602 
L 145.160324 106.308602 
L 145.46343 106.197493 
L 145.574448 106.131509 
L 145.810831 106.021252 
L 145.91572 105.968465 
L 145.920874 105.968465 
L 146.140124 105.857782 
L 146.250585 105.776899 
L 146.450751 105.667919 
L 146.450751 105.666216 
L 146.561769 105.610874 
L 146.752185 105.50232 
L 146.862228 105.440593 
L 146.862646 105.440593 
L 147.110591 105.329485 
L 147.207958 105.239235 
L 147.221191 105.239235 
L 147.441277 105.128127 
L 147.551877 105.041283 
L 147.552016 105.041283 
L 147.729199 104.931026 
L 147.834367 104.870576 
L 147.839938 104.870576 
L 148.035787 104.759894 
L 148.139004 104.709661 
L 148.144298 104.709661 
L 148.409933 104.601958 
L 148.511339 104.553002 
L 148.517886 104.553002 
L 148.837707 104.44317 
L 148.94775 104.40656 
L 148.948586 104.40656 
L 149.226201 104.295451 
L 149.331229 104.223933 
L 149.337079 104.223933 
L 149.562597 104.11325 
L 149.666233 104.065997 
L 149.673615 104.065997 
L 149.981736 103.954889 
L 150.087739 103.888479 
L 150.092475 103.888479 
L 150.341673 103.77737 
L 150.452691 103.696061 
L 150.663027 103.58623 
L 150.663027 103.585378 
L 150.773766 103.527908 
L 150.773905 103.527908 
L 150.979226 103.4168 
L 151.084811 103.363587 
L 151.089965 103.363587 
L 151.418562 103.25333 
L 151.418562 103.252478 
L 151.52164 103.207354 
L 151.529162 103.207354 
L 151.770699 103.100502 
L 151.770699 103.0988 
L 151.879906 103.043032 
L 151.881717 103.043032 
L 152.129662 102.931924 
L 152.224661 102.880839 
L 152.238172 102.880839 
L 152.533895 102.769731 
L 152.64157 102.730566 
L 152.644774 102.730566 
L 152.884361 102.625418 
L 152.884361 102.619458 
L 152.986743 102.578164 
L 152.9951 102.578164 
L 153.209893 102.471739 
L 153.209893 102.470887 
L 153.318961 102.405755 
L 153.320493 102.405755 
L 153.576656 102.298477 
L 153.576656 102.296775 
L 153.677227 102.245265 
L 153.687674 102.245265 
L 153.956513 102.134156 
L 154.061402 102.066469 
L 154.066695 102.066469 
L 154.359772 101.956212 
L 154.470372 101.913642 
L 154.47065 101.913642 
L 154.739629 101.804662 
L 154.739629 101.804236 
L 154.84995 101.756983 
L 154.850229 101.756983 
L 155.10486 101.647151 
L 155.212813 101.602878 
L 155.215738 101.602878 
L 155.363948 101.494324 
L 155.363948 101.492195 
L 155.473573 101.410035 
L 155.474687 101.410035 
L 155.615932 101.298926 
L 155.723329 101.26189 
L 155.725 101.26189 
L 155.938957 101.150781 
L 156.049975 101.062661 
L 156.271036 100.953255 
L 156.376064 100.914942 
L 156.381357 100.914942 
L 156.703964 100.803833 
L 156.810246 100.765094 
L 156.814286 100.765094 
L 157.086329 100.654837 
L 157.086329 100.654412 
L 157.177149 100.601624 
L 157.197347 100.601624 
L 157.468414 100.493921 
L 157.468414 100.491367 
L 157.578179 100.436451 
L 157.578457 100.436451 
L 157.926276 100.325343 
L 158.036598 100.26021 
L 158.036876 100.26021 
L 158.280921 100.153785 
L 158.280921 100.152507 
L 158.390685 100.109511 
L 158.391382 100.109511 
L 158.649495 99.998403 
L 158.75912 99.958812 
L 158.760513 99.958812 
L 159.051918 99.850258 
L 159.156389 99.803431 
L 159.162239 99.803431 
L 159.408791 99.692322 
L 159.506158 99.616547 
L 159.517998 99.616547 
L 159.818736 99.505438 
L 159.928082 99.486282 
L 159.929475 99.486282 
L 160.152347 99.376876 
L 160.253057 99.335157 
L 160.257932 99.335157 
L 160.467292 99.224049 
L 160.561316 99.158916 
L 160.57831 99.158916 
L 160.761344 99.048233 
L 160.869297 99.005663 
L 160.870969 99.005663 
L 161.191068 98.895406 
L 161.300693 98.846876 
L 161.301947 98.846876 
L 161.581233 98.73747 
L 161.581233 98.735767 
L 161.690997 98.711076 
L 161.692251 98.711076 
L 161.971398 98.60167 
L 162.077819 98.551438 
L 162.082277 98.551438 
L 162.34819 98.440755 
L 162.455726 98.366682 
L 162.457397 98.366682 
L 162.736544 98.255999 
L 162.736544 98.255574 
L 162.845612 98.211301 
L 162.847562 98.211301 
L 163.094811 98.106152 
L 163.094811 98.102321 
L 163.203321 98.044851 
L 163.205829 98.044851 
L 163.439983 97.935445 
L 163.439983 97.933742 
L 163.549469 97.875421 
L 163.550583 97.875421 
L 163.797692 97.765589 
L 163.797692 97.764738 
L 163.907178 97.710674 
L 163.908571 97.710674 
L 164.138965 97.602971 
L 164.138965 97.600416 
L 164.249982 97.552738 
L 164.534562 97.442481 
L 164.534562 97.441629 
L 164.639172 97.395653 
L 164.64558 97.395653 
L 164.891853 97.285822 
L 165.000921 97.236866 
L 165.002732 97.236866 
L 165.233543 97.127034 
L 165.344283 97.082336 
L 165.344561 97.082336 
L 165.6609 96.97293 
L 165.768992 96.936319 
L 165.771918 96.936319 
L 166.044936 96.825211 
L 166.146342 96.793283 
L 166.155953 96.793283 
L 166.386069 96.683026 
L 166.386069 96.6826 
L 166.49639 96.651098 
L 166.497086 96.651098 
L 166.780691 96.540841 
L 166.889898 96.498696 
L 166.891709 96.498696 
L 167.12447 96.387588 
L 167.23326 96.333524 
L 167.234653 96.333524 
L 167.585815 96.222415 
L 167.690564 96.19517 
L 167.696693 96.19517 
L 167.910093 96.084062 
L 168.020554 96.03468 
L 168.320038 95.923571 
L 168.42827 95.890367 
L 168.431056 95.890367 
L 168.700173 95.779258 
L 168.807709 95.751587 
L 168.808963 95.751587 
L 169.123351 95.642182 
L 169.123351 95.641756 
L 169.227404 95.610254 
L 169.23409 95.610254 
L 169.578845 95.502977 
L 169.70031 95.446784 
L 169.98865 95.336101 
L 170.098554 95.246278 
L 170.099668 95.246278 
L 170.338141 95.135169 
L 170.448741 95.094727 
L 170.44902 95.094727 
L 170.757279 94.984044 
L 170.860915 94.935088 
L 170.868158 94.935088 
L 171.196894 94.824831 
L 171.196894 94.824406 
L 171.306658 94.792052 
L 171.307912 94.792052 
L 171.567836 94.682221 
L 171.673561 94.64263 
L 171.67565 94.64263 
L 171.936271 94.532799 
L 172.045617 94.473626 
L 172.04701 94.473626 
L 172.365299 94.363795 
L 172.463919 94.313562 
L 172.476317 94.313562 
L 172.796973 94.202453 
L 172.906598 94.115184 
L 172.907991 94.115184 
L 173.19856 94.005778 
L 173.19856 94.004075 
L 173.303171 93.965336 
L 173.309439 93.965336 
L 173.614077 93.855505 
L 173.614077 93.854654 
L 173.704479 93.806549 
L 173.724537 93.806549 
L 174.016499 93.695441 
L 174.123339 93.655425 
L 174.127099 93.655425 
L 174.391899 93.546019 
L 174.391899 93.544742 
L 174.499713 93.502597 
L 174.502778 93.502597 
L 174.810898 93.393617 
L 174.921359 93.343384 
L 174.921916 93.343384 
L 175.240204 93.233978 
L 175.240204 93.232701 
L 175.350665 93.194814 
L 175.350804 93.194814 
L 175.599446 93.084131 
L 175.710185 93.047095 
L 175.992814 92.936412 
L 176.103554 92.899376 
L 176.103693 92.899376 
L 176.476864 92.788267 
L 176.585374 92.764853 
L 176.587882 92.764853 
L 176.863128 92.661833 
L 176.863128 92.654171 
L 176.972475 92.615432 
L 176.974146 92.615432 
L 177.193257 92.5056 
L 177.193257 92.505174 
L 177.303718 92.441319 
L 177.304275 92.441319 
L 177.531186 92.33021 
L 177.640115 92.281254 
L 177.642204 92.281254 
L 177.933191 92.170146 
L 178.039194 92.143752 
L 178.043652 92.143752 
L 178.365562 92.033069 
L 178.365562 92.032644 
L 178.462233 92.007102 
L 178.476441 92.007102 
L 178.711431 91.899824 
L 178.711431 91.897696 
L 178.820221 91.872579 
L 178.822449 91.872579 
L 179.165672 91.762748 
L 179.165672 91.762322 
L 179.276132 91.712941 
L 179.276411 91.712941 
L 179.716025 91.602258 
L 179.823283 91.569053 
L 179.826765 91.569053 
L 180.136417 91.459647 
L 180.136417 91.457944 
L 180.246599 91.40388 
L 180.246878 91.40388 
L 180.530622 91.294049 
L 180.530622 91.293623 
L 180.636764 91.24637 
L 180.641361 91.24637 
L 180.873844 91.135687 
L 180.977897 91.101631 
L 180.984583 91.101631 
L 181.308305 90.990522 
L 181.415422 90.973068 
L 181.419323 90.973068 
L 181.688301 90.862811 
L 181.797647 90.820667 
L 181.798483 90.820667 
L 182.098106 90.712964 
L 182.098106 90.710835 
L 182.204945 90.659751 
L 182.209124 90.659751 
L 182.514876 90.549068 
L 182.606672 90.500964 
L 182.625755 90.500964 
L 182.921199 90.389855 
L 183.029571 90.343879 
L 183.031521 90.343879 
L 183.40706 90.23277 
L 183.517938 90.192329 
L 183.809482 90.083349 
L 183.809482 90.081646 
L 183.9205 90.047164 
L 184.217059 89.937758 
L 184.217059 89.936055 
L 184.32543 89.890505 
L 184.327938 89.890505 
L 184.645112 89.783654 
L 184.645112 89.781525 
L 184.753065 89.756409 
L 184.755991 89.756409 
L 185.115928 89.646577 
L 185.223185 89.576336 
L 185.226946 89.576336 
L 185.561393 89.46693 
L 185.671575 89.428191 
L 185.672133 89.428191 
L 185.961169 89.317083 
L 186.068287 89.275364 
L 186.071073 89.275364 
L 186.332669 89.165107 
L 186.440204 89.111042 
L 186.443547 89.111042 
L 186.747489 89.001211 
L 186.841373 88.952681 
L 186.858507 88.952681 
L 187.211062 88.847532 
L 187.211062 88.846255 
L 187.315254 88.797725 
L 187.319851 88.797725 
L 187.652208 88.691299 
L 187.652208 88.690022 
L 187.762251 88.655966 
L 187.763226 88.655966 
L 188.015768 88.544857 
L 188.126229 88.469082 
L 188.126786 88.469082 
L 188.39855 88.360102 
L 188.39855 88.358399 
L 188.505807 88.292841 
L 188.508872 88.292841 
L 188.76211 88.182158 
L 188.865606 88.137459 
L 188.87271 88.137459 
L 189.128734 88.026776 
L 189.239334 87.987186 
L 189.239752 87.987186 
L 189.492711 87.885017 
L 189.492711 87.88076 
L 189.60359 87.827547 
L 189.603729 87.827547 
L 189.891373 87.716439 
L 190.001973 87.664077 
L 190.002251 87.664077 
L 190.292681 87.555523 
L 190.292681 87.554246 
L 190.38963 87.51423 
L 190.402167 87.51423 
L 190.719202 87.404398 
L 190.719202 87.403972 
L 190.827573 87.370342 
L 190.829384 87.370342 
L 191.2332 87.260085 
L 191.32792 87.216237 
L 191.343103 87.216237 
L 191.621136 87.10598 
L 191.621136 87.105554 
L 191.726164 87.065538 
L 191.731597 87.065538 
L 191.989988 86.95443 
L 192.09237 86.904197 
L 192.100867 86.904197 
L 192.387814 86.794791 
L 192.387814 86.793088 
L 192.497439 86.765418 
L 192.498832 86.765418 
L 192.823807 86.654735 
L 192.934825 86.610462 
L 193.235006 86.499353 
L 193.34282 86.462743 
L 193.344352 86.462743 
L 193.684789 86.35504 
L 193.684789 86.352911 
L 193.794831 86.275007 
L 194.10532 86.166453 
L 194.10532 86.165176 
L 194.216338 86.119626 
L 194.477515 86.01022 
L 194.586026 85.981272 
L 194.588394 85.981272 
L 194.870187 85.871015 
L 194.870187 85.870164 
L 194.980091 85.81014 
L 194.981066 85.81014 
L 195.297962 85.699457 
L 195.407865 85.662846 
L 195.408423 85.662846 
L 195.73493 85.554718 
L 195.73493 85.554292 
L 195.84358 85.51087 
L 195.845948 85.51087 
L 196.217168 85.399762 
L 196.327908 85.351231 
L 196.328186 85.351231 
L 196.602736 85.2414 
L 196.602736 85.240974 
L 196.712919 85.206918 
L 196.713615 85.206918 
L 196.987469 85.097512 
L 197.097372 85.037488 
L 197.098069 85.037488 
L 197.437948 84.928508 
L 197.547712 84.887215 
L 197.548687 84.887215 
L 197.833267 84.776106 
L 197.944145 84.75695 
L 197.944285 84.75695 
L 198.33431 84.646693 
L 198.441707 84.612211 
L 198.444632 84.612211 
L 198.733111 84.503231 
L 198.733111 84.502379 
L 198.839254 84.455126 
L 198.843572 84.455126 
L 199.206714 84.344018 
L 199.31007 84.312941 
L 199.316896 84.312941 
L 199.664158 84.204813 
L 199.664158 84.201833 
L 199.771276 84.172885 
L 199.774897 84.172885 
L 200.142496 84.066459 
L 200.142496 84.062628 
L 200.251146 84.023889 
L 200.253514 84.023889 
L 200.689368 83.913206 
L 200.798018 83.878298 
L 200.800107 83.878298 
L 201.294325 83.768041 
L 201.294325 83.767615 
L 201.402139 83.736965 
L 201.40395 83.736965 
L 201.821556 83.626708 
L 201.930624 83.588394 
L 201.93146 83.588394 
L 202.262981 83.478563 
L 202.262981 83.477286 
L 202.373164 83.437695 
L 202.37386 83.437695 
L 202.801356 83.326587 
L 202.908195 83.279759 
L 202.912095 83.279759 
L 203.19556 83.169077 
L 203.29836 83.13204 
L 203.3063 83.13204 
L 203.760401 83.020932 
L 203.863479 83.003904 
L 203.87114 83.003904 
L 204.241804 82.893221 
L 204.328584 82.870659 
L 204.351986 82.870659 
L 204.696044 82.761679 
L 204.696044 82.75955 
L 204.805669 82.71996 
L 204.806644 82.71996 
L 205.176054 82.61098 
L 205.176054 82.609277 
L 205.28345 82.574795 
L 205.287072 82.574795 
L 205.67069 82.464963 
L 205.67069 82.464538 
L 205.780176 82.43261 
L 205.781151 82.43261 
L 206.135099 82.321927 
L 206.135099 82.321501 
L 206.234834 82.298513 
L 206.23957 82.298513 
L 206.721808 82.187405 
L 206.831433 82.159309 
L 207.194714 82.048626 
L 207.297653 82.00265 
L 207.305732 82.00265 
L 207.654109 81.891541 
L 207.764709 81.846842 
L 207.765127 81.846842 
L 208.168803 81.740842 
L 208.168803 81.738288 
L 208.278707 81.675284 
L 208.279821 81.675284 
L 208.641848 81.565878 
L 208.74019 81.530545 
L 208.750359 81.530545 
L 209.101521 81.419436 
L 209.206828 81.384103 
L 209.211843 81.384103 
L 209.583481 81.274697 
L 209.69227 81.229147 
L 209.694499 81.229147 
L 210.068506 81.122295 
L 210.068506 81.118464 
L 210.179245 81.085259 
L 210.179524 81.085259 
L 210.686975 80.975428 
L 210.686975 80.974576 
L 210.791864 80.948183 
L 210.797714 80.948183 
L 211.197072 80.8375 
L 211.197072 80.837074 
L 211.283435 80.797058 
L 211.289564 80.797058 
L 211.725836 80.686375 
L 211.725836 80.68595 
L 211.836436 80.647636 
L 212.23454 80.538656 
L 212.23454 80.536528 
L 212.344583 80.512688 
L 212.345558 80.512688 
L 212.769432 80.402857 
L 212.879615 80.365821 
L 212.880311 80.365821 
L 213.305299 80.255989 
L 213.40796 80.21725 
L 213.4159 80.21725 
L 213.848271 80.107419 
L 213.848271 80.106993 
L 213.954831 80.079322 
L 213.958871 80.079322 
L 214.335942 79.969065 
L 214.441945 79.937138 
L 214.856208 79.827732 
L 214.961376 79.809852 
L 214.966808 79.809852 
L 215.369509 79.699595 
L 215.369509 79.699169 
L 215.479831 79.659579 
L 215.480527 79.659579 
L 215.904402 79.548896 
L 216.009291 79.518246 
L 216.01528 79.518246 
L 216.397366 79.410968 
L 216.507548 79.383723 
L 216.508245 79.383723 
L 216.892838 79.273466 
L 216.997169 79.24239 
L 217.003298 79.24239 
L 217.417143 79.131281 
L 217.526629 79.092968 
L 217.528022 79.092968 
L 217.994242 78.982285 
L 218.098991 78.946526 
L 218.10512 78.946526 
L 218.609507 78.83712 
L 218.717739 78.803064 
L 218.720525 78.803064 
L 219.035053 78.693658 
L 219.035053 78.693233 
L 219.144538 78.651514 
L 219.144678 78.651514 
L 219.567577 78.540831 
L 219.672187 78.518694 
L 219.67748 78.518694 
L 220.099683 78.407586 
L 220.209308 78.376084 
L 220.210283 78.376084 
L 220.609084 78.264975 
L 220.718848 78.220702 
L 220.719963 78.220702 
L 221.1788 78.111296 
L 221.1788 78.109594 
L 221.288564 78.08022 
L 221.289539 78.08022 
L 221.878617 77.969112 
L 221.985874 77.929947 
L 221.988799 77.929947 
L 222.42911 77.818838 
L 222.540128 77.788613 
L 222.96637 77.678356 
L 222.96637 77.67793 
L 223.07697 77.631103 
L 223.529261 77.522123 
L 223.529261 77.520846 
L 223.631782 77.473167 
L 223.640279 77.473167 
L 223.964418 77.362484 
L 224.074043 77.330557 
L 224.075436 77.330557 
L 224.562689 77.2203 
L 224.661588 77.197312 
L 224.673428 77.197312 
L 225.172939 77.086203 
L 225.280475 77.054701 
L 225.283818 77.054701 
L 225.677883 76.952532 
L 225.677883 76.944444 
L 225.788483 76.910388 
L 225.788762 76.910388 
L 226.213054 76.799279 
L 226.304988 76.76054 
L 226.323793 76.76054 
L 226.650161 76.651134 
L 226.650161 76.650709 
L 226.756443 76.610692 
L 226.760622 76.610692 
L 227.185471 76.499584 
L 227.29426 76.47319 
L 227.296071 76.47319 
L 227.709359 76.362507 
L 227.817034 76.328877 
L 227.820237 76.328877 
L 228.187697 76.218194 
L 228.294954 76.175198 
L 228.29579 76.175198 
L 228.800594 76.065367 
L 228.906737 76.040676 
L 228.911334 76.040676 
L 229.214718 75.929567 
L 229.311249 75.8887 
L 229.325318 75.8887 
L 229.715343 75.779294 
L 229.715343 75.777591 
L 229.825944 75.744386 
L 229.826222 75.744386 
L 230.272244 75.638386 
L 230.272244 75.636683 
L 230.382566 75.618378 
L 230.382984 75.618378 
L 230.793068 75.508121 
L 231.048395 75.45278 
L 231.527012 75.341671 
L 231.636776 75.311446 
L 231.63803 75.311446 
L 232.214293 75.200338 
L 232.323221 75.179478 
L 232.325032 75.179478 
L 232.786376 75.070072 
L 232.786376 75.069647 
L 232.895862 75.046659 
L 232.897394 75.046659 
L 233.330044 74.935976 
L 233.330044 74.93555 
L 233.422954 74.915968 
L 233.440783 74.915968 
L 233.913271 74.804859 
L 234.015792 74.7691 
L 234.59707 74.657992 
L 234.703491 74.633301 
L 234.708088 74.633301 
L 235.121515 74.524747 
L 235.121515 74.523469 
L 235.231558 74.477494 
L 235.232533 74.477494 
L 235.913266 74.367662 
L 235.913266 74.366385 
L 236.016205 74.326795 
L 236.024145 74.326795 
L 236.551097 74.216963 
L 236.551097 74.216537 
L 236.653618 74.203341 
L 236.657658 74.203341 
L 237.122206 74.092232 
L 237.232388 74.081164 
L 237.233085 74.081164 
L 237.740536 73.970907 
L 237.850718 73.941959 
L 237.851554 73.941959 
L 238.295208 73.83085 
L 238.402326 73.809991 
L 238.405529 73.809991 
L 238.911866 73.699734 
L 239.011044 73.674617 
L 239.022745 73.674617 
L 239.50178 73.563509 
L 239.611822 73.546481 
L 239.612798 73.546481 
L 240.116627 73.436223 
L 240.21678 73.396633 
L 240.227366 73.396633 
L 240.789699 73.286376 
L 240.90016 73.272328 
L 240.9003 73.272328 
L 241.475448 73.161219 
L 241.568497 73.142488 
L 241.585073 73.142488 
L 242.12094 73.03138 
L 242.231262 73.009669 
L 242.23154 73.009669 
L 242.859481 72.90154 
L 242.859481 72.900689 
L 242.970221 72.872167 
L 242.970499 72.872167 
L 243.475721 72.762335 
L 243.579357 72.741901 
L 243.586461 72.741901 
L 243.947792 72.632921 
L 243.947792 72.630793 
L 244.042373 72.616745 
L 244.05881 72.616745 
L 244.66711 72.505636 
L 244.774646 72.487331 
L 244.77771 72.487331 
L 245.409969 72.378351 
L 245.409969 72.376648 
L 245.517505 72.366857 
L 245.520987 72.366857 
L 246.2059 72.255748 
L 246.315246 72.231909 
L 246.316779 72.231909 
L 247.016178 72.122929 
L 247.016178 72.121226 
L 247.126081 72.100367 
L 247.127196 72.100367 
L 247.861976 71.990535 
L 247.962965 71.97521 
L 247.972437 71.97521 
L 248.64941 71.865378 
L 248.64941 71.864953 
L 248.74622 71.848776 
L 248.750398 71.848776 
L 249.21815 71.737667 
L 249.326243 71.724045 
L 249.329168 71.724045 
L 249.888298 71.613788 
L 249.888298 71.613362 
L 249.996808 71.589948 
L 249.999176 71.589948 
L 250.69579 71.47884 
L 250.800261 71.451595 
L 250.806529 71.451595 
L 251.370395 71.342189 
L 251.370395 71.341763 
L 251.480855 71.319201 
L 251.988724 71.208518 
L 252.108379 71.200004 
L 253.086507 71.089321 
L 253.086507 71.088896 
L 253.18067 71.065482 
L 253.192649 71.065482 
L 253.96281 70.956928 
L 253.96281 70.956502 
L 254.073828 70.943731 
L 254.637833 70.834325 
L 254.637833 70.833474 
L 254.745926 70.815594 
L 254.748294 70.815594 
L 255.567626 70.705763 
L 255.675162 70.69512 
L 255.678644 70.69512 
L 256.429025 70.58912 
L 256.429025 70.587843 
L 256.538929 70.557192 
L 256.539625 70.557192 
L 257.300732 70.455024 
L 257.300732 70.451192 
L 257.40785 70.432461 
L 257.41175 70.432461 
L 258.029523 70.321778 
L 258.137058 70.302622 
L 258.140541 70.302622 
L 258.942043 70.192365 
L 259.033699 70.171505 
L 259.050972 70.171505 
L 259.88298 70.061674 
L 259.88298 70.060397 
L 259.992187 70.031023 
L 259.993998 70.031023 
L 261.01071 69.921617 
L 261.01071 69.921192 
L 261.120614 69.909272 
L 261.120753 69.909272 
L 262.262971 69.799441 
L 262.373153 69.785392 
L 262.373989 69.785392 
L 263.163512 69.675987 
L 263.163512 69.67471 
L 263.265754 69.652999 
L 263.27453 69.652999 
L 264.324813 69.54189 
L 264.4063 69.530822 
L 264.435831 69.530822 
L 265.668868 69.42099 
L 265.668868 69.420565 
L 265.755649 69.406942 
L 265.779608 69.406942 
L 267.076025 69.295834 
L 267.172556 69.283488 
L 267.186903 69.283488 
L 268.194005 69.175785 
L 268.289283 69.165568 
L 268.304744 69.165568 
L 269.676102 69.055311 
L 269.676102 69.054886 
L 269.722626 69.047223 
L 269.776394 69.047223 
L 271.172964 68.936114 
L 271.282171 68.921641 
L 271.283982 68.921641 
L 272.456008 68.812235 
L 272.814135 68.794355 
L 273.750057 68.683247 
L 273.852021 68.681544 
L 273.860936 68.681544 
L 275.365041 68.570435 
L 275.471463 68.563198 
L 275.476059 68.563198 
L 277.248865 68.453367 
L 277.248865 68.45209 
L 277.354868 68.446556 
L 277.359604 68.446556 
L 279.2132 68.33715 
L 279.2132 68.336299 
L 279.311682 68.326507 
L 279.324079 68.326507 
L 281.16082 68.215399 
L 281.217235 68.211993 
L 281.271838 68.211993 
L 284.511836 68.10131 
L 284.535377 68.099182 
L 284.622575 68.099182 
L 288.744587 67.988499 
L 288.769243 67.985093 
L 288.855605 67.985093 
L 293.015784 67.874411 
L 293.235034 67.870579 
L 298.723668 67.759471 
L 298.752224 67.758619 
L 298.832457 67.758619 
L 307.65957 67.649214 
L 307.65957 67.648362 
L 307.756798 67.646659 
L 307.77017 67.646659 
L 315.987172 67.535551 
L 316.094986 67.532145 
L 316.097493 67.532145 
L 319.949552 67.426571 
L 319.987301 67.409543 
L 320.057366 67.409543 
L 324.172692 67.299285 
L 324.252508 67.290771 
L 324.28371 67.290771 
L 330.641822 67.179663 
L 330.641822 67.177109 
L 330.748104 67.177109 
L 336.413085 67.068129 
L 336.413085 67.066426 
L 336.516303 67.065149 
L 336.52271 67.065149 
L 373.581818 66.96 
L 373.581818 66.96 
" clip-path="url(#p711a5d0dc5)" style="fill: none; stroke: #1f77b4; stroke-opacity: 0.75; stroke-width: 2; stroke-linecap: square"/>
   </g>
   <g id="line2d_26">
    <path d="M 69.218182 369.36 
L 69.218182 367.230423 
L 69.218182 273.529014 
L 70.828571 273.529014 
L 70.828571 233.067042 
L 70.828571 228.807887 
L 70.828571 158.531831 
L 72.438961 158.531831 
L 72.438961 154.272676 
L 74.049351 154.272676 
L 74.049351 137.236056 
L 74.049351 132.976901 
L 74.049351 130.847324 
L 75.65974 130.847324 
L 75.65974 128.717746 
L 77.27013 128.717746 
L 77.27013 126.588169 
L 78.880519 126.588169 
L 78.880519 120.199437 
L 80.490909 120.199437 
L 80.490909 111.681127 
L 82.101299 111.681127 
L 82.101299 109.551549 
L 83.711688 109.551549 
L 83.711688 94.644507 
L 86.932468 94.644507 
L 86.932468 86.126197 
L 94.984416 86.126197 
L 94.984416 79.737465 
L 96.594805 79.737465 
L 96.594805 77.607887 
L 107.867532 77.607887 
L 107.867532 75.47831 
L 132.023377 75.47831 
L 132.023377 73.348732 
L 141.685714 73.348732 
L 141.685714 71.219155 
L 146.516883 71.219155 
L 146.516883 69.089577 
L 210.932468 69.089577 
L 210.932468 66.96 
L 373.581818 66.96 
" clip-path="url(#p711a5d0dc5)" style="fill: none; stroke: #ff7f0e; stroke-opacity: 0.75; stroke-width: 2; stroke-linecap: square"/>
   </g>
   <g id="line2d_27">
    <path clip-path="url(#p711a5d0dc5)" style="fill: none; stroke: #2ca02c; stroke-opacity: 0.75; stroke-width: 2; stroke-linecap: square"/>
   </g>
   <g id="line2d_28">
    <path d="M 0 0 
" clip-path="url(#p711a5d0dc5)" style="fill: none; stroke: #d62728; stroke-opacity: 0.75; stroke-width: 2; stroke-linecap: square"/>
   </g>
   <g id="patch_3">
    <path d="M 54 384.48 
L 54 51.84 
" style="fill: none; stroke: #000000; stroke-width: 0.8; stroke-linejoin: miter; stroke-linecap: square"/>
   </g>
   <g id="patch_4">
    <path d="M 388.8 384.48 
L 388.8 51.84 
" style="fill: none; stroke: #000000; stroke-width: 0.8; stroke-linejoin: miter; stroke-linecap: square"/>
   </g>
   <g id="patch_5">
    <path d="M 54 384.48 
L 388.8 384.48 
" style="fill: none; stroke: #000000; stroke-width: 0.8; stroke-linejoin: miter; stroke-linecap: square"/>
   </g>
   <g id="patch_6">
    <path d="M 54 51.84 
L 388.8 51.84 
" style="fill: none; stroke: #000000; stroke-width: 0.8; stroke-linejoin: miter; stroke-linecap: square"/>
   </g>
   <g id="legend_1">
    <g id="patch_7">
     <path d="M 226.16875 379.48 
L 381.8 379.48 
Q 383.8 379.48 383.8 377.48 
L 383.8 319.21125 
Q 383.8 317.21125 381.8 317.21125 
L 226.16875 317.21125 
Q 224.16875 317.21125 224.16875 319.21125 
L 224.16875 377.48 
Q 224.16875 379.48 226.16875 379.48 
z
" style="fill: #ffffff; opacity: 0.8; stroke: #cccccc; stroke-linejoin: miter"/>
    </g>
    <g id="line2d_29">
     <path d="M 228.16875 325.309687 
L 238.16875 325.309687 
L 248.16875 325.309687 
" style="fill: none; stroke: #1f77b4; stroke-opacity: 0.75; stroke-width: 2; stroke-linecap: square"/>
    </g>
    <g id="text_15">
     <!-- AI_LD (AUC = 0.91) -->
     <g transform="translate(256.16875 328.809687) scale(0.1 -0.1)">
      <defs>
       <path id="DejaVuSans-41" d="M 2188 4044 
L 1331 1722 
L 3047 1722 
L 2188 4044 
z
M 1831 4666 
L 2547 4666 
L 4325 0 
L 3669 0 
L 3244 1197 
L 1141 1197 
L 716 0 
L 50 0 
L 1831 4666 
z
" transform="scale(0.015625)"/>
       <path id="DejaVuSans-49" d="M 628 4666 
L 1259 4666 
L 1259 0 
L 628 0 
L 628 4666 
z
" transform="scale(0.015625)"/>
       <path id="DejaVuSans-5f" d="M 3263 -1063 
L 3263 -1509 
L -63 -1509 
L -63 -1063 
L 3263 -1063 
z
" transform="scale(0.015625)"/>
       <path id="DejaVuSans-4c" d="M 628 4666 
L 1259 4666 
L 1259 531 
L 3531 531 
L 3531 0 
L 628 0 
L 628 4666 
z
" transform="scale(0.015625)"/>
       <path id="DejaVuSans-44" d="M 1259 4147 
L 1259 519 
L 2022 519 
Q 2988 519 3436 956 
Q 3884 1394 3884 2338 
Q 3884 3275 3436 3711 
Q 2988 4147 2022 4147 
L 1259 4147 
z
M 628 4666 
L 1925 4666 
Q 3281 4666 3915 4102 
Q 4550 3538 4550 2338 
Q 4550 1131 3912 565 
Q 3275 0 1925 0 
L 628 0 
L 628 4666 
z
" transform="scale(0.015625)"/>
       <path id="DejaVuSans-55" d="M 556 4666 
L 1191 4666 
L 1191 1831 
Q 1191 1081 1462 751 
Q 1734 422 2344 422 
Q 2950 422 3222 751 
Q 3494 1081 3494 1831 
L 3494 4666 
L 4128 4666 
L 4128 1753 
Q 4128 841 3676 375 
Q 3225 -91 2344 -91 
Q 1459 -91 1007 375 
Q 556 841 556 1753 
L 556 4666 
z
" transform="scale(0.015625)"/>
       <path id="DejaVuSans-43" d="M 4122 4306 
L 4122 3641 
Q 3803 3938 3442 4084 
Q 3081 4231 2675 4231 
Q 1875 4231 1450 3742 
Q 1025 3253 1025 2328 
Q 1025 1406 1450 917 
Q 1875 428 2675 428 
Q 3081 428 3442 575 
Q 3803 722 4122 1019 
L 4122 359 
Q 3791 134 3420 21 
Q 3050 -91 2638 -91 
Q 1578 -91 968 557 
Q 359 1206 359 2328 
Q 359 3453 968 4101 
Q 1578 4750 2638 4750 
Q 3056 4750 3426 4639 
Q 3797 4528 4122 4306 
z
" transform="scale(0.015625)"/>
       <path id="DejaVuSans-3d" d="M 678 2906 
L 4684 2906 
L 4684 2381 
L 678 2381 
L 678 2906 
z
M 678 1631 
L 4684 1631 
L 4684 1100 
L 678 1100 
L 678 1631 
z
" transform="scale(0.015625)"/>
       <path id="DejaVuSans-39" d="M 703 97 
L 703 672 
Q 941 559 1184 500 
Q 1428 441 1663 441 
Q 2288 441 2617 861 
Q 2947 1281 2994 2138 
Q 2813 1869 2534 1725 
Q 2256 1581 1919 1581 
Q 1219 1581 811 2004 
Q 403 2428 403 3163 
Q 403 3881 828 4315 
Q 1253 4750 1959 4750 
Q 2769 4750 3195 4129 
Q 3622 3509 3622 2328 
Q 3622 1225 3098 567 
Q 2575 -91 1691 -91 
Q 1453 -91 1209 -44 
Q 966 3 703 97 
z
M 1959 2075 
Q 2384 2075 2632 2365 
Q 2881 2656 2881 3163 
Q 2881 3666 2632 3958 
Q 2384 4250 1959 4250 
Q 1534 4250 1286 3958 
Q 1038 3666 1038 3163 
Q 1038 2656 1286 2365 
Q 1534 2075 1959 2075 
z
" transform="scale(0.015625)"/>
      </defs>
      <use xlink:href="#DejaVuSans-41"/>
      <use xlink:href="#DejaVuSans-49" x="68.408203"/>
      <use xlink:href="#DejaVuSans-5f" x="97.900391"/>
      <use xlink:href="#DejaVuSans-4c" x="147.900391"/>
      <use xlink:href="#DejaVuSans-44" x="203.613281"/>
      <use xlink:href="#DejaVuSans-20" x="280.615234"/>
      <use xlink:href="#DejaVuSans-28" x="312.402344"/>
      <use xlink:href="#DejaVuSans-41" x="351.416016"/>
      <use xlink:href="#DejaVuSans-55" x="419.824219"/>
      <use xlink:href="#DejaVuSans-43" x="493.017578"/>
      <use xlink:href="#DejaVuSans-20" x="562.841797"/>
      <use xlink:href="#DejaVuSans-3d" x="594.628906"/>
      <use xlink:href="#DejaVuSans-20" x="678.417969"/>
      <use xlink:href="#DejaVuSans-30" x="710.205078"/>
      <use xlink:href="#DejaVuSans-2e" x="773.828125"/>
      <use xlink:href="#DejaVuSans-39" x="805.615234"/>
      <use xlink:href="#DejaVuSans-31" x="869.238281"/>
      <use xlink:href="#DejaVuSans-29" x="932.861328"/>
     </g>
    </g>
    <g id="line2d_30">
     <path d="M 228.16875 340.265938 
L 238.16875 340.265938 
L 248.16875 340.265938 
" style="fill: none; stroke: #ff7f0e; stroke-opacity: 0.75; stroke-width: 2; stroke-linecap: square"/>
    </g>
    <g id="text_16">
     <!-- R_N (AUC = 0.98) -->
     <g transform="translate(256.16875 343.765938) scale(0.1 -0.1)">
      <defs>
       <path id="DejaVuSans-4e" d="M 628 4666 
L 1478 4666 
L 3547 763 
L 3547 4666 
L 4159 4666 
L 4159 0 
L 3309 0 
L 1241 3903 
L 1241 0 
L 628 0 
L 628 4666 
z
" transform="scale(0.015625)"/>
      </defs>
      <use xlink:href="#DejaVuSans-52"/>
      <use xlink:href="#DejaVuSans-5f" x="69.482422"/>
      <use xlink:href="#DejaVuSans-4e" x="119.482422"/>
      <use xlink:href="#DejaVuSans-20" x="194.287109"/>
      <use xlink:href="#DejaVuSans-28" x="226.074219"/>
      <use xlink:href="#DejaVuSans-41" x="265.087891"/>
      <use xlink:href="#DejaVuSans-55" x="333.496094"/>
      <use xlink:href="#DejaVuSans-43" x="406.689453"/>
      <use xlink:href="#DejaVuSans-20" x="476.513672"/>
      <use xlink:href="#DejaVuSans-3d" x="508.300781"/>
      <use xlink:href="#DejaVuSans-20" x="592.089844"/>
      <use xlink:href="#DejaVuSans-30" x="623.876953"/>
      <use xlink:href="#DejaVuSans-2e" x="687.5"/>
      <use xlink:href="#DejaVuSans-39" x="719.287109"/>
      <use xlink:href="#DejaVuSans-38" x="782.910156"/>
      <use xlink:href="#DejaVuSans-29" x="846.533203"/>
     </g>
    </g>
    <g id="line2d_31">
     <path d="M 228.16875 355.222188 
L 238.16875 355.222188 
L 248.16875 355.222188 
" style="fill: none; stroke: #2ca02c; stroke-opacity: 0.75; stroke-width: 2; stroke-linecap: square"/>
    </g>
    <g id="text_17">
     <!-- POLYPHEN2 (AUC = nan) -->
     <g transform="translate(256.16875 358.722188) scale(0.1 -0.1)">
      <defs>
       <path id="DejaVuSans-4f" d="M 2522 4238 
Q 1834 4238 1429 3725 
Q 1025 3213 1025 2328 
Q 1025 1447 1429 934 
Q 1834 422 2522 422 
Q 3209 422 3611 934 
Q 4013 1447 4013 2328 
Q 4013 3213 3611 3725 
Q 3209 4238 2522 4238 
z
M 2522 4750 
Q 3503 4750 4090 4092 
Q 4678 3434 4678 2328 
Q 4678 1225 4090 567 
Q 3503 -91 2522 -91 
Q 1538 -91 948 565 
Q 359 1222 359 2328 
Q 359 3434 948 4092 
Q 1538 4750 2522 4750 
z
" transform="scale(0.015625)"/>
       <path id="DejaVuSans-59" d="M -13 4666 
L 666 4666 
L 1959 2747 
L 3244 4666 
L 3922 4666 
L 2272 2222 
L 2272 0 
L 1638 0 
L 1638 2222 
L -13 4666 
z
" transform="scale(0.015625)"/>
       <path id="DejaVuSans-48" d="M 628 4666 
L 1259 4666 
L 1259 2753 
L 3553 2753 
L 3553 4666 
L 4184 4666 
L 4184 0 
L 3553 0 
L 3553 2222 
L 1259 2222 
L 1259 0 
L 628 0 
L 628 4666 
z
" transform="scale(0.015625)"/>
       <path id="DejaVuSans-45" d="M 628 4666 
L 3578 4666 
L 3578 4134 
L 1259 4134 
L 1259 2753 
L 3481 2753 
L 3481 2222 
L 1259 2222 
L 1259 531 
L 3634 531 
L 3634 0 
L 628 0 
L 628 4666 
z
" transform="scale(0.015625)"/>
       <path id="DejaVuSans-6e" d="M 3513 2113 
L 3513 0 
L 2938 0 
L 2938 2094 
Q 2938 2591 2744 2837 
Q 2550 3084 2163 3084 
Q 1697 3084 1428 2787 
Q 1159 2491 1159 1978 
L 1159 0 
L 581 0 
L 581 3500 
L 1159 3500 
L 1159 2956 
Q 1366 3272 1645 3428 
Q 1925 3584 2291 3584 
Q 2894 3584 3203 3211 
Q 3513 2838 3513 2113 
z
" transform="scale(0.015625)"/>
      </defs>
      <use xlink:href="#DejaVuSans-50"/>
      <use xlink:href="#DejaVuSans-4f" x="60.302734"/>
      <use xlink:href="#DejaVuSans-4c" x="139.013672"/>
      <use xlink:href="#DejaVuSans-59" x="181.476562"/>
      <use xlink:href="#DejaVuSans-50" x="242.560547"/>
      <use xlink:href="#DejaVuSans-48" x="302.863281"/>
      <use xlink:href="#DejaVuSans-45" x="378.058594"/>
      <use xlink:href="#DejaVuSans-4e" x="441.242188"/>
      <use xlink:href="#DejaVuSans-32" x="516.046875"/>
      <use xlink:href="#DejaVuSans-20" x="579.669922"/>
      <use xlink:href="#DejaVuSans-28" x="611.457031"/>
      <use xlink:href="#DejaVuSans-41" x="650.470703"/>
      <use xlink:href="#DejaVuSans-55" x="718.878906"/>
      <use xlink:href="#DejaVuSans-43" x="792.072266"/>
      <use xlink:href="#DejaVuSans-20" x="861.896484"/>
      <use xlink:href="#DejaVuSans-3d" x="893.683594"/>
      <use xlink:href="#DejaVuSans-20" x="977.472656"/>
      <use xlink:href="#DejaVuSans-6e" x="1009.259766"/>
      <use xlink:href="#DejaVuSans-61" x="1072.638672"/>
      <use xlink:href="#DejaVuSans-6e" x="1133.917969"/>
      <use xlink:href="#DejaVuSans-29" x="1197.296875"/>
     </g>
    </g>
    <g id="line2d_32">
     <path d="M 228.16875 369.900312 
L 238.16875 369.900312 
L 248.16875 369.900312 
" style="fill: none; stroke: #d62728; stroke-opacity: 0.75; stroke-width: 2; stroke-linecap: square"/>
    </g>
    <g id="text_18">
     <!-- PMUT (AUC = nan) -->
     <g transform="translate(256.16875 373.400312) scale(0.1 -0.1)">
      <defs>
       <path id="DejaVuSans-4d" d="M 628 4666 
L 1569 4666 
L 2759 1491 
L 3956 4666 
L 4897 4666 
L 4897 0 
L 4281 0 
L 4281 4097 
L 3078 897 
L 2444 897 
L 1241 4097 
L 1241 0 
L 628 0 
L 628 4666 
z
" transform="scale(0.015625)"/>
      </defs>
      <use xlink:href="#DejaVuSans-50"/>
      <use xlink:href="#DejaVuSans-4d" x="60.302734"/>
      <use xlink:href="#DejaVuSans-55" x="146.582031"/>
      <use xlink:href="#DejaVuSans-54" x="219.775391"/>
      <use xlink:href="#DejaVuSans-20" x="280.859375"/>
      <use xlink:href="#DejaVuSans-28" x="312.646484"/>
      <use xlink:href="#DejaVuSans-41" x="351.660156"/>
      <use xlink:href="#DejaVuSans-55" x="420.068359"/>
      <use xlink:href="#DejaVuSans-43" x="493.261719"/>
      <use xlink:href="#DejaVuSans-20" x="563.085938"/>
      <use xlink:href="#DejaVuSans-3d" x="594.873047"/>
      <use xlink:href="#DejaVuSans-20" x="678.662109"/>
      <use xlink:href="#DejaVuSans-6e" x="710.449219"/>
      <use xlink:href="#DejaVuSans-61" x="773.828125"/>
      <use xlink:href="#DejaVuSans-6e" x="835.107422"/>
      <use xlink:href="#DejaVuSans-29" x="898.486328"/>
     </g>
    </g>
   </g>
  </g>
 </g>
 <defs>
  <clipPath id="p711a5d0dc5">
   <rect x="54" y="51.84" width="334.8" height="332.64"/>
  </clipPath>
 </defs>
</svg>
