<?xml version="1.0" encoding="utf-8" standalone="no"?>
<!DOCTYPE svg PUBLIC "-//W3C//DTD SVG 1.1//EN"
  "http://www.w3.org/Graphics/SVG/1.1/DTD/svg11.dtd">
<svg xmlns:xlink="http://www.w3.org/1999/xlink" width="432pt" height="432pt" viewBox="0 0 432 432" xmlns="http://www.w3.org/2000/svg" version="1.1">
 <metadata>
  <rdf:RDF xmlns:dc="http://purl.org/dc/elements/1.1/" xmlns:cc="http://creativecommons.org/ns#" xmlns:rdf="http://www.w3.org/1999/02/22-rdf-syntax-ns#">
   <cc:Work>
    <dc:type rdf:resource="http://purl.org/dc/dcmitype/StillImage"/>
    <dc:date>2023-07-28T19:17:48.617478</dc:date>
    <dc:format>image/svg+xml</dc:format>
    <dc:creator>
     <cc:Agent>
      <dc:title>Matplotlib v3.7.1, https://matplotlib.org/</dc:title>
     </cc:Agent>
    </dc:creator>
   </cc:Work>
  </rdf:RDF>
 </metadata>
 <defs>
  <style type="text/css">*{stroke-linejoin: round; stroke-linecap: butt}</style>
 </defs>
 <g id="figure_1">
  <g id="patch_1">
   <path d="M 0 432 
L 432 432 
L 432 0 
L 0 0 
z
" style="fill: #ffffff"/>
  </g>
  <g id="axes_1">
   <g id="patch_2">
    <path d="M 54 384.48 
L 388.8 384.48 
L 388.8 51.84 
L 54 51.84 
z
" style="fill: #ffffff"/>
   </g>
   <g id="matplotlib.axis_1">
    <g id="xtick_1">
     <g id="line2d_1">
      <path d="M 69.218182 384.48 
L 69.218182 51.84 
" clip-path="url(#p9b40e32cd2)" style="fill: none; stroke: #b0b0b0; stroke-width: 0.8; stroke-linecap: square"/>
     </g>
     <g id="line2d_2">
      <defs>
       <path id="md76ec508ba" d="M 0 0 
L 0 3.5 
" style="stroke: #000000; stroke-width: 0.8"/>
      </defs>
      <g>
       <use xlink:href="#md76ec508ba" x="69.218182" y="384.48" style="stroke: #000000; stroke-width: 0.8"/>
      </g>
     </g>
     <g id="text_1">
      <!-- 0.0 -->
      <g transform="translate(61.266619 399.078438) scale(0.1 -0.1)">
       <defs>
        <path id="DejaVuSans-30" d="M 2034 4250 
Q 1547 4250 1301 3770 
Q 1056 3291 1056 2328 
Q 1056 1369 1301 889 
Q 1547 409 2034 409 
Q 2525 409 2770 889 
Q 3016 1369 3016 2328 
Q 3016 3291 2770 3770 
Q 2525 4250 2034 4250 
z
M 2034 4750 
Q 2819 4750 3233 4129 
Q 3647 3509 3647 2328 
Q 3647 1150 3233 529 
Q 2819 -91 2034 -91 
Q 1250 -91 836 529 
Q 422 1150 422 2328 
Q 422 3509 836 4129 
Q 1250 4750 2034 4750 
z
" transform="scale(0.015625)"/>
        <path id="DejaVuSans-2e" d="M 684 794 
L 1344 794 
L 1344 0 
L 684 0 
L 684 794 
z
" transform="scale(0.015625)"/>
       </defs>
       <use xlink:href="#DejaVuSans-30"/>
       <use xlink:href="#DejaVuSans-2e" x="63.623047"/>
       <use xlink:href="#DejaVuSans-30" x="95.410156"/>
      </g>
     </g>
    </g>
    <g id="xtick_2">
     <g id="line2d_3">
      <path d="M 130.090909 384.48 
L 130.090909 51.84 
" clip-path="url(#p9b40e32cd2)" style="fill: none; stroke: #b0b0b0; stroke-width: 0.8; stroke-linecap: square"/>
     </g>
     <g id="line2d_4">
      <g>
       <use xlink:href="#md76ec508ba" x="130.090909" y="384.48" style="stroke: #000000; stroke-width: 0.8"/>
      </g>
     </g>
     <g id="text_2">
      <!-- 0.2 -->
      <g transform="translate(122.139347 399.078438) scale(0.1 -0.1)">
       <defs>
        <path id="DejaVuSans-32" d="M 1228 531 
L 3431 531 
L 3431 0 
L 469 0 
L 469 531 
Q 828 903 1448 1529 
Q 2069 2156 2228 2338 
Q 2531 2678 2651 2914 
Q 2772 3150 2772 3378 
Q 2772 3750 2511 3984 
Q 2250 4219 1831 4219 
Q 1534 4219 1204 4116 
Q 875 4013 500 3803 
L 500 4441 
Q 881 4594 1212 4672 
Q 1544 4750 1819 4750 
Q 2544 4750 2975 4387 
Q 3406 4025 3406 3419 
Q 3406 3131 3298 2873 
Q 3191 2616 2906 2266 
Q 2828 2175 2409 1742 
Q 1991 1309 1228 531 
z
" transform="scale(0.015625)"/>
       </defs>
       <use xlink:href="#DejaVuSans-30"/>
       <use xlink:href="#DejaVuSans-2e" x="63.623047"/>
       <use xlink:href="#DejaVuSans-32" x="95.410156"/>
      </g>
     </g>
    </g>
    <g id="xtick_3">
     <g id="line2d_5">
      <path d="M 190.963636 384.48 
L 190.963636 51.84 
" clip-path="url(#p9b40e32cd2)" style="fill: none; stroke: #b0b0b0; stroke-width: 0.8; stroke-linecap: square"/>
     </g>
     <g id="line2d_6">
      <g>
       <use xlink:href="#md76ec508ba" x="190.963636" y="384.48" style="stroke: #000000; stroke-width: 0.8"/>
      </g>
     </g>
     <g id="text_3">
      <!-- 0.4 -->
      <g transform="translate(183.012074 399.078438) scale(0.1 -0.1)">
       <defs>
        <path id="DejaVuSans-34" d="M 2419 4116 
L 825 1625 
L 2419 1625 
L 2419 4116 
z
M 2253 4666 
L 3047 4666 
L 3047 1625 
L 3713 1625 
L 3713 1100 
L 3047 1100 
L 3047 0 
L 2419 0 
L 2419 1100 
L 313 1100 
L 313 1709 
L 2253 4666 
z
" transform="scale(0.015625)"/>
       </defs>
       <use xlink:href="#DejaVuSans-30"/>
       <use xlink:href="#DejaVuSans-2e" x="63.623047"/>
       <use xlink:href="#DejaVuSans-34" x="95.410156"/>
      </g>
     </g>
    </g>
    <g id="xtick_4">
     <g id="line2d_7">
      <path d="M 251.836364 384.48 
L 251.836364 51.84 
" clip-path="url(#p9b40e32cd2)" style="fill: none; stroke: #b0b0b0; stroke-width: 0.8; stroke-linecap: square"/>
     </g>
     <g id="line2d_8">
      <g>
       <use xlink:href="#md76ec508ba" x="251.836364" y="384.48" style="stroke: #000000; stroke-width: 0.8"/>
      </g>
     </g>
     <g id="text_4">
      <!-- 0.6 -->
      <g transform="translate(243.884801 399.078438) scale(0.1 -0.1)">
       <defs>
        <path id="DejaVuSans-36" d="M 2113 2584 
Q 1688 2584 1439 2293 
Q 1191 2003 1191 1497 
Q 1191 994 1439 701 
Q 1688 409 2113 409 
Q 2538 409 2786 701 
Q 3034 994 3034 1497 
Q 3034 2003 2786 2293 
Q 2538 2584 2113 2584 
z
M 3366 4563 
L 3366 3988 
Q 3128 4100 2886 4159 
Q 2644 4219 2406 4219 
Q 1781 4219 1451 3797 
Q 1122 3375 1075 2522 
Q 1259 2794 1537 2939 
Q 1816 3084 2150 3084 
Q 2853 3084 3261 2657 
Q 3669 2231 3669 1497 
Q 3669 778 3244 343 
Q 2819 -91 2113 -91 
Q 1303 -91 875 529 
Q 447 1150 447 2328 
Q 447 3434 972 4092 
Q 1497 4750 2381 4750 
Q 2619 4750 2861 4703 
Q 3103 4656 3366 4563 
z
" transform="scale(0.015625)"/>
       </defs>
       <use xlink:href="#DejaVuSans-30"/>
       <use xlink:href="#DejaVuSans-2e" x="63.623047"/>
       <use xlink:href="#DejaVuSans-36" x="95.410156"/>
      </g>
     </g>
    </g>
    <g id="xtick_5">
     <g id="line2d_9">
      <path d="M 312.709091 384.48 
L 312.709091 51.84 
" clip-path="url(#p9b40e32cd2)" style="fill: none; stroke: #b0b0b0; stroke-width: 0.8; stroke-linecap: square"/>
     </g>
     <g id="line2d_10">
      <g>
       <use xlink:href="#md76ec508ba" x="312.709091" y="384.48" style="stroke: #000000; stroke-width: 0.8"/>
      </g>
     </g>
     <g id="text_5">
      <!-- 0.8 -->
      <g transform="translate(304.757528 399.078438) scale(0.1 -0.1)">
       <defs>
        <path id="DejaVuSans-38" d="M 2034 2216 
Q 1584 2216 1326 1975 
Q 1069 1734 1069 1313 
Q 1069 891 1326 650 
Q 1584 409 2034 409 
Q 2484 409 2743 651 
Q 3003 894 3003 1313 
Q 3003 1734 2745 1975 
Q 2488 2216 2034 2216 
z
M 1403 2484 
Q 997 2584 770 2862 
Q 544 3141 544 3541 
Q 544 4100 942 4425 
Q 1341 4750 2034 4750 
Q 2731 4750 3128 4425 
Q 3525 4100 3525 3541 
Q 3525 3141 3298 2862 
Q 3072 2584 2669 2484 
Q 3125 2378 3379 2068 
Q 3634 1759 3634 1313 
Q 3634 634 3220 271 
Q 2806 -91 2034 -91 
Q 1263 -91 848 271 
Q 434 634 434 1313 
Q 434 1759 690 2068 
Q 947 2378 1403 2484 
z
M 1172 3481 
Q 1172 3119 1398 2916 
Q 1625 2713 2034 2713 
Q 2441 2713 2670 2916 
Q 2900 3119 2900 3481 
Q 2900 3844 2670 4047 
Q 2441 4250 2034 4250 
Q 1625 4250 1398 4047 
Q 1172 3844 1172 3481 
z
" transform="scale(0.015625)"/>
       </defs>
       <use xlink:href="#DejaVuSans-30"/>
       <use xlink:href="#DejaVuSans-2e" x="63.623047"/>
       <use xlink:href="#DejaVuSans-38" x="95.410156"/>
      </g>
     </g>
    </g>
    <g id="xtick_6">
     <g id="line2d_11">
      <path d="M 373.581818 384.48 
L 373.581818 51.84 
" clip-path="url(#p9b40e32cd2)" style="fill: none; stroke: #b0b0b0; stroke-width: 0.8; stroke-linecap: square"/>
     </g>
     <g id="line2d_12">
      <g>
       <use xlink:href="#md76ec508ba" x="373.581818" y="384.48" style="stroke: #000000; stroke-width: 0.8"/>
      </g>
     </g>
     <g id="text_6">
      <!-- 1.0 -->
      <g transform="translate(365.630256 399.078438) scale(0.1 -0.1)">
       <defs>
        <path id="DejaVuSans-31" d="M 794 531 
L 1825 531 
L 1825 4091 
L 703 3866 
L 703 4441 
L 1819 4666 
L 2450 4666 
L 2450 531 
L 3481 531 
L 3481 0 
L 794 0 
L 794 531 
z
" transform="scale(0.015625)"/>
       </defs>
       <use xlink:href="#DejaVuSans-31"/>
       <use xlink:href="#DejaVuSans-2e" x="63.623047"/>
       <use xlink:href="#DejaVuSans-30" x="95.410156"/>
      </g>
     </g>
    </g>
    <g id="text_7">
     <!-- False Positive Rate (Positive label: 1) -->
     <g transform="translate(130.034375 412.756563) scale(0.1 -0.1)">
      <defs>
       <path id="DejaVuSans-46" d="M 628 4666 
L 3309 4666 
L 3309 4134 
L 1259 4134 
L 1259 2759 
L 3109 2759 
L 3109 2228 
L 1259 2228 
L 1259 0 
L 628 0 
L 628 4666 
z
" transform="scale(0.015625)"/>
       <path id="DejaVuSans-61" d="M 2194 1759 
Q 1497 1759 1228 1600 
Q 959 1441 959 1056 
Q 959 750 1161 570 
Q 1363 391 1709 391 
Q 2188 391 2477 730 
Q 2766 1069 2766 1631 
L 2766 1759 
L 2194 1759 
z
M 3341 1997 
L 3341 0 
L 2766 0 
L 2766 531 
Q 2569 213 2275 61 
Q 1981 -91 1556 -91 
Q 1019 -91 701 211 
Q 384 513 384 1019 
Q 384 1609 779 1909 
Q 1175 2209 1959 2209 
L 2766 2209 
L 2766 2266 
Q 2766 2663 2505 2880 
Q 2244 3097 1772 3097 
Q 1472 3097 1187 3025 
Q 903 2953 641 2809 
L 641 3341 
Q 956 3463 1253 3523 
Q 1550 3584 1831 3584 
Q 2591 3584 2966 3190 
Q 3341 2797 3341 1997 
z
" transform="scale(0.015625)"/>
       <path id="DejaVuSans-6c" d="M 603 4863 
L 1178 4863 
L 1178 0 
L 603 0 
L 603 4863 
z
" transform="scale(0.015625)"/>
       <path id="DejaVuSans-73" d="M 2834 3397 
L 2834 2853 
Q 2591 2978 2328 3040 
Q 2066 3103 1784 3103 
Q 1356 3103 1142 2972 
Q 928 2841 928 2578 
Q 928 2378 1081 2264 
Q 1234 2150 1697 2047 
L 1894 2003 
Q 2506 1872 2764 1633 
Q 3022 1394 3022 966 
Q 3022 478 2636 193 
Q 2250 -91 1575 -91 
Q 1294 -91 989 -36 
Q 684 19 347 128 
L 347 722 
Q 666 556 975 473 
Q 1284 391 1588 391 
Q 1994 391 2212 530 
Q 2431 669 2431 922 
Q 2431 1156 2273 1281 
Q 2116 1406 1581 1522 
L 1381 1569 
Q 847 1681 609 1914 
Q 372 2147 372 2553 
Q 372 3047 722 3315 
Q 1072 3584 1716 3584 
Q 2034 3584 2315 3537 
Q 2597 3491 2834 3397 
z
" transform="scale(0.015625)"/>
       <path id="DejaVuSans-65" d="M 3597 1894 
L 3597 1613 
L 953 1613 
Q 991 1019 1311 708 
Q 1631 397 2203 397 
Q 2534 397 2845 478 
Q 3156 559 3463 722 
L 3463 178 
Q 3153 47 2828 -22 
Q 2503 -91 2169 -91 
Q 1331 -91 842 396 
Q 353 884 353 1716 
Q 353 2575 817 3079 
Q 1281 3584 2069 3584 
Q 2775 3584 3186 3129 
Q 3597 2675 3597 1894 
z
M 3022 2063 
Q 3016 2534 2758 2815 
Q 2500 3097 2075 3097 
Q 1594 3097 1305 2825 
Q 1016 2553 972 2059 
L 3022 2063 
z
" transform="scale(0.015625)"/>
       <path id="DejaVuSans-20" transform="scale(0.015625)"/>
       <path id="DejaVuSans-50" d="M 1259 4147 
L 1259 2394 
L 2053 2394 
Q 2494 2394 2734 2622 
Q 2975 2850 2975 3272 
Q 2975 3691 2734 3919 
Q 2494 4147 2053 4147 
L 1259 4147 
z
M 628 4666 
L 2053 4666 
Q 2838 4666 3239 4311 
Q 3641 3956 3641 3272 
Q 3641 2581 3239 2228 
Q 2838 1875 2053 1875 
L 1259 1875 
L 1259 0 
L 628 0 
L 628 4666 
z
" transform="scale(0.015625)"/>
       <path id="DejaVuSans-6f" d="M 1959 3097 
Q 1497 3097 1228 2736 
Q 959 2375 959 1747 
Q 959 1119 1226 758 
Q 1494 397 1959 397 
Q 2419 397 2687 759 
Q 2956 1122 2956 1747 
Q 2956 2369 2687 2733 
Q 2419 3097 1959 3097 
z
M 1959 3584 
Q 2709 3584 3137 3096 
Q 3566 2609 3566 1747 
Q 3566 888 3137 398 
Q 2709 -91 1959 -91 
Q 1206 -91 779 398 
Q 353 888 353 1747 
Q 353 2609 779 3096 
Q 1206 3584 1959 3584 
z
" transform="scale(0.015625)"/>
       <path id="DejaVuSans-69" d="M 603 3500 
L 1178 3500 
L 1178 0 
L 603 0 
L 603 3500 
z
M 603 4863 
L 1178 4863 
L 1178 4134 
L 603 4134 
L 603 4863 
z
" transform="scale(0.015625)"/>
       <path id="DejaVuSans-74" d="M 1172 4494 
L 1172 3500 
L 2356 3500 
L 2356 3053 
L 1172 3053 
L 1172 1153 
Q 1172 725 1289 603 
Q 1406 481 1766 481 
L 2356 481 
L 2356 0 
L 1766 0 
Q 1100 0 847 248 
Q 594 497 594 1153 
L 594 3053 
L 172 3053 
L 172 3500 
L 594 3500 
L 594 4494 
L 1172 4494 
z
" transform="scale(0.015625)"/>
       <path id="DejaVuSans-76" d="M 191 3500 
L 800 3500 
L 1894 563 
L 2988 3500 
L 3597 3500 
L 2284 0 
L 1503 0 
L 191 3500 
z
" transform="scale(0.015625)"/>
       <path id="DejaVuSans-52" d="M 2841 2188 
Q 3044 2119 3236 1894 
Q 3428 1669 3622 1275 
L 4263 0 
L 3584 0 
L 2988 1197 
Q 2756 1666 2539 1819 
Q 2322 1972 1947 1972 
L 1259 1972 
L 1259 0 
L 628 0 
L 628 4666 
L 2053 4666 
Q 2853 4666 3247 4331 
Q 3641 3997 3641 3322 
Q 3641 2881 3436 2590 
Q 3231 2300 2841 2188 
z
M 1259 4147 
L 1259 2491 
L 2053 2491 
Q 2509 2491 2742 2702 
Q 2975 2913 2975 3322 
Q 2975 3731 2742 3939 
Q 2509 4147 2053 4147 
L 1259 4147 
z
" transform="scale(0.015625)"/>
       <path id="DejaVuSans-28" d="M 1984 4856 
Q 1566 4138 1362 3434 
Q 1159 2731 1159 2009 
Q 1159 1288 1364 580 
Q 1569 -128 1984 -844 
L 1484 -844 
Q 1016 -109 783 600 
Q 550 1309 550 2009 
Q 550 2706 781 3412 
Q 1013 4119 1484 4856 
L 1984 4856 
z
" transform="scale(0.015625)"/>
       <path id="DejaVuSans-62" d="M 3116 1747 
Q 3116 2381 2855 2742 
Q 2594 3103 2138 3103 
Q 1681 3103 1420 2742 
Q 1159 2381 1159 1747 
Q 1159 1113 1420 752 
Q 1681 391 2138 391 
Q 2594 391 2855 752 
Q 3116 1113 3116 1747 
z
M 1159 2969 
Q 1341 3281 1617 3432 
Q 1894 3584 2278 3584 
Q 2916 3584 3314 3078 
Q 3713 2572 3713 1747 
Q 3713 922 3314 415 
Q 2916 -91 2278 -91 
Q 1894 -91 1617 61 
Q 1341 213 1159 525 
L 1159 0 
L 581 0 
L 581 4863 
L 1159 4863 
L 1159 2969 
z
" transform="scale(0.015625)"/>
       <path id="DejaVuSans-3a" d="M 750 794 
L 1409 794 
L 1409 0 
L 750 0 
L 750 794 
z
M 750 3309 
L 1409 3309 
L 1409 2516 
L 750 2516 
L 750 3309 
z
" transform="scale(0.015625)"/>
       <path id="DejaVuSans-29" d="M 513 4856 
L 1013 4856 
Q 1481 4119 1714 3412 
Q 1947 2706 1947 2009 
Q 1947 1309 1714 600 
Q 1481 -109 1013 -844 
L 513 -844 
Q 928 -128 1133 580 
Q 1338 1288 1338 2009 
Q 1338 2731 1133 3434 
Q 928 4138 513 4856 
z
" transform="scale(0.015625)"/>
      </defs>
      <use xlink:href="#DejaVuSans-46"/>
      <use xlink:href="#DejaVuSans-61" x="48.394531"/>
      <use xlink:href="#DejaVuSans-6c" x="109.673828"/>
      <use xlink:href="#DejaVuSans-73" x="137.457031"/>
      <use xlink:href="#DejaVuSans-65" x="189.556641"/>
      <use xlink:href="#DejaVuSans-20" x="251.080078"/>
      <use xlink:href="#DejaVuSans-50" x="282.867188"/>
      <use xlink:href="#DejaVuSans-6f" x="339.544922"/>
      <use xlink:href="#DejaVuSans-73" x="400.726562"/>
      <use xlink:href="#DejaVuSans-69" x="452.826172"/>
      <use xlink:href="#DejaVuSans-74" x="480.609375"/>
      <use xlink:href="#DejaVuSans-69" x="519.818359"/>
      <use xlink:href="#DejaVuSans-76" x="547.601562"/>
      <use xlink:href="#DejaVuSans-65" x="606.78125"/>
      <use xlink:href="#DejaVuSans-20" x="668.304688"/>
      <use xlink:href="#DejaVuSans-52" x="700.091797"/>
      <use xlink:href="#DejaVuSans-61" x="767.324219"/>
      <use xlink:href="#DejaVuSans-74" x="828.603516"/>
      <use xlink:href="#DejaVuSans-65" x="867.8125"/>
      <use xlink:href="#DejaVuSans-20" x="929.335938"/>
      <use xlink:href="#DejaVuSans-28" x="961.123047"/>
      <use xlink:href="#DejaVuSans-50" x="1000.136719"/>
      <use xlink:href="#DejaVuSans-6f" x="1056.814453"/>
      <use xlink:href="#DejaVuSans-73" x="1117.996094"/>
      <use xlink:href="#DejaVuSans-69" x="1170.095703"/>
      <use xlink:href="#DejaVuSans-74" x="1197.878906"/>
      <use xlink:href="#DejaVuSans-69" x="1237.087891"/>
      <use xlink:href="#DejaVuSans-76" x="1264.871094"/>
      <use xlink:href="#DejaVuSans-65" x="1324.050781"/>
      <use xlink:href="#DejaVuSans-20" x="1385.574219"/>
      <use xlink:href="#DejaVuSans-6c" x="1417.361328"/>
      <use xlink:href="#DejaVuSans-61" x="1445.144531"/>
      <use xlink:href="#DejaVuSans-62" x="1506.423828"/>
      <use xlink:href="#DejaVuSans-65" x="1569.900391"/>
      <use xlink:href="#DejaVuSans-6c" x="1631.423828"/>
      <use xlink:href="#DejaVuSans-3a" x="1659.207031"/>
      <use xlink:href="#DejaVuSans-20" x="1692.898438"/>
      <use xlink:href="#DejaVuSans-31" x="1724.685547"/>
      <use xlink:href="#DejaVuSans-29" x="1788.308594"/>
     </g>
    </g>
   </g>
   <g id="matplotlib.axis_2">
    <g id="ytick_1">
     <g id="line2d_13">
      <path d="M 54 369.36 
L 388.8 369.36 
" clip-path="url(#p9b40e32cd2)" style="fill: none; stroke: #b0b0b0; stroke-width: 0.8; stroke-linecap: square"/>
     </g>
     <g id="line2d_14">
      <defs>
       <path id="mf85afe53c6" d="M 0 0 
L -3.5 0 
" style="stroke: #000000; stroke-width: 0.8"/>
      </defs>
      <g>
       <use xlink:href="#mf85afe53c6" x="54" y="369.36" style="stroke: #000000; stroke-width: 0.8"/>
      </g>
     </g>
     <g id="text_8">
      <!-- 0.0 -->
      <g transform="translate(31.096875 373.159219) scale(0.1 -0.1)">
       <use xlink:href="#DejaVuSans-30"/>
       <use xlink:href="#DejaVuSans-2e" x="63.623047"/>
       <use xlink:href="#DejaVuSans-30" x="95.410156"/>
      </g>
     </g>
    </g>
    <g id="ytick_2">
     <g id="line2d_15">
      <path d="M 54 308.88 
L 388.8 308.88 
" clip-path="url(#p9b40e32cd2)" style="fill: none; stroke: #b0b0b0; stroke-width: 0.8; stroke-linecap: square"/>
     </g>
     <g id="line2d_16">
      <g>
       <use xlink:href="#mf85afe53c6" x="54" y="308.88" style="stroke: #000000; stroke-width: 0.8"/>
      </g>
     </g>
     <g id="text_9">
      <!-- 0.2 -->
      <g transform="translate(31.096875 312.679219) scale(0.1 -0.1)">
       <use xlink:href="#DejaVuSans-30"/>
       <use xlink:href="#DejaVuSans-2e" x="63.623047"/>
       <use xlink:href="#DejaVuSans-32" x="95.410156"/>
      </g>
     </g>
    </g>
    <g id="ytick_3">
     <g id="line2d_17">
      <path d="M 54 248.4 
L 388.8 248.4 
" clip-path="url(#p9b40e32cd2)" style="fill: none; stroke: #b0b0b0; stroke-width: 0.8; stroke-linecap: square"/>
     </g>
     <g id="line2d_18">
      <g>
       <use xlink:href="#mf85afe53c6" x="54" y="248.4" style="stroke: #000000; stroke-width: 0.8"/>
      </g>
     </g>
     <g id="text_10">
      <!-- 0.4 -->
      <g transform="translate(31.096875 252.199219) scale(0.1 -0.1)">
       <use xlink:href="#DejaVuSans-30"/>
       <use xlink:href="#DejaVuSans-2e" x="63.623047"/>
       <use xlink:href="#DejaVuSans-34" x="95.410156"/>
      </g>
     </g>
    </g>
    <g id="ytick_4">
     <g id="line2d_19">
      <path d="M 54 187.92 
L 388.8 187.92 
" clip-path="url(#p9b40e32cd2)" style="fill: none; stroke: #b0b0b0; stroke-width: 0.8; stroke-linecap: square"/>
     </g>
     <g id="line2d_20">
      <g>
       <use xlink:href="#mf85afe53c6" x="54" y="187.92" style="stroke: #000000; stroke-width: 0.8"/>
      </g>
     </g>
     <g id="text_11">
      <!-- 0.6 -->
      <g transform="translate(31.096875 191.719219) scale(0.1 -0.1)">
       <use xlink:href="#DejaVuSans-30"/>
       <use xlink:href="#DejaVuSans-2e" x="63.623047"/>
       <use xlink:href="#DejaVuSans-36" x="95.410156"/>
      </g>
     </g>
    </g>
    <g id="ytick_5">
     <g id="line2d_21">
      <path d="M 54 127.44 
L 388.8 127.44 
" clip-path="url(#p9b40e32cd2)" style="fill: none; stroke: #b0b0b0; stroke-width: 0.8; stroke-linecap: square"/>
     </g>
     <g id="line2d_22">
      <g>
       <use xlink:href="#mf85afe53c6" x="54" y="127.44" style="stroke: #000000; stroke-width: 0.8"/>
      </g>
     </g>
     <g id="text_12">
      <!-- 0.8 -->
      <g transform="translate(31.096875 131.239219) scale(0.1 -0.1)">
       <use xlink:href="#DejaVuSans-30"/>
       <use xlink:href="#DejaVuSans-2e" x="63.623047"/>
       <use xlink:href="#DejaVuSans-38" x="95.410156"/>
      </g>
     </g>
    </g>
    <g id="ytick_6">
     <g id="line2d_23">
      <path d="M 54 66.96 
L 388.8 66.96 
" clip-path="url(#p9b40e32cd2)" style="fill: none; stroke: #b0b0b0; stroke-width: 0.8; stroke-linecap: square"/>
     </g>
     <g id="line2d_24">
      <g>
       <use xlink:href="#mf85afe53c6" x="54" y="66.96" style="stroke: #000000; stroke-width: 0.8"/>
      </g>
     </g>
     <g id="text_13">
      <!-- 1.0 -->
      <g transform="translate(31.096875 70.759219) scale(0.1 -0.1)">
       <use xlink:href="#DejaVuSans-31"/>
       <use xlink:href="#DejaVuSans-2e" x="63.623047"/>
       <use xlink:href="#DejaVuSans-30" x="95.410156"/>
      </g>
     </g>
    </g>
    <g id="text_14">
     <!-- True Positive Rate (Positive label: 1) -->
     <g transform="translate(25.017187 307.588906) rotate(-90) scale(0.1 -0.1)">
      <defs>
       <path id="DejaVuSans-54" d="M -19 4666 
L 3928 4666 
L 3928 4134 
L 2272 4134 
L 2272 0 
L 1638 0 
L 1638 4134 
L -19 4134 
L -19 4666 
z
" transform="scale(0.015625)"/>
       <path id="DejaVuSans-72" d="M 2631 2963 
Q 2534 3019 2420 3045 
Q 2306 3072 2169 3072 
Q 1681 3072 1420 2755 
Q 1159 2438 1159 1844 
L 1159 0 
L 581 0 
L 581 3500 
L 1159 3500 
L 1159 2956 
Q 1341 3275 1631 3429 
Q 1922 3584 2338 3584 
Q 2397 3584 2469 3576 
Q 2541 3569 2628 3553 
L 2631 2963 
z
" transform="scale(0.015625)"/>
       <path id="DejaVuSans-75" d="M 544 1381 
L 544 3500 
L 1119 3500 
L 1119 1403 
Q 1119 906 1312 657 
Q 1506 409 1894 409 
Q 2359 409 2629 706 
Q 2900 1003 2900 1516 
L 2900 3500 
L 3475 3500 
L 3475 0 
L 2900 0 
L 2900 538 
Q 2691 219 2414 64 
Q 2138 -91 1772 -91 
Q 1169 -91 856 284 
Q 544 659 544 1381 
z
M 1991 3584 
L 1991 3584 
z
" transform="scale(0.015625)"/>
      </defs>
      <use xlink:href="#DejaVuSans-54"/>
      <use xlink:href="#DejaVuSans-72" x="46.333984"/>
      <use xlink:href="#DejaVuSans-75" x="87.447266"/>
      <use xlink:href="#DejaVuSans-65" x="150.826172"/>
      <use xlink:href="#DejaVuSans-20" x="212.349609"/>
      <use xlink:href="#DejaVuSans-50" x="244.136719"/>
      <use xlink:href="#DejaVuSans-6f" x="300.814453"/>
      <use xlink:href="#DejaVuSans-73" x="361.996094"/>
      <use xlink:href="#DejaVuSans-69" x="414.095703"/>
      <use xlink:href="#DejaVuSans-74" x="441.878906"/>
      <use xlink:href="#DejaVuSans-69" x="481.087891"/>
      <use xlink:href="#DejaVuSans-76" x="508.871094"/>
      <use xlink:href="#DejaVuSans-65" x="568.050781"/>
      <use xlink:href="#DejaVuSans-20" x="629.574219"/>
      <use xlink:href="#DejaVuSans-52" x="661.361328"/>
      <use xlink:href="#DejaVuSans-61" x="728.59375"/>
      <use xlink:href="#DejaVuSans-74" x="789.873047"/>
      <use xlink:href="#DejaVuSans-65" x="829.082031"/>
      <use xlink:href="#DejaVuSans-20" x="890.605469"/>
      <use xlink:href="#DejaVuSans-28" x="922.392578"/>
      <use xlink:href="#DejaVuSans-50" x="961.40625"/>
      <use xlink:href="#DejaVuSans-6f" x="1018.083984"/>
      <use xlink:href="#DejaVuSans-73" x="1079.265625"/>
      <use xlink:href="#DejaVuSans-69" x="1131.365234"/>
      <use xlink:href="#DejaVuSans-74" x="1159.148438"/>
      <use xlink:href="#DejaVuSans-69" x="1198.357422"/>
      <use xlink:href="#DejaVuSans-76" x="1226.140625"/>
      <use xlink:href="#DejaVuSans-65" x="1285.320312"/>
      <use xlink:href="#DejaVuSans-20" x="1346.84375"/>
      <use xlink:href="#DejaVuSans-6c" x="1378.630859"/>
      <use xlink:href="#DejaVuSans-61" x="1406.414062"/>
      <use xlink:href="#DejaVuSans-62" x="1467.693359"/>
      <use xlink:href="#DejaVuSans-65" x="1531.169922"/>
      <use xlink:href="#DejaVuSans-6c" x="1592.693359"/>
      <use xlink:href="#DejaVuSans-3a" x="1620.476562"/>
      <use xlink:href="#DejaVuSans-20" x="1654.167969"/>
      <use xlink:href="#DejaVuSans-31" x="1685.955078"/>
      <use xlink:href="#DejaVuSans-29" x="1749.578125"/>
     </g>
    </g>
   </g>
   <g id="line2d_25">
    <path d="M 69.218182 369.36 
L 69.218182 203.111659 
L 70.154685 203.111659 
L 70.154685 176.836777 
L 71.091189 176.836777 
L 71.091189 168.237725 
L 72.027692 168.237725 
L 72.027692 140.051943 
L 73.900699 140.051943 
L 73.900699 135.752417 
L 74.837203 135.752417 
L 74.837203 133.363791 
L 75.773706 133.363791 
L 75.773706 125.72019 
L 76.71021 125.72019 
L 76.71021 125.242464 
L 77.646713 125.242464 
L 77.646713 115.210237 
L 78.583217 115.210237 
L 78.583217 112.343886 
L 79.51972 112.343886 
L 79.51972 110.910711 
L 80.456224 110.910711 
L 80.456224 107.566635 
L 81.392727 107.566635 
L 81.392727 106.611185 
L 82.329231 106.611185 
L 82.329231 104.700284 
L 83.265734 104.700284 
L 83.265734 103.267109 
L 87.011748 103.267109 
L 87.011748 98.489858 
L 87.948252 98.489858 
L 87.948252 98.012133 
L 89.821259 98.012133 
L 89.821259 97.056682 
L 91.694266 97.056682 
L 91.694266 96.578957 
L 93.567273 96.578957 
L 93.567273 94.190332 
L 95.44028 94.190332 
L 95.44028 90.846256 
L 97.313287 90.846256 
L 97.313287 88.935355 
L 99.186294 88.935355 
L 99.186294 88.45763 
L 101.995804 88.45763 
L 101.995804 87.024455 
L 102.932308 87.024455 
L 102.932308 86.54673 
L 105.741818 86.54673 
L 105.741818 84.635829 
L 109.487832 84.635829 
L 109.487832 82.724929 
L 111.360839 82.724929 
L 111.360839 82.247204 
L 113.233846 82.247204 
L 113.233846 81.769479 
L 114.17035 81.769479 
L 114.17035 80.814028 
L 115.106853 80.814028 
L 115.106853 80.336303 
L 116.97986 80.336303 
L 116.97986 79.380853 
L 119.789371 79.380853 
L 119.789371 78.903128 
L 120.725874 78.903128 
L 120.725874 77.947678 
L 125.408392 77.947678 
L 125.408392 77.469953 
L 126.344895 77.469953 
L 126.344895 76.514502 
L 128.217902 76.514502 
L 128.217902 76.036777 
L 131.963916 76.036777 
L 131.963916 74.603602 
L 137.582937 74.603602 
L 137.582937 74.125877 
L 138.519441 74.125877 
L 138.519441 73.648152 
L 142.265455 73.648152 
L 142.265455 72.692701 
L 147.884476 72.692701 
L 147.884476 72.214976 
L 163.805035 72.214976 
L 163.805035 71.737251 
L 173.17007 71.737251 
L 173.17007 71.259526 
L 175.043077 71.259526 
L 175.043077 70.781801 
L 179.725594 70.781801 
L 179.725594 70.304076 
L 190.963636 70.304076 
L 190.963636 68.8709 
L 192.836643 68.8709 
L 192.836643 68.393175 
L 211.566713 68.393175 
L 211.566713 67.91545 
L 226.550769 67.91545 
L 226.550769 67.437725 
L 239.661818 67.437725 
L 239.661818 66.96 
L 373.581818 66.96 
L 373.581818 66.96 
" clip-path="url(#p9b40e32cd2)" style="fill: none; stroke: #1f77b4; stroke-opacity: 0.75; stroke-width: 2; stroke-linecap: square"/>
   </g>
   <g id="line2d_26">
    <path d="M 69.218182 369.36 
L 69.218182 328.586966 
L 69.608392 328.586966 
L 69.608392 301.404944 
L 69.998601 301.404944 
L 69.998601 299.706067 
L 70.388811 299.706067 
L 70.388811 284.41618 
L 70.779021 284.41618 
L 70.779021 233.449888 
L 71.169231 233.449888 
L 71.169231 230.052135 
L 71.559441 230.052135 
L 71.559441 219.858876 
L 72.33986 219.858876 
L 72.33986 184.182472 
L 72.73007 184.182472 
L 72.73007 180.784719 
L 73.12028 180.784719 
L 73.12028 173.989213 
L 73.900699 173.989213 
L 73.900699 172.290337 
L 74.290909 172.290337 
L 74.290909 160.398202 
L 74.681119 160.398202 
L 74.681119 158.699326 
L 75.071329 158.699326 
L 75.071329 148.506067 
L 75.461538 148.506067 
L 75.461538 138.312809 
L 75.851748 138.312809 
L 75.851748 133.21618 
L 76.632168 133.21618 
L 76.632168 129.818427 
L 77.022378 129.818427 
L 77.022378 128.119551 
L 77.412587 128.119551 
L 77.412587 126.420674 
L 78.193007 126.420674 
L 78.193007 117.926292 
L 78.583217 117.926292 
L 78.583217 116.227416 
L 78.973427 116.227416 
L 78.973427 109.43191 
L 79.753846 109.43191 
L 79.753846 106.034157 
L 80.144056 106.034157 
L 80.144056 104.335281 
L 80.534266 104.335281 
L 80.534266 102.636404 
L 81.704895 102.636404 
L 81.704895 100.937528 
L 82.095105 100.937528 
L 82.095105 99.238652 
L 83.265734 99.238652 
L 83.265734 97.539775 
L 85.997203 97.539775 
L 85.997203 95.840899 
L 86.387413 95.840899 
L 86.387413 92.443146 
L 88.728671 92.443146 
L 88.728671 90.74427 
L 89.509091 90.74427 
L 89.509091 89.045393 
L 92.630769 89.045393 
L 92.630769 87.346517 
L 94.191608 87.346517 
L 94.191608 83.948764 
L 106.288112 83.948764 
L 106.288112 82.249888 
L 114.092308 82.249888 
L 114.092308 80.551011 
L 114.872727 80.551011 
L 114.872727 78.852135 
L 116.823776 78.852135 
L 116.823776 77.153258 
L 126.579021 77.153258 
L 126.579021 75.454382 
L 136.334266 75.454382 
L 136.334266 73.755506 
L 141.406993 73.755506 
L 141.406993 72.056629 
L 155.844755 72.056629 
L 155.844755 70.357753 
L 171.453147 70.357753 
L 171.453147 68.658876 
L 181.598601 68.658876 
L 181.598601 66.96 
L 373.581818 66.96 
L 373.581818 66.96 
" clip-path="url(#p9b40e32cd2)" style="fill: none; stroke: #ff7f0e; stroke-opacity: 0.75; stroke-width: 2; stroke-linecap: square"/>
   </g>
   <g id="line2d_27">
    <path d="M 69.218182 369.36 
L 69.218182 365.63127 
L 69.218182 361.90254 
L 69.218182 361.529667 
L 69.218182 360.783921 
L 69.218182 355.563699 
L 69.218182 354.44508 
L 69.218182 353.699334 
L 69.218182 344.750382 
L 69.218182 344.377509 
L 69.218182 343.631763 
L 69.218182 334.682811 
L 69.218182 332.445573 
L 69.218182 330.581208 
L 69.218182 329.835462 
L 69.218182 325.360986 
L 69.218182 323.869494 
L 69.218182 321.259383 
L 69.218182 320.513637 
L 69.218182 316.412035 
L 69.218182 314.174797 
L 69.218182 311.937559 
L 69.218182 311.191813 
L 69.218182 306.717337 
L 69.218182 305.971591 
L 69.218182 298.514131 
L 69.218182 297.768385 
L 69.218182 277.26037 
L 69.218182 276.514624 
L 69.218182 275.023132 
L 69.218182 273.53164 
L 69.218182 141.534599 
L 71.288683 141.534599 
L 71.288683 133.704266 
L 73.359184 133.704266 
L 73.359184 100.145697 
L 75.429685 100.145697 
L 75.429685 94.925475 
L 77.500186 94.925475 
L 77.500186 91.942491 
L 79.570686 91.942491 
L 79.570686 91.196745 
L 81.641187 91.196745 
L 81.641187 86.349396 
L 83.711688 86.349396 
L 83.711688 85.60365 
L 85.782189 85.60365 
L 85.782189 81.87492 
L 87.85269 81.87492 
L 87.85269 80.010555 
L 96.134694 80.010555 
L 96.134694 79.264809 
L 98.205195 79.264809 
L 98.205195 78.519063 
L 100.275696 78.519063 
L 100.275696 77.400444 
L 106.487199 77.400444 
L 106.487199 77.027571 
L 108.557699 77.027571 
L 108.557699 76.654698 
L 110.6282 76.654698 
L 110.6282 76.281825 
L 112.698701 76.281825 
L 112.698701 75.536079 
L 116.839703 75.536079 
L 116.839703 75.163206 
L 120.980705 75.163206 
L 120.980705 74.790333 
L 125.121707 74.790333 
L 125.121707 74.41746 
L 129.262709 74.41746 
L 129.262709 74.044587 
L 131.33321 74.044587 
L 131.33321 73.298841 
L 133.403711 73.298841 
L 133.403711 72.925968 
L 137.544712 72.925968 
L 137.544712 71.434476 
L 152.038219 71.434476 
L 152.038219 69.942984 
L 154.10872 69.942984 
L 154.10872 69.570111 
L 162.390724 69.570111 
L 162.390724 69.197238 
L 166.531725 69.197238 
L 166.531725 68.824365 
L 174.813729 68.824365 
L 174.813729 68.451492 
L 191.377737 68.451492 
L 191.377737 67.332873 
L 226.576252 67.332873 
L 226.576252 66.96 
L 373.581818 66.96 
" clip-path="url(#p9b40e32cd2)" style="fill: none; stroke: #2ca02c; stroke-opacity: 0.75; stroke-width: 2; stroke-linecap: square"/>
   </g>
   <g id="line2d_28">
    <path d="M 69.218182 369.36 
L 69.218182 301.404944 
L 69.699009 301.404944 
L 69.699009 281.018427 
L 70.179836 281.018427 
L 70.179836 279.319551 
L 70.660664 279.319551 
L 70.660664 223.256629 
L 71.141491 223.256629 
L 71.141491 196.074607 
L 71.622318 196.074607 
L 71.622318 185.881348 
L 72.103145 185.881348 
L 72.103145 184.182472 
L 72.583972 184.182472 
L 72.583972 175.68809 
L 73.0648 175.68809 
L 73.0648 172.290337 
L 73.545627 172.290337 
L 73.545627 163.795955 
L 74.026454 163.795955 
L 74.026454 158.699326 
L 74.507281 158.699326 
L 74.507281 151.90382 
L 75.468936 151.90382 
L 75.468936 150.204944 
L 76.43059 150.204944 
L 76.43059 145.108315 
L 76.911417 145.108315 
L 76.911417 138.312809 
L 77.392245 138.312809 
L 77.392245 133.21618 
L 77.873072 133.21618 
L 77.873072 129.818427 
L 78.834726 129.818427 
L 78.834726 128.119551 
L 79.315554 128.119551 
L 79.315554 126.420674 
L 79.796381 126.420674 
L 79.796381 124.721798 
L 80.277208 124.721798 
L 80.277208 123.022921 
L 82.200517 123.022921 
L 82.200517 121.324045 
L 87.489617 121.324045 
L 87.489617 119.625169 
L 88.451271 119.625169 
L 88.451271 117.926292 
L 88.932098 117.926292 
L 88.932098 114.528539 
L 89.893753 114.528539 
L 89.893753 112.829663 
L 90.37458 112.829663 
L 90.37458 109.43191 
L 91.336234 109.43191 
L 91.336234 107.733034 
L 91.817062 107.733034 
L 91.817062 106.034157 
L 93.259543 106.034157 
L 93.259543 104.335281 
L 95.663679 104.335281 
L 95.663679 102.636404 
L 98.548643 102.636404 
L 98.548643 100.937528 
L 99.510297 100.937528 
L 99.510297 99.238652 
L 100.471952 99.238652 
L 100.471952 97.539775 
L 100.952779 97.539775 
L 100.952779 95.840899 
L 104.799397 95.840899 
L 104.799397 94.142022 
L 105.280224 94.142022 
L 105.280224 92.443146 
L 106.722706 92.443146 
L 106.722706 90.74427 
L 107.203533 90.74427 
L 107.203533 89.045393 
L 110.569324 89.045393 
L 110.569324 87.346517 
L 112.011805 87.346517 
L 112.011805 83.948764 
L 120.666695 83.948764 
L 120.666695 82.249888 
L 127.879104 82.249888 
L 127.879104 80.551011 
L 132.687376 80.551011 
L 132.687376 77.153258 
L 135.57234 77.153258 
L 135.57234 75.454382 
L 136.533994 75.454382 
L 136.533994 73.755506 
L 139.418957 73.755506 
L 139.418957 72.056629 
L 193.271607 72.056629 
L 193.271607 70.357753 
L 194.233262 70.357753 
L 194.233262 68.658876 
L 248.566738 68.658876 
L 248.566738 66.96 
L 373.581818 66.96 
L 373.581818 66.96 
" clip-path="url(#p9b40e32cd2)" style="fill: none; stroke: #d62728; stroke-opacity: 0.75; stroke-width: 2; stroke-linecap: square"/>
   </g>
   <g id="line2d_29">
    <path d="M 69.218182 369.36 
L 69.218182 365.16 
L 69.218182 331.56 
L 71.288683 331.56 
L 71.288683 327.36 
L 73.359184 327.36 
L 73.359184 272.76 
L 75.429685 272.76 
L 75.429685 121.56 
L 77.500186 121.56 
L 77.500186 96.36 
L 85.782189 96.36 
L 85.782189 92.16 
L 102.346197 92.16 
L 102.346197 87.96 
L 112.698701 87.96 
L 112.698701 83.76 
L 116.839703 83.76 
L 116.839703 79.56 
L 141.685714 79.56 
L 141.685714 75.36 
L 156.179221 75.36 
L 156.179221 71.16 
L 170.672727 71.16 
L 170.672727 66.96 
L 373.581818 66.96 
" clip-path="url(#p9b40e32cd2)" style="fill: none; stroke: #9467bd; stroke-opacity: 0.75; stroke-width: 2; stroke-linecap: square"/>
   </g>
   <g id="line2d_30">
    <path d="M 69.218182 369.36 
L 87.664463 212.679403 
L 96.887603 186.56597 
L 99.961983 176.57194 
L 101.499174 165.288358 
L 104.573554 161.74209 
L 110.722314 155.294328 
L 110.722314 152.715224 
L 113.796694 150.458507 
L 116.871074 145.945075 
L 118.408264 144.97791 
L 119.945455 144.333134 
L 119.945455 142.076418 
L 121.482645 138.852537 
L 121.482645 137.885373 
L 123.019835 137.885373 
L 123.019835 137.562985 
L 124.557025 137.240597 
L 127.631405 136.918209 
L 127.631405 133.694328 
L 129.168595 133.694328 
L 129.168595 128.858507 
L 132.242975 128.536119 
L 132.242975 124.345075 
L 133.780165 123.055522 
L 136.854545 122.733134 
L 136.854545 122.088358 
L 138.391736 121.121194 
L 138.391736 120.476418 
L 139.928926 120.476418 
L 139.928926 119.186866 
L 141.466116 118.54209 
L 143.003306 118.219701 
L 143.003306 117.897313 
L 146.077686 117.897313 
L 147.614876 117.574925 
L 147.614876 116.607761 
L 149.152066 116.285373 
L 149.152066 113.061493 
L 152.226446 112.416716 
L 152.226446 110.804776 
L 155.300826 110.804776 
L 155.300826 110.482388 
L 156.838017 110.16 
L 156.838017 108.54806 
L 158.375207 108.225672 
L 158.375207 106.936119 
L 159.912397 106.613731 
L 159.912397 105.324179 
L 161.449587 105.324179 
L 161.449587 105.001791 
L 162.986777 104.679403 
L 162.986777 104.357015 
L 164.523967 104.357015 
L 164.523967 103.389851 
L 166.061157 103.067463 
L 166.061157 102.100299 
L 169.135537 102.100299 
L 169.135537 101.77791 
L 170.672727 101.77791 
L 170.672727 101.455522 
L 172.209917 101.455522 
L 172.209917 100.810746 
L 173.747107 100.810746 
L 173.747107 100.16597 
L 175.284298 100.16597 
L 175.284298 98.55403 
L 176.821488 98.55403 
L 176.821488 97.909254 
L 178.358678 97.909254 
L 178.358678 95.652537 
L 179.895868 95.652537 
L 179.895868 94.685373 
L 181.433058 94.685373 
L 181.433058 90.816716 
L 184.507438 90.816716 
L 184.507438 89.849552 
L 186.044628 89.849552 
L 186.044628 89.527164 
L 187.581818 89.527164 
L 187.581818 89.204776 
L 189.119008 88.882388 
L 196.804959 88.882388 
L 196.804959 88.237612 
L 198.342149 88.237612 
L 198.342149 85.980896 
L 199.879339 85.980896 
L 199.879339 85.658507 
L 202.953719 85.658507 
L 202.953719 85.336119 
L 204.490909 85.336119 
L 204.490909 85.013731 
L 209.102479 85.013731 
L 209.102479 83.401791 
L 210.639669 83.401791 
L 210.639669 82.757015 
L 212.17686 82.757015 
L 215.25124 82.112239 
L 215.25124 81.467463 
L 216.78843 81.145075 
L 216.78843 80.17791 
L 218.32562 79.533134 
L 218.32562 77.921194 
L 221.4 77.921194 
L 222.93719 77.598806 
L 222.93719 77.276418 
L 230.62314 77.276418 
L 230.62314 76.95403 
L 232.160331 76.631642 
L 232.160331 76.309254 
L 233.697521 76.309254 
L 235.234711 75.986866 
L 236.771901 75.986866 
L 236.771901 75.664478 
L 242.920661 75.664478 
L 244.457851 75.34209 
L 247.532231 75.019701 
L 252.143802 75.019701 
L 253.680992 74.697313 
L 258.292562 74.697313 
L 258.292562 74.374925 
L 259.829752 74.374925 
L 261.366942 74.052537 
L 262.904132 74.052537 
L 264.441322 73.407761 
L 265.978512 73.407761 
L 270.590083 72.440597 
L 273.664463 72.440597 
L 279.813223 71.795821 
L 292.110744 70.828657 
L 307.482645 69.216716 
L 373.581818 66.96 
L 373.581818 66.96 
" clip-path="url(#p9b40e32cd2)" style="fill: none; stroke: #8c564b; stroke-opacity: 0.75; stroke-width: 2; stroke-linecap: square"/>
   </g>
   <g id="line2d_31">
    <path d="M 69.218182 369.36 
L 69.218182 335.033514 
L 70.811709 335.033514 
L 70.811709 282.726486 
L 72.405236 281.091892 
L 72.405236 280.111135 
L 73.998762 268.342054 
L 73.998762 246.111568 
L 75.592289 246.111568 
L 75.592289 233.034811 
L 77.185816 233.034811 
L 77.185816 213.092757 
L 78.779343 213.092757 
L 78.779343 211.458162 
L 81.966397 211.458162 
L 81.966397 207.862054 
L 83.559924 207.535135 
L 85.153451 207.535135 
L 85.153451 202.631351 
L 86.746978 202.631351 
L 86.746978 200.996757 
L 88.340505 200.996757 
L 88.340505 198.054486 
L 89.934031 198.054486 
L 89.934031 191.516108 
L 91.527558 191.516108 
L 91.527558 187.266162 
L 93.121085 186.939243 
L 93.121085 182.035459 
L 94.714612 181.708541 
L 96.308139 181.708541 
L 96.308139 177.131676 
L 97.901666 177.131676 
L 97.901666 168.304865 
L 99.495193 168.304865 
L 99.495193 165.689514 
L 101.08872 165.689514 
L 101.08872 161.439568 
L 102.682247 161.439568 
L 102.682247 159.151135 
L 105.8693 159.151135 
L 105.8693 157.843459 
L 107.462827 157.843459 
L 107.462827 157.516541 
L 109.056354 157.516541 
L 109.056354 150.978162 
L 110.649881 150.978162 
L 110.649881 147.055135 
L 112.243408 147.055135 
L 112.243408 145.420541 
L 113.836935 145.420541 
L 113.836935 145.093622 
L 115.430462 145.093622 
L 115.430462 144.439784 
L 117.023989 144.439784 
L 117.023989 142.151351 
L 118.617515 142.151351 
L 118.617515 141.170595 
L 120.211042 141.170595 
L 120.211042 139.209081 
L 121.804569 139.209081 
L 121.804569 136.266811 
L 123.398096 136.266811 
L 123.398096 132.670703 
L 124.991623 132.670703 
L 124.991623 131.689946 
L 126.58515 131.689946 
L 126.58515 131.363027 
L 128.178677 131.036108 
L 129.772204 131.036108 
L 129.772204 130.38227 
L 131.365731 130.38227 
L 131.365731 129.728432 
L 132.959257 129.728432 
L 132.959257 129.074595 
L 134.552784 129.074595 
L 134.552784 128.093838 
L 136.146311 128.093838 
L 136.146311 127.766919 
L 137.739838 127.766919 
L 137.739838 127.113081 
L 140.926892 127.113081 
L 140.926892 125.805405 
L 142.520419 125.805405 
L 142.520419 125.151568 
L 144.113946 124.824649 
L 144.113946 124.49773 
L 147.301 124.49773 
L 147.301 123.843892 
L 150.488053 123.843892 
L 150.488053 120.901622 
L 156.862161 120.901622 
L 156.862161 116.978595 
L 158.455688 116.978595 
L 158.455688 116.651676 
L 160.049215 116.651676 
L 160.049215 114.363243 
L 161.642742 114.363243 
L 161.642742 113.055568 
L 163.236268 113.055568 
L 163.236268 112.728649 
L 164.829795 112.40173 
L 164.829795 112.074811 
L 166.423322 112.074811 
L 166.423322 107.824865 
L 171.203903 107.824865 
L 171.203903 107.497946 
L 172.79743 107.497946 
L 172.79743 105.536432 
L 174.390957 105.209514 
L 174.390957 104.228757 
L 175.984484 104.228757 
L 175.984484 103.901838 
L 177.57801 103.901838 
L 177.57801 103.574919 
L 179.171537 103.574919 
L 179.171537 102.921081 
L 180.765064 102.921081 
L 180.765064 101.613405 
L 182.358591 101.286486 
L 182.358591 100.959568 
L 183.952118 100.959568 
L 183.952118 98.344216 
L 185.545645 98.344216 
L 185.545645 98.017297 
L 187.139172 98.017297 
L 187.139172 97.690378 
L 190.326226 97.690378 
L 190.326226 96.709622 
L 191.919752 92.459676 
L 191.919752 92.132757 
L 193.513279 92.132757 
L 193.513279 91.478919 
L 195.106806 91.478919 
L 195.106806 90.825081 
L 198.29386 90.825081 
L 198.29386 90.171243 
L 201.480914 90.171243 
L 201.480914 88.20973 
L 203.074441 88.20973 
L 203.074441 87.555892 
L 204.667968 87.555892 
L 204.667968 86.248216 
L 206.261495 86.248216 
L 206.261495 85.921297 
L 209.448548 85.921297 
L 209.448548 85.594378 
L 212.635602 85.594378 
L 212.635602 85.267459 
L 214.229129 85.267459 
L 214.229129 83.632865 
L 219.00971 83.632865 
L 219.00971 82.652108 
L 222.196763 82.652108 
L 222.196763 82.325189 
L 223.79029 82.325189 
L 223.79029 81.99827 
L 231.757925 81.99827 
L 231.757925 81.344432 
L 236.538505 81.344432 
L 236.538505 80.690595 
L 239.725559 80.690595 
L 239.725559 80.363676 
L 241.319086 80.363676 
L 241.319086 79.709838 
L 242.912613 79.709838 
L 244.50614 79.382919 
L 244.50614 79.056 
L 247.693194 79.056 
L 247.693194 78.402162 
L 252.473774 78.402162 
L 252.473774 78.075243 
L 254.067301 78.075243 
L 254.067301 77.748324 
L 258.847882 77.748324 
L 258.847882 76.767568 
L 260.441409 76.767568 
L 260.441409 76.440649 
L 262.034936 76.440649 
L 262.034936 76.11373 
L 266.815516 76.11373 
L 266.815516 75.459892 
L 271.596097 75.459892 
L 271.596097 75.132973 
L 273.189624 75.132973 
L 273.189624 74.806054 
L 274.783151 74.806054 
L 274.783151 73.825297 
L 285.937839 73.825297 
L 285.937839 73.498378 
L 287.531366 73.498378 
L 287.531366 73.171459 
L 298.686054 73.171459 
L 298.686054 72.844541 
L 303.466635 72.844541 
L 303.466635 72.517622 
L 305.060162 72.517622 
L 305.060162 72.190703 
L 306.653689 72.190703 
L 306.653689 71.863784 
L 309.840743 71.863784 
L 309.840743 71.209946 
L 313.027796 71.209946 
L 313.027796 70.556108 
L 322.588958 70.556108 
L 322.588958 70.229189 
L 324.182485 70.229189 
L 324.182485 69.575351 
L 328.963065 69.575351 
L 330.556592 69.248432 
L 332.150119 69.248432 
L 332.150119 68.921514 
L 336.9307 68.921514 
L 336.9307 68.594595 
L 346.491861 68.594595 
L 346.491861 67.613838 
L 368.801238 67.613838 
L 368.801238 67.286919 
L 373.581818 67.286919 
L 373.581818 66.96 
L 373.581818 66.96 
" clip-path="url(#p9b40e32cd2)" style="fill: none; stroke: #e377c2; stroke-opacity: 0.75; stroke-width: 2; stroke-linecap: square"/>
   </g>
   <g id="patch_3">
    <path d="M 54 384.48 
L 54 51.84 
" style="fill: none; stroke: #000000; stroke-width: 0.8; stroke-linejoin: miter; stroke-linecap: square"/>
   </g>
   <g id="patch_4">
    <path d="M 388.8 384.48 
L 388.8 51.84 
" style="fill: none; stroke: #000000; stroke-width: 0.8; stroke-linejoin: miter; stroke-linecap: square"/>
   </g>
   <g id="patch_5">
    <path d="M 54 384.48 
L 388.8 384.48 
" style="fill: none; stroke: #000000; stroke-width: 0.8; stroke-linejoin: miter; stroke-linecap: square"/>
   </g>
   <g id="patch_6">
    <path d="M 54 51.84 
L 388.8 51.84 
" style="fill: none; stroke: #000000; stroke-width: 0.8; stroke-linejoin: miter; stroke-linecap: square"/>
   </g>
   <g id="legend_1">
    <g id="patch_7">
     <path d="M 222.70625 379.48 
L 381.8 379.48 
Q 383.8 379.48 383.8 377.48 
L 383.8 274.89875 
Q 383.8 272.89875 381.8 272.89875 
L 222.70625 272.89875 
Q 220.70625 272.89875 220.70625 274.89875 
L 220.70625 377.48 
Q 220.70625 379.48 222.70625 379.48 
z
" style="fill: #ffffff; opacity: 0.8; stroke: #cccccc; stroke-linejoin: miter"/>
    </g>
    <g id="line2d_32">
     <path d="M 224.70625 280.997187 
L 234.70625 280.997187 
L 244.70625 280.997187 
" style="fill: none; stroke: #1f77b4; stroke-opacity: 0.75; stroke-width: 2; stroke-linecap: square"/>
    </g>
    <g id="text_15">
     <!-- ALL_D (AUC = 0.98) -->
     <g transform="translate(252.70625 284.497187) scale(0.1 -0.1)">
      <defs>
       <path id="DejaVuSans-41" d="M 2188 4044 
L 1331 1722 
L 3047 1722 
L 2188 4044 
z
M 1831 4666 
L 2547 4666 
L 4325 0 
L 3669 0 
L 3244 1197 
L 1141 1197 
L 716 0 
L 50 0 
L 1831 4666 
z
" transform="scale(0.015625)"/>
       <path id="DejaVuSans-4c" d="M 628 4666 
L 1259 4666 
L 1259 531 
L 3531 531 
L 3531 0 
L 628 0 
L 628 4666 
z
" transform="scale(0.015625)"/>
       <path id="DejaVuSans-5f" d="M 3263 -1063 
L 3263 -1509 
L -63 -1509 
L -63 -1063 
L 3263 -1063 
z
" transform="scale(0.015625)"/>
       <path id="DejaVuSans-44" d="M 1259 4147 
L 1259 519 
L 2022 519 
Q 2988 519 3436 956 
Q 3884 1394 3884 2338 
Q 3884 3275 3436 3711 
Q 2988 4147 2022 4147 
L 1259 4147 
z
M 628 4666 
L 1925 4666 
Q 3281 4666 3915 4102 
Q 4550 3538 4550 2338 
Q 4550 1131 3912 565 
Q 3275 0 1925 0 
L 628 0 
L 628 4666 
z
" transform="scale(0.015625)"/>
       <path id="DejaVuSans-55" d="M 556 4666 
L 1191 4666 
L 1191 1831 
Q 1191 1081 1462 751 
Q 1734 422 2344 422 
Q 2950 422 3222 751 
Q 3494 1081 3494 1831 
L 3494 4666 
L 4128 4666 
L 4128 1753 
Q 4128 841 3676 375 
Q 3225 -91 2344 -91 
Q 1459 -91 1007 375 
Q 556 841 556 1753 
L 556 4666 
z
" transform="scale(0.015625)"/>
       <path id="DejaVuSans-43" d="M 4122 4306 
L 4122 3641 
Q 3803 3938 3442 4084 
Q 3081 4231 2675 4231 
Q 1875 4231 1450 3742 
Q 1025 3253 1025 2328 
Q 1025 1406 1450 917 
Q 1875 428 2675 428 
Q 3081 428 3442 575 
Q 3803 722 4122 1019 
L 4122 359 
Q 3791 134 3420 21 
Q 3050 -91 2638 -91 
Q 1578 -91 968 557 
Q 359 1206 359 2328 
Q 359 3453 968 4101 
Q 1578 4750 2638 4750 
Q 3056 4750 3426 4639 
Q 3797 4528 4122 4306 
z
" transform="scale(0.015625)"/>
       <path id="DejaVuSans-3d" d="M 678 2906 
L 4684 2906 
L 4684 2381 
L 678 2381 
L 678 2906 
z
M 678 1631 
L 4684 1631 
L 4684 1100 
L 678 1100 
L 678 1631 
z
" transform="scale(0.015625)"/>
       <path id="DejaVuSans-39" d="M 703 97 
L 703 672 
Q 941 559 1184 500 
Q 1428 441 1663 441 
Q 2288 441 2617 861 
Q 2947 1281 2994 2138 
Q 2813 1869 2534 1725 
Q 2256 1581 1919 1581 
Q 1219 1581 811 2004 
Q 403 2428 403 3163 
Q 403 3881 828 4315 
Q 1253 4750 1959 4750 
Q 2769 4750 3195 4129 
Q 3622 3509 3622 2328 
Q 3622 1225 3098 567 
Q 2575 -91 1691 -91 
Q 1453 -91 1209 -44 
Q 966 3 703 97 
z
M 1959 2075 
Q 2384 2075 2632 2365 
Q 2881 2656 2881 3163 
Q 2881 3666 2632 3958 
Q 2384 4250 1959 4250 
Q 1534 4250 1286 3958 
Q 1038 3666 1038 3163 
Q 1038 2656 1286 2365 
Q 1534 2075 1959 2075 
z
" transform="scale(0.015625)"/>
      </defs>
      <use xlink:href="#DejaVuSans-41"/>
      <use xlink:href="#DejaVuSans-4c" x="68.408203"/>
      <use xlink:href="#DejaVuSans-4c" x="124.121094"/>
      <use xlink:href="#DejaVuSans-5f" x="179.833984"/>
      <use xlink:href="#DejaVuSans-44" x="229.833984"/>
      <use xlink:href="#DejaVuSans-20" x="306.835938"/>
      <use xlink:href="#DejaVuSans-28" x="338.623047"/>
      <use xlink:href="#DejaVuSans-41" x="377.636719"/>
      <use xlink:href="#DejaVuSans-55" x="446.044922"/>
      <use xlink:href="#DejaVuSans-43" x="519.238281"/>
      <use xlink:href="#DejaVuSans-20" x="589.0625"/>
      <use xlink:href="#DejaVuSans-3d" x="620.849609"/>
      <use xlink:href="#DejaVuSans-20" x="704.638672"/>
      <use xlink:href="#DejaVuSans-30" x="736.425781"/>
      <use xlink:href="#DejaVuSans-2e" x="800.048828"/>
      <use xlink:href="#DejaVuSans-39" x="831.835938"/>
      <use xlink:href="#DejaVuSans-38" x="895.458984"/>
      <use xlink:href="#DejaVuSans-29" x="959.082031"/>
     </g>
    </g>
    <g id="line2d_33">
     <path d="M 224.70625 295.953438 
L 234.70625 295.953438 
L 244.70625 295.953438 
" style="fill: none; stroke: #ff7f0e; stroke-opacity: 0.75; stroke-width: 2; stroke-linecap: square"/>
    </g>
    <g id="text_16">
     <!-- ALL_A (AUC = 0.98) -->
     <g transform="translate(252.70625 299.453438) scale(0.1 -0.1)">
      <use xlink:href="#DejaVuSans-41"/>
      <use xlink:href="#DejaVuSans-4c" x="68.408203"/>
      <use xlink:href="#DejaVuSans-4c" x="124.121094"/>
      <use xlink:href="#DejaVuSans-5f" x="179.833984"/>
      <use xlink:href="#DejaVuSans-41" x="229.833984"/>
      <use xlink:href="#DejaVuSans-20" x="298.242188"/>
      <use xlink:href="#DejaVuSans-28" x="330.029297"/>
      <use xlink:href="#DejaVuSans-41" x="369.042969"/>
      <use xlink:href="#DejaVuSans-55" x="437.451172"/>
      <use xlink:href="#DejaVuSans-43" x="510.644531"/>
      <use xlink:href="#DejaVuSans-20" x="580.46875"/>
      <use xlink:href="#DejaVuSans-3d" x="612.255859"/>
      <use xlink:href="#DejaVuSans-20" x="696.044922"/>
      <use xlink:href="#DejaVuSans-30" x="727.832031"/>
      <use xlink:href="#DejaVuSans-2e" x="791.455078"/>
      <use xlink:href="#DejaVuSans-39" x="823.242188"/>
      <use xlink:href="#DejaVuSans-38" x="886.865234"/>
      <use xlink:href="#DejaVuSans-29" x="950.488281"/>
     </g>
    </g>
    <g id="line2d_34">
     <path d="M 224.70625 310.909688 
L 234.70625 310.909688 
L 244.70625 310.909688 
" style="fill: none; stroke: #2ca02c; stroke-opacity: 0.75; stroke-width: 2; stroke-linecap: square"/>
    </g>
    <g id="text_17">
     <!-- ALL_AD (AUC = 0.99) -->
     <g transform="translate(252.70625 314.409688) scale(0.1 -0.1)">
      <use xlink:href="#DejaVuSans-41"/>
      <use xlink:href="#DejaVuSans-4c" x="68.408203"/>
      <use xlink:href="#DejaVuSans-4c" x="124.121094"/>
      <use xlink:href="#DejaVuSans-5f" x="179.833984"/>
      <use xlink:href="#DejaVuSans-41" x="229.833984"/>
      <use xlink:href="#DejaVuSans-44" x="298.242188"/>
      <use xlink:href="#DejaVuSans-20" x="375.244141"/>
      <use xlink:href="#DejaVuSans-28" x="407.03125"/>
      <use xlink:href="#DejaVuSans-41" x="446.044922"/>
      <use xlink:href="#DejaVuSans-55" x="514.453125"/>
      <use xlink:href="#DejaVuSans-43" x="587.646484"/>
      <use xlink:href="#DejaVuSans-20" x="657.470703"/>
      <use xlink:href="#DejaVuSans-3d" x="689.257812"/>
      <use xlink:href="#DejaVuSans-20" x="773.046875"/>
      <use xlink:href="#DejaVuSans-30" x="804.833984"/>
      <use xlink:href="#DejaVuSans-2e" x="868.457031"/>
      <use xlink:href="#DejaVuSans-39" x="900.244141"/>
      <use xlink:href="#DejaVuSans-39" x="963.867188"/>
      <use xlink:href="#DejaVuSans-29" x="1027.490234"/>
     </g>
    </g>
    <g id="line2d_35">
     <path d="M 224.70625 325.865937 
L 234.70625 325.865937 
L 244.70625 325.865937 
" style="fill: none; stroke: #d62728; stroke-opacity: 0.75; stroke-width: 2; stroke-linecap: square"/>
    </g>
    <g id="text_18">
     <!-- AIVLD (AUC = 0.97) -->
     <g transform="translate(252.70625 329.365937) scale(0.1 -0.1)">
      <defs>
       <path id="DejaVuSans-49" d="M 628 4666 
L 1259 4666 
L 1259 0 
L 628 0 
L 628 4666 
z
" transform="scale(0.015625)"/>
       <path id="DejaVuSans-56" d="M 1831 0 
L 50 4666 
L 709 4666 
L 2188 738 
L 3669 4666 
L 4325 4666 
L 2547 0 
L 1831 0 
z
" transform="scale(0.015625)"/>
       <path id="DejaVuSans-37" d="M 525 4666 
L 3525 4666 
L 3525 4397 
L 1831 0 
L 1172 0 
L 2766 4134 
L 525 4134 
L 525 4666 
z
" transform="scale(0.015625)"/>
      </defs>
      <use xlink:href="#DejaVuSans-41"/>
      <use xlink:href="#DejaVuSans-49" x="68.408203"/>
      <use xlink:href="#DejaVuSans-56" x="97.900391"/>
      <use xlink:href="#DejaVuSans-4c" x="166.308594"/>
      <use xlink:href="#DejaVuSans-44" x="222.021484"/>
      <use xlink:href="#DejaVuSans-20" x="299.023438"/>
      <use xlink:href="#DejaVuSans-28" x="330.810547"/>
      <use xlink:href="#DejaVuSans-41" x="369.824219"/>
      <use xlink:href="#DejaVuSans-55" x="438.232422"/>
      <use xlink:href="#DejaVuSans-43" x="511.425781"/>
      <use xlink:href="#DejaVuSans-20" x="581.25"/>
      <use xlink:href="#DejaVuSans-3d" x="613.037109"/>
      <use xlink:href="#DejaVuSans-20" x="696.826172"/>
      <use xlink:href="#DejaVuSans-30" x="728.613281"/>
      <use xlink:href="#DejaVuSans-2e" x="792.236328"/>
      <use xlink:href="#DejaVuSans-39" x="824.023438"/>
      <use xlink:href="#DejaVuSans-37" x="887.646484"/>
      <use xlink:href="#DejaVuSans-29" x="951.269531"/>
     </g>
    </g>
    <g id="line2d_36">
     <path d="M 224.70625 340.544062 
L 234.70625 340.544062 
L 244.70625 340.544062 
" style="fill: none; stroke: #9467bd; stroke-opacity: 0.75; stroke-width: 2; stroke-linecap: square"/>
    </g>
    <g id="text_19">
     <!-- RVN (AUC = 0.97) -->
     <g transform="translate(252.70625 344.044062) scale(0.1 -0.1)">
      <defs>
       <path id="DejaVuSans-4e" d="M 628 4666 
L 1478 4666 
L 3547 763 
L 3547 4666 
L 4159 4666 
L 4159 0 
L 3309 0 
L 1241 3903 
L 1241 0 
L 628 0 
L 628 4666 
z
" transform="scale(0.015625)"/>
      </defs>
      <use xlink:href="#DejaVuSans-52"/>
      <use xlink:href="#DejaVuSans-56" x="63.982422"/>
      <use xlink:href="#DejaVuSans-4e" x="132.390625"/>
      <use xlink:href="#DejaVuSans-20" x="207.195312"/>
      <use xlink:href="#DejaVuSans-28" x="238.982422"/>
      <use xlink:href="#DejaVuSans-41" x="277.996094"/>
      <use xlink:href="#DejaVuSans-55" x="346.404297"/>
      <use xlink:href="#DejaVuSans-43" x="419.597656"/>
      <use xlink:href="#DejaVuSans-20" x="489.421875"/>
      <use xlink:href="#DejaVuSans-3d" x="521.208984"/>
      <use xlink:href="#DejaVuSans-20" x="604.998047"/>
      <use xlink:href="#DejaVuSans-30" x="636.785156"/>
      <use xlink:href="#DejaVuSans-2e" x="700.408203"/>
      <use xlink:href="#DejaVuSans-39" x="732.195312"/>
      <use xlink:href="#DejaVuSans-37" x="795.818359"/>
      <use xlink:href="#DejaVuSans-29" x="859.441406"/>
     </g>
    </g>
    <g id="line2d_37">
     <path d="M 224.70625 355.222188 
L 234.70625 355.222188 
L 244.70625 355.222188 
" style="fill: none; stroke: #8c564b; stroke-opacity: 0.75; stroke-width: 2; stroke-linecap: square"/>
    </g>
    <g id="text_20">
     <!-- POLYPHEN2 (AUC = 0.87) -->
     <g transform="translate(252.70625 358.722188) scale(0.1 -0.1)">
      <defs>
       <path id="DejaVuSans-4f" d="M 2522 4238 
Q 1834 4238 1429 3725 
Q 1025 3213 1025 2328 
Q 1025 1447 1429 934 
Q 1834 422 2522 422 
Q 3209 422 3611 934 
Q 4013 1447 4013 2328 
Q 4013 3213 3611 3725 
Q 3209 4238 2522 4238 
z
M 2522 4750 
Q 3503 4750 4090 4092 
Q 4678 3434 4678 2328 
Q 4678 1225 4090 567 
Q 3503 -91 2522 -91 
Q 1538 -91 948 565 
Q 359 1222 359 2328 
Q 359 3434 948 4092 
Q 1538 4750 2522 4750 
z
" transform="scale(0.015625)"/>
       <path id="DejaVuSans-59" d="M -13 4666 
L 666 4666 
L 1959 2747 
L 3244 4666 
L 3922 4666 
L 2272 2222 
L 2272 0 
L 1638 0 
L 1638 2222 
L -13 4666 
z
" transform="scale(0.015625)"/>
       <path id="DejaVuSans-48" d="M 628 4666 
L 1259 4666 
L 1259 2753 
L 3553 2753 
L 3553 4666 
L 4184 4666 
L 4184 0 
L 3553 0 
L 3553 2222 
L 1259 2222 
L 1259 0 
L 628 0 
L 628 4666 
z
" transform="scale(0.015625)"/>
       <path id="DejaVuSans-45" d="M 628 4666 
L 3578 4666 
L 3578 4134 
L 1259 4134 
L 1259 2753 
L 3481 2753 
L 3481 2222 
L 1259 2222 
L 1259 531 
L 3634 531 
L 3634 0 
L 628 0 
L 628 4666 
z
" transform="scale(0.015625)"/>
      </defs>
      <use xlink:href="#DejaVuSans-50"/>
      <use xlink:href="#DejaVuSans-4f" x="60.302734"/>
      <use xlink:href="#DejaVuSans-4c" x="139.013672"/>
      <use xlink:href="#DejaVuSans-59" x="181.476562"/>
      <use xlink:href="#DejaVuSans-50" x="242.560547"/>
      <use xlink:href="#DejaVuSans-48" x="302.863281"/>
      <use xlink:href="#DejaVuSans-45" x="378.058594"/>
      <use xlink:href="#DejaVuSans-4e" x="441.242188"/>
      <use xlink:href="#DejaVuSans-32" x="516.046875"/>
      <use xlink:href="#DejaVuSans-20" x="579.669922"/>
      <use xlink:href="#DejaVuSans-28" x="611.457031"/>
      <use xlink:href="#DejaVuSans-41" x="650.470703"/>
      <use xlink:href="#DejaVuSans-55" x="718.878906"/>
      <use xlink:href="#DejaVuSans-43" x="792.072266"/>
      <use xlink:href="#DejaVuSans-20" x="861.896484"/>
      <use xlink:href="#DejaVuSans-3d" x="893.683594"/>
      <use xlink:href="#DejaVuSans-20" x="977.472656"/>
      <use xlink:href="#DejaVuSans-30" x="1009.259766"/>
      <use xlink:href="#DejaVuSans-2e" x="1072.882812"/>
      <use xlink:href="#DejaVuSans-38" x="1104.669922"/>
      <use xlink:href="#DejaVuSans-37" x="1168.292969"/>
      <use xlink:href="#DejaVuSans-29" x="1231.916016"/>
     </g>
    </g>
    <g id="line2d_38">
     <path d="M 224.70625 369.900313 
L 234.70625 369.900313 
L 244.70625 369.900313 
" style="fill: none; stroke: #e377c2; stroke-opacity: 0.75; stroke-width: 2; stroke-linecap: square"/>
    </g>
    <g id="text_21">
     <!-- PMUT (AUC = 0.88) -->
     <g transform="translate(252.70625 373.400313) scale(0.1 -0.1)">
      <defs>
       <path id="DejaVuSans-4d" d="M 628 4666 
L 1569 4666 
L 2759 1491 
L 3956 4666 
L 4897 4666 
L 4897 0 
L 4281 0 
L 4281 4097 
L 3078 897 
L 2444 897 
L 1241 4097 
L 1241 0 
L 628 0 
L 628 4666 
z
" transform="scale(0.015625)"/>
      </defs>
      <use xlink:href="#DejaVuSans-50"/>
      <use xlink:href="#DejaVuSans-4d" x="60.302734"/>
      <use xlink:href="#DejaVuSans-55" x="146.582031"/>
      <use xlink:href="#DejaVuSans-54" x="219.775391"/>
      <use xlink:href="#DejaVuSans-20" x="280.859375"/>
      <use xlink:href="#DejaVuSans-28" x="312.646484"/>
      <use xlink:href="#DejaVuSans-41" x="351.660156"/>
      <use xlink:href="#DejaVuSans-55" x="420.068359"/>
      <use xlink:href="#DejaVuSans-43" x="493.261719"/>
      <use xlink:href="#DejaVuSans-20" x="563.085938"/>
      <use xlink:href="#DejaVuSans-3d" x="594.873047"/>
      <use xlink:href="#DejaVuSans-20" x="678.662109"/>
      <use xlink:href="#DejaVuSans-30" x="710.449219"/>
      <use xlink:href="#DejaVuSans-2e" x="774.072266"/>
      <use xlink:href="#DejaVuSans-38" x="805.859375"/>
      <use xlink:href="#DejaVuSans-38" x="869.482422"/>
      <use xlink:href="#DejaVuSans-29" x="933.105469"/>
     </g>
    </g>
   </g>
  </g>
 </g>
 <defs>
  <clipPath id="p9b40e32cd2">
   <rect x="54" y="51.84" width="334.8" height="332.64"/>
  </clipPath>
 </defs>
</svg>
