<?xml version="1.0" encoding="utf-8" standalone="no"?>
<!DOCTYPE svg PUBLIC "-//W3C//DTD SVG 1.1//EN"
  "http://www.w3.org/Graphics/SVG/1.1/DTD/svg11.dtd">
<svg xmlns:xlink="http://www.w3.org/1999/xlink" width="432pt" height="432pt" viewBox="0 0 432 432" xmlns="http://www.w3.org/2000/svg" version="1.1">
 <metadata>
  <rdf:RDF xmlns:dc="http://purl.org/dc/elements/1.1/" xmlns:cc="http://creativecommons.org/ns#" xmlns:rdf="http://www.w3.org/1999/02/22-rdf-syntax-ns#">
   <cc:Work>
    <dc:type rdf:resource="http://purl.org/dc/dcmitype/StillImage"/>
    <dc:date>2023-06-05T12:12:49.935626</dc:date>
    <dc:format>image/svg+xml</dc:format>
    <dc:creator>
     <cc:Agent>
      <dc:title>Matplotlib v3.7.1, https://matplotlib.org/</dc:title>
     </cc:Agent>
    </dc:creator>
   </cc:Work>
  </rdf:RDF>
 </metadata>
 <defs>
  <style type="text/css">*{stroke-linejoin: round; stroke-linecap: butt}</style>
 </defs>
 <g id="figure_1">
  <g id="patch_1">
   <path d="M 0 432 
L 432 432 
L 432 0 
L 0 0 
z
" style="fill: #ffffff"/>
  </g>
  <g id="axes_1">
   <g id="patch_2">
    <path d="M 54 384.48 
L 388.8 384.48 
L 388.8 51.84 
L 54 51.84 
z
" style="fill: #ffffff"/>
   </g>
   <g id="matplotlib.axis_1">
    <g id="xtick_1">
     <g id="line2d_1">
      <path d="M 69.218182 384.48 
L 69.218182 51.84 
" clip-path="url(#pbe2e6252c3)" style="fill: none; stroke: #b0b0b0; stroke-width: 0.8; stroke-linecap: square"/>
     </g>
     <g id="line2d_2">
      <defs>
       <path id="m12a5f785f2" d="M 0 0 
L 0 3.5 
" style="stroke: #000000; stroke-width: 0.8"/>
      </defs>
      <g>
       <use xlink:href="#m12a5f785f2" x="69.218182" y="384.48" style="stroke: #000000; stroke-width: 0.8"/>
      </g>
     </g>
     <g id="text_1">
      <!-- 0.0 -->
      <g transform="translate(61.266619 399.078438) scale(0.1 -0.1)">
       <defs>
        <path id="DejaVuSans-30" d="M 2034 4250 
Q 1547 4250 1301 3770 
Q 1056 3291 1056 2328 
Q 1056 1369 1301 889 
Q 1547 409 2034 409 
Q 2525 409 2770 889 
Q 3016 1369 3016 2328 
Q 3016 3291 2770 3770 
Q 2525 4250 2034 4250 
z
M 2034 4750 
Q 2819 4750 3233 4129 
Q 3647 3509 3647 2328 
Q 3647 1150 3233 529 
Q 2819 -91 2034 -91 
Q 1250 -91 836 529 
Q 422 1150 422 2328 
Q 422 3509 836 4129 
Q 1250 4750 2034 4750 
z
" transform="scale(0.015625)"/>
        <path id="DejaVuSans-2e" d="M 684 794 
L 1344 794 
L 1344 0 
L 684 0 
L 684 794 
z
" transform="scale(0.015625)"/>
       </defs>
       <use xlink:href="#DejaVuSans-30"/>
       <use xlink:href="#DejaVuSans-2e" x="63.623047"/>
       <use xlink:href="#DejaVuSans-30" x="95.410156"/>
      </g>
     </g>
    </g>
    <g id="xtick_2">
     <g id="line2d_3">
      <path d="M 130.090909 384.48 
L 130.090909 51.84 
" clip-path="url(#pbe2e6252c3)" style="fill: none; stroke: #b0b0b0; stroke-width: 0.8; stroke-linecap: square"/>
     </g>
     <g id="line2d_4">
      <g>
       <use xlink:href="#m12a5f785f2" x="130.090909" y="384.48" style="stroke: #000000; stroke-width: 0.8"/>
      </g>
     </g>
     <g id="text_2">
      <!-- 0.2 -->
      <g transform="translate(122.139347 399.078438) scale(0.1 -0.1)">
       <defs>
        <path id="DejaVuSans-32" d="M 1228 531 
L 3431 531 
L 3431 0 
L 469 0 
L 469 531 
Q 828 903 1448 1529 
Q 2069 2156 2228 2338 
Q 2531 2678 2651 2914 
Q 2772 3150 2772 3378 
Q 2772 3750 2511 3984 
Q 2250 4219 1831 4219 
Q 1534 4219 1204 4116 
Q 875 4013 500 3803 
L 500 4441 
Q 881 4594 1212 4672 
Q 1544 4750 1819 4750 
Q 2544 4750 2975 4387 
Q 3406 4025 3406 3419 
Q 3406 3131 3298 2873 
Q 3191 2616 2906 2266 
Q 2828 2175 2409 1742 
Q 1991 1309 1228 531 
z
" transform="scale(0.015625)"/>
       </defs>
       <use xlink:href="#DejaVuSans-30"/>
       <use xlink:href="#DejaVuSans-2e" x="63.623047"/>
       <use xlink:href="#DejaVuSans-32" x="95.410156"/>
      </g>
     </g>
    </g>
    <g id="xtick_3">
     <g id="line2d_5">
      <path d="M 190.963636 384.48 
L 190.963636 51.84 
" clip-path="url(#pbe2e6252c3)" style="fill: none; stroke: #b0b0b0; stroke-width: 0.8; stroke-linecap: square"/>
     </g>
     <g id="line2d_6">
      <g>
       <use xlink:href="#m12a5f785f2" x="190.963636" y="384.48" style="stroke: #000000; stroke-width: 0.8"/>
      </g>
     </g>
     <g id="text_3">
      <!-- 0.4 -->
      <g transform="translate(183.012074 399.078438) scale(0.1 -0.1)">
       <defs>
        <path id="DejaVuSans-34" d="M 2419 4116 
L 825 1625 
L 2419 1625 
L 2419 4116 
z
M 2253 4666 
L 3047 4666 
L 3047 1625 
L 3713 1625 
L 3713 1100 
L 3047 1100 
L 3047 0 
L 2419 0 
L 2419 1100 
L 313 1100 
L 313 1709 
L 2253 4666 
z
" transform="scale(0.015625)"/>
       </defs>
       <use xlink:href="#DejaVuSans-30"/>
       <use xlink:href="#DejaVuSans-2e" x="63.623047"/>
       <use xlink:href="#DejaVuSans-34" x="95.410156"/>
      </g>
     </g>
    </g>
    <g id="xtick_4">
     <g id="line2d_7">
      <path d="M 251.836364 384.48 
L 251.836364 51.84 
" clip-path="url(#pbe2e6252c3)" style="fill: none; stroke: #b0b0b0; stroke-width: 0.8; stroke-linecap: square"/>
     </g>
     <g id="line2d_8">
      <g>
       <use xlink:href="#m12a5f785f2" x="251.836364" y="384.48" style="stroke: #000000; stroke-width: 0.8"/>
      </g>
     </g>
     <g id="text_4">
      <!-- 0.6 -->
      <g transform="translate(243.884801 399.078438) scale(0.1 -0.1)">
       <defs>
        <path id="DejaVuSans-36" d="M 2113 2584 
Q 1688 2584 1439 2293 
Q 1191 2003 1191 1497 
Q 1191 994 1439 701 
Q 1688 409 2113 409 
Q 2538 409 2786 701 
Q 3034 994 3034 1497 
Q 3034 2003 2786 2293 
Q 2538 2584 2113 2584 
z
M 3366 4563 
L 3366 3988 
Q 3128 4100 2886 4159 
Q 2644 4219 2406 4219 
Q 1781 4219 1451 3797 
Q 1122 3375 1075 2522 
Q 1259 2794 1537 2939 
Q 1816 3084 2150 3084 
Q 2853 3084 3261 2657 
Q 3669 2231 3669 1497 
Q 3669 778 3244 343 
Q 2819 -91 2113 -91 
Q 1303 -91 875 529 
Q 447 1150 447 2328 
Q 447 3434 972 4092 
Q 1497 4750 2381 4750 
Q 2619 4750 2861 4703 
Q 3103 4656 3366 4563 
z
" transform="scale(0.015625)"/>
       </defs>
       <use xlink:href="#DejaVuSans-30"/>
       <use xlink:href="#DejaVuSans-2e" x="63.623047"/>
       <use xlink:href="#DejaVuSans-36" x="95.410156"/>
      </g>
     </g>
    </g>
    <g id="xtick_5">
     <g id="line2d_9">
      <path d="M 312.709091 384.48 
L 312.709091 51.84 
" clip-path="url(#pbe2e6252c3)" style="fill: none; stroke: #b0b0b0; stroke-width: 0.8; stroke-linecap: square"/>
     </g>
     <g id="line2d_10">
      <g>
       <use xlink:href="#m12a5f785f2" x="312.709091" y="384.48" style="stroke: #000000; stroke-width: 0.8"/>
      </g>
     </g>
     <g id="text_5">
      <!-- 0.8 -->
      <g transform="translate(304.757528 399.078438) scale(0.1 -0.1)">
       <defs>
        <path id="DejaVuSans-38" d="M 2034 2216 
Q 1584 2216 1326 1975 
Q 1069 1734 1069 1313 
Q 1069 891 1326 650 
Q 1584 409 2034 409 
Q 2484 409 2743 651 
Q 3003 894 3003 1313 
Q 3003 1734 2745 1975 
Q 2488 2216 2034 2216 
z
M 1403 2484 
Q 997 2584 770 2862 
Q 544 3141 544 3541 
Q 544 4100 942 4425 
Q 1341 4750 2034 4750 
Q 2731 4750 3128 4425 
Q 3525 4100 3525 3541 
Q 3525 3141 3298 2862 
Q 3072 2584 2669 2484 
Q 3125 2378 3379 2068 
Q 3634 1759 3634 1313 
Q 3634 634 3220 271 
Q 2806 -91 2034 -91 
Q 1263 -91 848 271 
Q 434 634 434 1313 
Q 434 1759 690 2068 
Q 947 2378 1403 2484 
z
M 1172 3481 
Q 1172 3119 1398 2916 
Q 1625 2713 2034 2713 
Q 2441 2713 2670 2916 
Q 2900 3119 2900 3481 
Q 2900 3844 2670 4047 
Q 2441 4250 2034 4250 
Q 1625 4250 1398 4047 
Q 1172 3844 1172 3481 
z
" transform="scale(0.015625)"/>
       </defs>
       <use xlink:href="#DejaVuSans-30"/>
       <use xlink:href="#DejaVuSans-2e" x="63.623047"/>
       <use xlink:href="#DejaVuSans-38" x="95.410156"/>
      </g>
     </g>
    </g>
    <g id="xtick_6">
     <g id="line2d_11">
      <path d="M 373.581818 384.48 
L 373.581818 51.84 
" clip-path="url(#pbe2e6252c3)" style="fill: none; stroke: #b0b0b0; stroke-width: 0.8; stroke-linecap: square"/>
     </g>
     <g id="line2d_12">
      <g>
       <use xlink:href="#m12a5f785f2" x="373.581818" y="384.48" style="stroke: #000000; stroke-width: 0.8"/>
      </g>
     </g>
     <g id="text_6">
      <!-- 1.0 -->
      <g transform="translate(365.630256 399.078438) scale(0.1 -0.1)">
       <defs>
        <path id="DejaVuSans-31" d="M 794 531 
L 1825 531 
L 1825 4091 
L 703 3866 
L 703 4441 
L 1819 4666 
L 2450 4666 
L 2450 531 
L 3481 531 
L 3481 0 
L 794 0 
L 794 531 
z
" transform="scale(0.015625)"/>
       </defs>
       <use xlink:href="#DejaVuSans-31"/>
       <use xlink:href="#DejaVuSans-2e" x="63.623047"/>
       <use xlink:href="#DejaVuSans-30" x="95.410156"/>
      </g>
     </g>
    </g>
    <g id="text_7">
     <!-- False Positive Rate (Positive label: 1) -->
     <g transform="translate(130.034375 412.756563) scale(0.1 -0.1)">
      <defs>
       <path id="DejaVuSans-46" d="M 628 4666 
L 3309 4666 
L 3309 4134 
L 1259 4134 
L 1259 2759 
L 3109 2759 
L 3109 2228 
L 1259 2228 
L 1259 0 
L 628 0 
L 628 4666 
z
" transform="scale(0.015625)"/>
       <path id="DejaVuSans-61" d="M 2194 1759 
Q 1497 1759 1228 1600 
Q 959 1441 959 1056 
Q 959 750 1161 570 
Q 1363 391 1709 391 
Q 2188 391 2477 730 
Q 2766 1069 2766 1631 
L 2766 1759 
L 2194 1759 
z
M 3341 1997 
L 3341 0 
L 2766 0 
L 2766 531 
Q 2569 213 2275 61 
Q 1981 -91 1556 -91 
Q 1019 -91 701 211 
Q 384 513 384 1019 
Q 384 1609 779 1909 
Q 1175 2209 1959 2209 
L 2766 2209 
L 2766 2266 
Q 2766 2663 2505 2880 
Q 2244 3097 1772 3097 
Q 1472 3097 1187 3025 
Q 903 2953 641 2809 
L 641 3341 
Q 956 3463 1253 3523 
Q 1550 3584 1831 3584 
Q 2591 3584 2966 3190 
Q 3341 2797 3341 1997 
z
" transform="scale(0.015625)"/>
       <path id="DejaVuSans-6c" d="M 603 4863 
L 1178 4863 
L 1178 0 
L 603 0 
L 603 4863 
z
" transform="scale(0.015625)"/>
       <path id="DejaVuSans-73" d="M 2834 3397 
L 2834 2853 
Q 2591 2978 2328 3040 
Q 2066 3103 1784 3103 
Q 1356 3103 1142 2972 
Q 928 2841 928 2578 
Q 928 2378 1081 2264 
Q 1234 2150 1697 2047 
L 1894 2003 
Q 2506 1872 2764 1633 
Q 3022 1394 3022 966 
Q 3022 478 2636 193 
Q 2250 -91 1575 -91 
Q 1294 -91 989 -36 
Q 684 19 347 128 
L 347 722 
Q 666 556 975 473 
Q 1284 391 1588 391 
Q 1994 391 2212 530 
Q 2431 669 2431 922 
Q 2431 1156 2273 1281 
Q 2116 1406 1581 1522 
L 1381 1569 
Q 847 1681 609 1914 
Q 372 2147 372 2553 
Q 372 3047 722 3315 
Q 1072 3584 1716 3584 
Q 2034 3584 2315 3537 
Q 2597 3491 2834 3397 
z
" transform="scale(0.015625)"/>
       <path id="DejaVuSans-65" d="M 3597 1894 
L 3597 1613 
L 953 1613 
Q 991 1019 1311 708 
Q 1631 397 2203 397 
Q 2534 397 2845 478 
Q 3156 559 3463 722 
L 3463 178 
Q 3153 47 2828 -22 
Q 2503 -91 2169 -91 
Q 1331 -91 842 396 
Q 353 884 353 1716 
Q 353 2575 817 3079 
Q 1281 3584 2069 3584 
Q 2775 3584 3186 3129 
Q 3597 2675 3597 1894 
z
M 3022 2063 
Q 3016 2534 2758 2815 
Q 2500 3097 2075 3097 
Q 1594 3097 1305 2825 
Q 1016 2553 972 2059 
L 3022 2063 
z
" transform="scale(0.015625)"/>
       <path id="DejaVuSans-20" transform="scale(0.015625)"/>
       <path id="DejaVuSans-50" d="M 1259 4147 
L 1259 2394 
L 2053 2394 
Q 2494 2394 2734 2622 
Q 2975 2850 2975 3272 
Q 2975 3691 2734 3919 
Q 2494 4147 2053 4147 
L 1259 4147 
z
M 628 4666 
L 2053 4666 
Q 2838 4666 3239 4311 
Q 3641 3956 3641 3272 
Q 3641 2581 3239 2228 
Q 2838 1875 2053 1875 
L 1259 1875 
L 1259 0 
L 628 0 
L 628 4666 
z
" transform="scale(0.015625)"/>
       <path id="DejaVuSans-6f" d="M 1959 3097 
Q 1497 3097 1228 2736 
Q 959 2375 959 1747 
Q 959 1119 1226 758 
Q 1494 397 1959 397 
Q 2419 397 2687 759 
Q 2956 1122 2956 1747 
Q 2956 2369 2687 2733 
Q 2419 3097 1959 3097 
z
M 1959 3584 
Q 2709 3584 3137 3096 
Q 3566 2609 3566 1747 
Q 3566 888 3137 398 
Q 2709 -91 1959 -91 
Q 1206 -91 779 398 
Q 353 888 353 1747 
Q 353 2609 779 3096 
Q 1206 3584 1959 3584 
z
" transform="scale(0.015625)"/>
       <path id="DejaVuSans-69" d="M 603 3500 
L 1178 3500 
L 1178 0 
L 603 0 
L 603 3500 
z
M 603 4863 
L 1178 4863 
L 1178 4134 
L 603 4134 
L 603 4863 
z
" transform="scale(0.015625)"/>
       <path id="DejaVuSans-74" d="M 1172 4494 
L 1172 3500 
L 2356 3500 
L 2356 3053 
L 1172 3053 
L 1172 1153 
Q 1172 725 1289 603 
Q 1406 481 1766 481 
L 2356 481 
L 2356 0 
L 1766 0 
Q 1100 0 847 248 
Q 594 497 594 1153 
L 594 3053 
L 172 3053 
L 172 3500 
L 594 3500 
L 594 4494 
L 1172 4494 
z
" transform="scale(0.015625)"/>
       <path id="DejaVuSans-76" d="M 191 3500 
L 800 3500 
L 1894 563 
L 2988 3500 
L 3597 3500 
L 2284 0 
L 1503 0 
L 191 3500 
z
" transform="scale(0.015625)"/>
       <path id="DejaVuSans-52" d="M 2841 2188 
Q 3044 2119 3236 1894 
Q 3428 1669 3622 1275 
L 4263 0 
L 3584 0 
L 2988 1197 
Q 2756 1666 2539 1819 
Q 2322 1972 1947 1972 
L 1259 1972 
L 1259 0 
L 628 0 
L 628 4666 
L 2053 4666 
Q 2853 4666 3247 4331 
Q 3641 3997 3641 3322 
Q 3641 2881 3436 2590 
Q 3231 2300 2841 2188 
z
M 1259 4147 
L 1259 2491 
L 2053 2491 
Q 2509 2491 2742 2702 
Q 2975 2913 2975 3322 
Q 2975 3731 2742 3939 
Q 2509 4147 2053 4147 
L 1259 4147 
z
" transform="scale(0.015625)"/>
       <path id="DejaVuSans-28" d="M 1984 4856 
Q 1566 4138 1362 3434 
Q 1159 2731 1159 2009 
Q 1159 1288 1364 580 
Q 1569 -128 1984 -844 
L 1484 -844 
Q 1016 -109 783 600 
Q 550 1309 550 2009 
Q 550 2706 781 3412 
Q 1013 4119 1484 4856 
L 1984 4856 
z
" transform="scale(0.015625)"/>
       <path id="DejaVuSans-62" d="M 3116 1747 
Q 3116 2381 2855 2742 
Q 2594 3103 2138 3103 
Q 1681 3103 1420 2742 
Q 1159 2381 1159 1747 
Q 1159 1113 1420 752 
Q 1681 391 2138 391 
Q 2594 391 2855 752 
Q 3116 1113 3116 1747 
z
M 1159 2969 
Q 1341 3281 1617 3432 
Q 1894 3584 2278 3584 
Q 2916 3584 3314 3078 
Q 3713 2572 3713 1747 
Q 3713 922 3314 415 
Q 2916 -91 2278 -91 
Q 1894 -91 1617 61 
Q 1341 213 1159 525 
L 1159 0 
L 581 0 
L 581 4863 
L 1159 4863 
L 1159 2969 
z
" transform="scale(0.015625)"/>
       <path id="DejaVuSans-3a" d="M 750 794 
L 1409 794 
L 1409 0 
L 750 0 
L 750 794 
z
M 750 3309 
L 1409 3309 
L 1409 2516 
L 750 2516 
L 750 3309 
z
" transform="scale(0.015625)"/>
       <path id="DejaVuSans-29" d="M 513 4856 
L 1013 4856 
Q 1481 4119 1714 3412 
Q 1947 2706 1947 2009 
Q 1947 1309 1714 600 
Q 1481 -109 1013 -844 
L 513 -844 
Q 928 -128 1133 580 
Q 1338 1288 1338 2009 
Q 1338 2731 1133 3434 
Q 928 4138 513 4856 
z
" transform="scale(0.015625)"/>
      </defs>
      <use xlink:href="#DejaVuSans-46"/>
      <use xlink:href="#DejaVuSans-61" x="48.394531"/>
      <use xlink:href="#DejaVuSans-6c" x="109.673828"/>
      <use xlink:href="#DejaVuSans-73" x="137.457031"/>
      <use xlink:href="#DejaVuSans-65" x="189.556641"/>
      <use xlink:href="#DejaVuSans-20" x="251.080078"/>
      <use xlink:href="#DejaVuSans-50" x="282.867188"/>
      <use xlink:href="#DejaVuSans-6f" x="339.544922"/>
      <use xlink:href="#DejaVuSans-73" x="400.726562"/>
      <use xlink:href="#DejaVuSans-69" x="452.826172"/>
      <use xlink:href="#DejaVuSans-74" x="480.609375"/>
      <use xlink:href="#DejaVuSans-69" x="519.818359"/>
      <use xlink:href="#DejaVuSans-76" x="547.601562"/>
      <use xlink:href="#DejaVuSans-65" x="606.78125"/>
      <use xlink:href="#DejaVuSans-20" x="668.304688"/>
      <use xlink:href="#DejaVuSans-52" x="700.091797"/>
      <use xlink:href="#DejaVuSans-61" x="767.324219"/>
      <use xlink:href="#DejaVuSans-74" x="828.603516"/>
      <use xlink:href="#DejaVuSans-65" x="867.8125"/>
      <use xlink:href="#DejaVuSans-20" x="929.335938"/>
      <use xlink:href="#DejaVuSans-28" x="961.123047"/>
      <use xlink:href="#DejaVuSans-50" x="1000.136719"/>
      <use xlink:href="#DejaVuSans-6f" x="1056.814453"/>
      <use xlink:href="#DejaVuSans-73" x="1117.996094"/>
      <use xlink:href="#DejaVuSans-69" x="1170.095703"/>
      <use xlink:href="#DejaVuSans-74" x="1197.878906"/>
      <use xlink:href="#DejaVuSans-69" x="1237.087891"/>
      <use xlink:href="#DejaVuSans-76" x="1264.871094"/>
      <use xlink:href="#DejaVuSans-65" x="1324.050781"/>
      <use xlink:href="#DejaVuSans-20" x="1385.574219"/>
      <use xlink:href="#DejaVuSans-6c" x="1417.361328"/>
      <use xlink:href="#DejaVuSans-61" x="1445.144531"/>
      <use xlink:href="#DejaVuSans-62" x="1506.423828"/>
      <use xlink:href="#DejaVuSans-65" x="1569.900391"/>
      <use xlink:href="#DejaVuSans-6c" x="1631.423828"/>
      <use xlink:href="#DejaVuSans-3a" x="1659.207031"/>
      <use xlink:href="#DejaVuSans-20" x="1692.898438"/>
      <use xlink:href="#DejaVuSans-31" x="1724.685547"/>
      <use xlink:href="#DejaVuSans-29" x="1788.308594"/>
     </g>
    </g>
   </g>
   <g id="matplotlib.axis_2">
    <g id="ytick_1">
     <g id="line2d_13">
      <path d="M 54 369.36 
L 388.8 369.36 
" clip-path="url(#pbe2e6252c3)" style="fill: none; stroke: #b0b0b0; stroke-width: 0.8; stroke-linecap: square"/>
     </g>
     <g id="line2d_14">
      <defs>
       <path id="mc94e494a7f" d="M 0 0 
L -3.5 0 
" style="stroke: #000000; stroke-width: 0.8"/>
      </defs>
      <g>
       <use xlink:href="#mc94e494a7f" x="54" y="369.36" style="stroke: #000000; stroke-width: 0.8"/>
      </g>
     </g>
     <g id="text_8">
      <!-- 0.0 -->
      <g transform="translate(31.096875 373.159219) scale(0.1 -0.1)">
       <use xlink:href="#DejaVuSans-30"/>
       <use xlink:href="#DejaVuSans-2e" x="63.623047"/>
       <use xlink:href="#DejaVuSans-30" x="95.410156"/>
      </g>
     </g>
    </g>
    <g id="ytick_2">
     <g id="line2d_15">
      <path d="M 54 308.88 
L 388.8 308.88 
" clip-path="url(#pbe2e6252c3)" style="fill: none; stroke: #b0b0b0; stroke-width: 0.8; stroke-linecap: square"/>
     </g>
     <g id="line2d_16">
      <g>
       <use xlink:href="#mc94e494a7f" x="54" y="308.88" style="stroke: #000000; stroke-width: 0.8"/>
      </g>
     </g>
     <g id="text_9">
      <!-- 0.2 -->
      <g transform="translate(31.096875 312.679219) scale(0.1 -0.1)">
       <use xlink:href="#DejaVuSans-30"/>
       <use xlink:href="#DejaVuSans-2e" x="63.623047"/>
       <use xlink:href="#DejaVuSans-32" x="95.410156"/>
      </g>
     </g>
    </g>
    <g id="ytick_3">
     <g id="line2d_17">
      <path d="M 54 248.4 
L 388.8 248.4 
" clip-path="url(#pbe2e6252c3)" style="fill: none; stroke: #b0b0b0; stroke-width: 0.8; stroke-linecap: square"/>
     </g>
     <g id="line2d_18">
      <g>
       <use xlink:href="#mc94e494a7f" x="54" y="248.4" style="stroke: #000000; stroke-width: 0.8"/>
      </g>
     </g>
     <g id="text_10">
      <!-- 0.4 -->
      <g transform="translate(31.096875 252.199219) scale(0.1 -0.1)">
       <use xlink:href="#DejaVuSans-30"/>
       <use xlink:href="#DejaVuSans-2e" x="63.623047"/>
       <use xlink:href="#DejaVuSans-34" x="95.410156"/>
      </g>
     </g>
    </g>
    <g id="ytick_4">
     <g id="line2d_19">
      <path d="M 54 187.92 
L 388.8 187.92 
" clip-path="url(#pbe2e6252c3)" style="fill: none; stroke: #b0b0b0; stroke-width: 0.8; stroke-linecap: square"/>
     </g>
     <g id="line2d_20">
      <g>
       <use xlink:href="#mc94e494a7f" x="54" y="187.92" style="stroke: #000000; stroke-width: 0.8"/>
      </g>
     </g>
     <g id="text_11">
      <!-- 0.6 -->
      <g transform="translate(31.096875 191.719219) scale(0.1 -0.1)">
       <use xlink:href="#DejaVuSans-30"/>
       <use xlink:href="#DejaVuSans-2e" x="63.623047"/>
       <use xlink:href="#DejaVuSans-36" x="95.410156"/>
      </g>
     </g>
    </g>
    <g id="ytick_5">
     <g id="line2d_21">
      <path d="M 54 127.44 
L 388.8 127.44 
" clip-path="url(#pbe2e6252c3)" style="fill: none; stroke: #b0b0b0; stroke-width: 0.8; stroke-linecap: square"/>
     </g>
     <g id="line2d_22">
      <g>
       <use xlink:href="#mc94e494a7f" x="54" y="127.44" style="stroke: #000000; stroke-width: 0.8"/>
      </g>
     </g>
     <g id="text_12">
      <!-- 0.8 -->
      <g transform="translate(31.096875 131.239219) scale(0.1 -0.1)">
       <use xlink:href="#DejaVuSans-30"/>
       <use xlink:href="#DejaVuSans-2e" x="63.623047"/>
       <use xlink:href="#DejaVuSans-38" x="95.410156"/>
      </g>
     </g>
    </g>
    <g id="ytick_6">
     <g id="line2d_23">
      <path d="M 54 66.96 
L 388.8 66.96 
" clip-path="url(#pbe2e6252c3)" style="fill: none; stroke: #b0b0b0; stroke-width: 0.8; stroke-linecap: square"/>
     </g>
     <g id="line2d_24">
      <g>
       <use xlink:href="#mc94e494a7f" x="54" y="66.96" style="stroke: #000000; stroke-width: 0.8"/>
      </g>
     </g>
     <g id="text_13">
      <!-- 1.0 -->
      <g transform="translate(31.096875 70.759219) scale(0.1 -0.1)">
       <use xlink:href="#DejaVuSans-31"/>
       <use xlink:href="#DejaVuSans-2e" x="63.623047"/>
       <use xlink:href="#DejaVuSans-30" x="95.410156"/>
      </g>
     </g>
    </g>
    <g id="text_14">
     <!-- True Positive Rate (Positive label: 1) -->
     <g transform="translate(25.017187 307.588906) rotate(-90) scale(0.1 -0.1)">
      <defs>
       <path id="DejaVuSans-54" d="M -19 4666 
L 3928 4666 
L 3928 4134 
L 2272 4134 
L 2272 0 
L 1638 0 
L 1638 4134 
L -19 4134 
L -19 4666 
z
" transform="scale(0.015625)"/>
       <path id="DejaVuSans-72" d="M 2631 2963 
Q 2534 3019 2420 3045 
Q 2306 3072 2169 3072 
Q 1681 3072 1420 2755 
Q 1159 2438 1159 1844 
L 1159 0 
L 581 0 
L 581 3500 
L 1159 3500 
L 1159 2956 
Q 1341 3275 1631 3429 
Q 1922 3584 2338 3584 
Q 2397 3584 2469 3576 
Q 2541 3569 2628 3553 
L 2631 2963 
z
" transform="scale(0.015625)"/>
       <path id="DejaVuSans-75" d="M 544 1381 
L 544 3500 
L 1119 3500 
L 1119 1403 
Q 1119 906 1312 657 
Q 1506 409 1894 409 
Q 2359 409 2629 706 
Q 2900 1003 2900 1516 
L 2900 3500 
L 3475 3500 
L 3475 0 
L 2900 0 
L 2900 538 
Q 2691 219 2414 64 
Q 2138 -91 1772 -91 
Q 1169 -91 856 284 
Q 544 659 544 1381 
z
M 1991 3584 
L 1991 3584 
z
" transform="scale(0.015625)"/>
      </defs>
      <use xlink:href="#DejaVuSans-54"/>
      <use xlink:href="#DejaVuSans-72" x="46.333984"/>
      <use xlink:href="#DejaVuSans-75" x="87.447266"/>
      <use xlink:href="#DejaVuSans-65" x="150.826172"/>
      <use xlink:href="#DejaVuSans-20" x="212.349609"/>
      <use xlink:href="#DejaVuSans-50" x="244.136719"/>
      <use xlink:href="#DejaVuSans-6f" x="300.814453"/>
      <use xlink:href="#DejaVuSans-73" x="361.996094"/>
      <use xlink:href="#DejaVuSans-69" x="414.095703"/>
      <use xlink:href="#DejaVuSans-74" x="441.878906"/>
      <use xlink:href="#DejaVuSans-69" x="481.087891"/>
      <use xlink:href="#DejaVuSans-76" x="508.871094"/>
      <use xlink:href="#DejaVuSans-65" x="568.050781"/>
      <use xlink:href="#DejaVuSans-20" x="629.574219"/>
      <use xlink:href="#DejaVuSans-52" x="661.361328"/>
      <use xlink:href="#DejaVuSans-61" x="728.59375"/>
      <use xlink:href="#DejaVuSans-74" x="789.873047"/>
      <use xlink:href="#DejaVuSans-65" x="829.082031"/>
      <use xlink:href="#DejaVuSans-20" x="890.605469"/>
      <use xlink:href="#DejaVuSans-28" x="922.392578"/>
      <use xlink:href="#DejaVuSans-50" x="961.40625"/>
      <use xlink:href="#DejaVuSans-6f" x="1018.083984"/>
      <use xlink:href="#DejaVuSans-73" x="1079.265625"/>
      <use xlink:href="#DejaVuSans-69" x="1131.365234"/>
      <use xlink:href="#DejaVuSans-74" x="1159.148438"/>
      <use xlink:href="#DejaVuSans-69" x="1198.357422"/>
      <use xlink:href="#DejaVuSans-76" x="1226.140625"/>
      <use xlink:href="#DejaVuSans-65" x="1285.320312"/>
      <use xlink:href="#DejaVuSans-20" x="1346.84375"/>
      <use xlink:href="#DejaVuSans-6c" x="1378.630859"/>
      <use xlink:href="#DejaVuSans-61" x="1406.414062"/>
      <use xlink:href="#DejaVuSans-62" x="1467.693359"/>
      <use xlink:href="#DejaVuSans-65" x="1531.169922"/>
      <use xlink:href="#DejaVuSans-6c" x="1592.693359"/>
      <use xlink:href="#DejaVuSans-3a" x="1620.476562"/>
      <use xlink:href="#DejaVuSans-20" x="1654.167969"/>
      <use xlink:href="#DejaVuSans-31" x="1685.955078"/>
      <use xlink:href="#DejaVuSans-29" x="1749.578125"/>
     </g>
    </g>
   </g>
   <g id="line2d_25">
    <path d="M 69.218182 369.36 
L 69.218182 359.96339 
L 69.426936 359.96339 
L 69.426936 338.607458 
L 69.63569 338.607458 
L 69.63569 336.898983 
L 69.844444 336.898983 
L 69.844444 336.044746 
L 70.053199 336.044746 
L 70.053199 335.190508 
L 70.470707 335.190508 
L 70.470707 333.482034 
L 70.679461 333.482034 
L 70.679461 312.980339 
L 70.888215 312.980339 
L 70.888215 303.583729 
L 71.09697 303.583729 
L 71.09697 301.875254 
L 71.305724 301.875254 
L 71.305724 291.624407 
L 71.723232 291.624407 
L 71.723232 290.770169 
L 71.931987 290.770169 
L 71.931987 281.373559 
L 72.140741 281.373559 
L 72.140741 280.519322 
L 72.349495 280.519322 
L 72.349495 278.810847 
L 72.558249 278.810847 
L 72.558249 277.95661 
L 72.767003 277.95661 
L 72.767003 276.248136 
L 73.184512 276.248136 
L 73.184512 272.831186 
L 73.60202 272.831186 
L 73.60202 265.997288 
L 73.810774 265.997288 
L 73.810774 265.143051 
L 74.019529 265.143051 
L 74.019529 263.434576 
L 74.437037 263.434576 
L 74.437037 255.746441 
L 74.645791 255.746441 
L 74.645791 249.76678 
L 74.854545 249.76678 
L 74.854545 244.641356 
L 75.0633 244.641356 
L 75.0633 243.787119 
L 75.480808 243.787119 
L 75.480808 242.932881 
L 75.689562 242.932881 
L 75.689562 241.224407 
L 76.107071 241.224407 
L 76.107071 238.661695 
L 76.524579 238.661695 
L 76.524579 236.95322 
L 76.942088 236.95322 
L 76.942088 234.390508 
L 77.150842 234.390508 
L 77.150842 230.119322 
L 77.359596 230.119322 
L 77.359596 227.55661 
L 77.777104 227.55661 
L 77.777104 226.702373 
L 77.985859 226.702373 
L 77.985859 224.139661 
L 78.194613 224.139661 
L 78.194613 216.451525 
L 78.612121 216.451525 
L 78.612121 212.180339 
L 78.820875 212.180339 
L 78.820875 211.326102 
L 79.447138 211.326102 
L 79.447138 206.200678 
L 79.655892 206.200678 
L 79.655892 203.637966 
L 79.864646 203.637966 
L 79.864646 202.783729 
L 80.073401 202.783729 
L 80.073401 201.929492 
L 80.282155 201.929492 
L 80.282155 201.075254 
L 80.699663 201.075254 
L 80.699663 199.36678 
L 80.908418 199.36678 
L 80.908418 195.095593 
L 81.117172 195.095593 
L 81.117172 189.115932 
L 81.53468 189.115932 
L 81.53468 186.55322 
L 81.743434 186.55322 
L 81.743434 184.844746 
L 81.952189 184.844746 
L 81.952189 183.990508 
L 82.369697 183.990508 
L 82.369697 182.282034 
L 82.578451 182.282034 
L 82.578451 178.010847 
L 82.787205 178.010847 
L 82.787205 176.302373 
L 82.99596 176.302373 
L 82.99596 174.593898 
L 83.204714 174.593898 
L 83.204714 173.739661 
L 83.622222 173.739661 
L 83.622222 172.031186 
L 83.830976 172.031186 
L 83.830976 171.176949 
L 84.039731 171.176949 
L 84.039731 166.905763 
L 84.248485 166.905763 
L 84.248485 166.051525 
L 85.292256 166.051525 
L 85.292256 165.197288 
L 86.127273 165.197288 
L 86.127273 163.488814 
L 88.214815 163.488814 
L 88.214815 160.926102 
L 88.423569 160.926102 
L 88.423569 160.071864 
L 88.632323 160.071864 
L 88.632323 159.217627 
L 89.46734 159.217627 
L 89.46734 158.36339 
L 89.676094 158.36339 
L 89.676094 156.654915 
L 89.884848 156.654915 
L 89.884848 154.946441 
L 90.093603 154.946441 
L 90.093603 152.383729 
L 90.719865 152.383729 
L 90.719865 151.529492 
L 90.92862 151.529492 
L 90.92862 150.675254 
L 91.346128 150.675254 
L 91.346128 148.96678 
L 91.763636 148.96678 
L 91.763636 148.112542 
L 93.016162 148.112542 
L 93.016162 147.258305 
L 93.642424 147.258305 
L 93.642424 145.549831 
L 94.268687 145.549831 
L 94.268687 144.695593 
L 94.477441 144.695593 
L 94.477441 143.841356 
L 95.103704 143.841356 
L 95.103704 142.987119 
L 95.521212 142.987119 
L 95.521212 142.132881 
L 96.147475 142.132881 
L 96.147475 141.278644 
L 96.564983 141.278644 
L 96.564983 140.424407 
L 97.191246 140.424407 
L 97.191246 139.570169 
L 97.4 139.570169 
L 97.4 138.715932 
L 98.861279 138.715932 
L 98.861279 137.861695 
L 99.070034 137.861695 
L 99.070034 134.444746 
L 100.113805 134.444746 
L 100.113805 132.736271 
L 100.531313 132.736271 
L 100.531313 131.882034 
L 100.948822 131.882034 
L 100.948822 130.173559 
L 101.783838 130.173559 
L 101.783838 129.319322 
L 101.992593 128.465085 
L 102.201347 128.465085 
L 102.201347 127.610847 
L 102.618855 127.610847 
L 102.618855 124.193898 
L 104.288889 124.193898 
L 104.288889 122.485424 
L 104.915152 122.485424 
L 104.915152 121.631186 
L 105.123906 121.631186 
L 105.123906 120.776949 
L 106.167677 120.776949 
L 106.167677 119.068475 
L 107.002694 119.068475 
L 107.002694 118.214237 
L 107.211448 118.214237 
L 107.211448 117.36 
L 108.046465 117.36 
L 108.046465 116.505763 
L 109.716498 116.505763 
L 109.716498 115.651525 
L 114.309091 115.651525 
L 114.309091 113.943051 
L 114.517845 113.943051 
L 114.517845 112.234576 
L 114.935354 112.234576 
L 114.935354 111.380339 
L 115.979125 111.380339 
L 115.979125 110.526102 
L 116.605387 110.526102 
L 116.605387 109.671864 
L 118.066667 109.671864 
L 118.066667 108.817627 
L 119.110438 108.817627 
L 119.110438 107.96339 
L 119.319192 107.96339 
L 119.319192 107.109153 
L 119.7367 107.109153 
L 119.7367 106.254915 
L 120.154209 106.254915 
L 120.154209 105.400678 
L 120.571717 105.400678 
L 120.571717 104.546441 
L 120.780471 104.546441 
L 120.780471 103.692203 
L 121.19798 103.692203 
L 121.19798 102.837966 
L 122.032997 102.837966 
L 122.032997 101.983729 
L 123.076768 101.983729 
L 123.076768 101.129492 
L 124.538047 101.129492 
L 124.538047 100.275254 
L 125.581818 100.275254 
L 125.581818 99.421017 
L 128.713131 99.421017 
L 128.713131 98.56678 
L 131.426936 98.56678 
L 131.426936 96.858305 
L 132.888215 96.858305 
L 132.888215 96.004068 
L 133.931987 96.004068 
L 133.931987 95.149831 
L 134.975758 95.149831 
L 134.975758 94.295593 
L 136.228283 94.295593 
L 136.228283 93.441356 
L 138.524579 93.441356 
L 138.524579 92.587119 
L 138.733333 92.587119 
L 138.733333 90.878644 
L 150.423569 90.878644 
L 150.423569 90.024407 
L 151.676094 90.024407 
L 151.676094 89.170169 
L 159.191246 89.170169 
L 159.191246 88.315932 
L 160.235017 88.315932 
L 160.235017 87.461695 
L 163.157576 87.461695 
L 163.157576 86.607458 
L 164.827609 86.607458 
L 164.827609 85.75322 
L 166.288889 85.75322 
L 166.288889 84.898983 
L 166.497643 84.898983 
L 166.497643 84.044746 
L 167.541414 84.044746 
L 167.541414 83.190508 
L 168.793939 83.190508 
L 168.793939 82.336271 
L 169.628956 82.336271 
L 169.628956 81.482034 
L 173.177778 81.482034 
L 173.177778 80.627797 
L 173.386532 80.627797 
L 173.386532 79.773559 
L 176.100337 79.773559 
L 176.100337 78.919322 
L 177.144108 78.919322 
L 177.144108 78.065085 
L 181.527946 78.065085 
L 181.527946 77.210847 
L 188.208081 77.210847 
L 188.208081 76.35661 
L 195.723232 76.35661 
L 195.723232 74.648136 
L 199.480808 74.648136 
L 199.480808 73.793898 
L 204.490909 73.793898 
L 204.490909 72.939661 
L 207.622222 72.939661 
L 207.622222 72.085424 
L 208.874747 72.085424 
L 208.874747 71.231186 
L 213.676094 71.231186 
L 213.676094 70.376949 
L 214.093603 70.376949 
L 214.093603 69.522712 
L 216.181145 69.522712 
L 216.181145 68.668475 
L 232.881481 68.668475 
L 232.881481 67.814237 
L 247.076768 67.814237 
L 247.076768 66.96 
L 373.581818 66.96 
L 373.581818 66.96 
" clip-path="url(#pbe2e6252c3)" style="fill: none; stroke: #1f77b4; stroke-opacity: 0.75; stroke-width: 2; stroke-linecap: square"/>
   </g>
   <g id="line2d_26">
    <path d="M 69.218182 369.36 
L 69.218182 219.510709 
L 69.638574 219.510709 
L 69.638574 218.557267 
L 70.479357 218.557267 
L 70.479357 189.954009 
L 70.899749 189.954009 
L 70.899749 184.074451 
L 71.320141 184.074451 
L 71.320141 178.035985 
L 71.740532 178.035985 
L 71.740532 176.764729 
L 72.160924 176.764729 
L 72.160924 174.381125 
L 72.581316 174.381125 
L 72.581316 171.202985 
L 73.001708 171.202985 
L 73.001708 168.660473 
L 73.422099 168.660473 
L 73.422099 168.024845 
L 73.842491 168.024845 
L 73.842491 167.865938 
L 74.262883 167.865938 
L 74.262883 157.536984 
L 74.683275 157.536984 
L 74.683275 152.45196 
L 75.94445 152.45196 
L 75.94445 151.975239 
L 76.364842 151.975239 
L 76.364842 148.161471 
L 76.785234 148.161471 
L 76.785234 145.777867 
L 77.205625 145.777867 
L 77.205625 145.142239 
L 78.046409 145.142239 
L 78.046409 144.347704 
L 78.466801 144.347704 
L 78.466801 143.870983 
L 78.887192 143.870983 
L 78.887192 141.010657 
L 79.307584 141.010657 
L 79.307584 140.692843 
L 79.727976 140.692843 
L 79.727976 140.533936 
L 80.148368 140.533936 
L 80.148368 140.057215 
L 80.568759 140.057215 
L 80.568759 139.421587 
L 80.989151 139.421587 
L 80.989151 137.832517 
L 81.409543 137.832517 
L 81.409543 137.196889 
L 81.829935 137.196889 
L 81.829935 136.402354 
L 83.931894 136.402354 
L 83.931894 135.925633 
L 84.352285 135.925633 
L 84.352285 134.813284 
L 85.193069 134.813284 
L 85.193069 133.700935 
L 85.613461 133.700935 
L 85.613461 133.065307 
L 86.033852 133.065307 
L 86.033852 132.270772 
L 86.874636 132.270772 
L 86.874636 131.635145 
L 87.295028 131.635145 
L 87.295028 131.476238 
L 87.715419 131.317331 
L 87.715419 130.999517 
L 88.135811 130.999517 
L 88.135811 130.046075 
L 88.556203 130.046075 
L 88.556203 129.25154 
L 88.976595 129.25154 
L 88.976595 127.503563 
L 89.396986 127.503563 
L 89.396986 127.026842 
L 89.817378 127.026842 
L 89.817378 125.119958 
L 90.23777 125.119958 
L 90.23777 124.961051 
L 90.658162 124.961051 
L 90.658162 124.643237 
L 91.078553 124.643237 
L 91.078553 124.325423 
L 91.498945 124.325423 
L 91.498945 121.941818 
L 91.919337 121.941818 
L 91.919337 120.988376 
L 92.339729 120.988376 
L 92.339729 118.286957 
L 93.180512 118.286957 
L 93.180512 115.108818 
L 93.600904 115.108818 
L 93.600904 114.791004 
L 94.021296 114.791004 
L 94.021296 114.632097 
L 94.441688 114.632097 
L 94.441688 114.314283 
L 94.862079 114.314283 
L 94.862079 113.996469 
L 95.282471 113.996469 
L 95.282471 113.837562 
L 95.702863 113.837562 
L 95.702863 113.360841 
L 96.123255 113.360841 
L 96.123255 113.043027 
L 96.964038 113.043027 
L 96.964038 112.88412 
L 97.38443 112.88412 
L 97.38443 112.407399 
L 97.804822 112.407399 
L 97.804822 112.248492 
L 98.225213 112.248492 
L 98.225213 111.453957 
L 98.645605 111.453957 
L 98.645605 111.29505 
L 99.065997 111.29505 
L 99.065997 110.818329 
L 99.486389 110.818329 
L 99.486389 110.341608 
L 99.906781 110.341608 
L 99.906781 110.182701 
L 100.327172 110.182701 
L 100.327172 109.547073 
L 101.588348 109.547073 
L 101.588348 109.229259 
L 102.008739 109.229259 
L 102.008739 109.070352 
L 102.429131 109.070352 
L 102.429131 108.911445 
L 102.849523 108.911445 
L 102.849523 108.593631 
L 103.269915 108.593631 
L 103.269915 108.275817 
L 103.690306 108.275817 
L 103.690306 107.958003 
L 104.110698 107.958003 
L 104.110698 107.799096 
L 104.951482 107.799096 
L 104.951482 107.322375 
L 105.792265 107.322375 
L 105.792265 107.004561 
L 106.212657 107.004561 
L 106.212657 106.845654 
L 106.633049 106.845654 
L 106.633049 106.210026 
L 107.05344 106.210026 
L 107.05344 104.779863 
L 107.894224 104.779863 
L 107.894224 104.620956 
L 108.314616 104.620956 
L 108.314616 104.462049 
L 108.735008 104.462049 
L 108.735008 103.985328 
L 109.575791 103.985328 
L 109.575791 103.826421 
L 109.996183 103.826421 
L 109.996183 103.508607 
L 110.416575 103.508607 
L 110.416575 102.714073 
L 110.836966 102.714073 
L 110.836966 102.555166 
L 111.257358 102.555166 
L 111.257358 102.396259 
L 111.67775 102.396259 
L 111.67775 102.237352 
L 112.518533 102.237352 
L 112.518533 101.919538 
L 114.620492 101.919538 
L 114.620492 101.760631 
L 115.040884 101.760631 
L 115.040884 101.28391 
L 115.461276 101.28391 
L 115.461276 101.125003 
L 115.881668 101.125003 
L 115.881668 100.966096 
L 116.302059 100.966096 
L 116.302059 100.648282 
L 116.722451 100.648282 
L 116.722451 100.171561 
L 117.142843 100.171561 
L 117.142843 100.012654 
L 117.983626 100.012654 
L 117.983626 99.69484 
L 118.404018 99.69484 
L 118.404018 98.900305 
L 119.665193 98.900305 
L 119.665193 98.741398 
L 120.085585 98.741398 
L 120.085585 98.582491 
L 123.028327 98.582491 
L 123.028327 98.423584 
L 123.869111 98.423584 
L 123.869111 97.787956 
L 124.289503 97.787956 
L 124.289503 96.993421 
L 124.709895 96.993421 
L 124.709895 96.357793 
L 126.391462 96.357793 
L 126.391462 96.198886 
L 128.073029 96.198886 
L 128.073029 95.722165 
L 129.754596 95.722165 
L 129.754596 95.563258 
L 130.174987 95.563258 
L 130.174987 95.404351 
L 130.595379 95.404351 
L 130.595379 95.086537 
L 131.015771 95.086537 
L 131.015771 94.292002 
L 131.436163 94.292002 
L 131.436163 93.974188 
L 133.958513 93.974188 
L 133.958513 93.815281 
L 134.378905 93.815281 
L 134.378905 93.656374 
L 135.64008 93.656374 
L 135.64008 93.179653 
L 136.480864 93.179653 
L 136.480864 93.020746 
L 137.321647 93.020746 
L 137.321647 92.861839 
L 138.162431 92.861839 
L 138.162431 92.702932 
L 139.423606 92.702932 
L 139.423606 92.544025 
L 139.843998 92.544025 
L 139.843998 92.067304 
L 141.525565 92.067304 
L 141.525565 91.908397 
L 142.78674 91.908397 
L 142.78674 91.74949 
L 143.627524 91.74949 
L 143.627524 91.431676 
L 144.047916 91.431676 
L 144.047916 91.272769 
L 144.468307 91.272769 
L 144.468307 90.954955 
L 144.888699 90.954955 
L 144.888699 90.637141 
L 146.570266 90.637141 
L 146.570266 90.001513 
L 146.990658 90.001513 
L 146.990658 89.524792 
L 149.9334 89.524792 
L 149.9334 89.365885 
L 150.353792 89.365885 
L 150.353792 89.048071 
L 150.774184 89.048071 
L 150.774184 88.889164 
L 151.194576 88.889164 
L 151.194576 88.730257 
L 152.035359 88.730257 
L 152.035359 88.412444 
L 153.296534 88.412444 
L 153.296534 88.253537 
L 153.716926 88.253537 
L 153.716926 88.09463 
L 154.137318 88.09463 
L 154.137318 87.617909 
L 154.55771 87.617909 
L 154.55771 87.459002 
L 154.978101 87.459002 
L 154.978101 87.300095 
L 155.398493 87.300095 
L 155.398493 87.141188 
L 157.08006 87.141188 
L 157.08006 86.982281 
L 157.500452 86.982281 
L 157.500452 86.823374 
L 157.920844 86.823374 
L 157.920844 86.664467 
L 158.761627 86.664467 
L 158.761627 86.50556 
L 160.022803 86.50556 
L 160.022803 86.028839 
L 160.863586 86.028839 
L 160.863586 85.552118 
L 161.283978 85.552118 
L 161.283978 85.393211 
L 162.965545 85.393211 
L 162.965545 85.075397 
L 163.385937 85.075397 
L 163.385937 84.91649 
L 163.806328 84.91649 
L 163.806328 84.439769 
L 164.647112 84.439769 
L 164.647112 84.280862 
L 165.487896 84.280862 
L 165.487896 83.963048 
L 167.169463 83.963048 
L 167.169463 83.804141 
L 168.85103 83.804141 
L 168.85103 83.645234 
L 169.271421 83.645234 
L 169.271421 83.486327 
L 170.112205 83.486327 
L 170.112205 83.32742 
L 172.214164 83.32742 
L 172.214164 82.215071 
L 173.054947 82.215071 
L 173.054947 81.897257 
L 173.475339 81.897257 
L 173.475339 81.73835 
L 173.895731 81.73835 
L 173.895731 81.420536 
L 174.316123 81.420536 
L 174.316123 81.261629 
L 175.577298 81.261629 
L 175.577298 80.784908 
L 175.99769 80.784908 
L 175.99769 80.626001 
L 176.838473 80.626001 
L 176.838473 80.467094 
L 178.52004 80.467094 
L 178.52004 80.308187 
L 180.201607 80.308187 
L 180.201607 80.14928 
L 180.621999 80.14928 
L 180.621999 79.990373 
L 182.723958 79.990373 
L 182.723958 79.831466 
L 183.14435 79.831466 
L 183.14435 79.513652 
L 183.564741 79.513652 
L 183.564741 79.195838 
L 184.825917 79.195838 
L 184.825917 78.878024 
L 186.087092 78.878024 
L 186.087092 78.719117 
L 187.768659 78.719117 
L 187.768659 78.242396 
L 188.609442 78.242396 
L 188.609442 77.924582 
L 189.029834 77.924582 
L 189.029834 77.765675 
L 190.711401 77.765675 
L 190.711401 77.606768 
L 191.131793 77.606768 
L 191.131793 77.447861 
L 193.654144 77.447861 
L 193.654144 77.288954 
L 195.335711 77.288954 
L 195.335711 77.130047 
L 195.756102 77.130047 
L 195.756102 76.97114 
L 196.176494 76.97114 
L 196.176494 76.494419 
L 197.858061 76.494419 
L 197.858061 76.335512 
L 198.698845 76.335512 
L 198.698845 76.176605 
L 200.380412 76.176605 
L 200.380412 75.858791 
L 200.800804 75.858791 
L 200.800804 75.699884 
L 202.061979 75.699884 
L 202.061979 75.38207 
L 205.004721 75.38207 
L 205.004721 75.223163 
L 205.425113 75.223163 
L 205.425113 74.587535 
L 206.686288 74.587535 
L 206.686288 74.428628 
L 207.527072 74.428628 
L 207.527072 74.269721 
L 208.788247 74.269721 
L 208.788247 73.951908 
L 209.629031 73.951908 
L 209.629031 73.793001 
L 210.469814 73.793001 
L 210.469814 73.31628 
L 212.571773 73.31628 
L 212.571773 73.157373 
L 214.25334 73.157373 
L 214.25334 72.998466 
L 214.673732 72.998466 
L 214.673732 72.839559 
L 216.775691 72.839559 
L 216.775691 72.680652 
L 217.196082 72.680652 
L 217.196082 72.521745 
L 218.036866 72.521745 
L 218.036866 72.362838 
L 218.457258 72.362838 
L 218.457258 72.203931 
L 220.138825 72.203931 
L 220.138825 72.045024 
L 220.979608 72.045024 
L 220.979608 71.886117 
L 223.501959 71.886117 
L 223.501959 71.72721 
L 223.922351 71.72721 
L 223.922351 71.409396 
L 224.342742 71.409396 
L 224.342742 71.250489 
L 231.069011 71.250489 
L 231.069011 71.091582 
L 238.636062 71.091582 
L 238.636062 70.932675 
L 239.056454 70.932675 
L 239.056454 70.614861 
L 242.83998 70.614861 
L 242.83998 70.455954 
L 245.36233 70.455954 
L 245.36233 70.297047 
L 246.623506 70.297047 
L 246.623506 70.13814 
L 248.305073 70.13814 
L 248.305073 69.979233 
L 251.247815 69.979233 
L 251.247815 69.820326 
L 252.929382 69.820326 
L 252.929382 69.661419 
L 253.770166 69.661419 
L 253.770166 69.502512 
L 255.451733 69.502512 
L 255.451733 69.343605 
L 257.974083 69.343605 
L 257.974083 69.184698 
L 260.076042 69.184698 
L 260.076042 68.866884 
L 265.120743 68.866884 
L 265.120743 68.707977 
L 270.585836 68.707977 
L 270.585836 68.390163 
L 274.789754 68.390163 
L 274.789754 68.231256 
L 279.414063 68.231256 
L 279.414063 68.072349 
L 282.777197 68.072349 
L 282.777197 67.913442 
L 289.083074 67.913442 
L 289.083074 67.754535 
L 292.446208 67.754535 
L 292.446208 67.595628 
L 300.854043 67.595628 
L 300.854043 67.436721 
L 302.956002 67.436721 
L 302.956002 67.277814 
L 304.217177 67.277814 
L 304.217177 67.118907 
L 318.090105 67.118907 
L 318.090105 66.96 
L 373.581818 66.96 
L 373.581818 66.96 
" clip-path="url(#pbe2e6252c3)" style="fill: none; stroke: #ff7f0e; stroke-opacity: 0.75; stroke-width: 2; stroke-linecap: square"/>
   </g>
   <g id="line2d_27">
    <path d="M 69.218182 369.36 
L 69.298088 338.892203 
L 69.377995 338.892203 
L 69.457901 328.071864 
L 69.537808 328.071864 
L 69.617714 304.722712 
L 69.69762 304.722712 
L 69.777527 299.597288 
L 69.857433 299.597288 
L 69.93734 295.326102 
L 70.336872 295.326102 
L 70.336872 291.624407 
L 70.736404 291.624407 
L 70.816311 286.498983 
L 70.896217 286.498983 
L 70.976124 282.227797 
L 71.05603 282.227797 
L 71.135936 270.268475 
L 71.535469 270.268475 
L 71.535469 269.983729 
L 71.615375 269.983729 
L 72.17472 269.983729 
L 72.254627 268.844746 
L 72.654159 268.844746 
L 72.654159 267.705763 
L 72.813972 267.705763 
L 72.893878 265.712542 
L 73.213504 265.712542 
L 73.213504 264.288814 
L 73.373317 264.288814 
L 73.373317 263.149831 
L 74.092475 263.149831 
L 74.172381 260.587119 
L 74.252288 260.587119 
L 74.252288 257.739661 
L 74.571913 257.739661 
L 74.65182 257.170169 
L 74.811633 257.170169 
L 74.891539 253.468475 
L 75.291071 253.468475 
L 75.291071 252.329492 
L 75.610697 252.329492 
L 75.610697 249.482034 
L 76.969107 249.482034 
L 76.969107 247.773559 
L 77.12892 247.773559 
L 77.208826 243.787119 
L 77.288732 243.787119 
L 77.368639 237.522712 
L 77.688265 237.522712 
L 77.688265 236.383729 
L 78.327516 236.383729 
L 78.327516 232.397288 
L 78.647142 232.397288 
L 78.727048 228.126102 
L 79.046674 228.126102 
L 79.126581 222.431186 
L 79.845739 222.431186 
L 79.845739 218.16 
L 80.165364 218.16 
L 80.165364 217.590508 
L 80.325177 217.590508 
L 80.325177 215.882034 
L 80.644803 215.882034 
L 80.644803 214.743051 
L 81.204148 214.743051 
L 81.204148 214.458305 
L 81.60368 214.458305 
L 81.60368 213.604068 
L 81.683587 213.604068 
L 81.923306 213.604068 
L 81.923306 212.180339 
L 82.642464 212.180339 
L 82.72237 204.207458 
L 83.121903 204.207458 
L 83.201809 201.075254 
L 83.841061 201.075254 
L 83.920967 199.36678 
L 84.08078 199.36678 
L 84.160686 197.373559 
L 84.480312 197.373559 
L 84.480312 196.234576 
L 84.799938 196.234576 
L 84.799938 194.810847 
L 84.879844 194.810847 
L 85.279377 194.810847 
L 85.359283 193.102373 
L 85.838722 193.102373 
L 85.918628 189.685424 
L 86.238254 189.685424 
L 86.238254 187.976949 
L 86.31816 187.976949 
L 86.55788 187.976949 
L 86.637786 186.55322 
L 87.037318 186.55322 
L 87.117225 182.56678 
L 87.197131 182.56678 
L 87.197131 181.143051 
L 87.436851 181.143051 
L 87.436851 178.865085 
L 87.516757 178.865085 
L 88.235915 178.865085 
L 88.235915 176.871864 
L 88.555541 176.871864 
L 88.555541 174.593898 
L 88.955073 174.593898 
L 89.034979 174.024407 
L 89.114886 174.024407 
L 89.194792 172.885424 
L 89.274699 172.885424 
L 89.274699 170.037966 
L 90.073763 170.037966 
L 90.073763 167.475254 
L 90.473295 167.475254 
L 90.473295 166.621017 
L 90.553202 166.621017 
L 91.192453 166.621017 
L 91.192453 165.482034 
L 91.512079 165.482034 
L 91.512079 163.488814 
L 92.071424 163.488814 
L 92.071424 163.204068 
L 92.39105 163.204068 
L 92.39105 161.780339 
L 92.470956 161.780339 
L 93.589647 161.780339 
L 93.589647 161.495593 
L 93.909272 161.495593 
L 93.909272 161.210847 
L 94.228898 161.210847 
L 94.308805 157.793898 
L 94.388711 157.793898 
L 94.388711 154.946441 
L 94.468617 154.946441 
L 94.708337 154.946441 
L 94.788243 154.376949 
L 95.107869 154.376949 
L 95.187775 153.807458 
L 95.267682 153.807458 
L 95.347588 152.95322 
L 96.066746 152.95322 
L 96.066746 152.098983 
L 96.945717 152.098983 
L 97.025624 150.675254 
L 97.584969 150.675254 
L 97.664875 148.682034 
L 97.744781 148.682034 
L 97.744781 147.543051 
L 98.064407 147.543051 
L 98.064407 147.258305 
L 98.463939 147.258305 
L 98.463939 145.834576 
L 98.703659 145.834576 
L 98.783565 143.55661 
L 99.103191 143.55661 
L 99.103191 143.271864 
L 99.662536 143.271864 
L 99.662536 142.987119 
L 100.141975 142.987119 
L 100.221881 138.146441 
L 100.541507 138.146441 
L 100.541507 137.292203 
L 100.861133 137.292203 
L 100.861133 134.729492 
L 101.340571 134.729492 
L 101.420478 133.305763 
L 101.500384 133.305763 
L 101.580291 131.882034 
L 102.299449 131.882034 
L 102.299449 131.597288 
L 102.379355 131.597288 
L 102.619074 131.597288 
L 102.619074 131.312542 
L 102.9387 131.312542 
L 102.9387 130.173559 
L 103.977484 130.173559 
L 103.977484 129.034576 
L 105.975145 129.034576 
L 105.975145 128.749831 
L 108.372338 128.749831 
L 108.372338 128.465085 
L 109.01159 128.465085 
L 109.01159 128.180339 
L 109.890561 128.180339 
L 109.970467 126.471864 
L 111.089157 126.471864 
L 111.089157 126.187119 
L 113.805976 126.187119 
L 113.805976 125.902373 
L 113.885883 125.902373 
L 114.924666 125.902373 
L 114.924666 125.617627 
L 115.244292 125.617627 
L 115.244292 125.332881 
L 115.643824 125.332881 
L 115.723731 123.624407 
L 116.362982 123.624407 
L 116.362982 122.485424 
L 116.762515 122.485424 
L 116.762515 122.200678 
L 116.842421 122.200678 
L 117.08214 122.200678 
L 117.08214 119.637966 
L 119.159708 119.637966 
L 119.159708 118.498983 
L 119.239614 118.498983 
L 119.55924 118.498983 
L 119.55924 117.36 
L 120.198492 117.36 
L 120.198492 117.075254 
L 120.278398 117.075254 
L 121.556901 117.075254 
L 121.556901 116.790508 
L 122.355966 116.790508 
L 122.355966 115.651525 
L 123.874188 115.651525 
L 123.954094 114.227797 
L 125.871849 114.227797 
L 125.871849 112.519322 
L 126.511101 112.519322 
L 126.591007 111.949831 
L 127.629791 111.949831 
L 127.629791 111.665085 
L 127.709697 111.665085 
L 128.9882 111.665085 
L 128.9882 111.380339 
L 131.4653 111.380339 
L 131.4653 111.095593 
L 131.944739 111.095593 
L 131.944739 110.810847 
L 132.024645 110.810847 
L 133.782587 110.810847 
L 133.782587 110.526102 
L 133.862493 110.526102 
L 134.501745 110.526102 
L 134.501745 109.95661 
L 135.460622 109.95661 
L 135.460622 108.248136 
L 136.419499 108.248136 
L 136.419499 107.96339 
L 137.857815 107.96339 
L 137.857815 107.678644 
L 137.937722 107.678644 
L 138.497067 107.678644 
L 138.497067 107.393898 
L 138.576973 107.393898 
L 138.896599 107.393898 
L 138.896599 106.254915 
L 139.296131 106.254915 
L 139.296131 105.970169 
L 140.814354 105.970169 
L 140.814354 105.685424 
L 140.89426 105.685424 
L 141.453605 105.685424 
L 141.453605 104.546441 
L 141.933044 104.546441 
L 141.933044 103.122712 
L 142.412482 103.122712 
L 142.412482 101.983729 
L 142.492389 101.983729 
L 142.812015 101.983729 
L 142.812015 101.698983 
L 142.891921 101.698983 
L 143.291453 101.698983 
L 143.291453 100.56 
L 143.531173 100.56 
L 143.531173 99.421017 
L 144.49005 99.421017 
L 144.49005 99.136271 
L 144.569956 99.136271 
L 145.928366 99.136271 
L 145.928366 95.719322 
L 146.72743 95.719322 
L 146.72743 94.295593 
L 147.606401 94.295593 
L 147.606401 94.010847 
L 147.686308 94.010847 
L 147.926027 94.010847 
L 147.926027 92.871864 
L 149.20453 92.871864 
L 149.20453 92.587119 
L 151.042378 92.587119 
L 151.042378 92.302373 
L 151.601723 92.302373 
L 151.601723 92.017627 
L 152.001255 92.017627 
L 152.001255 91.732881 
L 152.5606 91.732881 
L 152.5606 91.448136 
L 153.040039 91.448136 
L 153.040039 90.309153 
L 155.357326 90.309153 
L 155.357326 90.024407 
L 157.754519 90.024407 
L 157.754519 88.885424 
L 158.473677 88.885424 
L 158.553584 87.461695 
L 161.590028 87.461695 
L 161.590028 86.037966 
L 161.669935 86.037966 
L 161.989561 86.037966 
L 161.989561 85.75322 
L 163.667596 85.75322 
L 163.667596 85.468475 
L 163.747502 85.468475 
L 164.46666 85.468475 
L 164.46666 85.183729 
L 164.626473 85.183729 
L 164.626473 84.044746 
L 164.70638 84.044746 
L 165.265725 84.044746 
L 165.265725 83.76 
L 166.624134 83.76 
L 166.624134 82.621017 
L 166.704041 82.621017 
L 167.423199 82.621017 
L 167.423199 81.197288 
L 168.701702 81.197288 
L 168.701702 78.919322 
L 168.781608 78.919322 
L 169.101234 78.919322 
L 169.101234 78.634576 
L 169.18114 78.634576 
L 170.379737 78.634576 
L 170.379737 78.349831 
L 170.459643 78.349831 
L 170.779269 78.349831 
L 170.779269 78.065085 
L 170.859176 78.065085 
L 171.418521 78.065085 
L 171.418521 77.495593 
L 173.336275 77.495593 
L 173.336275 77.210847 
L 174.694685 77.210847 
L 174.694685 76.071864 
L 175.174123 76.071864 
L 175.174123 74.932881 
L 176.852159 74.932881 
L 176.852159 74.648136 
L 178.84982 74.648136 
L 178.929726 73.224407 
L 181.007294 73.224407 
L 181.007294 72.939661 
L 181.646545 72.939661 
L 181.646545 71.800678 
L 182.125984 71.800678 
L 182.125984 71.515932 
L 182.20589 71.515932 
L 203.381097 71.515932 
L 203.381097 71.231186 
L 203.461004 71.231186 
L 212.650245 71.231186 
L 212.650245 70.092203 
L 213.049777 70.092203 
L 213.049777 68.95322 
L 213.129683 68.95322 
L 221.679673 68.95322 
L 221.679673 68.668475 
L 224.076866 68.668475 
L 224.076866 67.529492 
L 230.629194 67.529492 
L 230.629194 67.244746 
L 234.145077 67.244746 
L 234.145077 66.96 
L 373.581818 66.96 
L 373.581818 66.96 
" clip-path="url(#pbe2e6252c3)" style="fill: none; stroke: #2ca02c; stroke-opacity: 0.75; stroke-width: 2; stroke-linecap: square"/>
   </g>
   <g id="line2d_28">
    <path d="M 69.218182 369.36 
L 69.218182 298.207059 
L 69.524383 298.207059 
L 69.524383 287.534118 
L 70.136784 287.534118 
L 70.136784 275.082353 
L 70.442985 275.082353 
L 70.442985 271.524706 
L 71.055387 271.524706 
L 71.055387 269.745882 
L 71.667789 269.745882 
L 71.667789 262.630588 
L 72.28019 262.630588 
L 72.28019 260.851765 
L 72.586391 260.851765 
L 72.586391 235.948235 
L 72.892592 235.948235 
L 72.892592 234.169412 
L 73.198793 234.169412 
L 73.198793 198.592941 
L 73.504994 198.592941 
L 73.504994 193.256471 
L 73.811194 193.256471 
L 73.811194 182.583529 
L 74.117395 182.583529 
L 74.117395 177.247059 
L 74.423596 177.247059 
L 74.423596 171.910588 
L 74.729797 171.910588 
L 74.729797 168.352941 
L 75.035998 168.352941 
L 75.035998 159.458824 
L 75.9546 159.458824 
L 75.9546 155.901176 
L 76.873203 155.901176 
L 76.873203 154.122353 
L 77.485605 154.122353 
L 77.485605 145.228235 
L 77.791805 145.228235 
L 77.791805 143.449412 
L 78.098006 143.449412 
L 78.098006 141.670588 
L 78.710408 141.670588 
L 78.710408 138.112941 
L 79.62901 138.112941 
L 79.62901 136.334118 
L 81.772416 136.334118 
L 81.772416 132.776471 
L 82.078617 132.776471 
L 82.078617 129.218824 
L 82.691019 129.218824 
L 82.691019 125.661176 
L 85.753027 125.661176 
L 85.753027 123.882353 
L 86.059228 123.882353 
L 86.059228 122.103529 
L 88.202634 122.103529 
L 88.202634 118.545882 
L 89.733638 118.545882 
L 89.733638 114.988235 
L 90.039839 114.988235 
L 90.039839 113.209412 
L 90.652241 113.209412 
L 90.652241 111.430588 
L 90.958442 111.430588 
L 90.958442 109.651765 
L 91.570843 109.651765 
L 91.570843 107.872941 
L 92.183245 107.872941 
L 92.183245 102.536471 
L 93.101847 102.536471 
L 93.101847 100.757647 
L 93.714249 100.757647 
L 93.714249 95.421176 
L 94.632852 95.421176 
L 94.632852 93.642353 
L 98.307262 93.642353 
L 98.307262 91.863529 
L 98.613463 91.863529 
L 98.613463 90.084706 
L 99.532065 90.084706 
L 99.532065 88.305882 
L 101.36927 88.305882 
L 101.36927 86.527059 
L 101.675471 86.527059 
L 101.675471 84.748235 
L 103.512676 84.748235 
L 103.512676 82.969412 
L 103.818877 82.969412 
L 103.818877 81.190588 
L 104.431279 81.190588 
L 104.431279 79.411765 
L 107.493287 79.411765 
L 107.493287 77.632941 
L 108.105689 77.632941 
L 108.105689 75.854118 
L 125.865337 75.854118 
L 125.865337 74.075294 
L 133.214158 74.075294 
L 133.214158 72.296471 
L 134.13276 72.296471 
L 134.13276 70.517647 
L 144.84979 70.517647 
L 144.84979 68.738824 
L 180.981489 68.738824 
L 180.981489 66.96 
L 373.581818 66.96 
L 373.581818 66.96 
" clip-path="url(#pbe2e6252c3)" style="fill: none; stroke: #d62728; stroke-opacity: 0.75; stroke-width: 2; stroke-linecap: square"/>
   </g>
   <g id="line2d_29">
    <path d="M 69.218182 369.36 
L 69.218182 161.585166 
L 69.784967 161.585166 
L 69.784967 158.831523 
L 70.351752 158.831523 
L 70.351752 148.317616 
L 70.918537 148.317616 
L 70.918537 131.295099 
L 71.485322 131.295099 
L 71.485322 124.78649 
L 72.052108 124.78649 
L 72.052108 121.782517 
L 72.618893 121.782517 
L 72.618893 117.777219 
L 73.185678 117.777219 
L 73.185678 110.016954 
L 73.752463 110.016954 
L 73.752463 108.264636 
L 74.319248 108.264636 
L 74.319248 104.009007 
L 74.886034 104.009007 
L 74.886034 103.007682 
L 75.452819 103.007682 
L 75.452819 102.757351 
L 76.019604 102.757351 
L 76.019604 102.50702 
L 76.586389 102.50702 
L 76.586389 102.256689 
L 77.153174 102.256689 
L 77.153174 101.756026 
L 77.719959 101.756026 
L 77.719959 101.505695 
L 78.286745 101.505695 
L 78.286745 101.255364 
L 79.420315 101.255364 
L 79.420315 99.252715 
L 80.553885 99.252715 
L 80.553885 98.251391 
L 81.12067 98.251391 
L 81.12067 96.999735 
L 82.254241 96.999735 
L 82.254241 96.749404 
L 82.821026 96.749404 
L 82.821026 95.247417 
L 83.387811 95.247417 
L 83.387811 94.746755 
L 83.954596 94.746755 
L 83.954596 93.495099 
L 84.521381 93.495099 
L 84.521381 93.244768 
L 85.088167 93.244768 
L 85.088167 92.994437 
L 86.788522 92.994437 
L 86.788522 92.243444 
L 87.355307 92.243444 
L 87.355307 90.991788 
L 89.055663 90.991788 
L 89.055663 90.491126 
L 90.189233 90.491126 
L 90.189233 89.489801 
L 90.756018 89.489801 
L 90.756018 88.488477 
L 91.322803 88.488477 
L 91.322803 88.238146 
L 94.723514 88.238146 
L 94.723514 87.737483 
L 95.2903 87.737483 
L 95.2903 87.487152 
L 95.857085 87.487152 
L 95.857085 87.236821 
L 96.42387 87.236821 
L 96.42387 86.98649 
L 96.990655 86.98649 
L 96.990655 86.485828 
L 98.124225 86.485828 
L 98.124225 85.985166 
L 98.691011 85.985166 
L 98.691011 85.234172 
L 100.391366 85.234172 
L 100.391366 84.73351 
L 100.958151 84.73351 
L 100.958151 84.483179 
L 101.524937 84.483179 
L 101.524937 84.232848 
L 102.091722 84.232848 
L 102.091722 83.231523 
L 103.792077 83.231523 
L 103.792077 82.730861 
L 104.358862 82.730861 
L 104.358862 82.230199 
L 106.059218 82.230199 
L 106.059218 81.979868 
L 107.192788 81.979868 
L 107.192788 81.479205 
L 107.759573 81.479205 
L 107.759573 81.228874 
L 110.593499 81.228874 
L 110.593499 80.978543 
L 111.72707 80.978543 
L 111.72707 80.728212 
L 115.694566 80.728212 
L 115.694566 80.22755 
L 117.394921 80.22755 
L 117.394921 78.475232 
L 119.662062 78.475232 
L 119.662062 78.224901 
L 120.228847 78.224901 
L 120.228847 77.97457 
L 121.362417 77.97457 
L 121.362417 77.724238 
L 123.062773 77.724238 
L 123.062773 76.973245 
L 124.196343 76.973245 
L 124.196343 75.971921 
L 125.329914 75.971921 
L 125.329914 75.721589 
L 125.896699 75.721589 
L 125.896699 75.471258 
L 126.463484 75.471258 
L 126.463484 75.220927 
L 129.29741 75.220927 
L 129.29741 74.469934 
L 132.131336 74.469934 
L 132.131336 73.969272 
L 134.965262 73.969272 
L 134.965262 73.71894 
L 137.799187 73.71894 
L 137.799187 73.468609 
L 143.467039 73.468609 
L 143.467039 73.218278 
L 144.033824 73.218278 
L 144.033824 72.967947 
L 149.134891 72.967947 
L 149.134891 72.467285 
L 151.968817 72.467285 
L 151.968817 72.216954 
L 153.669172 72.216954 
L 153.669172 71.966623 
L 154.802743 71.966623 
L 154.802743 71.716291 
L 155.369528 71.716291 
L 155.369528 71.46596 
L 155.936313 71.46596 
L 155.936313 70.965298 
L 158.770239 70.965298 
L 158.770239 70.714967 
L 162.17095 70.714967 
L 162.17095 70.464636 
L 166.705231 70.464636 
L 166.705231 70.214305 
L 171.806298 70.214305 
L 171.806298 69.963974 
L 172.373083 69.963974 
L 172.373083 69.463311 
L 178.040934 69.463311 
L 178.040934 69.21298 
L 187.109497 69.21298 
L 187.109497 68.712318 
L 192.777349 68.712318 
L 192.777349 68.461987 
L 195.611275 68.461987 
L 195.611275 68.211656 
L 199.011986 68.211656 
L 199.011986 67.961325 
L 213.7484 67.961325 
L 213.7484 67.710993 
L 255.690503 67.710993 
L 255.690503 67.460662 
L 257.390858 67.460662 
L 257.390858 67.210331 
L 261.358354 67.210331 
L 261.358354 66.96 
L 373.581818 66.96 
L 373.581818 66.96 
" clip-path="url(#pbe2e6252c3)" style="fill: none; stroke: #9467bd; stroke-opacity: 0.75; stroke-width: 2; stroke-linecap: square"/>
   </g>
   <g id="line2d_30">
    <path d="M 69.218182 369.36 
L 69.218182 304.432941 
L 69.40711 304.432941 
L 69.40711 288.423529 
L 69.596039 288.423529 
L 69.596039 251.957647 
L 69.784967 251.957647 
L 69.784967 227.054118 
L 70.162824 227.054118 
L 70.162824 223.496471 
L 70.351752 223.496471 
L 70.351752 222.607059 
L 70.729609 222.607059 
L 70.729609 213.712941 
L 70.918537 213.712941 
L 70.918537 202.150588 
L 71.485322 202.150588 
L 71.485322 201.261176 
L 71.674251 201.261176 
L 71.674251 200.371765 
L 72.241036 200.371765 
L 72.241036 187.92 
L 72.429964 187.92 
L 72.429964 183.472941 
L 72.618893 183.472941 
L 72.618893 182.583529 
L 72.99675 182.583529 
L 72.99675 177.247059 
L 73.941392 177.247059 
L 73.941392 174.578824 
L 74.13032 174.578824 
L 74.13032 172.8 
L 74.319248 172.8 
L 74.319248 169.242353 
L 74.508177 169.242353 
L 74.508177 162.127059 
L 74.697105 162.127059 
L 74.697105 161.237647 
L 74.886034 161.237647 
L 74.886034 160.348235 
L 75.074962 160.348235 
L 75.074962 156.790588 
L 75.26389 156.790588 
L 75.26389 154.122353 
L 75.452819 154.122353 
L 75.452819 152.343529 
L 76.208532 152.343529 
L 76.208532 147.007059 
L 76.397461 147.007059 
L 76.397461 139.891765 
L 76.586389 139.891765 
L 76.586389 130.997647 
L 77.153174 130.997647 
L 77.153174 129.218824 
L 77.342103 129.218824 
L 77.342103 127.44 
L 77.908888 127.44 
L 77.908888 125.661176 
L 78.475673 125.661176 
L 78.475673 118.545882 
L 78.85353 118.545882 
L 78.85353 115.877647 
L 79.042458 115.877647 
L 79.042458 114.098824 
L 79.231386 114.098824 
L 79.231386 113.209412 
L 80.176028 113.209412 
L 80.176028 110.541176 
L 81.309599 110.541176 
L 81.309599 108.762353 
L 82.632098 108.762353 
L 82.632098 106.983529 
L 85.088167 106.983529 
L 85.088167 106.094118 
L 86.221737 106.094118 
L 86.221737 105.204706 
L 87.544236 105.204706 
L 87.544236 104.315294 
L 88.677806 104.315294 
L 88.677806 102.536471 
L 89.055663 102.536471 
L 89.055663 101.647059 
L 90.944947 101.647059 
L 90.944947 100.757647 
L 91.511732 100.757647 
L 91.511732 97.2 
L 92.078517 97.2 
L 92.078517 95.421176 
L 93.212087 95.421176 
L 93.212087 94.531765 
L 94.534586 94.531765 
L 94.534586 93.642353 
L 95.101371 93.642353 
L 95.101371 91.863529 
L 95.479228 91.863529 
L 95.479228 90.974118 
L 96.990655 90.974118 
L 96.990655 90.084706 
L 98.313154 90.084706 
L 98.313154 88.305882 
L 98.691011 88.305882 
L 98.691011 85.637647 
L 101.524937 85.637647 
L 101.524937 84.748235 
L 102.28065 84.748235 
L 102.28065 83.858824 
L 103.41422 83.858824 
L 103.41422 82.969412 
L 103.981006 82.969412 
L 103.981006 81.190588 
L 104.925648 81.190588 
L 104.925648 80.301176 
L 105.114576 80.301176 
L 105.114576 78.522353 
L 106.626003 78.522353 
L 106.626003 76.743529 
L 109.271001 76.743529 
L 109.271001 75.854118 
L 109.459929 75.854118 
L 109.459929 74.964706 
L 109.837786 74.964706 
L 109.837786 74.075294 
L 114.749924 74.075294 
L 114.749924 73.185882 
L 116.639208 73.185882 
L 116.639208 71.407059 
L 124.5742 71.407059 
L 124.5742 70.517647 
L 131.564551 70.517647 
L 131.564551 69.628235 
L 170.483799 69.628235 
L 170.483799 67.849412 
L 184.653428 67.849412 
L 184.653428 66.96 
L 373.581818 66.96 
L 373.581818 66.96 
" clip-path="url(#pbe2e6252c3)" style="fill: none; stroke: #8c564b; stroke-opacity: 0.75; stroke-width: 2; stroke-linecap: square"/>
   </g>
   <g id="line2d_31">
    <path d="M 69.218182 369.36 
L 69.218182 367.230423 
L 69.218182 273.529014 
L 70.828571 273.529014 
L 70.828571 233.067042 
L 70.828571 228.807887 
L 70.828571 158.531831 
L 72.438961 158.531831 
L 72.438961 154.272676 
L 74.049351 154.272676 
L 74.049351 137.236056 
L 74.049351 132.976901 
L 74.049351 130.847324 
L 75.65974 130.847324 
L 75.65974 128.717746 
L 77.27013 128.717746 
L 77.27013 126.588169 
L 78.880519 126.588169 
L 78.880519 120.199437 
L 80.490909 120.199437 
L 80.490909 111.681127 
L 82.101299 111.681127 
L 82.101299 109.551549 
L 83.711688 109.551549 
L 83.711688 94.644507 
L 86.932468 94.644507 
L 86.932468 86.126197 
L 94.984416 86.126197 
L 94.984416 79.737465 
L 96.594805 79.737465 
L 96.594805 77.607887 
L 107.867532 77.607887 
L 107.867532 75.47831 
L 132.023377 75.47831 
L 132.023377 73.348732 
L 141.685714 73.348732 
L 141.685714 71.219155 
L 146.516883 71.219155 
L 146.516883 69.089577 
L 210.932468 69.089577 
L 210.932468 66.96 
L 373.581818 66.96 
" clip-path="url(#pbe2e6252c3)" style="fill: none; stroke: #e377c2; stroke-opacity: 0.75; stroke-width: 2; stroke-linecap: square"/>
   </g>
   <g id="line2d_32">
    <path d="M 69.218182 369.36 
L 100.275696 200.164417 
L 112.698701 174.562454 
L 112.698701 166.028466 
L 112.698701 154.155092 
L 112.698701 150.815706 
L 118.910204 149.702577 
L 118.910204 146.36319 
L 118.910204 144.507975 
L 118.910204 143.023804 
L 118.910204 138.571288 
L 118.910204 137.45816 
L 125.121707 136.716074 
L 125.121707 134.118773 
L 131.33321 131.521472 
L 131.33321 130.408344 
L 131.33321 129.666258 
L 131.33321 126.326871 
L 131.33321 124.842699 
L 131.33321 124.100613 
L 131.33321 122.987485 
L 131.33321 121.503313 
L 131.33321 120.390184 
L 131.33321 120.019141 
L 131.33321 119.277055 
L 131.33321 118.163926 
L 131.33321 117.42184 
L 137.544712 117.050798 
L 137.544712 116.308712 
L 143.756215 115.195583 
L 143.756215 113.340368 
L 149.967718 112.969325 
L 149.967718 111.485153 
L 149.967718 110.372025 
L 149.967718 109.629939 
L 149.967718 109.258896 
L 149.967718 108.51681 
L 149.967718 105.919509 
L 162.390724 105.919509 
L 162.390724 105.177423 
L 162.390724 104.435337 
L 162.390724 102.951166 
L 162.390724 102.20908 
L 162.390724 99.982822 
L 168.602226 99.982822 
L 168.602226 98.869693 
L 168.602226 98.127607 
L 168.602226 97.756564 
L 174.813729 97.756564 
L 174.813729 97.385521 
L 181.025232 97.385521 
L 181.025232 97.014479 
L 187.236735 97.014479 
L 187.236735 96.643436 
L 193.448237 96.643436 
L 193.448237 95.90135 
L 199.65974 95.90135 
L 199.65974 94.788221 
L 205.871243 94.788221 
L 205.871243 91.448834 
L 205.871243 90.706748 
L 205.871243 88.480491 
L 205.871243 87.738405 
L 205.871243 87.367362 
L 212.082746 87.367362 
L 212.082746 86.625276 
L 218.294249 86.625276 
L 218.294249 84.027975 
L 218.294249 83.28589 
L 224.505751 83.28589 
L 224.505751 79.946503 
L 236.928757 79.946503 
L 236.928757 78.091288 
L 236.928757 77.349202 
L 236.928757 76.607117 
L 236.928757 75.865031 
L 236.928757 75.493988 
L 243.14026 75.493988 
L 243.14026 74.380859 
L 249.351763 74.009816 
L 249.351763 73.638773 
L 261.774768 73.638773 
L 261.774768 72.525644 
L 267.986271 72.525644 
L 267.986271 71.783558 
L 280.409276 71.041472 
L 280.409276 70.670429 
L 292.832282 69.186258 
L 305.255288 68.444172 
L 373.581818 66.96 
" clip-path="url(#pbe2e6252c3)" style="fill: none; stroke: #7f7f7f; stroke-opacity: 0.75; stroke-width: 2; stroke-linecap: square"/>
   </g>
   <g id="line2d_33">
    <path d="M 69.218182 369.36 
L 69.218182 196.23881 
L 77.022378 196.23881 
L 77.022378 162.513903 
L 84.826573 162.513903 
L 84.826573 153.520595 
L 92.630769 153.520595 
L 92.630769 126.91539 
L 100.434965 126.91539 
L 100.434965 124.667063 
L 108.239161 124.667063 
L 108.239161 123.5429 
L 116.043357 123.5429 
L 116.043357 116.423197 
L 123.847552 116.423197 
L 123.847552 103.307955 
L 131.651748 103.307955 
L 131.651748 102.183792 
L 139.455944 102.183792 
L 139.455944 99.935465 
L 147.26014 99.935465 
L 147.26014 99.186022 
L 170.672727 99.186022 
L 170.672727 86.820223 
L 178.476923 86.820223 
L 178.476923 83.447732 
L 186.281119 83.447732 
L 186.281119 80.075242 
L 194.085315 80.075242 
L 194.085315 75.578587 
L 201.88951 75.578587 
L 201.88951 75.203866 
L 209.693706 75.203866 
L 209.693706 73.33026 
L 233.106294 73.33026 
L 233.106294 72.580818 
L 256.518881 72.580818 
L 256.518881 72.206097 
L 264.323077 72.206097 
L 264.323077 71.081933 
L 272.127273 71.081933 
L 272.127273 70.332491 
L 279.931469 70.332491 
L 279.931469 69.583048 
L 287.735664 69.583048 
L 295.53986 69.208327 
L 295.53986 68.833606 
L 326.756643 68.833606 
L 326.756643 68.084164 
L 365.777622 68.084164 
L 365.777622 67.709442 
L 373.581818 67.709442 
L 373.581818 66.96 
L 373.581818 66.96 
" clip-path="url(#pbe2e6252c3)" style="fill: none; stroke: #bcbd22; stroke-opacity: 0.75; stroke-width: 2; stroke-linecap: square"/>
   </g>
   <g id="patch_3">
    <path d="M 54 384.48 
L 54 51.84 
" style="fill: none; stroke: #000000; stroke-width: 0.8; stroke-linejoin: miter; stroke-linecap: square"/>
   </g>
   <g id="patch_4">
    <path d="M 388.8 384.48 
L 388.8 51.84 
" style="fill: none; stroke: #000000; stroke-width: 0.8; stroke-linejoin: miter; stroke-linecap: square"/>
   </g>
   <g id="patch_5">
    <path d="M 54 384.48 
L 388.8 384.48 
" style="fill: none; stroke: #000000; stroke-width: 0.8; stroke-linejoin: miter; stroke-linecap: square"/>
   </g>
   <g id="patch_6">
    <path d="M 54 51.84 
L 388.8 51.84 
" style="fill: none; stroke: #000000; stroke-width: 0.8; stroke-linejoin: miter; stroke-linecap: square"/>
   </g>
   <g id="legend_1">
    <g id="patch_7">
     <path d="M 222.70625 379.48 
L 381.8 379.48 
Q 383.8 379.48 383.8 377.48 
L 383.8 244.43 
Q 383.8 242.43 381.8 242.43 
L 222.70625 242.43 
Q 220.70625 242.43 220.70625 244.43 
L 220.70625 377.48 
Q 220.70625 379.48 222.70625 379.48 
z
" style="fill: #ffffff; opacity: 0.8; stroke: #cccccc; stroke-linejoin: miter"/>
    </g>
    <g id="line2d_34">
     <path d="M 224.70625 250.528438 
L 234.70625 250.528438 
L 244.70625 250.528438 
" style="fill: none; stroke: #1f77b4; stroke-opacity: 0.75; stroke-width: 2; stroke-linecap: square"/>
    </g>
    <g id="text_15">
     <!-- AI_NLD (AUC = 0.93) -->
     <g transform="translate(252.70625 254.028438) scale(0.1 -0.1)">
      <defs>
       <path id="DejaVuSans-41" d="M 2188 4044 
L 1331 1722 
L 3047 1722 
L 2188 4044 
z
M 1831 4666 
L 2547 4666 
L 4325 0 
L 3669 0 
L 3244 1197 
L 1141 1197 
L 716 0 
L 50 0 
L 1831 4666 
z
" transform="scale(0.015625)"/>
       <path id="DejaVuSans-49" d="M 628 4666 
L 1259 4666 
L 1259 0 
L 628 0 
L 628 4666 
z
" transform="scale(0.015625)"/>
       <path id="DejaVuSans-5f" d="M 3263 -1063 
L 3263 -1509 
L -63 -1509 
L -63 -1063 
L 3263 -1063 
z
" transform="scale(0.015625)"/>
       <path id="DejaVuSans-4e" d="M 628 4666 
L 1478 4666 
L 3547 763 
L 3547 4666 
L 4159 4666 
L 4159 0 
L 3309 0 
L 1241 3903 
L 1241 0 
L 628 0 
L 628 4666 
z
" transform="scale(0.015625)"/>
       <path id="DejaVuSans-4c" d="M 628 4666 
L 1259 4666 
L 1259 531 
L 3531 531 
L 3531 0 
L 628 0 
L 628 4666 
z
" transform="scale(0.015625)"/>
       <path id="DejaVuSans-44" d="M 1259 4147 
L 1259 519 
L 2022 519 
Q 2988 519 3436 956 
Q 3884 1394 3884 2338 
Q 3884 3275 3436 3711 
Q 2988 4147 2022 4147 
L 1259 4147 
z
M 628 4666 
L 1925 4666 
Q 3281 4666 3915 4102 
Q 4550 3538 4550 2338 
Q 4550 1131 3912 565 
Q 3275 0 1925 0 
L 628 0 
L 628 4666 
z
" transform="scale(0.015625)"/>
       <path id="DejaVuSans-55" d="M 556 4666 
L 1191 4666 
L 1191 1831 
Q 1191 1081 1462 751 
Q 1734 422 2344 422 
Q 2950 422 3222 751 
Q 3494 1081 3494 1831 
L 3494 4666 
L 4128 4666 
L 4128 1753 
Q 4128 841 3676 375 
Q 3225 -91 2344 -91 
Q 1459 -91 1007 375 
Q 556 841 556 1753 
L 556 4666 
z
" transform="scale(0.015625)"/>
       <path id="DejaVuSans-43" d="M 4122 4306 
L 4122 3641 
Q 3803 3938 3442 4084 
Q 3081 4231 2675 4231 
Q 1875 4231 1450 3742 
Q 1025 3253 1025 2328 
Q 1025 1406 1450 917 
Q 1875 428 2675 428 
Q 3081 428 3442 575 
Q 3803 722 4122 1019 
L 4122 359 
Q 3791 134 3420 21 
Q 3050 -91 2638 -91 
Q 1578 -91 968 557 
Q 359 1206 359 2328 
Q 359 3453 968 4101 
Q 1578 4750 2638 4750 
Q 3056 4750 3426 4639 
Q 3797 4528 4122 4306 
z
" transform="scale(0.015625)"/>
       <path id="DejaVuSans-3d" d="M 678 2906 
L 4684 2906 
L 4684 2381 
L 678 2381 
L 678 2906 
z
M 678 1631 
L 4684 1631 
L 4684 1100 
L 678 1100 
L 678 1631 
z
" transform="scale(0.015625)"/>
       <path id="DejaVuSans-39" d="M 703 97 
L 703 672 
Q 941 559 1184 500 
Q 1428 441 1663 441 
Q 2288 441 2617 861 
Q 2947 1281 2994 2138 
Q 2813 1869 2534 1725 
Q 2256 1581 1919 1581 
Q 1219 1581 811 2004 
Q 403 2428 403 3163 
Q 403 3881 828 4315 
Q 1253 4750 1959 4750 
Q 2769 4750 3195 4129 
Q 3622 3509 3622 2328 
Q 3622 1225 3098 567 
Q 2575 -91 1691 -91 
Q 1453 -91 1209 -44 
Q 966 3 703 97 
z
M 1959 2075 
Q 2384 2075 2632 2365 
Q 2881 2656 2881 3163 
Q 2881 3666 2632 3958 
Q 2384 4250 1959 4250 
Q 1534 4250 1286 3958 
Q 1038 3666 1038 3163 
Q 1038 2656 1286 2365 
Q 1534 2075 1959 2075 
z
" transform="scale(0.015625)"/>
       <path id="DejaVuSans-33" d="M 2597 2516 
Q 3050 2419 3304 2112 
Q 3559 1806 3559 1356 
Q 3559 666 3084 287 
Q 2609 -91 1734 -91 
Q 1441 -91 1130 -33 
Q 819 25 488 141 
L 488 750 
Q 750 597 1062 519 
Q 1375 441 1716 441 
Q 2309 441 2620 675 
Q 2931 909 2931 1356 
Q 2931 1769 2642 2001 
Q 2353 2234 1838 2234 
L 1294 2234 
L 1294 2753 
L 1863 2753 
Q 2328 2753 2575 2939 
Q 2822 3125 2822 3475 
Q 2822 3834 2567 4026 
Q 2313 4219 1838 4219 
Q 1578 4219 1281 4162 
Q 984 4106 628 3988 
L 628 4550 
Q 988 4650 1302 4700 
Q 1616 4750 1894 4750 
Q 2613 4750 3031 4423 
Q 3450 4097 3450 3541 
Q 3450 3153 3228 2886 
Q 3006 2619 2597 2516 
z
" transform="scale(0.015625)"/>
      </defs>
      <use xlink:href="#DejaVuSans-41"/>
      <use xlink:href="#DejaVuSans-49" x="68.408203"/>
      <use xlink:href="#DejaVuSans-5f" x="97.900391"/>
      <use xlink:href="#DejaVuSans-4e" x="147.900391"/>
      <use xlink:href="#DejaVuSans-4c" x="222.705078"/>
      <use xlink:href="#DejaVuSans-44" x="278.417969"/>
      <use xlink:href="#DejaVuSans-20" x="355.419922"/>
      <use xlink:href="#DejaVuSans-28" x="387.207031"/>
      <use xlink:href="#DejaVuSans-41" x="426.220703"/>
      <use xlink:href="#DejaVuSans-55" x="494.628906"/>
      <use xlink:href="#DejaVuSans-43" x="567.822266"/>
      <use xlink:href="#DejaVuSans-20" x="637.646484"/>
      <use xlink:href="#DejaVuSans-3d" x="669.433594"/>
      <use xlink:href="#DejaVuSans-20" x="753.222656"/>
      <use xlink:href="#DejaVuSans-30" x="785.009766"/>
      <use xlink:href="#DejaVuSans-2e" x="848.632812"/>
      <use xlink:href="#DejaVuSans-39" x="880.419922"/>
      <use xlink:href="#DejaVuSans-33" x="944.042969"/>
      <use xlink:href="#DejaVuSans-29" x="1007.666016"/>
     </g>
    </g>
    <g id="line2d_35">
     <path d="M 224.70625 265.484688 
L 234.70625 265.484688 
L 244.70625 265.484688 
" style="fill: none; stroke: #ff7f0e; stroke-opacity: 0.75; stroke-width: 2; stroke-linecap: square"/>
    </g>
    <g id="text_16">
     <!-- LD_NAI (AUC = 0.95) -->
     <g transform="translate(252.70625 268.984688) scale(0.1 -0.1)">
      <defs>
       <path id="DejaVuSans-35" d="M 691 4666 
L 3169 4666 
L 3169 4134 
L 1269 4134 
L 1269 2991 
Q 1406 3038 1543 3061 
Q 1681 3084 1819 3084 
Q 2600 3084 3056 2656 
Q 3513 2228 3513 1497 
Q 3513 744 3044 326 
Q 2575 -91 1722 -91 
Q 1428 -91 1123 -41 
Q 819 9 494 109 
L 494 744 
Q 775 591 1075 516 
Q 1375 441 1709 441 
Q 2250 441 2565 725 
Q 2881 1009 2881 1497 
Q 2881 1984 2565 2268 
Q 2250 2553 1709 2553 
Q 1456 2553 1204 2497 
Q 953 2441 691 2322 
L 691 4666 
z
" transform="scale(0.015625)"/>
      </defs>
      <use xlink:href="#DejaVuSans-4c"/>
      <use xlink:href="#DejaVuSans-44" x="55.712891"/>
      <use xlink:href="#DejaVuSans-5f" x="132.714844"/>
      <use xlink:href="#DejaVuSans-4e" x="182.714844"/>
      <use xlink:href="#DejaVuSans-41" x="257.519531"/>
      <use xlink:href="#DejaVuSans-49" x="325.927734"/>
      <use xlink:href="#DejaVuSans-20" x="355.419922"/>
      <use xlink:href="#DejaVuSans-28" x="387.207031"/>
      <use xlink:href="#DejaVuSans-41" x="426.220703"/>
      <use xlink:href="#DejaVuSans-55" x="494.628906"/>
      <use xlink:href="#DejaVuSans-43" x="567.822266"/>
      <use xlink:href="#DejaVuSans-20" x="637.646484"/>
      <use xlink:href="#DejaVuSans-3d" x="669.433594"/>
      <use xlink:href="#DejaVuSans-20" x="753.222656"/>
      <use xlink:href="#DejaVuSans-30" x="785.009766"/>
      <use xlink:href="#DejaVuSans-2e" x="848.632812"/>
      <use xlink:href="#DejaVuSans-39" x="880.419922"/>
      <use xlink:href="#DejaVuSans-35" x="944.042969"/>
      <use xlink:href="#DejaVuSans-29" x="1007.666016"/>
     </g>
    </g>
    <g id="line2d_36">
     <path d="M 224.70625 280.440938 
L 234.70625 280.440938 
L 244.70625 280.440938 
" style="fill: none; stroke: #2ca02c; stroke-opacity: 0.75; stroke-width: 2; stroke-linecap: square"/>
    </g>
    <g id="text_17">
     <!-- AI_LD (AUC = 0.92) -->
     <g transform="translate(252.70625 283.940938) scale(0.1 -0.1)">
      <use xlink:href="#DejaVuSans-41"/>
      <use xlink:href="#DejaVuSans-49" x="68.408203"/>
      <use xlink:href="#DejaVuSans-5f" x="97.900391"/>
      <use xlink:href="#DejaVuSans-4c" x="147.900391"/>
      <use xlink:href="#DejaVuSans-44" x="203.613281"/>
      <use xlink:href="#DejaVuSans-20" x="280.615234"/>
      <use xlink:href="#DejaVuSans-28" x="312.402344"/>
      <use xlink:href="#DejaVuSans-41" x="351.416016"/>
      <use xlink:href="#DejaVuSans-55" x="419.824219"/>
      <use xlink:href="#DejaVuSans-43" x="493.017578"/>
      <use xlink:href="#DejaVuSans-20" x="562.841797"/>
      <use xlink:href="#DejaVuSans-3d" x="594.628906"/>
      <use xlink:href="#DejaVuSans-20" x="678.417969"/>
      <use xlink:href="#DejaVuSans-30" x="710.205078"/>
      <use xlink:href="#DejaVuSans-2e" x="773.828125"/>
      <use xlink:href="#DejaVuSans-39" x="805.615234"/>
      <use xlink:href="#DejaVuSans-32" x="869.238281"/>
      <use xlink:href="#DejaVuSans-29" x="932.861328"/>
     </g>
    </g>
    <g id="line2d_37">
     <path d="M 224.70625 295.397188 
L 234.70625 295.397188 
L 244.70625 295.397188 
" style="fill: none; stroke: #d62728; stroke-opacity: 0.75; stroke-width: 2; stroke-linecap: square"/>
    </g>
    <g id="text_18">
     <!-- A_NL (AUC = 0.97) -->
     <g transform="translate(252.70625 298.897188) scale(0.1 -0.1)">
      <defs>
       <path id="DejaVuSans-37" d="M 525 4666 
L 3525 4666 
L 3525 4397 
L 1831 0 
L 1172 0 
L 2766 4134 
L 525 4134 
L 525 4666 
z
" transform="scale(0.015625)"/>
      </defs>
      <use xlink:href="#DejaVuSans-41"/>
      <use xlink:href="#DejaVuSans-5f" x="68.408203"/>
      <use xlink:href="#DejaVuSans-4e" x="118.408203"/>
      <use xlink:href="#DejaVuSans-4c" x="193.212891"/>
      <use xlink:href="#DejaVuSans-20" x="248.925781"/>
      <use xlink:href="#DejaVuSans-28" x="280.712891"/>
      <use xlink:href="#DejaVuSans-41" x="319.726562"/>
      <use xlink:href="#DejaVuSans-55" x="388.134766"/>
      <use xlink:href="#DejaVuSans-43" x="461.328125"/>
      <use xlink:href="#DejaVuSans-20" x="531.152344"/>
      <use xlink:href="#DejaVuSans-3d" x="562.939453"/>
      <use xlink:href="#DejaVuSans-20" x="646.728516"/>
      <use xlink:href="#DejaVuSans-30" x="678.515625"/>
      <use xlink:href="#DejaVuSans-2e" x="742.138672"/>
      <use xlink:href="#DejaVuSans-39" x="773.925781"/>
      <use xlink:href="#DejaVuSans-37" x="837.548828"/>
      <use xlink:href="#DejaVuSans-29" x="901.171875"/>
     </g>
    </g>
    <g id="line2d_38">
     <path d="M 224.70625 310.353438 
L 234.70625 310.353438 
L 244.70625 310.353438 
" style="fill: none; stroke: #9467bd; stroke-opacity: 0.75; stroke-width: 2; stroke-linecap: square"/>
    </g>
    <g id="text_19">
     <!-- L_NA (AUC = 0.98) -->
     <g transform="translate(252.70625 313.853438) scale(0.1 -0.1)">
      <use xlink:href="#DejaVuSans-4c"/>
      <use xlink:href="#DejaVuSans-5f" x="55.712891"/>
      <use xlink:href="#DejaVuSans-4e" x="105.712891"/>
      <use xlink:href="#DejaVuSans-41" x="180.517578"/>
      <use xlink:href="#DejaVuSans-20" x="248.925781"/>
      <use xlink:href="#DejaVuSans-28" x="280.712891"/>
      <use xlink:href="#DejaVuSans-41" x="319.726562"/>
      <use xlink:href="#DejaVuSans-55" x="388.134766"/>
      <use xlink:href="#DejaVuSans-43" x="461.328125"/>
      <use xlink:href="#DejaVuSans-20" x="531.152344"/>
      <use xlink:href="#DejaVuSans-3d" x="562.939453"/>
      <use xlink:href="#DejaVuSans-20" x="646.728516"/>
      <use xlink:href="#DejaVuSans-30" x="678.515625"/>
      <use xlink:href="#DejaVuSans-2e" x="742.138672"/>
      <use xlink:href="#DejaVuSans-39" x="773.925781"/>
      <use xlink:href="#DejaVuSans-38" x="837.548828"/>
      <use xlink:href="#DejaVuSans-29" x="901.171875"/>
     </g>
    </g>
    <g id="line2d_39">
     <path d="M 224.70625 325.309687 
L 234.70625 325.309687 
L 244.70625 325.309687 
" style="fill: none; stroke: #8c564b; stroke-opacity: 0.75; stroke-width: 2; stroke-linecap: square"/>
    </g>
    <g id="text_20">
     <!-- A_L (AUC = 0.98) -->
     <g transform="translate(252.70625 328.809687) scale(0.1 -0.1)">
      <use xlink:href="#DejaVuSans-41"/>
      <use xlink:href="#DejaVuSans-5f" x="68.408203"/>
      <use xlink:href="#DejaVuSans-4c" x="118.408203"/>
      <use xlink:href="#DejaVuSans-20" x="174.121094"/>
      <use xlink:href="#DejaVuSans-28" x="205.908203"/>
      <use xlink:href="#DejaVuSans-41" x="244.921875"/>
      <use xlink:href="#DejaVuSans-55" x="313.330078"/>
      <use xlink:href="#DejaVuSans-43" x="386.523438"/>
      <use xlink:href="#DejaVuSans-20" x="456.347656"/>
      <use xlink:href="#DejaVuSans-3d" x="488.134766"/>
      <use xlink:href="#DejaVuSans-20" x="571.923828"/>
      <use xlink:href="#DejaVuSans-30" x="603.710938"/>
      <use xlink:href="#DejaVuSans-2e" x="667.333984"/>
      <use xlink:href="#DejaVuSans-39" x="699.121094"/>
      <use xlink:href="#DejaVuSans-38" x="762.744141"/>
      <use xlink:href="#DejaVuSans-29" x="826.367188"/>
     </g>
    </g>
    <g id="line2d_40">
     <path d="M 224.70625 340.265938 
L 234.70625 340.265938 
L 244.70625 340.265938 
" style="fill: none; stroke: #e377c2; stroke-opacity: 0.75; stroke-width: 2; stroke-linecap: square"/>
    </g>
    <g id="text_21">
     <!-- R_N (AUC = 0.98) -->
     <g transform="translate(252.70625 343.765938) scale(0.1 -0.1)">
      <use xlink:href="#DejaVuSans-52"/>
      <use xlink:href="#DejaVuSans-5f" x="69.482422"/>
      <use xlink:href="#DejaVuSans-4e" x="119.482422"/>
      <use xlink:href="#DejaVuSans-20" x="194.287109"/>
      <use xlink:href="#DejaVuSans-28" x="226.074219"/>
      <use xlink:href="#DejaVuSans-41" x="265.087891"/>
      <use xlink:href="#DejaVuSans-55" x="333.496094"/>
      <use xlink:href="#DejaVuSans-43" x="406.689453"/>
      <use xlink:href="#DejaVuSans-20" x="476.513672"/>
      <use xlink:href="#DejaVuSans-3d" x="508.300781"/>
      <use xlink:href="#DejaVuSans-20" x="592.089844"/>
      <use xlink:href="#DejaVuSans-30" x="623.876953"/>
      <use xlink:href="#DejaVuSans-2e" x="687.5"/>
      <use xlink:href="#DejaVuSans-39" x="719.287109"/>
      <use xlink:href="#DejaVuSans-38" x="782.910156"/>
      <use xlink:href="#DejaVuSans-29" x="846.533203"/>
     </g>
    </g>
    <g id="line2d_41">
     <path d="M 224.70625 355.222188 
L 234.70625 355.222188 
L 244.70625 355.222188 
" style="fill: none; stroke: #7f7f7f; stroke-opacity: 0.75; stroke-width: 2; stroke-linecap: square"/>
    </g>
    <g id="text_22">
     <!-- POLYPHEN2 (AUC = 0.86) -->
     <g transform="translate(252.70625 358.722188) scale(0.1 -0.1)">
      <defs>
       <path id="DejaVuSans-4f" d="M 2522 4238 
Q 1834 4238 1429 3725 
Q 1025 3213 1025 2328 
Q 1025 1447 1429 934 
Q 1834 422 2522 422 
Q 3209 422 3611 934 
Q 4013 1447 4013 2328 
Q 4013 3213 3611 3725 
Q 3209 4238 2522 4238 
z
M 2522 4750 
Q 3503 4750 4090 4092 
Q 4678 3434 4678 2328 
Q 4678 1225 4090 567 
Q 3503 -91 2522 -91 
Q 1538 -91 948 565 
Q 359 1222 359 2328 
Q 359 3434 948 4092 
Q 1538 4750 2522 4750 
z
" transform="scale(0.015625)"/>
       <path id="DejaVuSans-59" d="M -13 4666 
L 666 4666 
L 1959 2747 
L 3244 4666 
L 3922 4666 
L 2272 2222 
L 2272 0 
L 1638 0 
L 1638 2222 
L -13 4666 
z
" transform="scale(0.015625)"/>
       <path id="DejaVuSans-48" d="M 628 4666 
L 1259 4666 
L 1259 2753 
L 3553 2753 
L 3553 4666 
L 4184 4666 
L 4184 0 
L 3553 0 
L 3553 2222 
L 1259 2222 
L 1259 0 
L 628 0 
L 628 4666 
z
" transform="scale(0.015625)"/>
       <path id="DejaVuSans-45" d="M 628 4666 
L 3578 4666 
L 3578 4134 
L 1259 4134 
L 1259 2753 
L 3481 2753 
L 3481 2222 
L 1259 2222 
L 1259 531 
L 3634 531 
L 3634 0 
L 628 0 
L 628 4666 
z
" transform="scale(0.015625)"/>
      </defs>
      <use xlink:href="#DejaVuSans-50"/>
      <use xlink:href="#DejaVuSans-4f" x="60.302734"/>
      <use xlink:href="#DejaVuSans-4c" x="139.013672"/>
      <use xlink:href="#DejaVuSans-59" x="181.476562"/>
      <use xlink:href="#DejaVuSans-50" x="242.560547"/>
      <use xlink:href="#DejaVuSans-48" x="302.863281"/>
      <use xlink:href="#DejaVuSans-45" x="378.058594"/>
      <use xlink:href="#DejaVuSans-4e" x="441.242188"/>
      <use xlink:href="#DejaVuSans-32" x="516.046875"/>
      <use xlink:href="#DejaVuSans-20" x="579.669922"/>
      <use xlink:href="#DejaVuSans-28" x="611.457031"/>
      <use xlink:href="#DejaVuSans-41" x="650.470703"/>
      <use xlink:href="#DejaVuSans-55" x="718.878906"/>
      <use xlink:href="#DejaVuSans-43" x="792.072266"/>
      <use xlink:href="#DejaVuSans-20" x="861.896484"/>
      <use xlink:href="#DejaVuSans-3d" x="893.683594"/>
      <use xlink:href="#DejaVuSans-20" x="977.472656"/>
      <use xlink:href="#DejaVuSans-30" x="1009.259766"/>
      <use xlink:href="#DejaVuSans-2e" x="1072.882812"/>
      <use xlink:href="#DejaVuSans-38" x="1104.669922"/>
      <use xlink:href="#DejaVuSans-36" x="1168.292969"/>
      <use xlink:href="#DejaVuSans-29" x="1231.916016"/>
     </g>
    </g>
    <g id="line2d_42">
     <path d="M 224.70625 369.900313 
L 234.70625 369.900313 
L 244.70625 369.900313 
" style="fill: none; stroke: #bcbd22; stroke-opacity: 0.75; stroke-width: 2; stroke-linecap: square"/>
    </g>
    <g id="text_23">
     <!-- PMUT (AUC = 0.93) -->
     <g transform="translate(252.70625 373.400313) scale(0.1 -0.1)">
      <defs>
       <path id="DejaVuSans-4d" d="M 628 4666 
L 1569 4666 
L 2759 1491 
L 3956 4666 
L 4897 4666 
L 4897 0 
L 4281 0 
L 4281 4097 
L 3078 897 
L 2444 897 
L 1241 4097 
L 1241 0 
L 628 0 
L 628 4666 
z
" transform="scale(0.015625)"/>
      </defs>
      <use xlink:href="#DejaVuSans-50"/>
      <use xlink:href="#DejaVuSans-4d" x="60.302734"/>
      <use xlink:href="#DejaVuSans-55" x="146.582031"/>
      <use xlink:href="#DejaVuSans-54" x="219.775391"/>
      <use xlink:href="#DejaVuSans-20" x="280.859375"/>
      <use xlink:href="#DejaVuSans-28" x="312.646484"/>
      <use xlink:href="#DejaVuSans-41" x="351.660156"/>
      <use xlink:href="#DejaVuSans-55" x="420.068359"/>
      <use xlink:href="#DejaVuSans-43" x="493.261719"/>
      <use xlink:href="#DejaVuSans-20" x="563.085938"/>
      <use xlink:href="#DejaVuSans-3d" x="594.873047"/>
      <use xlink:href="#DejaVuSans-20" x="678.662109"/>
      <use xlink:href="#DejaVuSans-30" x="710.449219"/>
      <use xlink:href="#DejaVuSans-2e" x="774.072266"/>
      <use xlink:href="#DejaVuSans-39" x="805.859375"/>
      <use xlink:href="#DejaVuSans-33" x="869.482422"/>
      <use xlink:href="#DejaVuSans-29" x="933.105469"/>
     </g>
    </g>
   </g>
  </g>
 </g>
 <defs>
  <clipPath id="pbe2e6252c3">
   <rect x="54" y="51.84" width="334.8" height="332.64"/>
  </clipPath>
 </defs>
</svg>
