<?xml version="1.0" encoding="utf-8" standalone="no"?>
<!DOCTYPE svg PUBLIC "-//W3C//DTD SVG 1.1//EN"
  "http://www.w3.org/Graphics/SVG/1.1/DTD/svg11.dtd">
<svg xmlns:xlink="http://www.w3.org/1999/xlink" width="432pt" height="432pt" viewBox="0 0 432 432" xmlns="http://www.w3.org/2000/svg" version="1.1">
 <metadata>
  <rdf:RDF xmlns:dc="http://purl.org/dc/elements/1.1/" xmlns:cc="http://creativecommons.org/ns#" xmlns:rdf="http://www.w3.org/1999/02/22-rdf-syntax-ns#">
   <cc:Work>
    <dc:type rdf:resource="http://purl.org/dc/dcmitype/StillImage"/>
    <dc:date>2023-06-23T11:01:17.332267</dc:date>
    <dc:format>image/svg+xml</dc:format>
    <dc:creator>
     <cc:Agent>
      <dc:title>Matplotlib v3.7.1, https://matplotlib.org/</dc:title>
     </cc:Agent>
    </dc:creator>
   </cc:Work>
  </rdf:RDF>
 </metadata>
 <defs>
  <style type="text/css">*{stroke-linejoin: round; stroke-linecap: butt}</style>
 </defs>
 <g id="figure_1">
  <g id="patch_1">
   <path d="M 0 432 
L 432 432 
L 432 0 
L 0 0 
z
" style="fill: #ffffff"/>
  </g>
  <g id="axes_1">
   <g id="patch_2">
    <path d="M 212.2524 384.48 
L 230.5476 384.48 
L 230.5476 51.84 
L 212.2524 51.84 
z
" style="fill: #ffffff"/>
   </g>
   <g id="PolyCollection_1">
    <defs>
     <path id="m846b663111" d="M 213.084 -371.844 
L 213.084 -371.844 
L 213.252 -371.040496 
L 213.42 -369.483032 
L 213.588 -369.483032 
L 213.756 -367.825504 
L 213.924 -367.08588 
L 214.092 -367.08588 
L 214.26 -365.419921 
L 214.428 -363.896706 
L 214.596 -363.896706 
L 214.764 -363.074228 
L 214.932 -363.074228 
L 215.1 -363.074228 
L 215.268 -362.103096 
L 215.436 -361.535008 
L 215.604 -361.535008 
L 215.772 -361.48809 
L 215.94 -361.53354 
L 216.108 -361.307484 
L 216.276 -360.955856 
L 216.444 -360.696324 
L 216.612 -360.696324 
L 216.78 -360.11648 
L 216.948 -359.967476 
L 217.116 -359.967476 
L 217.284 -359.515844 
L 217.452 -359.38891 
L 217.62 -359.141234 
L 217.788 -358.934136 
L 217.956 -358.934136 
L 218.124 -358.201862 
L 218.292 -358.153292 
L 218.46 -358.153292 
L 218.628 -358.017062 
L 218.796 -357.784899 
L 218.964 -357.784899 
L 219.132 -357.39836 
L 219.3 -357.356286 
L 219.468 -357.304778 
L 219.636 -357.008284 
L 219.804 -357.008284 
L 219.972 -356.8752 
L 220.14 -356.418953 
L 220.308 -356.418953 
L 220.476 -356.418953 
L 220.644 -356.418953 
L 220.812 -356.418953 
L 220.98 -356.418953 
L 221.148 -356.194512 
L 221.316 -356.194512 
L 221.484 -356.194512 
L 221.652 -355.91263 
L 221.82 -355.91263 
L 221.988 -355.91263 
L 222.156 -355.91263 
L 222.324 -355.91263 
L 222.492 -355.7664 
L 222.66 -355.7664 
L 222.828 -355.7664 
L 222.996 -355.7664 
L 223.164 -355.7664 
L 223.332 -355.7664 
L 223.5 -355.7664 
L 223.668 -355.5816 
L 223.836 -355.5816 
L 224.004 -355.5816 
L 224.172 -355.5816 
L 224.34 -355.5816 
L 224.508 -355.5816 
L 224.676 -355.5816 
L 224.844 -355.5816 
L 225.012 -355.5816 
L 225.18 -355.5816 
L 225.348 -355.5816 
L 225.516 -355.5816 
L 225.684 -355.5816 
L 225.852 -355.5816 
L 226.02 -355.5816 
L 226.188 -355.5816 
L 226.356 -355.5816 
L 226.524 -355.5816 
L 226.692 -355.5816 
L 226.86 -355.5816 
L 227.028 -355.5816 
L 227.196 -355.4696 
L 227.364 -355.230667 
L 227.532 -355.212 
L 227.7 -355.212 
L 227.868 -355.212 
L 228.036 -355.212 
L 228.204 -355.212 
L 228.372 -355.212 
L 228.54 -355.212 
L 228.708 -355.212 
L 228.876 -355.212 
L 229.044 -355.212 
L 229.212 -355.212 
L 229.38 -355.212 
L 229.548 -355.212 
L 229.716 -355.212 
L 229.716 -355.212 
L 229.716 -355.212 
L 229.548 -355.212 
L 229.38 -355.212 
L 229.212 -355.212 
L 229.044 -355.212 
L 228.876 -355.212 
L 228.708 -355.212 
L 228.54 -355.212 
L 228.372 -355.212 
L 228.204 -355.212 
L 228.036 -355.212 
L 227.868 -355.212 
L 227.7 -355.212 
L 227.532 -355.212 
L 227.364 -355.212 
L 227.196 -355.212 
L 227.028 -355.212 
L 226.86 -355.212 
L 226.692 -355.212 
L 226.524 -355.212 
L 226.356 -355.212 
L 226.188 -355.212 
L 226.02 -355.212 
L 225.852 -355.212 
L 225.684 -355.212 
L 225.516 -355.212 
L 225.348 -355.212 
L 225.18 -355.212 
L 225.012 -355.212 
L 224.844 -355.212 
L 224.676 -355.212 
L 224.508 -355.212 
L 224.34 -355.212 
L 224.172 -355.212 
L 224.004 -355.212 
L 223.836 -355.212 
L 223.668 -355.212 
L 223.5 -355.212 
L 223.332 -355.212 
L 223.164 -355.212 
L 222.996 -355.212 
L 222.828 -355.212 
L 222.66 -355.212 
L 222.492 -355.212 
L 222.324 -355.212 
L 222.156 -355.212 
L 221.988 -355.212 
L 221.82 -355.212 
L 221.652 -355.212 
L 221.484 -355.212 
L 221.316 -355.212 
L 221.148 -355.212 
L 220.98 -355.212 
L 220.812 -355.212 
L 220.644 -355.212 
L 220.476 -355.212 
L 220.308 -355.212 
L 220.14 -355.212 
L 219.972 -355.212 
L 219.804 -355.212 
L 219.636 -355.212 
L 219.468 -355.212 
L 219.3 -355.212 
L 219.132 -355.24324 
L 218.964 -355.411101 
L 218.796 -355.411101 
L 218.628 -355.918138 
L 218.46 -355.966708 
L 218.292 -355.966708 
L 218.124 -356.102938 
L 217.956 -356.294664 
L 217.788 -356.294664 
L 217.62 -356.272366 
L 217.452 -356.20949 
L 217.284 -356.267356 
L 217.116 -356.554924 
L 216.948 -356.554924 
L 216.78 -356.59072 
L 216.612 -356.750076 
L 216.444 -356.750076 
L 216.276 -357.055814 
L 216.108 -357.258587 
L 215.94 -357.40213 
L 215.772 -357.838922 
L 215.604 -358.161604 
L 215.436 -358.161604 
L 215.268 -358.517515 
L 215.1 -358.839984 
L 214.932 -358.839984 
L 214.764 -358.839984 
L 214.596 -359.137176 
L 214.428 -359.137176 
L 214.26 -360.027232 
L 214.092 -361.318073 
L 213.924 -361.318073 
L 213.756 -361.88292 
L 213.588 -363.432215 
L 213.42 -363.432215 
L 213.252 -365.385951 
L 213.084 -371.844 
z
" style="stroke: #808080; stroke-opacity: 0.2"/>
    </defs>
    <g clip-path="url(#p96d866bed0)">
     <use xlink:href="#m846b663111" x="0" y="432" style="fill: #808080; fill-opacity: 0.2; stroke: #808080; stroke-opacity: 0.2"/>
    </g>
   </g>
   <g id="patch_3">
    <path d="M 213.084 53.5032 
L 213.800364 53.5032 
L 213.800364 66.8088 
L 213.084 66.8088 
z
" clip-path="url(#p96d866bed0)" style="fill: #808080; stroke: #ffffff; stroke-linejoin: miter"/>
   </g>
   <g id="patch_4">
    <path d="M 213.084 70.1352 
L 213.716197 70.1352 
L 213.716197 83.4408 
L 213.084 83.4408 
z
" clip-path="url(#p96d866bed0)" style="fill: #808080; stroke: #ffffff; stroke-linejoin: miter"/>
   </g>
   <g id="patch_5">
    <path d="M 213.084 86.7672 
L 213.61425 86.7672 
L 213.61425 100.0728 
L 213.084 100.0728 
z
" clip-path="url(#p96d866bed0)" style="fill: #808080; stroke: #ffffff; stroke-linejoin: miter"/>
   </g>
   <g id="patch_6">
    <path d="M 213.084 103.3992 
L 213.581605 103.3992 
L 213.581605 116.7048 
L 213.084 116.7048 
z
" clip-path="url(#p96d866bed0)" style="fill: #808080; stroke: #ffffff; stroke-linejoin: miter"/>
   </g>
   <g id="patch_7">
    <path d="M 213.084 120.0312 
L 213.576571 120.0312 
L 213.576571 133.3368 
L 213.084 133.3368 
z
" clip-path="url(#p96d866bed0)" style="fill: #808080; stroke: #ffffff; stroke-linejoin: miter"/>
   </g>
   <g id="patch_8">
    <path d="M 213.084 136.6632 
L 213.542572 136.6632 
L 213.542572 149.9688 
L 213.084 149.9688 
z
" clip-path="url(#p96d866bed0)" style="fill: #808080; stroke: #ffffff; stroke-linejoin: miter"/>
   </g>
   <g id="patch_9">
    <path d="M 213.084 153.2952 
L 213.528045 153.2952 
L 213.528045 166.6008 
L 213.084 166.6008 
z
" clip-path="url(#p96d866bed0)" style="fill: #808080; stroke: #ffffff; stroke-linejoin: miter"/>
   </g>
   <g id="patch_10">
    <path d="M 213.084 169.9272 
L 213.446699 169.9272 
L 213.446699 183.2328 
L 213.084 183.2328 
z
" clip-path="url(#p96d866bed0)" style="fill: #808080; stroke: #ffffff; stroke-linejoin: miter"/>
   </g>
   <g id="patch_11">
    <path d="M 213.084 186.5592 
L 213.446445 186.5592 
L 213.446445 199.8648 
L 213.084 199.8648 
z
" clip-path="url(#p96d866bed0)" style="fill: #808080; stroke: #ffffff; stroke-linejoin: miter"/>
   </g>
   <g id="patch_12">
    <path d="M 213.084 203.1912 
L 213.438147 203.1912 
L 213.438147 216.4968 
L 213.084 216.4968 
z
" clip-path="url(#p96d866bed0)" style="fill: #808080; stroke: #ffffff; stroke-linejoin: miter"/>
   </g>
   <g id="patch_13">
    <path d="M 213.084 219.8232 
L 213.4325 219.8232 
L 213.4325 233.1288 
L 213.084 233.1288 
z
" clip-path="url(#p96d866bed0)" style="fill: #808080; stroke: #ffffff; stroke-linejoin: miter"/>
   </g>
   <g id="patch_14">
    <path d="M 213.084 236.4552 
L 213.420163 236.4552 
L 213.420163 249.7608 
L 213.084 249.7608 
z
" clip-path="url(#p96d866bed0)" style="fill: #808080; stroke: #ffffff; stroke-linejoin: miter"/>
   </g>
   <g id="patch_15">
    <path d="M 213.084 253.0872 
L 213.393175 253.0872 
L 213.393175 266.3928 
L 213.084 266.3928 
z
" clip-path="url(#p96d866bed0)" style="fill: #808080; stroke: #ffffff; stroke-linejoin: miter"/>
   </g>
   <g id="patch_16">
    <path d="M 213.084 269.7192 
L 213.3851 269.7192 
L 213.3851 283.0248 
L 213.084 283.0248 
z
" clip-path="url(#p96d866bed0)" style="fill: #808080; stroke: #ffffff; stroke-linejoin: miter"/>
   </g>
   <g id="patch_17">
    <path d="M 213.084 286.3512 
L 213.382603 286.3512 
L 213.382603 299.6568 
L 213.084 299.6568 
z
" clip-path="url(#p96d866bed0)" style="fill: #808080; stroke: #ffffff; stroke-linejoin: miter"/>
   </g>
   <g id="patch_18">
    <path d="M 213.084 302.9832 
L 213.37669 302.9832 
L 213.37669 316.2888 
L 213.084 316.2888 
z
" clip-path="url(#p96d866bed0)" style="fill: #808080; stroke: #ffffff; stroke-linejoin: miter"/>
   </g>
   <g id="patch_19">
    <path d="M 213.084 319.6152 
L 213.373785 319.6152 
L 213.373785 332.9208 
L 213.084 332.9208 
z
" clip-path="url(#p96d866bed0)" style="fill: #808080; stroke: #ffffff; stroke-linejoin: miter"/>
   </g>
   <g id="patch_20">
    <path d="M 213.084 336.2472 
L 213.351861 336.2472 
L 213.351861 349.5528 
L 213.084 349.5528 
z
" clip-path="url(#p96d866bed0)" style="fill: #808080; stroke: #ffffff; stroke-linejoin: miter"/>
   </g>
   <g id="patch_21">
    <path d="M 213.084 352.8792 
L 213.350014 352.8792 
L 213.350014 366.1848 
L 213.084 366.1848 
z
" clip-path="url(#p96d866bed0)" style="fill: #808080; stroke: #ffffff; stroke-linejoin: miter"/>
   </g>
   <g id="patch_22">
    <path d="M 213.084 369.5112 
L 213.342319 369.5112 
L 213.342319 382.8168 
L 213.084 382.8168 
z
" clip-path="url(#p96d866bed0)" style="fill: #808080; stroke: #ffffff; stroke-linejoin: miter"/>
   </g>
   <g id="matplotlib.axis_1">
    <g id="xtick_1">
     <g id="line2d_1">
      <path d="M 213.084 384.48 
L 213.084 51.84 
" clip-path="url(#p96d866bed0)" style="fill: none; stroke: #b0b0b0; stroke-width: 0.1; stroke-linecap: square"/>
     </g>
     <g id="line2d_2">
      <defs>
       <path id="m5a1287eda3" d="M 0 0 
L 0 3.5 
" style="stroke: #000000; stroke-width: 0.8"/>
      </defs>
      <g>
       <use xlink:href="#m5a1287eda3" x="213.084" y="384.48" style="stroke: #000000; stroke-width: 0.8"/>
      </g>
     </g>
     <g id="text_1">
      <!-- 0 -->
      <g transform="translate(209.90275 399.078438) scale(0.1 -0.1)">
       <defs>
        <path id="DejaVuSans-30" d="M 2034 4250 
Q 1547 4250 1301 3770 
Q 1056 3291 1056 2328 
Q 1056 1369 1301 889 
Q 1547 409 2034 409 
Q 2525 409 2770 889 
Q 3016 1369 3016 2328 
Q 3016 3291 2770 3770 
Q 2525 4250 2034 4250 
z
M 2034 4750 
Q 2819 4750 3233 4129 
Q 3647 3509 3647 2328 
Q 3647 1150 3233 529 
Q 2819 -91 2034 -91 
Q 1250 -91 836 529 
Q 422 1150 422 2328 
Q 422 3509 836 4129 
Q 1250 4750 2034 4750 
z
" transform="scale(0.015625)"/>
       </defs>
       <use xlink:href="#DejaVuSans-30"/>
      </g>
     </g>
    </g>
    <g id="xtick_2">
     <g id="line2d_3">
      <path d="M 229.716 384.48 
L 229.716 51.84 
" clip-path="url(#p96d866bed0)" style="fill: none; stroke: #b0b0b0; stroke-width: 0.1; stroke-linecap: square"/>
     </g>
     <g id="line2d_4">
      <g>
       <use xlink:href="#m5a1287eda3" x="229.716" y="384.48" style="stroke: #000000; stroke-width: 0.8"/>
      </g>
     </g>
     <g id="text_2">
      <!-- 1 -->
      <g transform="translate(226.53475 399.078438) scale(0.1 -0.1)">
       <defs>
        <path id="DejaVuSans-31" d="M 794 531 
L 1825 531 
L 1825 4091 
L 703 3866 
L 703 4441 
L 1819 4666 
L 2450 4666 
L 2450 531 
L 3481 531 
L 3481 0 
L 794 0 
L 794 531 
z
" transform="scale(0.015625)"/>
       </defs>
       <use xlink:href="#DejaVuSans-31"/>
      </g>
     </g>
    </g>
    <g id="text_3">
     <!-- Importance -->
     <g transform="translate(192.746875 412.756563) scale(0.1 -0.1)">
      <defs>
       <path id="DejaVuSans-49" d="M 628 4666 
L 1259 4666 
L 1259 0 
L 628 0 
L 628 4666 
z
" transform="scale(0.015625)"/>
       <path id="DejaVuSans-6d" d="M 3328 2828 
Q 3544 3216 3844 3400 
Q 4144 3584 4550 3584 
Q 5097 3584 5394 3201 
Q 5691 2819 5691 2113 
L 5691 0 
L 5113 0 
L 5113 2094 
Q 5113 2597 4934 2840 
Q 4756 3084 4391 3084 
Q 3944 3084 3684 2787 
Q 3425 2491 3425 1978 
L 3425 0 
L 2847 0 
L 2847 2094 
Q 2847 2600 2669 2842 
Q 2491 3084 2119 3084 
Q 1678 3084 1418 2786 
Q 1159 2488 1159 1978 
L 1159 0 
L 581 0 
L 581 3500 
L 1159 3500 
L 1159 2956 
Q 1356 3278 1631 3431 
Q 1906 3584 2284 3584 
Q 2666 3584 2933 3390 
Q 3200 3197 3328 2828 
z
" transform="scale(0.015625)"/>
       <path id="DejaVuSans-70" d="M 1159 525 
L 1159 -1331 
L 581 -1331 
L 581 3500 
L 1159 3500 
L 1159 2969 
Q 1341 3281 1617 3432 
Q 1894 3584 2278 3584 
Q 2916 3584 3314 3078 
Q 3713 2572 3713 1747 
Q 3713 922 3314 415 
Q 2916 -91 2278 -91 
Q 1894 -91 1617 61 
Q 1341 213 1159 525 
z
M 3116 1747 
Q 3116 2381 2855 2742 
Q 2594 3103 2138 3103 
Q 1681 3103 1420 2742 
Q 1159 2381 1159 1747 
Q 1159 1113 1420 752 
Q 1681 391 2138 391 
Q 2594 391 2855 752 
Q 3116 1113 3116 1747 
z
" transform="scale(0.015625)"/>
       <path id="DejaVuSans-6f" d="M 1959 3097 
Q 1497 3097 1228 2736 
Q 959 2375 959 1747 
Q 959 1119 1226 758 
Q 1494 397 1959 397 
Q 2419 397 2687 759 
Q 2956 1122 2956 1747 
Q 2956 2369 2687 2733 
Q 2419 3097 1959 3097 
z
M 1959 3584 
Q 2709 3584 3137 3096 
Q 3566 2609 3566 1747 
Q 3566 888 3137 398 
Q 2709 -91 1959 -91 
Q 1206 -91 779 398 
Q 353 888 353 1747 
Q 353 2609 779 3096 
Q 1206 3584 1959 3584 
z
" transform="scale(0.015625)"/>
       <path id="DejaVuSans-72" d="M 2631 2963 
Q 2534 3019 2420 3045 
Q 2306 3072 2169 3072 
Q 1681 3072 1420 2755 
Q 1159 2438 1159 1844 
L 1159 0 
L 581 0 
L 581 3500 
L 1159 3500 
L 1159 2956 
Q 1341 3275 1631 3429 
Q 1922 3584 2338 3584 
Q 2397 3584 2469 3576 
Q 2541 3569 2628 3553 
L 2631 2963 
z
" transform="scale(0.015625)"/>
       <path id="DejaVuSans-74" d="M 1172 4494 
L 1172 3500 
L 2356 3500 
L 2356 3053 
L 1172 3053 
L 1172 1153 
Q 1172 725 1289 603 
Q 1406 481 1766 481 
L 2356 481 
L 2356 0 
L 1766 0 
Q 1100 0 847 248 
Q 594 497 594 1153 
L 594 3053 
L 172 3053 
L 172 3500 
L 594 3500 
L 594 4494 
L 1172 4494 
z
" transform="scale(0.015625)"/>
       <path id="DejaVuSans-61" d="M 2194 1759 
Q 1497 1759 1228 1600 
Q 959 1441 959 1056 
Q 959 750 1161 570 
Q 1363 391 1709 391 
Q 2188 391 2477 730 
Q 2766 1069 2766 1631 
L 2766 1759 
L 2194 1759 
z
M 3341 1997 
L 3341 0 
L 2766 0 
L 2766 531 
Q 2569 213 2275 61 
Q 1981 -91 1556 -91 
Q 1019 -91 701 211 
Q 384 513 384 1019 
Q 384 1609 779 1909 
Q 1175 2209 1959 2209 
L 2766 2209 
L 2766 2266 
Q 2766 2663 2505 2880 
Q 2244 3097 1772 3097 
Q 1472 3097 1187 3025 
Q 903 2953 641 2809 
L 641 3341 
Q 956 3463 1253 3523 
Q 1550 3584 1831 3584 
Q 2591 3584 2966 3190 
Q 3341 2797 3341 1997 
z
" transform="scale(0.015625)"/>
       <path id="DejaVuSans-6e" d="M 3513 2113 
L 3513 0 
L 2938 0 
L 2938 2094 
Q 2938 2591 2744 2837 
Q 2550 3084 2163 3084 
Q 1697 3084 1428 2787 
Q 1159 2491 1159 1978 
L 1159 0 
L 581 0 
L 581 3500 
L 1159 3500 
L 1159 2956 
Q 1366 3272 1645 3428 
Q 1925 3584 2291 3584 
Q 2894 3584 3203 3211 
Q 3513 2838 3513 2113 
z
" transform="scale(0.015625)"/>
       <path id="DejaVuSans-63" d="M 3122 3366 
L 3122 2828 
Q 2878 2963 2633 3030 
Q 2388 3097 2138 3097 
Q 1578 3097 1268 2742 
Q 959 2388 959 1747 
Q 959 1106 1268 751 
Q 1578 397 2138 397 
Q 2388 397 2633 464 
Q 2878 531 3122 666 
L 3122 134 
Q 2881 22 2623 -34 
Q 2366 -91 2075 -91 
Q 1284 -91 818 406 
Q 353 903 353 1747 
Q 353 2603 823 3093 
Q 1294 3584 2113 3584 
Q 2378 3584 2631 3529 
Q 2884 3475 3122 3366 
z
" transform="scale(0.015625)"/>
       <path id="DejaVuSans-65" d="M 3597 1894 
L 3597 1613 
L 953 1613 
Q 991 1019 1311 708 
Q 1631 397 2203 397 
Q 2534 397 2845 478 
Q 3156 559 3463 722 
L 3463 178 
Q 3153 47 2828 -22 
Q 2503 -91 2169 -91 
Q 1331 -91 842 396 
Q 353 884 353 1716 
Q 353 2575 817 3079 
Q 1281 3584 2069 3584 
Q 2775 3584 3186 3129 
Q 3597 2675 3597 1894 
z
M 3022 2063 
Q 3016 2534 2758 2815 
Q 2500 3097 2075 3097 
Q 1594 3097 1305 2825 
Q 1016 2553 972 2059 
L 3022 2063 
z
" transform="scale(0.015625)"/>
      </defs>
      <use xlink:href="#DejaVuSans-49"/>
      <use xlink:href="#DejaVuSans-6d" x="29.492188"/>
      <use xlink:href="#DejaVuSans-70" x="126.904297"/>
      <use xlink:href="#DejaVuSans-6f" x="190.380859"/>
      <use xlink:href="#DejaVuSans-72" x="251.5625"/>
      <use xlink:href="#DejaVuSans-74" x="292.675781"/>
      <use xlink:href="#DejaVuSans-61" x="331.884766"/>
      <use xlink:href="#DejaVuSans-6e" x="393.164062"/>
      <use xlink:href="#DejaVuSans-63" x="456.542969"/>
      <use xlink:href="#DejaVuSans-65" x="511.523438"/>
     </g>
    </g>
   </g>
   <g id="matplotlib.axis_2">
    <g id="ytick_1">
     <g id="line2d_5">
      <path d="M 212.2524 60.156 
L 230.5476 60.156 
" clip-path="url(#p96d866bed0)" style="fill: none; stroke: #b0b0b0; stroke-width: 0.1; stroke-linecap: square"/>
     </g>
     <g id="line2d_6">
      <defs>
       <path id="mb63d9739db" d="M 0 0 
L -3.5 0 
" style="stroke: #000000; stroke-width: 0.8"/>
      </defs>
      <g>
       <use xlink:href="#mb63d9739db" x="212.2524" y="60.156" style="stroke: #000000; stroke-width: 0.8"/>
      </g>
     </g>
     <g id="text_4">
      <!-- hmmScoreMUT -->
      <g transform="translate(129.374275 63.955219) scale(0.1 -0.1)">
       <defs>
        <path id="DejaVuSans-68" d="M 3513 2113 
L 3513 0 
L 2938 0 
L 2938 2094 
Q 2938 2591 2744 2837 
Q 2550 3084 2163 3084 
Q 1697 3084 1428 2787 
Q 1159 2491 1159 1978 
L 1159 0 
L 581 0 
L 581 4863 
L 1159 4863 
L 1159 2956 
Q 1366 3272 1645 3428 
Q 1925 3584 2291 3584 
Q 2894 3584 3203 3211 
Q 3513 2838 3513 2113 
z
" transform="scale(0.015625)"/>
        <path id="DejaVuSans-53" d="M 3425 4513 
L 3425 3897 
Q 3066 4069 2747 4153 
Q 2428 4238 2131 4238 
Q 1616 4238 1336 4038 
Q 1056 3838 1056 3469 
Q 1056 3159 1242 3001 
Q 1428 2844 1947 2747 
L 2328 2669 
Q 3034 2534 3370 2195 
Q 3706 1856 3706 1288 
Q 3706 609 3251 259 
Q 2797 -91 1919 -91 
Q 1588 -91 1214 -16 
Q 841 59 441 206 
L 441 856 
Q 825 641 1194 531 
Q 1563 422 1919 422 
Q 2459 422 2753 634 
Q 3047 847 3047 1241 
Q 3047 1584 2836 1778 
Q 2625 1972 2144 2069 
L 1759 2144 
Q 1053 2284 737 2584 
Q 422 2884 422 3419 
Q 422 4038 858 4394 
Q 1294 4750 2059 4750 
Q 2388 4750 2728 4690 
Q 3069 4631 3425 4513 
z
" transform="scale(0.015625)"/>
        <path id="DejaVuSans-4d" d="M 628 4666 
L 1569 4666 
L 2759 1491 
L 3956 4666 
L 4897 4666 
L 4897 0 
L 4281 0 
L 4281 4097 
L 3078 897 
L 2444 897 
L 1241 4097 
L 1241 0 
L 628 0 
L 628 4666 
z
" transform="scale(0.015625)"/>
        <path id="DejaVuSans-55" d="M 556 4666 
L 1191 4666 
L 1191 1831 
Q 1191 1081 1462 751 
Q 1734 422 2344 422 
Q 2950 422 3222 751 
Q 3494 1081 3494 1831 
L 3494 4666 
L 4128 4666 
L 4128 1753 
Q 4128 841 3676 375 
Q 3225 -91 2344 -91 
Q 1459 -91 1007 375 
Q 556 841 556 1753 
L 556 4666 
z
" transform="scale(0.015625)"/>
        <path id="DejaVuSans-54" d="M -19 4666 
L 3928 4666 
L 3928 4134 
L 2272 4134 
L 2272 0 
L 1638 0 
L 1638 4134 
L -19 4134 
L -19 4666 
z
" transform="scale(0.015625)"/>
       </defs>
       <use xlink:href="#DejaVuSans-68"/>
       <use xlink:href="#DejaVuSans-6d" x="63.378906"/>
       <use xlink:href="#DejaVuSans-6d" x="160.791016"/>
       <use xlink:href="#DejaVuSans-53" x="258.203125"/>
       <use xlink:href="#DejaVuSans-63" x="321.679688"/>
       <use xlink:href="#DejaVuSans-6f" x="376.660156"/>
       <use xlink:href="#DejaVuSans-72" x="437.841797"/>
       <use xlink:href="#DejaVuSans-65" x="476.705078"/>
       <use xlink:href="#DejaVuSans-4d" x="538.228516"/>
       <use xlink:href="#DejaVuSans-55" x="624.507812"/>
       <use xlink:href="#DejaVuSans-54" x="697.701172"/>
      </g>
     </g>
    </g>
    <g id="ytick_2">
     <g id="line2d_7">
      <path d="M 212.2524 76.788 
L 230.5476 76.788 
" clip-path="url(#p96d866bed0)" style="fill: none; stroke: #b0b0b0; stroke-width: 0.1; stroke-linecap: square"/>
     </g>
     <g id="line2d_8">
      <g>
       <use xlink:href="#mb63d9739db" x="212.2524" y="76.788" style="stroke: #000000; stroke-width: 0.8"/>
      </g>
     </g>
     <g id="text_5">
      <!-- D_A_0_pfam -->
      <g transform="translate(143.611775 80.587219) scale(0.1 -0.1)">
       <defs>
        <path id="DejaVuSans-44" d="M 1259 4147 
L 1259 519 
L 2022 519 
Q 2988 519 3436 956 
Q 3884 1394 3884 2338 
Q 3884 3275 3436 3711 
Q 2988 4147 2022 4147 
L 1259 4147 
z
M 628 4666 
L 1925 4666 
Q 3281 4666 3915 4102 
Q 4550 3538 4550 2338 
Q 4550 1131 3912 565 
Q 3275 0 1925 0 
L 628 0 
L 628 4666 
z
" transform="scale(0.015625)"/>
        <path id="DejaVuSans-5f" d="M 3263 -1063 
L 3263 -1509 
L -63 -1509 
L -63 -1063 
L 3263 -1063 
z
" transform="scale(0.015625)"/>
        <path id="DejaVuSans-41" d="M 2188 4044 
L 1331 1722 
L 3047 1722 
L 2188 4044 
z
M 1831 4666 
L 2547 4666 
L 4325 0 
L 3669 0 
L 3244 1197 
L 1141 1197 
L 716 0 
L 50 0 
L 1831 4666 
z
" transform="scale(0.015625)"/>
        <path id="DejaVuSans-66" d="M 2375 4863 
L 2375 4384 
L 1825 4384 
Q 1516 4384 1395 4259 
Q 1275 4134 1275 3809 
L 1275 3500 
L 2222 3500 
L 2222 3053 
L 1275 3053 
L 1275 0 
L 697 0 
L 697 3053 
L 147 3053 
L 147 3500 
L 697 3500 
L 697 3744 
Q 697 4328 969 4595 
Q 1241 4863 1831 4863 
L 2375 4863 
z
" transform="scale(0.015625)"/>
       </defs>
       <use xlink:href="#DejaVuSans-44"/>
       <use xlink:href="#DejaVuSans-5f" x="77.001953"/>
       <use xlink:href="#DejaVuSans-41" x="127.001953"/>
       <use xlink:href="#DejaVuSans-5f" x="195.410156"/>
       <use xlink:href="#DejaVuSans-30" x="245.410156"/>
       <use xlink:href="#DejaVuSans-5f" x="309.033203"/>
       <use xlink:href="#DejaVuSans-70" x="359.033203"/>
       <use xlink:href="#DejaVuSans-66" x="422.509766"/>
       <use xlink:href="#DejaVuSans-61" x="457.714844"/>
       <use xlink:href="#DejaVuSans-6d" x="518.994141"/>
      </g>
     </g>
    </g>
    <g id="ytick_3">
     <g id="line2d_9">
      <path d="M 212.2524 93.42 
L 230.5476 93.42 
" clip-path="url(#p96d866bed0)" style="fill: none; stroke: #b0b0b0; stroke-width: 0.1; stroke-linecap: square"/>
     </g>
     <g id="line2d_10">
      <g>
       <use xlink:href="#mb63d9739db" x="212.2524" y="93.42" style="stroke: #000000; stroke-width: 0.8"/>
      </g>
     </g>
     <g id="text_6">
      <!-- hmmScoreWT -->
      <g transform="translate(135.43365 97.219219) scale(0.1 -0.1)">
       <defs>
        <path id="DejaVuSans-57" d="M 213 4666 
L 850 4666 
L 1831 722 
L 2809 4666 
L 3519 4666 
L 4500 722 
L 5478 4666 
L 6119 4666 
L 4947 0 
L 4153 0 
L 3169 4050 
L 2175 0 
L 1381 0 
L 213 4666 
z
" transform="scale(0.015625)"/>
       </defs>
       <use xlink:href="#DejaVuSans-68"/>
       <use xlink:href="#DejaVuSans-6d" x="63.378906"/>
       <use xlink:href="#DejaVuSans-6d" x="160.791016"/>
       <use xlink:href="#DejaVuSans-53" x="258.203125"/>
       <use xlink:href="#DejaVuSans-63" x="321.679688"/>
       <use xlink:href="#DejaVuSans-6f" x="376.660156"/>
       <use xlink:href="#DejaVuSans-72" x="437.841797"/>
       <use xlink:href="#DejaVuSans-65" x="476.705078"/>
       <use xlink:href="#DejaVuSans-57" x="538.228516"/>
       <use xlink:href="#DejaVuSans-54" x="637.105469"/>
      </g>
     </g>
    </g>
    <g id="ytick_4">
     <g id="line2d_11">
      <path d="M 212.2524 110.052 
L 230.5476 110.052 
" clip-path="url(#p96d866bed0)" style="fill: none; stroke: #b0b0b0; stroke-width: 0.1; stroke-linecap: square"/>
     </g>
     <g id="line2d_12">
      <g>
       <use xlink:href="#mb63d9739db" x="212.2524" y="110.052" style="stroke: #000000; stroke-width: 0.8"/>
      </g>
     </g>
     <g id="text_7">
      <!-- allHomologs_0 -->
      <g transform="translate(132.2524 113.851219) scale(0.1 -0.1)">
       <defs>
        <path id="DejaVuSans-6c" d="M 603 4863 
L 1178 4863 
L 1178 0 
L 603 0 
L 603 4863 
z
" transform="scale(0.015625)"/>
        <path id="DejaVuSans-48" d="M 628 4666 
L 1259 4666 
L 1259 2753 
L 3553 2753 
L 3553 4666 
L 4184 4666 
L 4184 0 
L 3553 0 
L 3553 2222 
L 1259 2222 
L 1259 0 
L 628 0 
L 628 4666 
z
" transform="scale(0.015625)"/>
        <path id="DejaVuSans-67" d="M 2906 1791 
Q 2906 2416 2648 2759 
Q 2391 3103 1925 3103 
Q 1463 3103 1205 2759 
Q 947 2416 947 1791 
Q 947 1169 1205 825 
Q 1463 481 1925 481 
Q 2391 481 2648 825 
Q 2906 1169 2906 1791 
z
M 3481 434 
Q 3481 -459 3084 -895 
Q 2688 -1331 1869 -1331 
Q 1566 -1331 1297 -1286 
Q 1028 -1241 775 -1147 
L 775 -588 
Q 1028 -725 1275 -790 
Q 1522 -856 1778 -856 
Q 2344 -856 2625 -561 
Q 2906 -266 2906 331 
L 2906 616 
Q 2728 306 2450 153 
Q 2172 0 1784 0 
Q 1141 0 747 490 
Q 353 981 353 1791 
Q 353 2603 747 3093 
Q 1141 3584 1784 3584 
Q 2172 3584 2450 3431 
Q 2728 3278 2906 2969 
L 2906 3500 
L 3481 3500 
L 3481 434 
z
" transform="scale(0.015625)"/>
        <path id="DejaVuSans-73" d="M 2834 3397 
L 2834 2853 
Q 2591 2978 2328 3040 
Q 2066 3103 1784 3103 
Q 1356 3103 1142 2972 
Q 928 2841 928 2578 
Q 928 2378 1081 2264 
Q 1234 2150 1697 2047 
L 1894 2003 
Q 2506 1872 2764 1633 
Q 3022 1394 3022 966 
Q 3022 478 2636 193 
Q 2250 -91 1575 -91 
Q 1294 -91 989 -36 
Q 684 19 347 128 
L 347 722 
Q 666 556 975 473 
Q 1284 391 1588 391 
Q 1994 391 2212 530 
Q 2431 669 2431 922 
Q 2431 1156 2273 1281 
Q 2116 1406 1581 1522 
L 1381 1569 
Q 847 1681 609 1914 
Q 372 2147 372 2553 
Q 372 3047 722 3315 
Q 1072 3584 1716 3584 
Q 2034 3584 2315 3537 
Q 2597 3491 2834 3397 
z
" transform="scale(0.015625)"/>
       </defs>
       <use xlink:href="#DejaVuSans-61"/>
       <use xlink:href="#DejaVuSans-6c" x="61.279297"/>
       <use xlink:href="#DejaVuSans-6c" x="89.0625"/>
       <use xlink:href="#DejaVuSans-48" x="116.845703"/>
       <use xlink:href="#DejaVuSans-6f" x="192.041016"/>
       <use xlink:href="#DejaVuSans-6d" x="253.222656"/>
       <use xlink:href="#DejaVuSans-6f" x="350.634766"/>
       <use xlink:href="#DejaVuSans-6c" x="411.816406"/>
       <use xlink:href="#DejaVuSans-6f" x="439.599609"/>
       <use xlink:href="#DejaVuSans-67" x="500.78125"/>
       <use xlink:href="#DejaVuSans-73" x="564.257812"/>
       <use xlink:href="#DejaVuSans-5f" x="616.357422"/>
       <use xlink:href="#DejaVuSans-30" x="666.357422"/>
      </g>
     </g>
    </g>
    <g id="ytick_5">
     <g id="line2d_13">
      <path d="M 212.2524 126.684 
L 230.5476 126.684 
" clip-path="url(#p96d866bed0)" style="fill: none; stroke: #b0b0b0; stroke-width: 0.1; stroke-linecap: square"/>
     </g>
     <g id="line2d_14">
      <g>
       <use xlink:href="#mb63d9739db" x="212.2524" y="126.684" style="stroke: #000000; stroke-width: 0.8"/>
      </g>
     </g>
     <g id="text_8">
      <!-- A_MUT -->
      <g transform="translate(171.357087 130.344156) scale(0.1 -0.1)">
       <use xlink:href="#DejaVuSans-41"/>
       <use xlink:href="#DejaVuSans-5f" x="68.408203"/>
       <use xlink:href="#DejaVuSans-4d" x="118.408203"/>
       <use xlink:href="#DejaVuSans-55" x="204.6875"/>
       <use xlink:href="#DejaVuSans-54" x="277.880859"/>
      </g>
     </g>
    </g>
    <g id="ytick_6">
     <g id="line2d_15">
      <path d="M 212.2524 143.316 
L 230.5476 143.316 
" clip-path="url(#p96d866bed0)" style="fill: none; stroke: #b0b0b0; stroke-width: 0.1; stroke-linecap: square"/>
     </g>
     <g id="line2d_16">
      <g>
       <use xlink:href="#mb63d9739db" x="212.2524" y="143.316" style="stroke: #000000; stroke-width: 0.8"/>
      </g>
     </g>
     <g id="text_9">
      <!-- D_D_0_pfam -->
      <g transform="translate(142.7524 147.115219) scale(0.1 -0.1)">
       <use xlink:href="#DejaVuSans-44"/>
       <use xlink:href="#DejaVuSans-5f" x="77.001953"/>
       <use xlink:href="#DejaVuSans-44" x="127.001953"/>
       <use xlink:href="#DejaVuSans-5f" x="204.003906"/>
       <use xlink:href="#DejaVuSans-30" x="254.003906"/>
       <use xlink:href="#DejaVuSans-5f" x="317.626953"/>
       <use xlink:href="#DejaVuSans-70" x="367.626953"/>
       <use xlink:href="#DejaVuSans-66" x="431.103516"/>
       <use xlink:href="#DejaVuSans-61" x="466.308594"/>
       <use xlink:href="#DejaVuSans-6d" x="527.587891"/>
      </g>
     </g>
    </g>
    <g id="ytick_7">
     <g id="line2d_17">
      <path d="M 212.2524 159.948 
L 230.5476 159.948 
" clip-path="url(#p96d866bed0)" style="fill: none; stroke: #b0b0b0; stroke-width: 0.1; stroke-linecap: square"/>
     </g>
     <g id="line2d_18">
      <g>
       <use xlink:href="#mb63d9739db" x="212.2524" y="159.948" style="stroke: #000000; stroke-width: 0.8"/>
      </g>
     </g>
     <g id="text_10">
      <!-- bpsh_0 -->
      <g transform="translate(169.64615 163.747219) scale(0.1 -0.1)">
       <defs>
        <path id="DejaVuSans-62" d="M 3116 1747 
Q 3116 2381 2855 2742 
Q 2594 3103 2138 3103 
Q 1681 3103 1420 2742 
Q 1159 2381 1159 1747 
Q 1159 1113 1420 752 
Q 1681 391 2138 391 
Q 2594 391 2855 752 
Q 3116 1113 3116 1747 
z
M 1159 2969 
Q 1341 3281 1617 3432 
Q 1894 3584 2278 3584 
Q 2916 3584 3314 3078 
Q 3713 2572 3713 1747 
Q 3713 922 3314 415 
Q 2916 -91 2278 -91 
Q 1894 -91 1617 61 
Q 1341 213 1159 525 
L 1159 0 
L 581 0 
L 581 4863 
L 1159 4863 
L 1159 2969 
z
" transform="scale(0.015625)"/>
       </defs>
       <use xlink:href="#DejaVuSans-62"/>
       <use xlink:href="#DejaVuSans-70" x="63.476562"/>
       <use xlink:href="#DejaVuSans-73" x="126.953125"/>
       <use xlink:href="#DejaVuSans-68" x="179.052734"/>
       <use xlink:href="#DejaVuSans-5f" x="242.431641"/>
       <use xlink:href="#DejaVuSans-30" x="292.431641"/>
      </g>
     </g>
    </g>
    <g id="ytick_8">
     <g id="line2d_19">
      <path d="M 212.2524 176.58 
L 230.5476 176.58 
" clip-path="url(#p96d866bed0)" style="fill: none; stroke: #b0b0b0; stroke-width: 0.1; stroke-linecap: square"/>
     </g>
     <g id="line2d_20">
      <g>
       <use xlink:href="#mb63d9739db" x="212.2524" y="176.58" style="stroke: #000000; stroke-width: 0.8"/>
      </g>
     </g>
     <g id="text_11">
      <!-- D_S_0_pfam -->
      <g transform="translate(144.103962 180.379219) scale(0.1 -0.1)">
       <use xlink:href="#DejaVuSans-44"/>
       <use xlink:href="#DejaVuSans-5f" x="77.001953"/>
       <use xlink:href="#DejaVuSans-53" x="127.001953"/>
       <use xlink:href="#DejaVuSans-5f" x="190.478516"/>
       <use xlink:href="#DejaVuSans-30" x="240.478516"/>
       <use xlink:href="#DejaVuSans-5f" x="304.101562"/>
       <use xlink:href="#DejaVuSans-70" x="354.101562"/>
       <use xlink:href="#DejaVuSans-66" x="417.578125"/>
       <use xlink:href="#DejaVuSans-61" x="452.783203"/>
       <use xlink:href="#DejaVuSans-6d" x="514.0625"/>
      </g>
     </g>
    </g>
    <g id="ytick_9">
     <g id="line2d_21">
      <path d="M 212.2524 193.212 
L 230.5476 193.212 
" clip-path="url(#p96d866bed0)" style="fill: none; stroke: #b0b0b0; stroke-width: 0.1; stroke-linecap: square"/>
     </g>
     <g id="line2d_22">
      <g>
       <use xlink:href="#mb63d9739db" x="212.2524" y="193.212" style="stroke: #000000; stroke-width: 0.8"/>
      </g>
     </g>
     <g id="text_12">
      <!-- exclParalogs_2 -->
      <g transform="translate(131.4899 197.011219) scale(0.1 -0.1)">
       <defs>
        <path id="DejaVuSans-78" d="M 3513 3500 
L 2247 1797 
L 3578 0 
L 2900 0 
L 1881 1375 
L 863 0 
L 184 0 
L 1544 1831 
L 300 3500 
L 978 3500 
L 1906 2253 
L 2834 3500 
L 3513 3500 
z
" transform="scale(0.015625)"/>
        <path id="DejaVuSans-50" d="M 1259 4147 
L 1259 2394 
L 2053 2394 
Q 2494 2394 2734 2622 
Q 2975 2850 2975 3272 
Q 2975 3691 2734 3919 
Q 2494 4147 2053 4147 
L 1259 4147 
z
M 628 4666 
L 2053 4666 
Q 2838 4666 3239 4311 
Q 3641 3956 3641 3272 
Q 3641 2581 3239 2228 
Q 2838 1875 2053 1875 
L 1259 1875 
L 1259 0 
L 628 0 
L 628 4666 
z
" transform="scale(0.015625)"/>
        <path id="DejaVuSans-32" d="M 1228 531 
L 3431 531 
L 3431 0 
L 469 0 
L 469 531 
Q 828 903 1448 1529 
Q 2069 2156 2228 2338 
Q 2531 2678 2651 2914 
Q 2772 3150 2772 3378 
Q 2772 3750 2511 3984 
Q 2250 4219 1831 4219 
Q 1534 4219 1204 4116 
Q 875 4013 500 3803 
L 500 4441 
Q 881 4594 1212 4672 
Q 1544 4750 1819 4750 
Q 2544 4750 2975 4387 
Q 3406 4025 3406 3419 
Q 3406 3131 3298 2873 
Q 3191 2616 2906 2266 
Q 2828 2175 2409 1742 
Q 1991 1309 1228 531 
z
" transform="scale(0.015625)"/>
       </defs>
       <use xlink:href="#DejaVuSans-65"/>
       <use xlink:href="#DejaVuSans-78" x="59.773438"/>
       <use xlink:href="#DejaVuSans-63" x="117.203125"/>
       <use xlink:href="#DejaVuSans-6c" x="172.183594"/>
       <use xlink:href="#DejaVuSans-50" x="199.966797"/>
       <use xlink:href="#DejaVuSans-61" x="255.769531"/>
       <use xlink:href="#DejaVuSans-72" x="317.048828"/>
       <use xlink:href="#DejaVuSans-61" x="358.162109"/>
       <use xlink:href="#DejaVuSans-6c" x="419.441406"/>
       <use xlink:href="#DejaVuSans-6f" x="447.224609"/>
       <use xlink:href="#DejaVuSans-67" x="508.40625"/>
       <use xlink:href="#DejaVuSans-73" x="571.882812"/>
       <use xlink:href="#DejaVuSans-5f" x="623.982422"/>
       <use xlink:href="#DejaVuSans-32" x="673.982422"/>
      </g>
     </g>
    </g>
    <g id="ytick_10">
     <g id="line2d_23">
      <path d="M 212.2524 209.844 
L 230.5476 209.844 
" clip-path="url(#p96d866bed0)" style="fill: none; stroke: #b0b0b0; stroke-width: 0.1; stroke-linecap: square"/>
     </g>
     <g id="line2d_24">
      <g>
       <use xlink:href="#mb63d9739db" x="212.2524" y="209.844" style="stroke: #000000; stroke-width: 0.8"/>
      </g>
     </g>
     <g id="text_13">
      <!-- orthologs_0 -->
      <g transform="translate(146.828962 213.643219) scale(0.1 -0.1)">
       <use xlink:href="#DejaVuSans-6f"/>
       <use xlink:href="#DejaVuSans-72" x="61.181641"/>
       <use xlink:href="#DejaVuSans-74" x="102.294922"/>
       <use xlink:href="#DejaVuSans-68" x="141.503906"/>
       <use xlink:href="#DejaVuSans-6f" x="204.882812"/>
       <use xlink:href="#DejaVuSans-6c" x="266.064453"/>
       <use xlink:href="#DejaVuSans-6f" x="293.847656"/>
       <use xlink:href="#DejaVuSans-67" x="355.029297"/>
       <use xlink:href="#DejaVuSans-73" x="418.505859"/>
       <use xlink:href="#DejaVuSans-5f" x="470.605469"/>
       <use xlink:href="#DejaVuSans-30" x="520.605469"/>
      </g>
     </g>
    </g>
    <g id="ytick_11">
     <g id="line2d_25">
      <path d="M 212.2524 226.476 
L 230.5476 226.476 
" clip-path="url(#p96d866bed0)" style="fill: none; stroke: #b0b0b0; stroke-width: 0.1; stroke-linecap: square"/>
     </g>
     <g id="line2d_26">
      <g>
       <use xlink:href="#mb63d9739db" x="212.2524" y="226.476" style="stroke: #000000; stroke-width: 0.8"/>
      </g>
     </g>
     <g id="text_14">
      <!-- D_N_0_pfam -->
      <g transform="translate(142.97115 230.275219) scale(0.1 -0.1)">
       <defs>
        <path id="DejaVuSans-4e" d="M 628 4666 
L 1478 4666 
L 3547 763 
L 3547 4666 
L 4159 4666 
L 4159 0 
L 3309 0 
L 1241 3903 
L 1241 0 
L 628 0 
L 628 4666 
z
" transform="scale(0.015625)"/>
       </defs>
       <use xlink:href="#DejaVuSans-44"/>
       <use xlink:href="#DejaVuSans-5f" x="77.001953"/>
       <use xlink:href="#DejaVuSans-4e" x="127.001953"/>
       <use xlink:href="#DejaVuSans-5f" x="201.806641"/>
       <use xlink:href="#DejaVuSans-30" x="251.806641"/>
       <use xlink:href="#DejaVuSans-5f" x="315.429688"/>
       <use xlink:href="#DejaVuSans-70" x="365.429688"/>
       <use xlink:href="#DejaVuSans-66" x="428.90625"/>
       <use xlink:href="#DejaVuSans-61" x="464.111328"/>
       <use xlink:href="#DejaVuSans-6d" x="525.390625"/>
      </g>
     </g>
    </g>
    <g id="ytick_12">
     <g id="line2d_27">
      <path d="M 212.2524 243.108 
L 230.5476 243.108 
" clip-path="url(#p96d866bed0)" style="fill: none; stroke: #b0b0b0; stroke-width: 0.1; stroke-linecap: square"/>
     </g>
     <g id="line2d_28">
      <g>
       <use xlink:href="#mb63d9739db" x="212.2524" y="243.108" style="stroke: #000000; stroke-width: 0.8"/>
      </g>
     </g>
     <g id="text_15">
      <!-- bpso_1 -->
      <g transform="translate(169.8649 246.907219) scale(0.1 -0.1)">
       <use xlink:href="#DejaVuSans-62"/>
       <use xlink:href="#DejaVuSans-70" x="63.476562"/>
       <use xlink:href="#DejaVuSans-73" x="126.953125"/>
       <use xlink:href="#DejaVuSans-6f" x="179.052734"/>
       <use xlink:href="#DejaVuSans-5f" x="240.234375"/>
       <use xlink:href="#DejaVuSans-31" x="290.234375"/>
      </g>
     </g>
    </g>
    <g id="ytick_13">
     <g id="line2d_29">
      <path d="M 212.2524 259.74 
L 230.5476 259.74 
" clip-path="url(#p96d866bed0)" style="fill: none; stroke: #b0b0b0; stroke-width: 0.1; stroke-linecap: square"/>
     </g>
     <g id="line2d_30">
      <g>
       <use xlink:href="#mb63d9739db" x="212.2524" y="259.74" style="stroke: #000000; stroke-width: 0.8"/>
      </g>
     </g>
     <g id="text_16">
      <!-- allHomologs_1 -->
      <g transform="translate(132.2524 263.539219) scale(0.1 -0.1)">
       <use xlink:href="#DejaVuSans-61"/>
       <use xlink:href="#DejaVuSans-6c" x="61.279297"/>
       <use xlink:href="#DejaVuSans-6c" x="89.0625"/>
       <use xlink:href="#DejaVuSans-48" x="116.845703"/>
       <use xlink:href="#DejaVuSans-6f" x="192.041016"/>
       <use xlink:href="#DejaVuSans-6d" x="253.222656"/>
       <use xlink:href="#DejaVuSans-6f" x="350.634766"/>
       <use xlink:href="#DejaVuSans-6c" x="411.816406"/>
       <use xlink:href="#DejaVuSans-6f" x="439.599609"/>
       <use xlink:href="#DejaVuSans-67" x="500.78125"/>
       <use xlink:href="#DejaVuSans-73" x="564.257812"/>
       <use xlink:href="#DejaVuSans-5f" x="616.357422"/>
       <use xlink:href="#DejaVuSans-31" x="666.357422"/>
      </g>
     </g>
    </g>
    <g id="ytick_14">
     <g id="line2d_31">
      <path d="M 212.2524 276.372 
L 230.5476 276.372 
" clip-path="url(#p96d866bed0)" style="fill: none; stroke: #b0b0b0; stroke-width: 0.1; stroke-linecap: square"/>
     </g>
     <g id="line2d_32">
      <g>
       <use xlink:href="#mb63d9739db" x="212.2524" y="276.372" style="stroke: #000000; stroke-width: 0.8"/>
      </g>
     </g>
     <g id="text_17">
      <!-- D_K_0_pfam -->
      <g transform="translate(143.894588 280.171219) scale(0.1 -0.1)">
       <defs>
        <path id="DejaVuSans-4b" d="M 628 4666 
L 1259 4666 
L 1259 2694 
L 3353 4666 
L 4166 4666 
L 1850 2491 
L 4331 0 
L 3500 0 
L 1259 2247 
L 1259 0 
L 628 0 
L 628 4666 
z
" transform="scale(0.015625)"/>
       </defs>
       <use xlink:href="#DejaVuSans-44"/>
       <use xlink:href="#DejaVuSans-5f" x="77.001953"/>
       <use xlink:href="#DejaVuSans-4b" x="127.001953"/>
       <use xlink:href="#DejaVuSans-5f" x="192.578125"/>
       <use xlink:href="#DejaVuSans-30" x="242.578125"/>
       <use xlink:href="#DejaVuSans-5f" x="306.201172"/>
       <use xlink:href="#DejaVuSans-70" x="356.201172"/>
       <use xlink:href="#DejaVuSans-66" x="419.677734"/>
       <use xlink:href="#DejaVuSans-61" x="454.882812"/>
       <use xlink:href="#DejaVuSans-6d" x="516.162109"/>
      </g>
     </g>
    </g>
    <g id="ytick_15">
     <g id="line2d_33">
      <path d="M 212.2524 293.004 
L 230.5476 293.004 
" clip-path="url(#p96d866bed0)" style="fill: none; stroke: #b0b0b0; stroke-width: 0.1; stroke-linecap: square"/>
     </g>
     <g id="line2d_34">
      <g>
       <use xlink:href="#mb63d9739db" x="212.2524" y="293.004" style="stroke: #000000; stroke-width: 0.8"/>
      </g>
     </g>
     <g id="text_18">
      <!-- Phosphomimic -->
      <g transform="translate(132.216462 296.803219) scale(0.1 -0.1)">
       <defs>
        <path id="DejaVuSans-69" d="M 603 3500 
L 1178 3500 
L 1178 0 
L 603 0 
L 603 3500 
z
M 603 4863 
L 1178 4863 
L 1178 4134 
L 603 4134 
L 603 4863 
z
" transform="scale(0.015625)"/>
       </defs>
       <use xlink:href="#DejaVuSans-50"/>
       <use xlink:href="#DejaVuSans-68" x="60.302734"/>
       <use xlink:href="#DejaVuSans-6f" x="123.681641"/>
       <use xlink:href="#DejaVuSans-73" x="184.863281"/>
       <use xlink:href="#DejaVuSans-70" x="236.962891"/>
       <use xlink:href="#DejaVuSans-68" x="300.439453"/>
       <use xlink:href="#DejaVuSans-6f" x="363.818359"/>
       <use xlink:href="#DejaVuSans-6d" x="425"/>
       <use xlink:href="#DejaVuSans-69" x="522.412109"/>
       <use xlink:href="#DejaVuSans-6d" x="550.195312"/>
       <use xlink:href="#DejaVuSans-69" x="647.607422"/>
       <use xlink:href="#DejaVuSans-63" x="675.390625"/>
      </g>
     </g>
    </g>
    <g id="ytick_16">
     <g id="line2d_35">
      <path d="M 212.2524 309.636 
L 230.5476 309.636 
" clip-path="url(#p96d866bed0)" style="fill: none; stroke: #b0b0b0; stroke-width: 0.1; stroke-linecap: square"/>
     </g>
     <g id="line2d_36">
      <g>
       <use xlink:href="#mb63d9739db" x="212.2524" y="309.636" style="stroke: #000000; stroke-width: 0.8"/>
      </g>
     </g>
     <g id="text_19">
      <!-- orthologs_2 -->
      <g transform="translate(146.828962 313.435219) scale(0.1 -0.1)">
       <use xlink:href="#DejaVuSans-6f"/>
       <use xlink:href="#DejaVuSans-72" x="61.181641"/>
       <use xlink:href="#DejaVuSans-74" x="102.294922"/>
       <use xlink:href="#DejaVuSans-68" x="141.503906"/>
       <use xlink:href="#DejaVuSans-6f" x="204.882812"/>
       <use xlink:href="#DejaVuSans-6c" x="266.064453"/>
       <use xlink:href="#DejaVuSans-6f" x="293.847656"/>
       <use xlink:href="#DejaVuSans-67" x="355.029297"/>
       <use xlink:href="#DejaVuSans-73" x="418.505859"/>
       <use xlink:href="#DejaVuSans-5f" x="470.605469"/>
       <use xlink:href="#DejaVuSans-32" x="520.605469"/>
      </g>
     </g>
    </g>
    <g id="ytick_17">
     <g id="line2d_37">
      <path d="M 212.2524 326.268 
L 230.5476 326.268 
" clip-path="url(#p96d866bed0)" style="fill: none; stroke: #b0b0b0; stroke-width: 0.1; stroke-linecap: square"/>
     </g>
     <g id="line2d_38">
      <g>
       <use xlink:href="#mb63d9739db" x="212.2524" y="326.268" style="stroke: #000000; stroke-width: 0.8"/>
      </g>
     </g>
     <g id="text_20">
      <!-- D_M_0_pfam -->
      <g transform="translate(141.824275 330.067219) scale(0.1 -0.1)">
       <use xlink:href="#DejaVuSans-44"/>
       <use xlink:href="#DejaVuSans-5f" x="77.001953"/>
       <use xlink:href="#DejaVuSans-4d" x="127.001953"/>
       <use xlink:href="#DejaVuSans-5f" x="213.28125"/>
       <use xlink:href="#DejaVuSans-30" x="263.28125"/>
       <use xlink:href="#DejaVuSans-5f" x="326.904297"/>
       <use xlink:href="#DejaVuSans-70" x="376.904297"/>
       <use xlink:href="#DejaVuSans-66" x="440.380859"/>
       <use xlink:href="#DejaVuSans-61" x="475.585938"/>
       <use xlink:href="#DejaVuSans-6d" x="536.865234"/>
      </g>
     </g>
    </g>
    <g id="ytick_18">
     <g id="line2d_39">
      <path d="M 212.2524 342.9 
L 230.5476 342.9 
" clip-path="url(#p96d866bed0)" style="fill: none; stroke: #b0b0b0; stroke-width: 0.1; stroke-linecap: square"/>
     </g>
     <g id="line2d_40">
      <g>
       <use xlink:href="#mb63d9739db" x="212.2524" y="342.9" style="stroke: #000000; stroke-width: 0.8"/>
      </g>
     </g>
     <g id="text_21">
      <!-- bpso_2 -->
      <g transform="translate(169.8649 346.699219) scale(0.1 -0.1)">
       <use xlink:href="#DejaVuSans-62"/>
       <use xlink:href="#DejaVuSans-70" x="63.476562"/>
       <use xlink:href="#DejaVuSans-73" x="126.953125"/>
       <use xlink:href="#DejaVuSans-6f" x="179.052734"/>
       <use xlink:href="#DejaVuSans-5f" x="240.234375"/>
       <use xlink:href="#DejaVuSans-32" x="290.234375"/>
      </g>
     </g>
    </g>
    <g id="ytick_19">
     <g id="line2d_41">
      <path d="M 212.2524 359.532 
L 230.5476 359.532 
" clip-path="url(#p96d866bed0)" style="fill: none; stroke: #b0b0b0; stroke-width: 0.1; stroke-linecap: square"/>
     </g>
     <g id="line2d_42">
      <g>
       <use xlink:href="#mb63d9739db" x="212.2524" y="359.532" style="stroke: #000000; stroke-width: 0.8"/>
      </g>
     </g>
     <g id="text_22">
      <!-- bpsh_2 -->
      <g transform="translate(169.64615 363.331219) scale(0.1 -0.1)">
       <use xlink:href="#DejaVuSans-62"/>
       <use xlink:href="#DejaVuSans-70" x="63.476562"/>
       <use xlink:href="#DejaVuSans-73" x="126.953125"/>
       <use xlink:href="#DejaVuSans-68" x="179.052734"/>
       <use xlink:href="#DejaVuSans-5f" x="242.431641"/>
       <use xlink:href="#DejaVuSans-32" x="292.431641"/>
      </g>
     </g>
    </g>
    <g id="ytick_20">
     <g id="line2d_43">
      <path d="M 212.2524 376.164 
L 230.5476 376.164 
" clip-path="url(#p96d866bed0)" style="fill: none; stroke: #b0b0b0; stroke-width: 0.1; stroke-linecap: square"/>
     </g>
     <g id="line2d_44">
      <g>
       <use xlink:href="#mb63d9739db" x="212.2524" y="376.164" style="stroke: #000000; stroke-width: 0.8"/>
      </g>
     </g>
     <g id="text_23">
      <!-- D_R_0_pfam -->
      <g transform="translate(143.503963 379.963219) scale(0.1 -0.1)">
       <defs>
        <path id="DejaVuSans-52" d="M 2841 2188 
Q 3044 2119 3236 1894 
Q 3428 1669 3622 1275 
L 4263 0 
L 3584 0 
L 2988 1197 
Q 2756 1666 2539 1819 
Q 2322 1972 1947 1972 
L 1259 1972 
L 1259 0 
L 628 0 
L 628 4666 
L 2053 4666 
Q 2853 4666 3247 4331 
Q 3641 3997 3641 3322 
Q 3641 2881 3436 2590 
Q 3231 2300 2841 2188 
z
M 1259 4147 
L 1259 2491 
L 2053 2491 
Q 2509 2491 2742 2702 
Q 2975 2913 2975 3322 
Q 2975 3731 2742 3939 
Q 2509 4147 2053 4147 
L 1259 4147 
z
" transform="scale(0.015625)"/>
       </defs>
       <use xlink:href="#DejaVuSans-44"/>
       <use xlink:href="#DejaVuSans-5f" x="77.001953"/>
       <use xlink:href="#DejaVuSans-52" x="127.001953"/>
       <use xlink:href="#DejaVuSans-5f" x="196.484375"/>
       <use xlink:href="#DejaVuSans-30" x="246.484375"/>
       <use xlink:href="#DejaVuSans-5f" x="310.107422"/>
       <use xlink:href="#DejaVuSans-70" x="360.107422"/>
       <use xlink:href="#DejaVuSans-66" x="423.583984"/>
       <use xlink:href="#DejaVuSans-61" x="458.789062"/>
       <use xlink:href="#DejaVuSans-6d" x="520.068359"/>
      </g>
     </g>
    </g>
    <g id="text_24">
     <!-- Feature -->
     <g transform="translate(123.294588 237.049844) rotate(-90) scale(0.1 -0.1)">
      <defs>
       <path id="DejaVuSans-46" d="M 628 4666 
L 3309 4666 
L 3309 4134 
L 1259 4134 
L 1259 2759 
L 3109 2759 
L 3109 2228 
L 1259 2228 
L 1259 0 
L 628 0 
L 628 4666 
z
" transform="scale(0.015625)"/>
       <path id="DejaVuSans-75" d="M 544 1381 
L 544 3500 
L 1119 3500 
L 1119 1403 
Q 1119 906 1312 657 
Q 1506 409 1894 409 
Q 2359 409 2629 706 
Q 2900 1003 2900 1516 
L 2900 3500 
L 3475 3500 
L 3475 0 
L 2900 0 
L 2900 538 
Q 2691 219 2414 64 
Q 2138 -91 1772 -91 
Q 1169 -91 856 284 
Q 544 659 544 1381 
z
M 1991 3584 
L 1991 3584 
z
" transform="scale(0.015625)"/>
      </defs>
      <use xlink:href="#DejaVuSans-46"/>
      <use xlink:href="#DejaVuSans-65" x="52.019531"/>
      <use xlink:href="#DejaVuSans-61" x="113.542969"/>
      <use xlink:href="#DejaVuSans-74" x="174.822266"/>
      <use xlink:href="#DejaVuSans-75" x="214.03125"/>
      <use xlink:href="#DejaVuSans-72" x="277.410156"/>
      <use xlink:href="#DejaVuSans-65" x="316.273438"/>
     </g>
    </g>
   </g>
   <g id="line2d_45">
    <path d="M 213.084 60.156 
L 213.339877 60.156 
L 213.595754 60.156 
L 213.595754 62.004 
L 213.851631 62.004 
L 213.851631 63.852 
L 214.107508 63.852 
L 214.107508 66.624 
L 214.363385 66.624 
L 214.363385 68.472 
L 215.131015 68.472 
L 215.131015 73.092 
L 215.386892 73.092 
L 215.386892 74.016 
L 216.666277 74.016 
L 216.666277 74.94 
L 218.201538 74.94 
L 218.201538 75.864 
L 218.713292 75.864 
L 218.713292 76.788 
L 229.716 76.788 
" clip-path="url(#p96d866bed0)" style="fill: none; stroke: #1f77b4; stroke-opacity: 0.3; stroke-linecap: square"/>
   </g>
   <g id="line2d_46">
    <path d="M 213.084 60.156 
L 213.084 61.08 
L 213.084 65.7 
L 213.339877 65.7 
L 213.339877 70.32 
L 214.107508 70.32 
L 214.107508 73.092 
L 214.363385 73.092 
L 214.363385 74.016 
L 215.642769 74.016 
L 215.642769 74.94 
L 216.154523 74.94 
L 216.154523 75.864 
L 219.225046 75.864 
L 219.225046 76.788 
L 229.716 76.788 
" clip-path="url(#p96d866bed0)" style="fill: none; stroke: #ff7f0e; stroke-opacity: 0.3; stroke-linecap: square"/>
   </g>
   <g id="line2d_47">
    <path d="M 213.084 60.156 
L 213.084 61.08 
L 213.084 68.472 
L 213.339877 68.472 
L 213.339877 69.396 
L 213.595754 69.396 
L 213.595754 70.32 
L 213.851631 70.32 
L 213.851631 71.244 
L 216.4104 71.244 
L 216.4104 72.168 
L 216.922154 72.168 
L 216.922154 73.092 
L 217.433908 73.092 
L 217.433908 74.016 
L 218.713292 74.016 
L 218.713292 76.788 
L 229.716 76.788 
" clip-path="url(#p96d866bed0)" style="fill: none; stroke: #2ca02c; stroke-opacity: 0.3; stroke-linecap: square"/>
   </g>
   <g id="line2d_48">
    <path d="M 213.084 60.156 
L 213.084 61.08 
L 213.339877 61.08 
L 213.339877 64.776 
L 214.107508 64.776 
L 214.107508 67.548 
L 214.363385 67.548 
L 214.363385 68.472 
L 215.131015 68.472 
L 215.131015 70.32 
L 216.154523 70.32 
L 216.154523 71.244 
L 216.4104 71.244 
L 216.4104 72.168 
L 217.178031 72.168 
L 217.178031 74.016 
L 218.969169 74.016 
L 218.969169 74.94 
L 221.527938 74.94 
L 221.527938 75.864 
L 223.574954 75.864 
L 223.574954 76.788 
L 227.668985 76.788 
L 228.180738 76.788 
L 229.204246 76.788 
L 229.716 76.788 
" clip-path="url(#p96d866bed0)" style="fill: none; stroke: #d62728; stroke-opacity: 0.3; stroke-linecap: square"/>
   </g>
   <g id="line2d_49">
    <path d="M 213.084 60.156 
L 213.084 61.134353 
L 213.084 65.047765 
L 213.595754 65.047765 
L 213.595754 70.917882 
L 213.851631 70.917882 
L 213.851631 71.896235 
L 214.363385 71.896235 
L 214.363385 72.874588 
L 214.619262 72.874588 
L 214.619262 73.852941 
L 215.898646 73.852941 
L 215.898646 75.809647 
L 216.4104 75.809647 
L 216.4104 76.788 
L 229.716 76.788 
" clip-path="url(#p96d866bed0)" style="fill: none; stroke: #9467bd; stroke-opacity: 0.3; stroke-linecap: square"/>
   </g>
   <g id="line2d_50">
    <path d="M 213.084 60.156 
L 213.084 61.08 
L 213.084 67.548 
L 213.863625 67.548 
L 213.863625 69.396 
L 214.1235 69.396 
L 214.1235 73.092 
L 214.383375 73.092 
L 214.383375 74.016 
L 215.942625 74.016 
L 215.942625 74.94 
L 220.100625 74.94 
L 220.100625 75.864 
L 227.11725 75.864 
L 227.377125 76.788 
L 229.716 76.788 
" clip-path="url(#p96d866bed0)" style="fill: none; stroke: #8c564b; stroke-opacity: 0.3; stroke-linecap: square"/>
   </g>
   <g id="line2d_51">
    <path d="M 213.084 60.156 
L 213.343875 60.156 
L 213.343875 63.852 
L 213.60375 63.852 
L 213.60375 67.548 
L 214.383375 67.548 
L 214.383375 70.32 
L 214.64325 70.32 
L 214.64325 71.244 
L 215.422875 71.244 
L 215.422875 72.168 
L 215.68275 72.168 
L 215.68275 73.092 
L 219.580875 73.092 
L 219.580875 74.016 
L 220.100625 74.016 
L 220.100625 74.94 
L 221.140125 74.94 
L 221.140125 75.864 
L 222.4395 75.864 
L 222.4395 76.788 
L 229.716 76.788 
" clip-path="url(#p96d866bed0)" style="fill: none; stroke: #e377c2; stroke-opacity: 0.3; stroke-linecap: square"/>
   </g>
   <g id="line2d_52">
    <path d="M 213.084 60.156 
L 213.084 61.08 
L 213.084 62.928 
L 213.343875 62.928 
L 213.343875 64.776 
L 214.1235 64.776 
L 214.1235 65.7 
L 214.383375 65.7 
L 214.383375 69.396 
L 215.942625 69.396 
L 215.942625 70.32 
L 216.2025 70.32 
L 216.2025 71.244 
L 217.501875 71.244 
L 217.501875 72.168 
L 217.76175 72.168 
L 217.76175 73.092 
L 218.021625 73.092 
L 218.021625 74.016 
L 218.541375 74.016 
L 218.541375 74.94 
L 219.061125 74.94 
L 219.061125 75.864 
L 219.321 75.864 
L 219.321 76.788 
L 229.716 76.788 
" clip-path="url(#p96d866bed0)" style="fill: none; stroke: #7f7f7f; stroke-opacity: 0.3; stroke-linecap: square"/>
   </g>
   <g id="line2d_53">
    <path d="M 213.084 60.156 
L 213.084 61.08 
L 213.084 62.004 
L 213.60375 62.004 
L 213.60375 63.852 
L 213.863625 63.852 
L 213.863625 64.776 
L 214.1235 64.776 
L 214.1235 66.624 
L 214.64325 66.624 
L 214.64325 70.32 
L 216.72225 70.32 
L 216.72225 72.168 
L 218.021625 72.168 
L 218.021625 75.864 
L 219.84075 75.864 
L 219.84075 76.788 
L 227.377125 76.788 
L 227.896875 76.788 
L 229.716 76.788 
" clip-path="url(#p96d866bed0)" style="fill: none; stroke: #bcbd22; stroke-opacity: 0.3; stroke-linecap: square"/>
   </g>
   <g id="line2d_54">
    <path d="M 213.084 60.156 
L 213.084 61.08 
L 213.084 64.776 
L 213.343875 64.776 
L 213.343875 67.548 
L 213.60375 67.548 
L 213.60375 69.396 
L 215.422875 69.396 
L 215.422875 72.168 
L 216.72225 72.168 
L 216.72225 73.092 
L 217.242 73.092 
L 217.242 74.94 
L 219.061125 74.94 
L 219.061125 75.864 
L 219.84075 75.864 
L 219.84075 76.788 
L 229.716 76.788 
" clip-path="url(#p96d866bed0)" style="fill: none; stroke: #17becf; stroke-opacity: 0.3; stroke-linecap: square"/>
   </g>
   <g id="line2d_55">
    <path d="M 213.084 60.156 
L 229.716 76.788 
" clip-path="url(#p96d866bed0)" style="fill: none; stroke-dasharray: 5.55,2.4; stroke-dashoffset: 0; stroke: #1a1a1a; stroke-width: 1.5"/>
   </g>
   <g id="line2d_56">
    <path d="M 213.084 60.156 
L 213.252 63.786776 
L 213.42 65.542376 
L 213.588 65.542376 
L 213.756 67.145788 
L 213.924 67.798024 
L 214.092 67.798024 
L 214.26 69.276424 
L 214.428 70.483059 
L 214.596 70.483059 
L 214.764 71.042894 
L 214.932 71.042894 
L 215.1 71.042894 
L 215.268 71.689694 
L 215.436 72.151694 
L 215.604 72.151694 
L 215.772 72.336494 
L 215.94 72.532165 
L 216.108 72.716965 
L 216.276 72.994165 
L 216.444 73.2768 
L 216.612 73.2768 
L 216.78 73.6464 
L 216.948 73.7388 
L 217.116 73.7388 
L 217.284 74.1084 
L 217.452 74.2008 
L 217.62 74.2932 
L 217.788 74.3856 
L 217.956 74.3856 
L 218.124 74.8476 
L 218.292 74.94 
L 218.46 74.94 
L 218.628 75.0324 
L 218.796 75.402 
L 218.964 75.402 
L 219.132 75.6792 
L 219.3 75.7716 
L 219.468 75.864 
L 219.636 75.9564 
L 219.804 75.9564 
L 219.972 76.1412 
L 220.14 76.326 
L 220.308 76.326 
L 220.476 76.326 
L 220.644 76.326 
L 220.812 76.326 
L 220.98 76.326 
L 221.148 76.4184 
L 221.316 76.4184 
L 221.484 76.4184 
L 221.652 76.5108 
L 221.82 76.5108 
L 221.988 76.5108 
L 222.156 76.5108 
L 222.324 76.5108 
L 222.492 76.6032 
L 222.66 76.6032 
L 222.828 76.6032 
L 222.996 76.6032 
L 223.164 76.6032 
L 223.332 76.6032 
L 223.5 76.6032 
L 223.668 76.6956 
L 223.836 76.6956 
L 224.004 76.6956 
L 224.172 76.6956 
L 224.34 76.6956 
L 224.508 76.6956 
L 224.676 76.6956 
L 224.844 76.6956 
L 225.012 76.6956 
L 225.18 76.6956 
L 225.348 76.6956 
L 225.516 76.6956 
L 225.684 76.6956 
L 225.852 76.6956 
L 226.02 76.6956 
L 226.188 76.6956 
L 226.356 76.6956 
L 226.524 76.6956 
L 226.692 76.6956 
L 226.86 76.6956 
L 227.028 76.6956 
L 227.196 76.7236 
L 227.364 76.783333 
L 227.532 76.788 
L 227.7 76.788 
L 227.868 76.788 
L 228.036 76.788 
L 228.204 76.788 
L 228.372 76.788 
L 228.54 76.788 
L 228.708 76.788 
L 228.876 76.788 
L 229.044 76.788 
L 229.212 76.788 
L 229.38 76.788 
L 229.548 76.788 
L 229.716 76.788 
" clip-path="url(#p96d866bed0)" style="fill: none; stroke: #4c72b0; stroke-opacity: 0.8; stroke-width: 2; stroke-linecap: square"/>
   </g>
   <g id="line2d_57">
    <path clip-path="url(#p96d866bed0)" style="fill: none; stroke: #424242; stroke-width: 2.7; stroke-linecap: round"/>
   </g>
   <g id="line2d_58">
    <path clip-path="url(#p96d866bed0)" style="fill: none; stroke: #424242; stroke-width: 2.7; stroke-linecap: round"/>
   </g>
   <g id="line2d_59">
    <path clip-path="url(#p96d866bed0)" style="fill: none; stroke: #424242; stroke-width: 2.7; stroke-linecap: round"/>
   </g>
   <g id="line2d_60">
    <path clip-path="url(#p96d866bed0)" style="fill: none; stroke: #424242; stroke-width: 2.7; stroke-linecap: round"/>
   </g>
   <g id="line2d_61">
    <path clip-path="url(#p96d866bed0)" style="fill: none; stroke: #424242; stroke-width: 2.7; stroke-linecap: round"/>
   </g>
   <g id="line2d_62">
    <path clip-path="url(#p96d866bed0)" style="fill: none; stroke: #424242; stroke-width: 2.7; stroke-linecap: round"/>
   </g>
   <g id="line2d_63">
    <path clip-path="url(#p96d866bed0)" style="fill: none; stroke: #424242; stroke-width: 2.7; stroke-linecap: round"/>
   </g>
   <g id="line2d_64">
    <path clip-path="url(#p96d866bed0)" style="fill: none; stroke: #424242; stroke-width: 2.7; stroke-linecap: round"/>
   </g>
   <g id="line2d_65">
    <path clip-path="url(#p96d866bed0)" style="fill: none; stroke: #424242; stroke-width: 2.7; stroke-linecap: round"/>
   </g>
   <g id="line2d_66">
    <path clip-path="url(#p96d866bed0)" style="fill: none; stroke: #424242; stroke-width: 2.7; stroke-linecap: round"/>
   </g>
   <g id="line2d_67">
    <path clip-path="url(#p96d866bed0)" style="fill: none; stroke: #424242; stroke-width: 2.7; stroke-linecap: round"/>
   </g>
   <g id="line2d_68">
    <path clip-path="url(#p96d866bed0)" style="fill: none; stroke: #424242; stroke-width: 2.7; stroke-linecap: round"/>
   </g>
   <g id="line2d_69">
    <path clip-path="url(#p96d866bed0)" style="fill: none; stroke: #424242; stroke-width: 2.7; stroke-linecap: round"/>
   </g>
   <g id="line2d_70">
    <path clip-path="url(#p96d866bed0)" style="fill: none; stroke: #424242; stroke-width: 2.7; stroke-linecap: round"/>
   </g>
   <g id="line2d_71">
    <path clip-path="url(#p96d866bed0)" style="fill: none; stroke: #424242; stroke-width: 2.7; stroke-linecap: round"/>
   </g>
   <g id="line2d_72">
    <path clip-path="url(#p96d866bed0)" style="fill: none; stroke: #424242; stroke-width: 2.7; stroke-linecap: round"/>
   </g>
   <g id="line2d_73">
    <path clip-path="url(#p96d866bed0)" style="fill: none; stroke: #424242; stroke-width: 2.7; stroke-linecap: round"/>
   </g>
   <g id="line2d_74">
    <path clip-path="url(#p96d866bed0)" style="fill: none; stroke: #424242; stroke-width: 2.7; stroke-linecap: round"/>
   </g>
   <g id="line2d_75">
    <path clip-path="url(#p96d866bed0)" style="fill: none; stroke: #424242; stroke-width: 2.7; stroke-linecap: round"/>
   </g>
   <g id="line2d_76">
    <path clip-path="url(#p96d866bed0)" style="fill: none; stroke: #424242; stroke-width: 2.7; stroke-linecap: round"/>
   </g>
   <g id="patch_23">
    <path d="M 212.2524 384.48 
L 212.2524 51.84 
" style="fill: none; stroke: #000000; stroke-width: 0.8; stroke-linejoin: miter; stroke-linecap: square"/>
   </g>
   <g id="patch_24">
    <path d="M 230.5476 384.48 
L 230.5476 51.84 
" style="fill: none; stroke: #000000; stroke-width: 0.8; stroke-linejoin: miter; stroke-linecap: square"/>
   </g>
   <g id="patch_25">
    <path d="M 212.2524 384.48 
L 230.5476 384.48 
" style="fill: none; stroke: #000000; stroke-width: 0.8; stroke-linejoin: miter; stroke-linecap: square"/>
   </g>
   <g id="patch_26">
    <path d="M 212.2524 51.84 
L 230.5476 51.84 
" style="fill: none; stroke: #000000; stroke-width: 0.8; stroke-linejoin: miter; stroke-linecap: square"/>
   </g>
   <g id="text_25">
    <!-- Mean ROC curve with variability of 10 folds in AIvLD -->
    <g transform="translate(64.855313 45.84) scale(0.12 -0.12)">
     <defs>
      <path id="DejaVuSans-20" transform="scale(0.015625)"/>
      <path id="DejaVuSans-4f" d="M 2522 4238 
Q 1834 4238 1429 3725 
Q 1025 3213 1025 2328 
Q 1025 1447 1429 934 
Q 1834 422 2522 422 
Q 3209 422 3611 934 
Q 4013 1447 4013 2328 
Q 4013 3213 3611 3725 
Q 3209 4238 2522 4238 
z
M 2522 4750 
Q 3503 4750 4090 4092 
Q 4678 3434 4678 2328 
Q 4678 1225 4090 567 
Q 3503 -91 2522 -91 
Q 1538 -91 948 565 
Q 359 1222 359 2328 
Q 359 3434 948 4092 
Q 1538 4750 2522 4750 
z
" transform="scale(0.015625)"/>
      <path id="DejaVuSans-43" d="M 4122 4306 
L 4122 3641 
Q 3803 3938 3442 4084 
Q 3081 4231 2675 4231 
Q 1875 4231 1450 3742 
Q 1025 3253 1025 2328 
Q 1025 1406 1450 917 
Q 1875 428 2675 428 
Q 3081 428 3442 575 
Q 3803 722 4122 1019 
L 4122 359 
Q 3791 134 3420 21 
Q 3050 -91 2638 -91 
Q 1578 -91 968 557 
Q 359 1206 359 2328 
Q 359 3453 968 4101 
Q 1578 4750 2638 4750 
Q 3056 4750 3426 4639 
Q 3797 4528 4122 4306 
z
" transform="scale(0.015625)"/>
      <path id="DejaVuSans-76" d="M 191 3500 
L 800 3500 
L 1894 563 
L 2988 3500 
L 3597 3500 
L 2284 0 
L 1503 0 
L 191 3500 
z
" transform="scale(0.015625)"/>
      <path id="DejaVuSans-77" d="M 269 3500 
L 844 3500 
L 1563 769 
L 2278 3500 
L 2956 3500 
L 3675 769 
L 4391 3500 
L 4966 3500 
L 4050 0 
L 3372 0 
L 2619 2869 
L 1863 0 
L 1184 0 
L 269 3500 
z
" transform="scale(0.015625)"/>
      <path id="DejaVuSans-79" d="M 2059 -325 
Q 1816 -950 1584 -1140 
Q 1353 -1331 966 -1331 
L 506 -1331 
L 506 -850 
L 844 -850 
Q 1081 -850 1212 -737 
Q 1344 -625 1503 -206 
L 1606 56 
L 191 3500 
L 800 3500 
L 1894 763 
L 2988 3500 
L 3597 3500 
L 2059 -325 
z
" transform="scale(0.015625)"/>
      <path id="DejaVuSans-64" d="M 2906 2969 
L 2906 4863 
L 3481 4863 
L 3481 0 
L 2906 0 
L 2906 525 
Q 2725 213 2448 61 
Q 2172 -91 1784 -91 
Q 1150 -91 751 415 
Q 353 922 353 1747 
Q 353 2572 751 3078 
Q 1150 3584 1784 3584 
Q 2172 3584 2448 3432 
Q 2725 3281 2906 2969 
z
M 947 1747 
Q 947 1113 1208 752 
Q 1469 391 1925 391 
Q 2381 391 2643 752 
Q 2906 1113 2906 1747 
Q 2906 2381 2643 2742 
Q 2381 3103 1925 3103 
Q 1469 3103 1208 2742 
Q 947 2381 947 1747 
z
" transform="scale(0.015625)"/>
      <path id="DejaVuSans-4c" d="M 628 4666 
L 1259 4666 
L 1259 531 
L 3531 531 
L 3531 0 
L 628 0 
L 628 4666 
z
" transform="scale(0.015625)"/>
     </defs>
     <use xlink:href="#DejaVuSans-4d"/>
     <use xlink:href="#DejaVuSans-65" x="86.279297"/>
     <use xlink:href="#DejaVuSans-61" x="147.802734"/>
     <use xlink:href="#DejaVuSans-6e" x="209.082031"/>
     <use xlink:href="#DejaVuSans-20" x="272.460938"/>
     <use xlink:href="#DejaVuSans-52" x="304.248047"/>
     <use xlink:href="#DejaVuSans-4f" x="373.730469"/>
     <use xlink:href="#DejaVuSans-43" x="452.441406"/>
     <use xlink:href="#DejaVuSans-20" x="522.265625"/>
     <use xlink:href="#DejaVuSans-63" x="554.052734"/>
     <use xlink:href="#DejaVuSans-75" x="609.033203"/>
     <use xlink:href="#DejaVuSans-72" x="672.412109"/>
     <use xlink:href="#DejaVuSans-76" x="713.525391"/>
     <use xlink:href="#DejaVuSans-65" x="772.705078"/>
     <use xlink:href="#DejaVuSans-20" x="834.228516"/>
     <use xlink:href="#DejaVuSans-77" x="866.015625"/>
     <use xlink:href="#DejaVuSans-69" x="947.802734"/>
     <use xlink:href="#DejaVuSans-74" x="975.585938"/>
     <use xlink:href="#DejaVuSans-68" x="1014.794922"/>
     <use xlink:href="#DejaVuSans-20" x="1078.173828"/>
     <use xlink:href="#DejaVuSans-76" x="1109.960938"/>
     <use xlink:href="#DejaVuSans-61" x="1169.140625"/>
     <use xlink:href="#DejaVuSans-72" x="1230.419922"/>
     <use xlink:href="#DejaVuSans-69" x="1271.533203"/>
     <use xlink:href="#DejaVuSans-61" x="1299.316406"/>
     <use xlink:href="#DejaVuSans-62" x="1360.595703"/>
     <use xlink:href="#DejaVuSans-69" x="1424.072266"/>
     <use xlink:href="#DejaVuSans-6c" x="1451.855469"/>
     <use xlink:href="#DejaVuSans-69" x="1479.638672"/>
     <use xlink:href="#DejaVuSans-74" x="1507.421875"/>
     <use xlink:href="#DejaVuSans-79" x="1546.630859"/>
     <use xlink:href="#DejaVuSans-20" x="1605.810547"/>
     <use xlink:href="#DejaVuSans-6f" x="1637.597656"/>
     <use xlink:href="#DejaVuSans-66" x="1698.779297"/>
     <use xlink:href="#DejaVuSans-20" x="1733.984375"/>
     <use xlink:href="#DejaVuSans-31" x="1765.771484"/>
     <use xlink:href="#DejaVuSans-30" x="1829.394531"/>
     <use xlink:href="#DejaVuSans-20" x="1893.017578"/>
     <use xlink:href="#DejaVuSans-66" x="1924.804688"/>
     <use xlink:href="#DejaVuSans-6f" x="1960.009766"/>
     <use xlink:href="#DejaVuSans-6c" x="2021.191406"/>
     <use xlink:href="#DejaVuSans-64" x="2048.974609"/>
     <use xlink:href="#DejaVuSans-73" x="2112.451172"/>
     <use xlink:href="#DejaVuSans-20" x="2164.550781"/>
     <use xlink:href="#DejaVuSans-69" x="2196.337891"/>
     <use xlink:href="#DejaVuSans-6e" x="2224.121094"/>
     <use xlink:href="#DejaVuSans-20" x="2287.5"/>
     <use xlink:href="#DejaVuSans-41" x="2319.287109"/>
     <use xlink:href="#DejaVuSans-49" x="2387.695312"/>
     <use xlink:href="#DejaVuSans-76" x="2417.1875"/>
     <use xlink:href="#DejaVuSans-4c" x="2476.367188"/>
     <use xlink:href="#DejaVuSans-44" x="2532.080078"/>
    </g>
   </g>
   <g id="legend_1">
    <g id="patch_27">
     <path d="M 33.4476 379.48 
L 223.5476 379.48 
Q 225.5476 379.48 225.5476 377.48 
L 225.5476 187.664375 
Q 225.5476 185.664375 223.5476 185.664375 
L 33.4476 185.664375 
Q 31.4476 185.664375 31.4476 187.664375 
L 31.4476 377.48 
Q 31.4476 379.48 33.4476 379.48 
z
" style="fill: #ffffff; opacity: 0.8; stroke: #cccccc; stroke-linejoin: miter"/>
    </g>
    <g id="line2d_77">
     <path d="M 35.4476 193.762813 
L 45.4476 193.762813 
L 55.4476 193.762813 
" style="fill: none; stroke: #1f77b4; stroke-opacity: 0.3; stroke-linecap: square"/>
    </g>
    <g id="text_26">
     <!-- ROC fold 0 (AUC = 0.88) -->
     <g transform="translate(63.4476 197.262813) scale(0.1 -0.1)">
      <defs>
       <path id="DejaVuSans-28" d="M 1984 4856 
Q 1566 4138 1362 3434 
Q 1159 2731 1159 2009 
Q 1159 1288 1364 580 
Q 1569 -128 1984 -844 
L 1484 -844 
Q 1016 -109 783 600 
Q 550 1309 550 2009 
Q 550 2706 781 3412 
Q 1013 4119 1484 4856 
L 1984 4856 
z
" transform="scale(0.015625)"/>
       <path id="DejaVuSans-3d" d="M 678 2906 
L 4684 2906 
L 4684 2381 
L 678 2381 
L 678 2906 
z
M 678 1631 
L 4684 1631 
L 4684 1100 
L 678 1100 
L 678 1631 
z
" transform="scale(0.015625)"/>
       <path id="DejaVuSans-2e" d="M 684 794 
L 1344 794 
L 1344 0 
L 684 0 
L 684 794 
z
" transform="scale(0.015625)"/>
       <path id="DejaVuSans-38" d="M 2034 2216 
Q 1584 2216 1326 1975 
Q 1069 1734 1069 1313 
Q 1069 891 1326 650 
Q 1584 409 2034 409 
Q 2484 409 2743 651 
Q 3003 894 3003 1313 
Q 3003 1734 2745 1975 
Q 2488 2216 2034 2216 
z
M 1403 2484 
Q 997 2584 770 2862 
Q 544 3141 544 3541 
Q 544 4100 942 4425 
Q 1341 4750 2034 4750 
Q 2731 4750 3128 4425 
Q 3525 4100 3525 3541 
Q 3525 3141 3298 2862 
Q 3072 2584 2669 2484 
Q 3125 2378 3379 2068 
Q 3634 1759 3634 1313 
Q 3634 634 3220 271 
Q 2806 -91 2034 -91 
Q 1263 -91 848 271 
Q 434 634 434 1313 
Q 434 1759 690 2068 
Q 947 2378 1403 2484 
z
M 1172 3481 
Q 1172 3119 1398 2916 
Q 1625 2713 2034 2713 
Q 2441 2713 2670 2916 
Q 2900 3119 2900 3481 
Q 2900 3844 2670 4047 
Q 2441 4250 2034 4250 
Q 1625 4250 1398 4047 
Q 1172 3844 1172 3481 
z
" transform="scale(0.015625)"/>
       <path id="DejaVuSans-29" d="M 513 4856 
L 1013 4856 
Q 1481 4119 1714 3412 
Q 1947 2706 1947 2009 
Q 1947 1309 1714 600 
Q 1481 -109 1013 -844 
L 513 -844 
Q 928 -128 1133 580 
Q 1338 1288 1338 2009 
Q 1338 2731 1133 3434 
Q 928 4138 513 4856 
z
" transform="scale(0.015625)"/>
      </defs>
      <use xlink:href="#DejaVuSans-52"/>
      <use xlink:href="#DejaVuSans-4f" x="69.482422"/>
      <use xlink:href="#DejaVuSans-43" x="148.193359"/>
      <use xlink:href="#DejaVuSans-20" x="218.017578"/>
      <use xlink:href="#DejaVuSans-66" x="249.804688"/>
      <use xlink:href="#DejaVuSans-6f" x="285.009766"/>
      <use xlink:href="#DejaVuSans-6c" x="346.191406"/>
      <use xlink:href="#DejaVuSans-64" x="373.974609"/>
      <use xlink:href="#DejaVuSans-20" x="437.451172"/>
      <use xlink:href="#DejaVuSans-30" x="469.238281"/>
      <use xlink:href="#DejaVuSans-20" x="532.861328"/>
      <use xlink:href="#DejaVuSans-28" x="564.648438"/>
      <use xlink:href="#DejaVuSans-41" x="603.662109"/>
      <use xlink:href="#DejaVuSans-55" x="672.070312"/>
      <use xlink:href="#DejaVuSans-43" x="745.263672"/>
      <use xlink:href="#DejaVuSans-20" x="815.087891"/>
      <use xlink:href="#DejaVuSans-3d" x="846.875"/>
      <use xlink:href="#DejaVuSans-20" x="930.664062"/>
      <use xlink:href="#DejaVuSans-30" x="962.451172"/>
      <use xlink:href="#DejaVuSans-2e" x="1026.074219"/>
      <use xlink:href="#DejaVuSans-38" x="1057.861328"/>
      <use xlink:href="#DejaVuSans-38" x="1121.484375"/>
      <use xlink:href="#DejaVuSans-29" x="1185.107422"/>
     </g>
    </g>
    <g id="line2d_78">
     <path d="M 35.4476 208.440938 
L 45.4476 208.440938 
L 55.4476 208.440938 
" style="fill: none; stroke: #ff7f0e; stroke-opacity: 0.3; stroke-linecap: square"/>
    </g>
    <g id="text_27">
     <!-- ROC fold 1 (AUC = 0.94) -->
     <g transform="translate(63.4476 211.940938) scale(0.1 -0.1)">
      <defs>
       <path id="DejaVuSans-39" d="M 703 97 
L 703 672 
Q 941 559 1184 500 
Q 1428 441 1663 441 
Q 2288 441 2617 861 
Q 2947 1281 2994 2138 
Q 2813 1869 2534 1725 
Q 2256 1581 1919 1581 
Q 1219 1581 811 2004 
Q 403 2428 403 3163 
Q 403 3881 828 4315 
Q 1253 4750 1959 4750 
Q 2769 4750 3195 4129 
Q 3622 3509 3622 2328 
Q 3622 1225 3098 567 
Q 2575 -91 1691 -91 
Q 1453 -91 1209 -44 
Q 966 3 703 97 
z
M 1959 2075 
Q 2384 2075 2632 2365 
Q 2881 2656 2881 3163 
Q 2881 3666 2632 3958 
Q 2384 4250 1959 4250 
Q 1534 4250 1286 3958 
Q 1038 3666 1038 3163 
Q 1038 2656 1286 2365 
Q 1534 2075 1959 2075 
z
" transform="scale(0.015625)"/>
       <path id="DejaVuSans-34" d="M 2419 4116 
L 825 1625 
L 2419 1625 
L 2419 4116 
z
M 2253 4666 
L 3047 4666 
L 3047 1625 
L 3713 1625 
L 3713 1100 
L 3047 1100 
L 3047 0 
L 2419 0 
L 2419 1100 
L 313 1100 
L 313 1709 
L 2253 4666 
z
" transform="scale(0.015625)"/>
      </defs>
      <use xlink:href="#DejaVuSans-52"/>
      <use xlink:href="#DejaVuSans-4f" x="69.482422"/>
      <use xlink:href="#DejaVuSans-43" x="148.193359"/>
      <use xlink:href="#DejaVuSans-20" x="218.017578"/>
      <use xlink:href="#DejaVuSans-66" x="249.804688"/>
      <use xlink:href="#DejaVuSans-6f" x="285.009766"/>
      <use xlink:href="#DejaVuSans-6c" x="346.191406"/>
      <use xlink:href="#DejaVuSans-64" x="373.974609"/>
      <use xlink:href="#DejaVuSans-20" x="437.451172"/>
      <use xlink:href="#DejaVuSans-31" x="469.238281"/>
      <use xlink:href="#DejaVuSans-20" x="532.861328"/>
      <use xlink:href="#DejaVuSans-28" x="564.648438"/>
      <use xlink:href="#DejaVuSans-41" x="603.662109"/>
      <use xlink:href="#DejaVuSans-55" x="672.070312"/>
      <use xlink:href="#DejaVuSans-43" x="745.263672"/>
      <use xlink:href="#DejaVuSans-20" x="815.087891"/>
      <use xlink:href="#DejaVuSans-3d" x="846.875"/>
      <use xlink:href="#DejaVuSans-20" x="930.664062"/>
      <use xlink:href="#DejaVuSans-30" x="962.451172"/>
      <use xlink:href="#DejaVuSans-2e" x="1026.074219"/>
      <use xlink:href="#DejaVuSans-39" x="1057.861328"/>
      <use xlink:href="#DejaVuSans-34" x="1121.484375"/>
      <use xlink:href="#DejaVuSans-29" x="1185.107422"/>
     </g>
    </g>
    <g id="line2d_79">
     <path d="M 35.4476 223.119063 
L 45.4476 223.119063 
L 55.4476 223.119063 
" style="fill: none; stroke: #2ca02c; stroke-opacity: 0.3; stroke-linecap: square"/>
    </g>
    <g id="text_28">
     <!-- ROC fold 2 (AUC = 0.90) -->
     <g transform="translate(63.4476 226.619063) scale(0.1 -0.1)">
      <use xlink:href="#DejaVuSans-52"/>
      <use xlink:href="#DejaVuSans-4f" x="69.482422"/>
      <use xlink:href="#DejaVuSans-43" x="148.193359"/>
      <use xlink:href="#DejaVuSans-20" x="218.017578"/>
      <use xlink:href="#DejaVuSans-66" x="249.804688"/>
      <use xlink:href="#DejaVuSans-6f" x="285.009766"/>
      <use xlink:href="#DejaVuSans-6c" x="346.191406"/>
      <use xlink:href="#DejaVuSans-64" x="373.974609"/>
      <use xlink:href="#DejaVuSans-20" x="437.451172"/>
      <use xlink:href="#DejaVuSans-32" x="469.238281"/>
      <use xlink:href="#DejaVuSans-20" x="532.861328"/>
      <use xlink:href="#DejaVuSans-28" x="564.648438"/>
      <use xlink:href="#DejaVuSans-41" x="603.662109"/>
      <use xlink:href="#DejaVuSans-55" x="672.070312"/>
      <use xlink:href="#DejaVuSans-43" x="745.263672"/>
      <use xlink:href="#DejaVuSans-20" x="815.087891"/>
      <use xlink:href="#DejaVuSans-3d" x="846.875"/>
      <use xlink:href="#DejaVuSans-20" x="930.664062"/>
      <use xlink:href="#DejaVuSans-30" x="962.451172"/>
      <use xlink:href="#DejaVuSans-2e" x="1026.074219"/>
      <use xlink:href="#DejaVuSans-39" x="1057.861328"/>
      <use xlink:href="#DejaVuSans-30" x="1121.484375"/>
      <use xlink:href="#DejaVuSans-29" x="1185.107422"/>
     </g>
    </g>
    <g id="line2d_80">
     <path d="M 35.4476 237.797188 
L 45.4476 237.797188 
L 55.4476 237.797188 
" style="fill: none; stroke: #d62728; stroke-opacity: 0.3; stroke-linecap: square"/>
    </g>
    <g id="text_29">
     <!-- ROC fold 3 (AUC = 0.84) -->
     <g transform="translate(63.4476 241.297188) scale(0.1 -0.1)">
      <defs>
       <path id="DejaVuSans-33" d="M 2597 2516 
Q 3050 2419 3304 2112 
Q 3559 1806 3559 1356 
Q 3559 666 3084 287 
Q 2609 -91 1734 -91 
Q 1441 -91 1130 -33 
Q 819 25 488 141 
L 488 750 
Q 750 597 1062 519 
Q 1375 441 1716 441 
Q 2309 441 2620 675 
Q 2931 909 2931 1356 
Q 2931 1769 2642 2001 
Q 2353 2234 1838 2234 
L 1294 2234 
L 1294 2753 
L 1863 2753 
Q 2328 2753 2575 2939 
Q 2822 3125 2822 3475 
Q 2822 3834 2567 4026 
Q 2313 4219 1838 4219 
Q 1578 4219 1281 4162 
Q 984 4106 628 3988 
L 628 4550 
Q 988 4650 1302 4700 
Q 1616 4750 1894 4750 
Q 2613 4750 3031 4423 
Q 3450 4097 3450 3541 
Q 3450 3153 3228 2886 
Q 3006 2619 2597 2516 
z
" transform="scale(0.015625)"/>
      </defs>
      <use xlink:href="#DejaVuSans-52"/>
      <use xlink:href="#DejaVuSans-4f" x="69.482422"/>
      <use xlink:href="#DejaVuSans-43" x="148.193359"/>
      <use xlink:href="#DejaVuSans-20" x="218.017578"/>
      <use xlink:href="#DejaVuSans-66" x="249.804688"/>
      <use xlink:href="#DejaVuSans-6f" x="285.009766"/>
      <use xlink:href="#DejaVuSans-6c" x="346.191406"/>
      <use xlink:href="#DejaVuSans-64" x="373.974609"/>
      <use xlink:href="#DejaVuSans-20" x="437.451172"/>
      <use xlink:href="#DejaVuSans-33" x="469.238281"/>
      <use xlink:href="#DejaVuSans-20" x="532.861328"/>
      <use xlink:href="#DejaVuSans-28" x="564.648438"/>
      <use xlink:href="#DejaVuSans-41" x="603.662109"/>
      <use xlink:href="#DejaVuSans-55" x="672.070312"/>
      <use xlink:href="#DejaVuSans-43" x="745.263672"/>
      <use xlink:href="#DejaVuSans-20" x="815.087891"/>
      <use xlink:href="#DejaVuSans-3d" x="846.875"/>
      <use xlink:href="#DejaVuSans-20" x="930.664062"/>
      <use xlink:href="#DejaVuSans-30" x="962.451172"/>
      <use xlink:href="#DejaVuSans-2e" x="1026.074219"/>
      <use xlink:href="#DejaVuSans-38" x="1057.861328"/>
      <use xlink:href="#DejaVuSans-34" x="1121.484375"/>
      <use xlink:href="#DejaVuSans-29" x="1185.107422"/>
     </g>
    </g>
    <g id="line2d_81">
     <path d="M 35.4476 252.475313 
L 45.4476 252.475313 
L 55.4476 252.475313 
" style="fill: none; stroke: #9467bd; stroke-opacity: 0.3; stroke-linecap: square"/>
    </g>
    <g id="text_30">
     <!-- ROC fold 4 (AUC = 0.94) -->
     <g transform="translate(63.4476 255.975313) scale(0.1 -0.1)">
      <use xlink:href="#DejaVuSans-52"/>
      <use xlink:href="#DejaVuSans-4f" x="69.482422"/>
      <use xlink:href="#DejaVuSans-43" x="148.193359"/>
      <use xlink:href="#DejaVuSans-20" x="218.017578"/>
      <use xlink:href="#DejaVuSans-66" x="249.804688"/>
      <use xlink:href="#DejaVuSans-6f" x="285.009766"/>
      <use xlink:href="#DejaVuSans-6c" x="346.191406"/>
      <use xlink:href="#DejaVuSans-64" x="373.974609"/>
      <use xlink:href="#DejaVuSans-20" x="437.451172"/>
      <use xlink:href="#DejaVuSans-34" x="469.238281"/>
      <use xlink:href="#DejaVuSans-20" x="532.861328"/>
      <use xlink:href="#DejaVuSans-28" x="564.648438"/>
      <use xlink:href="#DejaVuSans-41" x="603.662109"/>
      <use xlink:href="#DejaVuSans-55" x="672.070312"/>
      <use xlink:href="#DejaVuSans-43" x="745.263672"/>
      <use xlink:href="#DejaVuSans-20" x="815.087891"/>
      <use xlink:href="#DejaVuSans-3d" x="846.875"/>
      <use xlink:href="#DejaVuSans-20" x="930.664062"/>
      <use xlink:href="#DejaVuSans-30" x="962.451172"/>
      <use xlink:href="#DejaVuSans-2e" x="1026.074219"/>
      <use xlink:href="#DejaVuSans-39" x="1057.861328"/>
      <use xlink:href="#DejaVuSans-34" x="1121.484375"/>
      <use xlink:href="#DejaVuSans-29" x="1185.107422"/>
     </g>
    </g>
    <g id="line2d_82">
     <path d="M 35.4476 267.153438 
L 45.4476 267.153438 
L 55.4476 267.153438 
" style="fill: none; stroke: #8c564b; stroke-opacity: 0.3; stroke-linecap: square"/>
    </g>
    <g id="text_31">
     <!-- ROC fold 5 (AUC = 0.90) -->
     <g transform="translate(63.4476 270.653438) scale(0.1 -0.1)">
      <defs>
       <path id="DejaVuSans-35" d="M 691 4666 
L 3169 4666 
L 3169 4134 
L 1269 4134 
L 1269 2991 
Q 1406 3038 1543 3061 
Q 1681 3084 1819 3084 
Q 2600 3084 3056 2656 
Q 3513 2228 3513 1497 
Q 3513 744 3044 326 
Q 2575 -91 1722 -91 
Q 1428 -91 1123 -41 
Q 819 9 494 109 
L 494 744 
Q 775 591 1075 516 
Q 1375 441 1709 441 
Q 2250 441 2565 725 
Q 2881 1009 2881 1497 
Q 2881 1984 2565 2268 
Q 2250 2553 1709 2553 
Q 1456 2553 1204 2497 
Q 953 2441 691 2322 
L 691 4666 
z
" transform="scale(0.015625)"/>
      </defs>
      <use xlink:href="#DejaVuSans-52"/>
      <use xlink:href="#DejaVuSans-4f" x="69.482422"/>
      <use xlink:href="#DejaVuSans-43" x="148.193359"/>
      <use xlink:href="#DejaVuSans-20" x="218.017578"/>
      <use xlink:href="#DejaVuSans-66" x="249.804688"/>
      <use xlink:href="#DejaVuSans-6f" x="285.009766"/>
      <use xlink:href="#DejaVuSans-6c" x="346.191406"/>
      <use xlink:href="#DejaVuSans-64" x="373.974609"/>
      <use xlink:href="#DejaVuSans-20" x="437.451172"/>
      <use xlink:href="#DejaVuSans-35" x="469.238281"/>
      <use xlink:href="#DejaVuSans-20" x="532.861328"/>
      <use xlink:href="#DejaVuSans-28" x="564.648438"/>
      <use xlink:href="#DejaVuSans-41" x="603.662109"/>
      <use xlink:href="#DejaVuSans-55" x="672.070312"/>
      <use xlink:href="#DejaVuSans-43" x="745.263672"/>
      <use xlink:href="#DejaVuSans-20" x="815.087891"/>
      <use xlink:href="#DejaVuSans-3d" x="846.875"/>
      <use xlink:href="#DejaVuSans-20" x="930.664062"/>
      <use xlink:href="#DejaVuSans-30" x="962.451172"/>
      <use xlink:href="#DejaVuSans-2e" x="1026.074219"/>
      <use xlink:href="#DejaVuSans-39" x="1057.861328"/>
      <use xlink:href="#DejaVuSans-30" x="1121.484375"/>
      <use xlink:href="#DejaVuSans-29" x="1185.107422"/>
     </g>
    </g>
    <g id="line2d_83">
     <path d="M 35.4476 281.831563 
L 45.4476 281.831563 
L 55.4476 281.831563 
" style="fill: none; stroke: #e377c2; stroke-opacity: 0.3; stroke-linecap: square"/>
    </g>
    <g id="text_32">
     <!-- ROC fold 6 (AUC = 0.85) -->
     <g transform="translate(63.4476 285.331563) scale(0.1 -0.1)">
      <defs>
       <path id="DejaVuSans-36" d="M 2113 2584 
Q 1688 2584 1439 2293 
Q 1191 2003 1191 1497 
Q 1191 994 1439 701 
Q 1688 409 2113 409 
Q 2538 409 2786 701 
Q 3034 994 3034 1497 
Q 3034 2003 2786 2293 
Q 2538 2584 2113 2584 
z
M 3366 4563 
L 3366 3988 
Q 3128 4100 2886 4159 
Q 2644 4219 2406 4219 
Q 1781 4219 1451 3797 
Q 1122 3375 1075 2522 
Q 1259 2794 1537 2939 
Q 1816 3084 2150 3084 
Q 2853 3084 3261 2657 
Q 3669 2231 3669 1497 
Q 3669 778 3244 343 
Q 2819 -91 2113 -91 
Q 1303 -91 875 529 
Q 447 1150 447 2328 
Q 447 3434 972 4092 
Q 1497 4750 2381 4750 
Q 2619 4750 2861 4703 
Q 3103 4656 3366 4563 
z
" transform="scale(0.015625)"/>
      </defs>
      <use xlink:href="#DejaVuSans-52"/>
      <use xlink:href="#DejaVuSans-4f" x="69.482422"/>
      <use xlink:href="#DejaVuSans-43" x="148.193359"/>
      <use xlink:href="#DejaVuSans-20" x="218.017578"/>
      <use xlink:href="#DejaVuSans-66" x="249.804688"/>
      <use xlink:href="#DejaVuSans-6f" x="285.009766"/>
      <use xlink:href="#DejaVuSans-6c" x="346.191406"/>
      <use xlink:href="#DejaVuSans-64" x="373.974609"/>
      <use xlink:href="#DejaVuSans-20" x="437.451172"/>
      <use xlink:href="#DejaVuSans-36" x="469.238281"/>
      <use xlink:href="#DejaVuSans-20" x="532.861328"/>
      <use xlink:href="#DejaVuSans-28" x="564.648438"/>
      <use xlink:href="#DejaVuSans-41" x="603.662109"/>
      <use xlink:href="#DejaVuSans-55" x="672.070312"/>
      <use xlink:href="#DejaVuSans-43" x="745.263672"/>
      <use xlink:href="#DejaVuSans-20" x="815.087891"/>
      <use xlink:href="#DejaVuSans-3d" x="846.875"/>
      <use xlink:href="#DejaVuSans-20" x="930.664062"/>
      <use xlink:href="#DejaVuSans-30" x="962.451172"/>
      <use xlink:href="#DejaVuSans-2e" x="1026.074219"/>
      <use xlink:href="#DejaVuSans-38" x="1057.861328"/>
      <use xlink:href="#DejaVuSans-35" x="1121.484375"/>
      <use xlink:href="#DejaVuSans-29" x="1185.107422"/>
     </g>
    </g>
    <g id="line2d_84">
     <path d="M 35.4476 296.509688 
L 45.4476 296.509688 
L 55.4476 296.509688 
" style="fill: none; stroke: #7f7f7f; stroke-opacity: 0.3; stroke-linecap: square"/>
    </g>
    <g id="text_33">
     <!-- ROC fold 7 (AUC = 0.85) -->
     <g transform="translate(63.4476 300.009688) scale(0.1 -0.1)">
      <defs>
       <path id="DejaVuSans-37" d="M 525 4666 
L 3525 4666 
L 3525 4397 
L 1831 0 
L 1172 0 
L 2766 4134 
L 525 4134 
L 525 4666 
z
" transform="scale(0.015625)"/>
      </defs>
      <use xlink:href="#DejaVuSans-52"/>
      <use xlink:href="#DejaVuSans-4f" x="69.482422"/>
      <use xlink:href="#DejaVuSans-43" x="148.193359"/>
      <use xlink:href="#DejaVuSans-20" x="218.017578"/>
      <use xlink:href="#DejaVuSans-66" x="249.804688"/>
      <use xlink:href="#DejaVuSans-6f" x="285.009766"/>
      <use xlink:href="#DejaVuSans-6c" x="346.191406"/>
      <use xlink:href="#DejaVuSans-64" x="373.974609"/>
      <use xlink:href="#DejaVuSans-20" x="437.451172"/>
      <use xlink:href="#DejaVuSans-37" x="469.238281"/>
      <use xlink:href="#DejaVuSans-20" x="532.861328"/>
      <use xlink:href="#DejaVuSans-28" x="564.648438"/>
      <use xlink:href="#DejaVuSans-41" x="603.662109"/>
      <use xlink:href="#DejaVuSans-55" x="672.070312"/>
      <use xlink:href="#DejaVuSans-43" x="745.263672"/>
      <use xlink:href="#DejaVuSans-20" x="815.087891"/>
      <use xlink:href="#DejaVuSans-3d" x="846.875"/>
      <use xlink:href="#DejaVuSans-20" x="930.664062"/>
      <use xlink:href="#DejaVuSans-30" x="962.451172"/>
      <use xlink:href="#DejaVuSans-2e" x="1026.074219"/>
      <use xlink:href="#DejaVuSans-38" x="1057.861328"/>
      <use xlink:href="#DejaVuSans-35" x="1121.484375"/>
      <use xlink:href="#DejaVuSans-29" x="1185.107422"/>
     </g>
    </g>
    <g id="line2d_85">
     <path d="M 35.4476 311.187813 
L 45.4476 311.187813 
L 55.4476 311.187813 
" style="fill: none; stroke: #bcbd22; stroke-opacity: 0.3; stroke-linecap: square"/>
    </g>
    <g id="text_34">
     <!-- ROC fold 8 (AUC = 0.85) -->
     <g transform="translate(63.4476 314.687813) scale(0.1 -0.1)">
      <use xlink:href="#DejaVuSans-52"/>
      <use xlink:href="#DejaVuSans-4f" x="69.482422"/>
      <use xlink:href="#DejaVuSans-43" x="148.193359"/>
      <use xlink:href="#DejaVuSans-20" x="218.017578"/>
      <use xlink:href="#DejaVuSans-66" x="249.804688"/>
      <use xlink:href="#DejaVuSans-6f" x="285.009766"/>
      <use xlink:href="#DejaVuSans-6c" x="346.191406"/>
      <use xlink:href="#DejaVuSans-64" x="373.974609"/>
      <use xlink:href="#DejaVuSans-20" x="437.451172"/>
      <use xlink:href="#DejaVuSans-38" x="469.238281"/>
      <use xlink:href="#DejaVuSans-20" x="532.861328"/>
      <use xlink:href="#DejaVuSans-28" x="564.648438"/>
      <use xlink:href="#DejaVuSans-41" x="603.662109"/>
      <use xlink:href="#DejaVuSans-55" x="672.070312"/>
      <use xlink:href="#DejaVuSans-43" x="745.263672"/>
      <use xlink:href="#DejaVuSans-20" x="815.087891"/>
      <use xlink:href="#DejaVuSans-3d" x="846.875"/>
      <use xlink:href="#DejaVuSans-20" x="930.664062"/>
      <use xlink:href="#DejaVuSans-30" x="962.451172"/>
      <use xlink:href="#DejaVuSans-2e" x="1026.074219"/>
      <use xlink:href="#DejaVuSans-38" x="1057.861328"/>
      <use xlink:href="#DejaVuSans-35" x="1121.484375"/>
      <use xlink:href="#DejaVuSans-29" x="1185.107422"/>
     </g>
    </g>
    <g id="line2d_86">
     <path d="M 35.4476 325.865938 
L 45.4476 325.865938 
L 55.4476 325.865938 
" style="fill: none; stroke: #17becf; stroke-opacity: 0.3; stroke-linecap: square"/>
    </g>
    <g id="text_35">
     <!-- ROC fold 9 (AUC = 0.89) -->
     <g transform="translate(63.4476 329.365938) scale(0.1 -0.1)">
      <use xlink:href="#DejaVuSans-52"/>
      <use xlink:href="#DejaVuSans-4f" x="69.482422"/>
      <use xlink:href="#DejaVuSans-43" x="148.193359"/>
      <use xlink:href="#DejaVuSans-20" x="218.017578"/>
      <use xlink:href="#DejaVuSans-66" x="249.804688"/>
      <use xlink:href="#DejaVuSans-6f" x="285.009766"/>
      <use xlink:href="#DejaVuSans-6c" x="346.191406"/>
      <use xlink:href="#DejaVuSans-64" x="373.974609"/>
      <use xlink:href="#DejaVuSans-20" x="437.451172"/>
      <use xlink:href="#DejaVuSans-39" x="469.238281"/>
      <use xlink:href="#DejaVuSans-20" x="532.861328"/>
      <use xlink:href="#DejaVuSans-28" x="564.648438"/>
      <use xlink:href="#DejaVuSans-41" x="603.662109"/>
      <use xlink:href="#DejaVuSans-55" x="672.070312"/>
      <use xlink:href="#DejaVuSans-43" x="745.263672"/>
      <use xlink:href="#DejaVuSans-20" x="815.087891"/>
      <use xlink:href="#DejaVuSans-3d" x="846.875"/>
      <use xlink:href="#DejaVuSans-20" x="930.664062"/>
      <use xlink:href="#DejaVuSans-30" x="962.451172"/>
      <use xlink:href="#DejaVuSans-2e" x="1026.074219"/>
      <use xlink:href="#DejaVuSans-38" x="1057.861328"/>
      <use xlink:href="#DejaVuSans-39" x="1121.484375"/>
      <use xlink:href="#DejaVuSans-29" x="1185.107422"/>
     </g>
    </g>
    <g id="line2d_87">
     <path d="M 35.4476 340.544062 
L 45.4476 340.544062 
L 55.4476 340.544062 
" style="fill: none; stroke-dasharray: 5.55,2.4; stroke-dashoffset: 0; stroke: #1a1a1a; stroke-width: 1.5"/>
    </g>
    <g id="text_36">
     <!-- random (AUC = 0.5) -->
     <g transform="translate(63.4476 344.044062) scale(0.1 -0.1)">
      <use xlink:href="#DejaVuSans-72"/>
      <use xlink:href="#DejaVuSans-61" x="41.113281"/>
      <use xlink:href="#DejaVuSans-6e" x="102.392578"/>
      <use xlink:href="#DejaVuSans-64" x="165.771484"/>
      <use xlink:href="#DejaVuSans-6f" x="229.248047"/>
      <use xlink:href="#DejaVuSans-6d" x="290.429688"/>
      <use xlink:href="#DejaVuSans-20" x="387.841797"/>
      <use xlink:href="#DejaVuSans-28" x="419.628906"/>
      <use xlink:href="#DejaVuSans-41" x="458.642578"/>
      <use xlink:href="#DejaVuSans-55" x="527.050781"/>
      <use xlink:href="#DejaVuSans-43" x="600.244141"/>
      <use xlink:href="#DejaVuSans-20" x="670.068359"/>
      <use xlink:href="#DejaVuSans-3d" x="701.855469"/>
      <use xlink:href="#DejaVuSans-20" x="785.644531"/>
      <use xlink:href="#DejaVuSans-30" x="817.431641"/>
      <use xlink:href="#DejaVuSans-2e" x="881.054688"/>
      <use xlink:href="#DejaVuSans-35" x="912.841797"/>
      <use xlink:href="#DejaVuSans-29" x="976.464844"/>
     </g>
    </g>
    <g id="line2d_88">
     <path d="M 35.4476 355.222188 
L 45.4476 355.222188 
L 55.4476 355.222188 
" style="fill: none; stroke: #4c72b0; stroke-opacity: 0.8; stroke-width: 2; stroke-linecap: square"/>
    </g>
    <g id="text_37">
     <!-- Mean ROC (AUC = 0.88 $\pm$ 0.04) -->
     <g transform="translate(63.4476 358.722188) scale(0.1 -0.1)">
      <defs>
       <path id="DejaVuSans-b1" d="M 2944 4013 
L 2944 2803 
L 4684 2803 
L 4684 2272 
L 2944 2272 
L 2944 1063 
L 2419 1063 
L 2419 2272 
L 678 2272 
L 678 2803 
L 2419 2803 
L 2419 4013 
L 2944 4013 
z
M 678 531 
L 4684 531 
L 4684 0 
L 678 0 
L 678 531 
z
" transform="scale(0.015625)"/>
      </defs>
      <use xlink:href="#DejaVuSans-4d" transform="translate(0 0.125)"/>
      <use xlink:href="#DejaVuSans-65" transform="translate(86.279297 0.125)"/>
      <use xlink:href="#DejaVuSans-61" transform="translate(147.802734 0.125)"/>
      <use xlink:href="#DejaVuSans-6e" transform="translate(209.082031 0.125)"/>
      <use xlink:href="#DejaVuSans-20" transform="translate(272.460938 0.125)"/>
      <use xlink:href="#DejaVuSans-52" transform="translate(304.248047 0.125)"/>
      <use xlink:href="#DejaVuSans-4f" transform="translate(373.730469 0.125)"/>
      <use xlink:href="#DejaVuSans-43" transform="translate(452.441406 0.125)"/>
      <use xlink:href="#DejaVuSans-20" transform="translate(522.265625 0.125)"/>
      <use xlink:href="#DejaVuSans-28" transform="translate(554.052734 0.125)"/>
      <use xlink:href="#DejaVuSans-41" transform="translate(593.066406 0.125)"/>
      <use xlink:href="#DejaVuSans-55" transform="translate(661.474609 0.125)"/>
      <use xlink:href="#DejaVuSans-43" transform="translate(734.667969 0.125)"/>
      <use xlink:href="#DejaVuSans-20" transform="translate(804.492188 0.125)"/>
      <use xlink:href="#DejaVuSans-3d" transform="translate(836.279297 0.125)"/>
      <use xlink:href="#DejaVuSans-20" transform="translate(920.068359 0.125)"/>
      <use xlink:href="#DejaVuSans-30" transform="translate(951.855469 0.125)"/>
      <use xlink:href="#DejaVuSans-2e" transform="translate(1015.478516 0.125)"/>
      <use xlink:href="#DejaVuSans-38" transform="translate(1044.640625 0.125)"/>
      <use xlink:href="#DejaVuSans-38" transform="translate(1108.263672 0.125)"/>
      <use xlink:href="#DejaVuSans-20" transform="translate(1171.886719 0.125)"/>
      <use xlink:href="#DejaVuSans-b1" transform="translate(1203.673828 0.125)"/>
      <use xlink:href="#DejaVuSans-20" transform="translate(1287.462891 0.125)"/>
      <use xlink:href="#DejaVuSans-30" transform="translate(1319.25 0.125)"/>
      <use xlink:href="#DejaVuSans-2e" transform="translate(1382.873047 0.125)"/>
      <use xlink:href="#DejaVuSans-30" transform="translate(1414.660156 0.125)"/>
      <use xlink:href="#DejaVuSans-34" transform="translate(1478.283203 0.125)"/>
      <use xlink:href="#DejaVuSans-29" transform="translate(1541.90625 0.125)"/>
     </g>
    </g>
    <g id="patch_28">
     <path d="M 35.4476 373.400313 
L 55.4476 373.400313 
L 55.4476 366.400313 
L 35.4476 366.400313 
z
" style="fill: #808080; fill-opacity: 0.2; stroke: #808080; stroke-opacity: 0.2; stroke-linejoin: miter"/>
    </g>
    <g id="text_38">
     <!-- $\pm$ 1 std. dev. -->
     <g transform="translate(63.4476 373.400313) scale(0.1 -0.1)">
      <use xlink:href="#DejaVuSans-b1" transform="translate(0 0.015625)"/>
      <use xlink:href="#DejaVuSans-20" transform="translate(83.789062 0.015625)"/>
      <use xlink:href="#DejaVuSans-31" transform="translate(115.576172 0.015625)"/>
      <use xlink:href="#DejaVuSans-20" transform="translate(179.199219 0.015625)"/>
      <use xlink:href="#DejaVuSans-73" transform="translate(210.986328 0.015625)"/>
      <use xlink:href="#DejaVuSans-74" transform="translate(263.085938 0.015625)"/>
      <use xlink:href="#DejaVuSans-64" transform="translate(302.294922 0.015625)"/>
      <use xlink:href="#DejaVuSans-2e" transform="translate(365.771484 0.015625)"/>
      <use xlink:href="#DejaVuSans-20" transform="translate(397.558594 0.015625)"/>
      <use xlink:href="#DejaVuSans-64" transform="translate(429.345703 0.015625)"/>
      <use xlink:href="#DejaVuSans-65" transform="translate(492.822266 0.015625)"/>
      <use xlink:href="#DejaVuSans-76" transform="translate(554.345703 0.015625)"/>
      <use xlink:href="#DejaVuSans-2e" transform="translate(613.525391 0.015625)"/>
     </g>
    </g>
   </g>
  </g>
 </g>
 <defs>
  <clipPath id="p96d866bed0">
   <rect x="212.2524" y="51.84" width="18.2952" height="332.64"/>
  </clipPath>
 </defs>
</svg>
