<svg class="main-svg" xmlns="http://www.w3.org/2000/svg" xmlns:xlink="http://www.w3.org/1999/xlink" width="700" height="500" style="" viewBox="0 0 700 500"><rect x="0" y="0" width="700" height="500" style="fill: rgb(255, 255, 255); fill-opacity: 1;"/><defs id="defs-097204"><g class="clips"/><g class="gradients"/><g class="patterns"/></defs><g class="bglayer"/><g class="layer-below"><g class="imagelayer"/><g class="shapelayer"/></g><g class="cartesianlayer"/><g class="polarlayer"/><g class="smithlayer"/><g class="ternarylayer"/><g class="geolayer"/><g class="funnelarealayer"/><g class="pielayer"/><g class="iciclelayer"/><g class="treemaplayer"/><g class="sunburstlayer"/><g class="glimages"/><g class="sankey" transform="translate(80,100)matrix(1 0 0 1 0 0)" style="box-sizing: content-box; position: absolute; left: 0px; shape-rendering: geometricprecision; pointer-events: auto;"><g class="sankey-links" style="fill: none;"><path class="sankey-link" d="M32,341.7318278052223C148.5,341.7318278052223 148.5,333.7318278052222 265,333.7318278052222L265,354.26817219477766C148.5,354.26817219477766 148.5,362.2681721947777 32,362.2681721947777Z" style="stroke: rgb(68, 68, 68); stroke-opacity: 1; fill: rgb(255, 215, 0); fill-opacity: 1; stroke-width: 0; opacity: 1;"/><path class="sankey-link" d="M32,213.44248412138316C148.5,213.44248412138316 148.5,238.21594918842626 265,238.21594918842626L265,262.7748764996472C148.5,262.7748764996472 148.5,238.00141143260404 32,238.00141143260404Z" style="stroke: rgb(68, 68, 68); stroke-opacity: 1; fill: rgb(173, 216, 230); fill-opacity: 1; stroke-width: 0; opacity: 1;"/><path class="sankey-link" d="M32,238.00141143260404C148.5,238.00141143260404 148.5,283.5695130557516 265,283.5695130557516L265,323.16019760056463C148.5,323.16019760056463 148.5,277.59209597741705 32,277.59209597741705Z" style="stroke: rgb(68, 68, 68); stroke-opacity: 1; fill: rgb(173, 216, 230); fill-opacity: 1; stroke-width: 0; opacity: 1;"/><path class="sankey-link" d="M32,10.407904022582862C148.5,10.407904022582862 148.5,16.09513055751585 265,16.09513055751585L265,124.7048694424841C148.5,124.7048694424841 148.5,119.0176429075511 32,119.0176429075511Z" style="stroke: rgb(68, 68, 68); stroke-opacity: 1; fill: rgb(173, 216, 230); fill-opacity: 1; stroke-width: 0; opacity: 1;"/><path class="sankey-link" d="M32,119.0176429075511C148.5,119.0176429075511 148.5,135.1875793930841 265,135.1875793930841L265,229.61242060691615C148.5,229.61242060691615 148.5,213.44248412138316 32,213.44248412138316Z" style="stroke: rgb(68, 68, 68); stroke-opacity: 1; fill: rgb(173, 216, 230); fill-opacity: 1; stroke-width: 0; opacity: 1;"/><path class="sankey-link" d="M32,315.76570218772054C148.5,315.76570218772054 148.5,264.68031051517295 265,264.68031051517295L265,273.1489061397319C148.5,273.1489061397319 148.5,324.23429781227946 32,324.23429781227946Z" style="stroke: rgb(68, 68, 68); stroke-opacity: 1; fill: rgb(192, 192, 192); fill-opacity: 1; stroke-width: 0; opacity: 1;"/><path class="sankey-link" d="M32,299.2121383203952C148.5,299.2121383203952 148.5,262.7748764996472 265,262.7748764996472L265,264.68031051517295C148.5,264.68031051517295 148.5,301.11757233592095 32,301.11757233592095Z" style="stroke: rgb(68, 68, 68); stroke-opacity: 1; fill: rgb(128, 128, 128); fill-opacity: 1; stroke-width: 0; opacity: 1;"/><path class="sankey-link" d="M32,301.11757233592095C148.5,301.11757233592095 148.5,323.1601976005646 265,323.1601976005646L265,324.43048694424846C148.5,324.43048694424846 148.5,302.38786167960484 32,302.38786167960484Z" style="stroke: rgb(68, 68, 68); stroke-opacity: 1; fill: rgb(128, 128, 128); fill-opacity: 1; stroke-width: 0; opacity: 1;"/><path class="sankey-link" d="M275,238.21594918842626C405,238.21594918842626 405,38.66901905434019 535,38.66901905434019L535,46.71418489767117C405,46.71418489767117 405,246.26111503175727 275,246.26111503175727Z" style="stroke: rgb(68, 68, 68); stroke-opacity: 1; fill: rgb(0, 128, 0); fill-opacity: 1; stroke-width: 0; opacity: 1;"/><path class="sankey-link" d="M275,246.26111503175724C405,246.26111503175724 405,82.01129146083275 535,82.01129146083275L535,84.34015525758645C405,84.34015525758645 405,248.58997882851094 275,248.58997882851094Z" style="stroke: rgb(68, 68, 68); stroke-opacity: 1; fill: rgb(0, 128, 0); fill-opacity: 1; stroke-width: 0; opacity: 1;"/><path class="sankey-link" d="M275,248.58997882851094C405,248.58997882851094 405,243.75553987297107 535,243.75553987297107L535,265.1387438249824C405,265.1387438249824 405,269.9731827805222 275,269.9731827805222Z" style="stroke: rgb(68, 68, 68); stroke-opacity: 1; fill: rgb(0, 128, 0); fill-opacity: 1; stroke-width: 0; opacity: 1;"/><path class="sankey-link" d="M275,269.9731827805222C405,269.9731827805222 405,322.88242766407905 535,322.88242766407905L535,324.7878616796048C405,324.7878616796048 405,271.878616796048 275,271.878616796048Z" style="stroke: rgb(68, 68, 68); stroke-opacity: 1; fill: rgb(0, 128, 0); fill-opacity: 1; stroke-width: 0; opacity: 1;"/><path class="sankey-link" d="M275,271.878616796048C405,271.878616796048 405,357.71630204657725 535,357.71630204657725L535,359.621736062103C405,359.621736062103 405,273.78405081157376 275,273.78405081157376Z" style="stroke: rgb(68, 68, 68); stroke-opacity: 1; fill: rgb(0, 128, 0); fill-opacity: 1; stroke-width: 0; opacity: 1;"/><path class="sankey-link" d="M275,283.5695130557516C405,283.5695130557516 405,46.714184897671174 535,46.714184897671174L535,55.606210303458056C405,55.606210303458056 405,292.46153846153845 275,292.46153846153845Z" style="stroke: rgb(68, 68, 68); stroke-opacity: 1; fill: rgb(144, 238, 144); fill-opacity: 1; stroke-width: 0; opacity: 1;"/><path class="sankey-link" d="M275,292.46153846153845C405,292.46153846153845 405,84.34015525758646 535,84.34015525758646L535,86.45730416372619C405,86.45730416372619 405,294.5786873676782 275,294.5786873676782Z" style="stroke: rgb(68, 68, 68); stroke-opacity: 1; fill: rgb(144, 238, 144); fill-opacity: 1; stroke-width: 0; opacity: 1;"/><path class="sankey-link" d="M275,294.5786873676782C405,294.5786873676782 405,265.1387438249824 535,265.1387438249824L535,284.82822865208186C405,284.82822865208186 405,314.26817219477766 275,314.26817219477766Z" style="stroke: rgb(68, 68, 68); stroke-opacity: 1; fill: rgb(144, 238, 144); fill-opacity: 1; stroke-width: 0; opacity: 1;"/><path class="sankey-link" d="M275,314.26817219477766C405,314.26817219477766 405,324.7878616796048 535,324.7878616796048L535,329.65730416372617C405,329.65730416372617 405,319.137614678899 275,319.137614678899Z" style="stroke: rgb(68, 68, 68); stroke-opacity: 1; fill: rgb(144, 238, 144); fill-opacity: 1; stroke-width: 0; opacity: 1;"/><path class="sankey-link" d="M275,319.13761467889907C405,319.13761467889907 405,359.621736062103 535,359.621736062103L535,364.9146083274523C405,364.9146083274523 405,324.43048694424834 275,324.43048694424834Z" style="stroke: rgb(68, 68, 68); stroke-opacity: 1; fill: rgb(144, 238, 144); fill-opacity: 1; stroke-width: 0; opacity: 1;"/><path class="sankey-link" d="M275,16.095130557515844C405,16.095130557515844 405,7.758645024700101 535,7.758645024700101L535,17.709244883556842C405,17.709244883556842 405,26.045730416372585 275,26.045730416372585Z" style="stroke: rgb(68, 68, 68); stroke-opacity: 1; fill: rgb(255, 0, 0); fill-opacity: 1; stroke-width: 0; opacity: 1;"/><path class="sankey-link" d="M275,26.045730416372585C405,26.045730416372585 405,72.060691601976 535,72.060691601976L535,75.65984474241355C405,75.65984474241355 405,29.64488355681013 275,29.64488355681013Z" style="stroke: rgb(68, 68, 68); stroke-opacity: 1; fill: rgb(255, 0, 0); fill-opacity: 1; stroke-width: 0; opacity: 1;"/><path class="sankey-link" d="M275,29.644883556810136C405,29.644883556810136 405,106.35257586450246 535,106.35257586450246L535,193.15568101623148C405,193.15568101623148 405,116.44798870853916 275,116.44798870853916Z" style="stroke: rgb(68, 68, 68); stroke-opacity: 1; fill: rgb(255, 0, 0); fill-opacity: 1; stroke-width: 0; opacity: 1;"/><path class="sankey-link" d="M275,116.44798870853914C405,116.44798870853914 405,316.7426958362738 535,316.7426958362738L535,319.0715596330275C405,319.0715596330275 405,118.77685250529284 275,118.77685250529284Z" style="stroke: rgb(68, 68, 68); stroke-opacity: 1; fill: rgb(255, 0, 0); fill-opacity: 1; stroke-width: 0; opacity: 1;"/><path class="sankey-link" d="M275,118.77685250529285C405,118.77685250529285 405,339.0853916725476 535,339.0853916725476L535,345.01340860973886C405,345.01340860973886 405,124.7048694424841 275,124.7048694424841Z" style="stroke: rgb(68, 68, 68); stroke-opacity: 1; fill: rgb(255, 0, 0); fill-opacity: 1; stroke-width: 0; opacity: 1;"/><path class="sankey-link" d="M275,135.1875793930841C405,135.1875793930841 405,17.709244883556842 535,17.709244883556842L535,38.66901905434019C405,38.66901905434019 405,156.14735356386745 275,156.14735356386745Z" style="stroke: rgb(68, 68, 68); stroke-opacity: 1; fill: rgb(240, 128, 128); fill-opacity: 1; stroke-width: 0; opacity: 1;"/><path class="sankey-link" d="M275,156.14735356386745C405,156.14735356386745 405,75.65984474241355 535,75.65984474241355L535,82.01129146083275C405,82.01129146083275 405,162.49880028228665 275,162.49880028228665Z" style="stroke: rgb(68, 68, 68); stroke-opacity: 1; fill: rgb(240, 128, 128); fill-opacity: 1; stroke-width: 0; opacity: 1;"/><path class="sankey-link" d="M275,162.49880028228665C405,162.49880028228665 405,193.15568101623148 535,193.15568101623148L535,243.7555398729711C405,243.7555398729711 405,213.09865913902627 275,213.09865913902627Z" style="stroke: rgb(68, 68, 68); stroke-opacity: 1; fill: rgb(240, 128, 128); fill-opacity: 1; stroke-width: 0; opacity: 1;"/><path class="sankey-link" d="M275,213.09865913902624C405,213.09865913902624 405,319.0715596330275 535,319.0715596330275L535,322.88242766407905C405,322.88242766407905 405,216.90952717007778 275,216.90952717007778Z" style="stroke: rgb(68, 68, 68); stroke-opacity: 1; fill: rgb(240, 128, 128); fill-opacity: 1; stroke-width: 0; opacity: 1;"/><path class="sankey-link" d="M275,216.90952717007775C405,216.90952717007775 405,345.01340860973886 535,345.01340860973886L535,357.71630204657725C405,357.71630204657725 405,229.61242060691615 275,229.61242060691615Z" style="stroke: rgb(68, 68, 68); stroke-opacity: 1; fill: rgb(240, 128, 128); fill-opacity: 1; stroke-width: 0; opacity: 1;"/><path class="sankey-link" d="M275,333.7318278052222C405,333.7318278052222 405,55.60621030345805 535,55.60621030345805L535,56.24135497529996C405,56.24135497529996 405,334.3669724770641 275,334.3669724770641Z" style="stroke: rgb(100, 149, 237); stroke-opacity: 1; fill: rgb(100, 149, 237); fill-opacity: 1; stroke-width: 1; opacity: 1;"/><path class="sankey-link" d="M275,334.36697247706417C405,334.36697247706417 405,86.45730416372619 535,86.45730416372619L535,87.93930839802401C405,87.93930839802401 405,335.848976711362 275,335.848976711362Z" style="stroke: rgb(68, 68, 68); stroke-opacity: 1; fill: rgb(100, 149, 237); fill-opacity: 1; stroke-width: 0; opacity: 1;"/><path class="sankey-link" d="M275,335.84897671136196C405,335.84897671136196 405,284.82822865208186 535,284.82822865208186L535,303.24742413549757C405,303.24742413549757 405,354.26817219477766 275,354.26817219477766Z" style="stroke: rgb(68, 68, 68); stroke-opacity: 1; fill: rgb(100, 149, 237); fill-opacity: 1; stroke-width: 0; opacity: 1;"/></g><g class="sankey-node-set" style="cursor: move;"><g class="sankey-node" transform="translate(22.000,341.732)" style="opacity: 1;"><rect class="node-rect" width="10" height="20.53634438955544" style="stroke-width: 0.5; stroke: rgb(0, 0, 0); stroke-opacity: 1; fill: rgb(255, 215, 0); fill-opacity: 1;"/><text class="node-label" data-notex="1" x="0" y="0" text-anchor="start" transform="translate(13.25,13.76817219477772)" style="cursor: default; font-family: 'Open Sans', verdana, arial, sans-serif; font-size: 10px; fill: rgb(42, 63, 95); fill-opacity: 1; white-space: pre; text-shadow: white 1px 1px 1px, white -1px -1px 1px, white 1px -1px 1px, white -1px 1px 1px;">COSMIC</text></g><g class="sankey-node" transform="translate(22.000,10.408)" style="opacity: 1;"><rect class="node-rect" width="10" height="267.1841919548342" style="stroke-width: 0.5; stroke: rgb(0, 0, 0); stroke-opacity: 1; fill: rgb(173, 216, 230); fill-opacity: 1;"/><text class="node-label" data-notex="1" x="0" y="0" text-anchor="start" transform="translate(13.25,137.0920959774171)" style="cursor: default; font-family: 'Open Sans', verdana, arial, sans-serif; font-size: 10px; fill: rgb(42, 63, 95); fill-opacity: 1; white-space: pre; text-shadow: white 1px 1px 1px, white -1px -1px 1px, white 1px -1px 1px, white -1px 1px 1px;">UniProt</text></g><g class="sankey-node" transform="translate(22.000,315.766)" style="opacity: 1;"><rect class="node-rect" width="10" height="8.46859562455893" style="stroke-width: 0.5; stroke: rgb(0, 0, 0); stroke-opacity: 1; fill: rgb(128, 128, 128); fill-opacity: 1;"/><text class="node-label" data-notex="1" x="0" y="0" text-anchor="start" transform="translate(13.25,7.734297812279465)" style="cursor: default; font-family: 'Open Sans', verdana, arial, sans-serif; font-size: 10px; fill: rgb(42, 63, 95); fill-opacity: 1; white-space: pre; text-shadow: white 1px 1px 1px, white -1px -1px 1px, white 1px -1px 1px, white -1px 1px 1px;">PubMed</text></g><g class="sankey-node" transform="translate(22.000,299.212)" style="opacity: 1;"><rect class="node-rect" width="10" height="3.1757233592095417" style="stroke-width: 0.5; stroke: rgb(0, 0, 0); stroke-opacity: 1; fill: rgb(128, 128, 128); fill-opacity: 1;"/><text class="node-label" data-notex="1" x="0" y="0" text-anchor="start" transform="translate(13.25,5.087861679604771)" style="cursor: default; font-family: 'Open Sans', verdana, arial, sans-serif; font-size: 10px; fill: rgb(42, 63, 95); fill-opacity: 1; white-space: pre; text-shadow: white 1px 1px 1px, white -1px -1px 1px, white 1px -1px 1px, white -1px 1px 1px;">UniProt+PubMed</text></g><g class="sankey-node" transform="translate(265.000,238.216)" style="opacity: 1;"><rect class="node-rect" width="10" height="35.56810162314744" style="stroke-width: 0.5; stroke: rgb(0, 0, 0); stroke-opacity: 1; fill: rgb(0, 128, 0); fill-opacity: 1;"/><text class="node-label" data-notex="1" x="0" y="0" text-anchor="start" transform="translate(13.25,21.28405081157372)" style="cursor: default; font-family: 'Open Sans', verdana, arial, sans-serif; font-size: 10px; fill: rgb(42, 63, 95); fill-opacity: 1; white-space: pre; text-shadow: white 1px 1px 1px, white -1px -1px 1px, white 1px -1px 1px, white -1px 1px 1px;">activating</text></g><g class="sankey-node" transform="translate(265.000,283.570)" style="opacity: 1;"><rect class="node-rect" width="10" height="40.8609738884968" style="stroke-width: 0.5; stroke: rgb(0, 0, 0); stroke-opacity: 1; fill: rgb(144, 238, 144); fill-opacity: 1;"/><text class="node-label" data-notex="1" x="0" y="0" text-anchor="start" transform="translate(13.25,23.9304869442484)" style="cursor: default; font-family: 'Open Sans', verdana, arial, sans-serif; font-size: 10px; fill: rgb(42, 63, 95); fill-opacity: 1; white-space: pre; text-shadow: white 1px 1px 1px, white -1px -1px 1px, white 1px -1px 1px, white -1px 1px 1px;">increase</text></g><g class="sankey-node" transform="translate(265.000,16.095)" style="opacity: 1;"><rect class="node-rect" width="10" height="108.60973888496832" style="stroke-width: 0.5; stroke: rgb(0, 0, 0); stroke-opacity: 1; fill: rgb(255, 0, 0); fill-opacity: 1;"/><text class="node-label" data-notex="1" x="0" y="0" text-anchor="start" transform="translate(13.25,57.80486944248416)" style="cursor: default; font-family: 'Open Sans', verdana, arial, sans-serif; font-size: 10px; fill: rgb(42, 63, 95); fill-opacity: 1; white-space: pre; text-shadow: white 1px 1px 1px, white -1px -1px 1px, white 1px -1px 1px, white -1px 1px 1px;">loss</text></g><g class="sankey-node" transform="translate(265.000,135.188)" style="opacity: 1;"><rect class="node-rect" width="10" height="94.42484121383177" style="stroke-width: 0.5; stroke: rgb(0, 0, 0); stroke-opacity: 1; fill: rgb(240, 128, 128); fill-opacity: 1;"/><text class="node-label" data-notex="1" x="0" y="0" text-anchor="start" transform="translate(13.25,50.712420606915884)" style="cursor: default; font-family: 'Open Sans', verdana, arial, sans-serif; font-size: 10px; fill: rgb(42, 63, 95); fill-opacity: 1; white-space: pre; text-shadow: white 1px 1px 1px, white -1px -1px 1px, white 1px -1px 1px, white -1px 1px 1px;">decrease</text></g><g class="sankey-node" transform="translate(265.000,333.732)" style="opacity: 1;"><rect class="node-rect" width="10" height="20.536344389555552" style="stroke-width: 0.5; stroke: rgb(0, 0, 0); stroke-opacity: 1; fill: rgb(100, 149, 237); fill-opacity: 1;"/><text class="node-label" data-notex="1" x="0" y="0" text-anchor="start" transform="translate(13.25,13.768172194777776)" style="cursor: default; font-family: 'Open Sans', verdana, arial, sans-serif; font-size: 10px; fill: rgb(42, 63, 95); fill-opacity: 1; white-space: pre; text-shadow: white 1px 1px 1px, white -1px -1px 1px, white 1px -1px 1px, white -1px 1px 1px;">resistance</text></g><g class="sankey-node" transform="translate(535.000,7.759)" style="opacity: 1;"><rect class="node-rect" width="10" height="48.4827099505998" style="stroke-width: 0.5; stroke: rgb(0, 0, 0); stroke-opacity: 1; fill: rgb(128, 128, 128); fill-opacity: 1;"/><text class="node-label" data-notex="1" x="0" y="0" text-anchor="end" transform="translate(-3.25,27.7413549752999)" style="cursor: default; font-family: 'Open Sans', verdana, arial, sans-serif; font-size: 10px; fill: rgb(42, 63, 95); fill-opacity: 1; white-space: pre; text-shadow: white 1px 1px 1px, white -1px -1px 1px, white 1px -1px 1px, white -1px 1px 1px;">nkd</text></g><g class="sankey-node" transform="translate(535.000,72.061)" style="opacity: 1;"><rect class="node-rect" width="10" height="15.878616796047993" style="stroke-width: 0.5; stroke: rgb(0, 0, 0); stroke-opacity: 1; fill: rgb(128, 128, 128); fill-opacity: 1;"/><text class="node-label" data-notex="1" x="0" y="0" text-anchor="end" transform="translate(-3.25,11.439308398023996)" style="cursor: default; font-family: 'Open Sans', verdana, arial, sans-serif; font-size: 10px; fill: rgb(42, 63, 95); fill-opacity: 1; white-space: pre; text-shadow: white 1px 1px 1px, white -1px -1px 1px, white 1px -1px 1px, white -1px 1px 1px;">ntkd</text></g><g class="sankey-node" transform="translate(535.000,106.353)" style="opacity: 1;"><rect class="node-rect" width="10" height="196.8948482709951" style="stroke-width: 0.5; stroke: rgb(0, 0, 0); stroke-opacity: 1; fill: rgb(128, 128, 128); fill-opacity: 1;"/><text class="node-label" data-notex="1" x="0" y="0" text-anchor="end" transform="translate(-3.25,101.94742413549756)" style="cursor: default; font-family: 'Open Sans', verdana, arial, sans-serif; font-size: 10px; fill: rgb(42, 63, 95); fill-opacity: 1; white-space: pre; text-shadow: white 1px 1px 1px, white -1px -1px 1px, white 1px -1px 1px, white -1px 1px 1px;">kd</text></g><g class="sankey-node" transform="translate(535.000,316.743)" style="opacity: 1;"><rect class="node-rect" width="10" height="12.914608327452356" style="stroke-width: 0.5; stroke: rgb(0, 0, 0); stroke-opacity: 1; fill: rgb(128, 128, 128); fill-opacity: 1;"/><text class="node-label" data-notex="1" x="0" y="0" text-anchor="end" transform="translate(-3.25,9.957304163726178)" style="cursor: default; font-family: 'Open Sans', verdana, arial, sans-serif; font-size: 10px; fill: rgb(42, 63, 95); fill-opacity: 1; white-space: pre; text-shadow: white 1px 1px 1px, white -1px -1px 1px, white 1px -1px 1px, white -1px 1px 1px;">ctkd</text></g><g class="sankey-node" transform="translate(535.000,339.085)" style="opacity: 1;"><rect class="node-rect" width="10" height="25.829216654904826" style="stroke-width: 0.5; stroke: rgb(0, 0, 0); stroke-opacity: 1; fill: rgb(128, 128, 128); fill-opacity: 1;"/><text class="node-label" data-notex="1" x="0" y="0" text-anchor="end" transform="translate(-3.25,16.414608327452413)" style="cursor: default; font-family: 'Open Sans', verdana, arial, sans-serif; font-size: 10px; fill: rgb(42, 63, 95); fill-opacity: 1; white-space: pre; text-shadow: white 1px 1px 1px, white -1px -1px 1px, white 1px -1px 1px, white -1px 1px 1px;">ckd</text></g></g></g><defs id="topdefs-097204"><g class="clips"/></defs><g class="layer-above"><g class="imagelayer"/><g class="shapelayer"/></g><g class="infolayer"><g class="g-gtitle"><text class="gtitle" x="35" y="50" text-anchor="start" dy="0em" style="font-family: 'Open Sans', verdana, arial, sans-serif; font-size: 14px; fill: rgb(42, 63, 95); opacity: 1; font-weight: normal; white-space: pre;">Basic Sankey Diagram</text></g><g class="first-render"/></g></svg>