<svg class="main-svg" xmlns="http://www.w3.org/2000/svg" xmlns:xlink="http://www.w3.org/1999/xlink" width="700" height="500" style="" viewBox="0 0 700 500"><rect x="0" y="0" width="700" height="500" style="fill: rgb(255, 255, 255); fill-opacity: 1;"/><defs id="defs-1b9a9c"><g class="clips"/><g class="gradients"/><g class="patterns"/></defs><g class="bglayer"/><g class="layer-below"><g class="imagelayer"/><g class="shapelayer"/></g><g class="cartesianlayer"/><g class="polarlayer"/><g class="smithlayer"/><g class="ternarylayer"/><g class="geolayer"/><g class="funnelarealayer"/><g class="pielayer"/><g class="iciclelayer"/><g class="treemaplayer"/><g class="sunburstlayer"/><g class="glimages"/><g class="sankey" transform="translate(80,100)matrix(1 0 0 1 0 0)" style="box-sizing: content-box; position: absolute; left: 0px; shape-rendering: geometricprecision; pointer-events: auto;"><g class="sankey-links" style="fill: none;"><path class="sankey-link" d="M32,341.378612716763C148.5,341.378612716763 148.5,333.37861271676303 265,333.37861271676303L265,354.62138728323697C148.5,354.62138728323697 148.5,362.6213872832369 32,362.6213872832369Z" style="stroke: rgb(68, 68, 68); stroke-opacity: 1; fill: rgb(255, 215, 0); fill-opacity: 1; stroke-width: 0; opacity: 1;"/><path class="sankey-link" d="M32,210.4378612716763C148.5,210.4378612716763 148.5,236.92485549132948 265,236.92485549132948L265,264.8872832369942C148.5,264.8872832369942 148.5,238.40028901734104 32,238.40028901734104Z" style="stroke: rgb(68, 68, 68); stroke-opacity: 1; fill: rgb(173, 216, 230); fill-opacity: 1; stroke-width: 0; opacity: 1;"/><path class="sankey-link" d="M32,238.40028901734104C148.5,238.40028901734104 148.5,284.0578034682081 265,284.0578034682081L265,323.9421965317919C148.5,323.9421965317919 148.5,278.2846820809249 32,278.2846820809249Z" style="stroke: rgb(68, 68, 68); stroke-opacity: 1; fill: rgb(173, 216, 230); fill-opacity: 1; stroke-width: 0; opacity: 1;"/><path class="sankey-link" d="M32,9.715317919075119C148.5,9.715317919075119 148.5,16.317630057803413 265,16.317630057803413L265,124.48236994219648C148.5,124.48236994219648 148.5,117.88005780346819 32,117.88005780346819Z" style="stroke: rgb(68, 68, 68); stroke-opacity: 1; fill: rgb(173, 216, 230); fill-opacity: 1; stroke-width: 0; opacity: 1;"/><path class="sankey-link" d="M32,117.88005780346819C148.5,117.88005780346819 148.5,136.12109826589602 265,136.12109826589602L265,228.6789017341041C148.5,228.6789017341041 148.5,210.43786127167627 32,210.43786127167627Z" style="stroke: rgb(68, 68, 68); stroke-opacity: 1; fill: rgb(173, 216, 230); fill-opacity: 1; stroke-width: 0; opacity: 1;"/><path class="sankey-link" d="M32,315.8815028901734C148.5,315.8815028901734 148.5,266.83815028901734 265,266.83815028901734L265,275.0751445086705C148.5,275.0751445086705 148.5,324.1184971098266 32,324.1184971098266Z" style="stroke: rgb(68, 68, 68); stroke-opacity: 1; fill: rgb(192, 192, 192); fill-opacity: 1; stroke-width: 0; opacity: 1;"/><path class="sankey-link" d="M32,299.8245664739884C148.5,299.8245664739884 148.5,264.8872832369942 265,264.8872832369942L265,266.83815028901734C148.5,266.83815028901734 148.5,301.7754335260115 32,301.7754335260115Z" style="stroke: rgb(68, 68, 68); stroke-opacity: 1; fill: rgb(192, 192, 192); fill-opacity: 1; stroke-width: 0; opacity: 1;"/><path class="sankey-link" d="M275,236.92485549132948C405,236.92485549132948 405,40.99566473988425 535,40.99566473988425L535,50.74999999999986C405,50.74999999999986 405,246.6791907514451 275,246.6791907514451Z" style="stroke: rgb(68, 68, 68); stroke-opacity: 1; fill: rgb(0, 128, 0); fill-opacity: 1; stroke-width: 0; opacity: 1;"/><path class="sankey-link" d="M275,246.67919075144505C405,246.67919075144505 405,230.80057803468208 535,230.80057803468208L535,252.26011560693644C405,252.26011560693644 405,268.1387283236994 275,268.1387283236994Z" style="stroke: rgb(68, 68, 68); stroke-opacity: 1; fill: rgb(0, 128, 0); fill-opacity: 1; stroke-width: 0; opacity: 1;"/><path class="sankey-link" d="M275,268.1387283236994C405,268.1387283236994 405,348.6604046242775 535,348.6604046242775L535,352.5621387283237C405,352.5621387283237 405,272.04046242774564 275,272.04046242774564Z" style="stroke: rgb(68, 68, 68); stroke-opacity: 1; fill: rgb(0, 128, 0); fill-opacity: 1; stroke-width: 0; opacity: 1;"/><path class="sankey-link" d="M275,284.0578034682081C405,284.0578034682081 405,50.74999999999986 535,50.74999999999986L535,60.07080924855477C405,60.07080924855477 405,293.37861271676303 275,293.37861271676303Z" style="stroke: rgb(68, 68, 68); stroke-opacity: 1; fill: rgb(144, 238, 144); fill-opacity: 1; stroke-width: 0; opacity: 1;"/><path class="sankey-link" d="M275,293.378612716763C405,293.378612716763 405,252.2601156069364 535,252.2601156069364L535,272.41907514450867C405,272.41907514450867 405,313.53757225433526 275,313.53757225433526Z" style="stroke: rgb(68, 68, 68); stroke-opacity: 1; fill: rgb(144, 238, 144); fill-opacity: 1; stroke-width: 0; opacity: 1;"/><path class="sankey-link" d="M275,313.5375722543352C405,313.5375722543352 405,352.5621387283237 535,352.5621387283237L535,362.9667630057803C405,362.9667630057803 405,323.9421965317918 275,323.9421965317918Z" style="stroke: rgb(68, 68, 68); stroke-opacity: 1; fill: rgb(144, 238, 144); fill-opacity: 1; stroke-width: 0; opacity: 1;"/><path class="sankey-link" d="M275,16.317630057803406C405,16.317630057803406 405,1.7615606936414707 535,1.7615606936414707L535,14.984104046242628C405,14.984104046242628 405,29.540173410404563 275,29.540173410404563Z" style="stroke: rgb(68, 68, 68); stroke-opacity: 1; fill: rgb(255, 0, 0); fill-opacity: 1; stroke-width: 0; opacity: 1;"/><path class="sankey-link" d="M275,29.540173410404563C405,29.540173410404563 405,92.9393063583815 535,92.9393063583815L535,180.51156069364163C405,180.51156069364163 405,117.11242774566468 275,117.11242774566468Z" style="stroke: rgb(68, 68, 68); stroke-opacity: 1; fill: rgb(255, 0, 0); fill-opacity: 1; stroke-width: 0; opacity: 1;"/><path class="sankey-link" d="M275,117.11242774566468C405,117.11242774566468 405,325.0332369942197 535,325.0332369942197L535,332.40317919075153C405,332.40317919075153 405,124.48236994219646 275,124.48236994219646Z" style="stroke: rgb(68, 68, 68); stroke-opacity: 1; fill: rgb(255, 0, 0); fill-opacity: 1; stroke-width: 0; opacity: 1;"/><path class="sankey-link" d="M275,136.12109826589602C405,136.12109826589602 405,14.984104046242628 535,14.984104046242628L535,40.99566473988425C405,40.99566473988425 405,162.13265895953765 275,162.13265895953765Z" style="stroke: rgb(68, 68, 68); stroke-opacity: 1; fill: rgb(240, 128, 128); fill-opacity: 1; stroke-width: 0; opacity: 1;"/><path class="sankey-link" d="M275,162.13265895953765C405,162.13265895953765 405,180.51156069364163 535,180.51156069364163L535,230.80057803468208C405,230.80057803468208 405,212.4216763005781 275,212.4216763005781Z" style="stroke: rgb(68, 68, 68); stroke-opacity: 1; fill: rgb(240, 128, 128); fill-opacity: 1; stroke-width: 0; opacity: 1;"/><path class="sankey-link" d="M275,212.4216763005781C405,212.4216763005781 405,332.4031791907515 535,332.4031791907515L535,348.66040462427753C405,348.66040462427753 405,228.6789017341041 275,228.6789017341041Z" style="stroke: rgb(68, 68, 68); stroke-opacity: 1; fill: rgb(240, 128, 128); fill-opacity: 1; stroke-width: 0; opacity: 1;"/><path class="sankey-link" d="M275,333.37861271676303C405,333.37861271676303 405,60.070809248554774 535,60.070809248554774L535,62.23843930635824C405,62.23843930635824 405,335.54624277456645 275,335.54624277456645Z" style="stroke: rgb(68, 68, 68); stroke-opacity: 1; fill: rgb(100, 149, 237); fill-opacity: 1; stroke-width: 0; opacity: 1;"/><path class="sankey-link" d="M275,335.5462427745665C405,335.5462427745665 405,272.41907514450867 535,272.41907514450867L535,291.06069364161846C405,291.06069364161846 405,354.1878612716763 275,354.1878612716763Z" style="stroke: rgb(68, 68, 68); stroke-opacity: 1; fill: rgb(100, 149, 237); fill-opacity: 1; stroke-width: 0; opacity: 1;"/></g><g class="sankey-node-set" style="cursor: move;"><g class="sankey-node" transform="translate(22.000,341.379)" style="opacity: 1;"><rect class="node-rect" width="10" height="21.242774566474054" style="stroke-width: 0.5; stroke: rgb(0, 0, 0); stroke-opacity: 1; fill: rgb(255, 215, 0); fill-opacity: 1;"/><text class="node-label" data-notex="1" x="0" y="0" text-anchor="start" transform="translate(13.25,14.121387283237027)" style="cursor: default; font-family: 'Open Sans', verdana, arial, sans-serif; font-size: 10px; fill: rgb(42, 63, 95); fill-opacity: 1; white-space: pre; text-shadow: white 1px 1px 1px, white -1px -1px 1px, white 1px -1px 1px, white -1px 1px 1px;">COSMIC</text></g><g class="sankey-node" transform="translate(22.000,9.715)" style="opacity: 1;"><rect class="node-rect" width="10" height="268.56936416184976" style="stroke-width: 0.5; stroke: rgb(0, 0, 0); stroke-opacity: 1; fill: rgb(173, 216, 230); fill-opacity: 1;"/><text class="node-label" data-notex="1" x="0" y="0" text-anchor="start" transform="translate(13.25,137.78468208092488)" style="cursor: default; font-family: 'Open Sans', verdana, arial, sans-serif; font-size: 10px; fill: rgb(42, 63, 95); fill-opacity: 1; white-space: pre; text-shadow: white 1px 1px 1px, white -1px -1px 1px, white 1px -1px 1px, white -1px 1px 1px;">UniProt</text></g><g class="sankey-node" transform="translate(22.000,315.882)" style="opacity: 1;"><rect class="node-rect" width="10" height="8.236994219653184" style="stroke-width: 0.5; stroke: rgb(0, 0, 0); stroke-opacity: 1; fill: rgb(128, 128, 128); fill-opacity: 1;"/><text class="node-label" data-notex="1" x="0" y="0" text-anchor="start" transform="translate(13.25,7.618497109826592)" style="cursor: default; font-family: 'Open Sans', verdana, arial, sans-serif; font-size: 10px; fill: rgb(42, 63, 95); fill-opacity: 1; white-space: pre; text-shadow: white 1px 1px 1px, white -1px -1px 1px, white 1px -1px 1px, white -1px 1px 1px;">PubMed</text></g><g class="sankey-node" transform="translate(22.000,299.825)" style="opacity: 1;"><rect class="node-rect" width="10" height="1.9508670520231135" style="stroke-width: 0.5; stroke: rgb(0, 0, 0); stroke-opacity: 1; fill: rgb(128, 128, 128); fill-opacity: 1;"/><text class="node-label" data-notex="1" x="0" y="0" text-anchor="start" transform="translate(13.25,4.475433526011557)" style="cursor: default; font-family: 'Open Sans', verdana, arial, sans-serif; font-size: 10px; fill: rgb(42, 63, 95); fill-opacity: 1; white-space: pre; text-shadow: white 1px 1px 1px, white -1px -1px 1px, white 1px -1px 1px, white -1px 1px 1px;">UniProt+PubMed</text></g><g class="sankey-node" transform="translate(265.000,236.925)" style="opacity: 1;"><rect class="node-rect" width="10" height="38.15028901734104" style="stroke-width: 0.5; stroke: rgb(0, 0, 0); stroke-opacity: 1; fill: rgb(0, 128, 0); fill-opacity: 1;"/><text class="node-label" data-notex="1" x="0" y="0" text-anchor="start" transform="translate(13.25,22.57514450867052)" style="cursor: default; font-family: 'Open Sans', verdana, arial, sans-serif; font-size: 10px; fill: rgb(42, 63, 95); fill-opacity: 1; white-space: pre; text-shadow: white 1px 1px 1px, white -1px -1px 1px, white 1px -1px 1px, white -1px 1px 1px;">Constitutive-activation</text></g><g class="sankey-node" transform="translate(265.000,284.058)" style="opacity: 1;"><rect class="node-rect" width="10" height="39.88439306358384" style="stroke-width: 0.5; stroke: rgb(0, 0, 0); stroke-opacity: 1; fill: rgb(144, 238, 144); fill-opacity: 1;"/><text class="node-label" data-notex="1" x="0" y="0" text-anchor="start" transform="translate(13.25,23.44219653179192)" style="cursor: default; font-family: 'Open Sans', verdana, arial, sans-serif; font-size: 10px; fill: rgb(42, 63, 95); fill-opacity: 1; white-space: pre; text-shadow: white 1px 1px 1px, white -1px -1px 1px, white 1px -1px 1px, white -1px 1px 1px;">Increase</text></g><g class="sankey-node" transform="translate(265.000,16.318)" style="opacity: 1;"><rect class="node-rect" width="10" height="108.16473988439321" style="stroke-width: 0.5; stroke: rgb(0, 0, 0); stroke-opacity: 1; fill: rgb(255, 0, 0); fill-opacity: 1;"/><text class="node-label" data-notex="1" x="0" y="0" text-anchor="start" transform="translate(13.25,57.58236994219661)" style="cursor: default; font-family: 'Open Sans', verdana, arial, sans-serif; font-size: 10px; fill: rgb(42, 63, 95); fill-opacity: 1; white-space: pre; text-shadow: white 1px 1px 1px, white -1px -1px 1px, white 1px -1px 1px, white -1px 1px 1px;">Loss</text></g><g class="sankey-node" transform="translate(265.000,136.121)" style="opacity: 1;"><rect class="node-rect" width="10" height="92.55780346820791" style="stroke-width: 0.5; stroke: rgb(0, 0, 0); stroke-opacity: 1; fill: rgb(240, 128, 128); fill-opacity: 1;"/><text class="node-label" data-notex="1" x="0" y="0" text-anchor="start" transform="translate(13.25,49.778901734103954)" style="cursor: default; font-family: 'Open Sans', verdana, arial, sans-serif; font-size: 10px; fill: rgb(42, 63, 95); fill-opacity: 1; white-space: pre; text-shadow: white 1px 1px 1px, white -1px -1px 1px, white 1px -1px 1px, white -1px 1px 1px;">Decrease</text></g><g class="sankey-node" transform="translate(265.000,333.379)" style="opacity: 1;"><rect class="node-rect" width="10" height="21.24277456647394" style="stroke-width: 0.5; stroke: rgb(0, 0, 0); stroke-opacity: 1; fill: rgb(100, 149, 237); fill-opacity: 1;"/><text class="node-label" data-notex="1" x="0" y="0" text-anchor="start" transform="translate(13.25,14.12138728323697)" style="cursor: default; font-family: 'Open Sans', verdana, arial, sans-serif; font-size: 10px; fill: rgb(42, 63, 95); fill-opacity: 1; white-space: pre; text-shadow: white 1px 1px 1px, white -1px -1px 1px, white 1px -1px 1px, white -1px 1px 1px;">Resistance</text></g><g class="sankey-node" transform="translate(535.000,1.762)" style="opacity: 1;"><rect class="node-rect" width="10" height="60.47687861271706" style="stroke-width: 0.5; stroke: rgb(0, 0, 0); stroke-opacity: 1; fill: rgb(128, 128, 128); fill-opacity: 1;"/><text class="node-label" data-notex="1" x="0" y="0" text-anchor="end" transform="translate(-3.25,33.73843930635853)" style="cursor: default; font-family: 'Open Sans', verdana, arial, sans-serif; font-size: 10px; fill: rgb(42, 63, 95); fill-opacity: 1; white-space: pre; text-shadow: white 1px 1px 1px, white -1px -1px 1px, white 1px -1px 1px, white -1px 1px 1px;">Upstream KD</text></g><g class="sankey-node" transform="translate(535.000,92.939)" style="opacity: 1;"><rect class="node-rect" width="10" height="198.121387283237" style="stroke-width: 0.5; stroke: rgb(0, 0, 0); stroke-opacity: 1; fill: rgb(128, 128, 128); fill-opacity: 1;"/><text class="node-label" data-notex="1" x="0" y="0" text-anchor="end" transform="translate(-3.25,102.5606936416185)" style="cursor: default; font-family: 'Open Sans', verdana, arial, sans-serif; font-size: 10px; fill: rgb(42, 63, 95); fill-opacity: 1; white-space: pre; text-shadow: white 1px 1px 1px, white -1px -1px 1px, white 1px -1px 1px, white -1px 1px 1px;">KD</text></g><g class="sankey-node" transform="translate(535.000,325.033)" style="opacity: 1;"><rect class="node-rect" width="10" height="37.933526011560616" style="stroke-width: 0.5; stroke: rgb(0, 0, 0); stroke-opacity: 1; fill: rgb(128, 128, 128); fill-opacity: 1;"/><text class="node-label" data-notex="1" x="0" y="0" text-anchor="end" transform="translate(-3.25,22.466763005780308)" style="cursor: default; font-family: 'Open Sans', verdana, arial, sans-serif; font-size: 10px; fill: rgb(42, 63, 95); fill-opacity: 1; white-space: pre; text-shadow: white 1px 1px 1px, white -1px -1px 1px, white 1px -1px 1px, white -1px 1px 1px;">Downstream KD</text></g></g></g><defs id="topdefs-1b9a9c"><g class="clips"/></defs><g class="layer-above"><g class="imagelayer"/><g class="shapelayer"/></g><g class="infolayer"><g class="g-gtitle"><text class="gtitle" x="35" y="50" text-anchor="start" dy="0em" style="font-family: 'Open Sans', verdana, arial, sans-serif; font-size: 14px; fill: rgb(42, 63, 95); opacity: 1; font-weight: normal; white-space: pre;">Basic Sankey Diagram</text></g><g class="first-render"/></g></svg>