<svg class="main-svg" xmlns="http://www.w3.org/2000/svg" xmlns:xlink="http://www.w3.org/1999/xlink" width="700" height="500" style="" viewBox="0 0 700 500"><rect x="0" y="0" width="700" height="500" style="fill: rgb(255, 255, 255); fill-opacity: 1;"/><defs id="defs-1c7359"><g class="clips"/><g class="gradients"/><g class="patterns"/></defs><g class="bglayer"/><g class="layer-below"><g class="imagelayer"/><g class="shapelayer"/></g><g class="cartesianlayer"/><g class="polarlayer"/><g class="smithlayer"/><g class="ternarylayer"/><g class="geolayer"/><g class="funnelarealayer"/><g class="pielayer"/><g class="iciclelayer"/><g class="treemaplayer"/><g class="sunburstlayer"/><g class="glimages"/><g class="sankey" transform="translate(80,100)matrix(1 0 0 1 0 0)" style="box-sizing: content-box; position: absolute; left: 0px; shape-rendering: geometricprecision; pointer-events: none;"><g class="sankey-links" style="fill: none;"><path class="sankey-link" d="M32,341.3090909090909C148.5,341.3090909090909 148.5,333.3090909090909 265,333.3090909090909L265,354.6909090909091C148.5,354.6909090909091 148.5,362.6909090909091 32,362.6909090909091Z" style="stroke: rgb(68, 68, 68); stroke-opacity: 1; fill: rgb(255, 215, 0); fill-opacity: 1; stroke-width: 0; opacity: 1;"/><path class="sankey-link" d="M32,210.87272727272722C148.5,210.87272727272722 148.5,237.78181818181818 265,237.78181818181818L265,265.92727272727274C148.5,265.92727272727274 148.5,239.01818181818174 32,239.01818181818174Z" style="stroke: rgb(68, 68, 68); stroke-opacity: 1; fill: rgb(173, 216, 230); fill-opacity: 1; stroke-width: 0; opacity: 1;"/><path class="sankey-link" d="M32,239.0181818181818C148.5,239.0181818181818 148.5,283.92727272727274 265,283.92727272727274L265,324.07272727272726C148.5,324.07272727272726 148.5,279.16363636363633 32,279.16363636363633Z" style="stroke: rgb(68, 68, 68); stroke-opacity: 1; fill: rgb(173, 216, 230); fill-opacity: 1; stroke-width: 0; opacity: 1;"/><path class="sankey-link" d="M32,8.836363636363586C148.5,8.836363636363586 148.5,15.963636363636375 265,15.963636363636375L265,124.83636363636364C148.5,124.83636363636364 148.5,117.70909090909085 32,117.70909090909085Z" style="stroke: rgb(68, 68, 68); stroke-opacity: 1; fill: rgb(173, 216, 230); fill-opacity: 1; stroke-width: 0; opacity: 1;"/><path class="sankey-link" d="M32,117.70909090909085C148.5,117.70909090909085 148.5,135.8181818181818 265,135.8181818181818L265,228.98181818181814C148.5,228.98181818181814 148.5,210.87272727272722 32,210.87272727272722Z" style="stroke: rgb(68, 68, 68); stroke-opacity: 1; fill: rgb(173, 216, 230); fill-opacity: 1; stroke-width: 0; opacity: 1;"/><path class="sankey-link" d="M32,309.4545454545455C148.5,309.4545454545455 148.5,265.92727272727274 265,265.92727272727274L265,274.2181818181818C148.5,274.2181818181818 148.5,317.74545454545455 32,317.74545454545455Z" style="stroke: rgb(68, 68, 68); stroke-opacity: 1; fill: rgb(192, 192, 192); fill-opacity: 1; stroke-width: 0; opacity: 1;"/><path class="sankey-link" d="M275,237.78181818181818C405,237.78181818181818 405,41.05454545454543 535,41.05454545454543L535,50.872727272727246C405,50.872727272727246 405,247.6 275,247.6Z" style="stroke: rgb(68, 68, 68); stroke-opacity: 1; fill: rgb(0, 128, 0); fill-opacity: 1; stroke-width: 0; opacity: 1;"/><path class="sankey-link" d="M275,247.59999999999997C405,247.59999999999997 405,231.05454545454538 535,231.05454545454538L535,252.6545454545454C405,252.6545454545454 405,269.2 275,269.2Z" style="stroke: rgb(68, 68, 68); stroke-opacity: 1; fill: rgb(0, 128, 0); fill-opacity: 1; stroke-width: 0; opacity: 1;"/><path class="sankey-link" d="M275,269.2C405,269.2 405,348.6909090909091 535,348.6909090909091L535,352.61818181818177C405,352.61818181818177 405,273.12727272727267 275,273.12727272727267Z" style="stroke: rgb(68, 68, 68); stroke-opacity: 1; fill: rgb(0, 128, 0); fill-opacity: 1; stroke-width: 0; opacity: 1;"/><path class="sankey-link" d="M275,283.92727272727274C405,283.92727272727274 405,50.87272727272725 535,50.87272727272725L535,60.25454545454543C405,60.25454545454543 405,293.3090909090909 275,293.3090909090909Z" style="stroke: rgb(68, 68, 68); stroke-opacity: 1; fill: rgb(144, 238, 144); fill-opacity: 1; stroke-width: 0; opacity: 1;"/><path class="sankey-link" d="M275,293.3090909090909C405,293.3090909090909 405,252.65454545454534 535,252.65454545454534L535,272.9454545454544C405,272.9454545454544 405,313.59999999999997 275,313.59999999999997Z" style="stroke: rgb(68, 68, 68); stroke-opacity: 1; fill: rgb(144, 238, 144); fill-opacity: 1; stroke-width: 0; opacity: 1;"/><path class="sankey-link" d="M275,313.6C405,313.6 405,352.6181818181818 535,352.6181818181818L535,363.0909090909091C405,363.0909090909091 405,324.0727272727273 275,324.0727272727273Z" style="stroke: rgb(68, 68, 68); stroke-opacity: 1; fill: rgb(144, 238, 144); fill-opacity: 1; stroke-width: 0; opacity: 1;"/><path class="sankey-link" d="M275,15.96363636363637C405,15.96363636363637 405,1.5636363636363484 535,1.5636363636363484L535,14.872727272727257C405,14.872727272727257 405,29.27272727272728 275,29.27272727272728Z" style="stroke: rgb(68, 68, 68); stroke-opacity: 1; fill: rgb(255, 0, 0); fill-opacity: 1; stroke-width: 0; opacity: 1;"/><path class="sankey-link" d="M275,29.272727272727273C405,29.272727272727273 405,92.29090909090903 535,92.29090909090903L535,180.43636363636355C405,180.43636363636355 405,117.41818181818181 275,117.41818181818181Z" style="stroke: rgb(68, 68, 68); stroke-opacity: 1; fill: rgb(255, 0, 0); fill-opacity: 1; stroke-width: 0; opacity: 1;"/><path class="sankey-link" d="M275,117.41818181818182C405,117.41818181818182 405,324.9090909090909 535,324.9090909090909L535,332.32727272727266C405,332.32727272727266 405,124.83636363636363 275,124.83636363636363Z" style="stroke: rgb(68, 68, 68); stroke-opacity: 1; fill: rgb(255, 0, 0); fill-opacity: 1; stroke-width: 0; opacity: 1;"/><path class="sankey-link" d="M275,135.81818181818178C405,135.81818181818178 405,14.872727272727257 535,14.872727272727257L535,41.05454545454543C405,41.05454545454543 405,161.99999999999997 275,161.99999999999997Z" style="stroke: rgb(68, 68, 68); stroke-opacity: 1; fill: rgb(240, 128, 128); fill-opacity: 1; stroke-width: 0; opacity: 1;"/><path class="sankey-link" d="M275,161.99999999999997C405,161.99999999999997 405,180.43636363636355 535,180.43636363636355L535,231.05454545454538C405,231.05454545454538 405,212.6181818181818 275,212.6181818181818Z" style="stroke: rgb(68, 68, 68); stroke-opacity: 1; fill: rgb(240, 128, 128); fill-opacity: 1; stroke-width: 0; opacity: 1;"/><path class="sankey-link" d="M275,212.6181818181818C405,212.6181818181818 405,332.3272727272727 535,332.3272727272727L535,348.6909090909091C405,348.6909090909091 405,228.98181818181817 275,228.98181818181817Z" style="stroke: rgb(68, 68, 68); stroke-opacity: 1; fill: rgb(240, 128, 128); fill-opacity: 1; stroke-width: 0; opacity: 1;"/><path class="sankey-link" d="M275,333.3090909090909C405,333.3090909090909 405,60.254545454545436 535,60.254545454545436L535,62.43636363636362C405,62.43636363636362 405,335.49090909090904 275,335.49090909090904Z" style="stroke: rgb(68, 68, 68); stroke-opacity: 1; fill: rgb(100, 149, 237); fill-opacity: 1; stroke-width: 0; opacity: 1;"/><path class="sankey-link" d="M275,335.4909090909091C405,335.4909090909091 405,272.9454545454545 535,272.9454545454545L535,291.70909090909083C405,291.70909090909083 405,354.25454545454545 275,354.25454545454545Z" style="stroke: rgb(68, 68, 68); stroke-opacity: 1; fill: rgb(100, 149, 237); fill-opacity: 1; stroke-width: 0; opacity: 1;"/></g><g class="sankey-node-set" style="cursor: move;"><g class="sankey-node" transform="translate(22.000,341.309)" style="opacity: 1;"><rect class="node-rect" width="10" height="21.381818181818176" style="stroke-width: 0.5; stroke: rgb(0, 0, 0); stroke-opacity: 1; fill: rgb(255, 215, 0); fill-opacity: 1;"/><text class="node-label" data-notex="1" x="0" y="0" text-anchor="start" transform="translate(13.25,14.190909090909088)" style="cursor: default; font-family: 'Open Sans', verdana, arial, sans-serif; font-size: 10px; fill: rgb(42, 63, 95); fill-opacity: 1; white-space: pre; text-shadow: white 1px 1px 1px, white -1px -1px 1px, white 1px -1px 1px, white -1px 1px 1px;">COSMIC</text></g><g class="sankey-node" transform="translate(22.000,8.836)" style="opacity: 1;"><rect class="node-rect" width="10" height="270.3272727272729" style="stroke-width: 0.5; stroke: rgb(0, 0, 0); stroke-opacity: 1; fill: rgb(173, 216, 230); fill-opacity: 1;"/><text class="node-label" data-notex="1" x="0" y="0" text-anchor="start" transform="translate(13.25,138.66363636363644)" style="cursor: default; font-family: 'Open Sans', verdana, arial, sans-serif; font-size: 10px; fill: rgb(42, 63, 95); fill-opacity: 1; white-space: pre; text-shadow: white 1px 1px 1px, white -1px -1px 1px, white 1px -1px 1px, white -1px 1px 1px;">UniProt</text></g><g class="sankey-node" transform="translate(22.000,309.455)" style="opacity: 1;"><rect class="node-rect" width="10" height="8.290909090909054" style="stroke-width: 0.5; stroke: rgb(0, 0, 0); stroke-opacity: 1; fill: rgb(128, 128, 128); fill-opacity: 1;"/><text class="node-label" data-notex="1" x="0" y="0" text-anchor="start" transform="translate(13.25,7.645454545454527)" style="cursor: default; font-family: 'Open Sans', verdana, arial, sans-serif; font-size: 10px; fill: rgb(42, 63, 95); fill-opacity: 1; white-space: pre; text-shadow: white 1px 1px 1px, white -1px -1px 1px, white 1px -1px 1px, white -1px 1px 1px;">Text Mining</text></g><g class="sankey-node" transform="translate(265.000,237.782)" style="opacity: 1;"><rect class="node-rect" width="10" height="36.436363636363666" style="stroke-width: 0.5; stroke: rgb(0, 0, 0); stroke-opacity: 1; fill: rgb(0, 128, 0); fill-opacity: 1;"/><text class="node-label" data-notex="1" x="0" y="0" text-anchor="start" transform="translate(13.25,21.718181818181833)" style="cursor: default; font-family: 'Open Sans', verdana, arial, sans-serif; font-size: 10px; fill: rgb(42, 63, 95); fill-opacity: 1; white-space: pre; text-shadow: white 1px 1px 1px, white -1px -1px 1px, white 1px -1px 1px, white -1px 1px 1px;">Constitutive-activation</text></g><g class="sankey-node" transform="translate(265.000,283.927)" style="opacity: 1;"><rect class="node-rect" width="10" height="40.14545454545453" style="stroke-width: 0.5; stroke: rgb(0, 0, 0); stroke-opacity: 1; fill: rgb(144, 238, 144); fill-opacity: 1;"/><text class="node-label" data-notex="1" x="0" y="0" text-anchor="start" transform="translate(13.25,23.572727272727263)" style="cursor: default; font-family: 'Open Sans', verdana, arial, sans-serif; font-size: 10px; fill: rgb(42, 63, 95); fill-opacity: 1; white-space: pre; text-shadow: white 1px 1px 1px, white -1px -1px 1px, white 1px -1px 1px, white -1px 1px 1px;">Increase</text></g><g class="sankey-node" transform="translate(265.000,15.964)" style="opacity: 1;"><rect class="node-rect" width="10" height="108.87272727272727" style="stroke-width: 0.5; stroke: rgb(0, 0, 0); stroke-opacity: 1; fill: rgb(255, 0, 0); fill-opacity: 1;"/><text class="node-label" data-notex="1" x="0" y="0" text-anchor="start" transform="translate(13.25,57.93636363636364)" style="cursor: default; font-family: 'Open Sans', verdana, arial, sans-serif; font-size: 10px; fill: rgb(42, 63, 95); fill-opacity: 1; white-space: pre; text-shadow: white 1px 1px 1px, white -1px -1px 1px, white 1px -1px 1px, white -1px 1px 1px;">Loss</text></g><g class="sankey-node" transform="translate(265.000,135.818)" style="opacity: 1;"><rect class="node-rect" width="10" height="93.16363636363639" style="stroke-width: 0.5; stroke: rgb(0, 0, 0); stroke-opacity: 1; fill: rgb(240, 128, 128); fill-opacity: 1;"/><text class="node-label" data-notex="1" x="0" y="0" text-anchor="start" transform="translate(13.25,50.08181818181819)" style="cursor: default; font-family: 'Open Sans', verdana, arial, sans-serif; font-size: 10px; fill: rgb(42, 63, 95); fill-opacity: 1; white-space: pre; text-shadow: white 1px 1px 1px, white -1px -1px 1px, white 1px -1px 1px, white -1px 1px 1px;">Decrease</text></g><g class="sankey-node" transform="translate(265.000,333.309)" style="opacity: 1;"><rect class="node-rect" width="10" height="21.381818181818176" style="stroke-width: 0.5; stroke: rgb(0, 0, 0); stroke-opacity: 1; fill: rgb(100, 149, 237); fill-opacity: 1;"/><text class="node-label" data-notex="1" x="0" y="0" text-anchor="start" transform="translate(13.25,14.190909090909088)" style="cursor: default; font-family: 'Open Sans', verdana, arial, sans-serif; font-size: 10px; fill: rgb(42, 63, 95); fill-opacity: 1; white-space: pre; text-shadow: white 1px 1px 1px, white -1px -1px 1px, white 1px -1px 1px, white -1px 1px 1px;">Resistance</text></g><g class="sankey-node" transform="translate(535.000,1.564)" style="opacity: 1;"><rect class="node-rect" width="10" height="60.8727272727273" style="stroke-width: 0.5; stroke: rgb(0, 0, 0); stroke-opacity: 1; fill: rgb(128, 128, 128); fill-opacity: 1;"/><text class="node-label" data-notex="1" x="0" y="0" text-anchor="end" transform="translate(-3.25,33.93636363636365)" style="cursor: default; font-family: 'Open Sans', verdana, arial, sans-serif; font-size: 10px; fill: rgb(42, 63, 95); fill-opacity: 1; white-space: pre; text-shadow: white 1px 1px 1px, white -1px -1px 1px, white 1px -1px 1px, white -1px 1px 1px;">Upstream KD</text></g><g class="sankey-node" transform="translate(535.000,92.291)" style="opacity: 1;"><rect class="node-rect" width="10" height="199.418181818182" style="stroke-width: 0.5; stroke: rgb(0, 0, 0); stroke-opacity: 1; fill: rgb(128, 128, 128); fill-opacity: 1;"/><text class="node-label" data-notex="1" x="0" y="0" text-anchor="end" transform="translate(-3.25,103.209090909091)" style="cursor: default; font-family: 'Open Sans', verdana, arial, sans-serif; font-size: 10px; fill: rgb(42, 63, 95); fill-opacity: 1; white-space: pre; text-shadow: white 1px 1px 1px, white -1px -1px 1px, white 1px -1px 1px, white -1px 1px 1px;">KD</text></g><g class="sankey-node" transform="translate(535.000,324.909)" style="opacity: 1;"><rect class="node-rect" width="10" height="38.181818181818244" style="stroke-width: 0.5; stroke: rgb(0, 0, 0); stroke-opacity: 1; fill: rgb(128, 128, 128); fill-opacity: 1;"/><text class="node-label" data-notex="1" x="0" y="0" text-anchor="end" transform="translate(-3.25,22.590909090909122)" style="cursor: default; font-family: 'Open Sans', verdana, arial, sans-serif; font-size: 10px; fill: rgb(42, 63, 95); fill-opacity: 1; white-space: pre; text-shadow: white 1px 1px 1px, white -1px -1px 1px, white 1px -1px 1px, white -1px 1px 1px;">Downstream KD</text></g></g></g><defs id="topdefs-1c7359"><g class="clips"/></defs><g class="layer-above"><g class="imagelayer"/><g class="shapelayer"/></g><g class="infolayer"><g class="g-gtitle"><text class="gtitle" x="35" y="50" text-anchor="start" dy="0em" style="font-family: 'Open Sans', verdana, arial, sans-serif; font-size: 14px; fill: rgb(42, 63, 95); opacity: 1; font-weight: normal; white-space: pre;">Basic Sankey Diagram</text></g><g class="first-render"/></g></svg>